<?xml version="1.0" standalone="no"?>
<!DOCTYPE svg PUBLIC "-//W3C//DTD SVG 1.1//EN" "http://www.w3.org/Graphics/SVG/1.1/DTD/svg11.dtd" >
<svg xmlns="http://www.w3.org/2000/svg" xmlns:xlink="http://www.w3.org/1999/xlink" version="1.1">
<metadata>
Created by FontForge 20170731 at Thu Aug 16 18:01:49 2007
 By ,,,
(c) 1995, 1996, 2002 Adobe Systems Incorporated. All rights reserved. (c) 1995, 1996, 2002 The Monotype Corporation. All rights reserved.
</metadata>
<defs>
<font id="BulmerMTStd-Regular" horiz-adv-x="490" >
  <font-face 
    font-family="Bulmer MT Std Regular"
    font-weight="400"
    font-stretch="normal"
    units-per-em="1000"
    panose-1="2 3 5 3 6 4 5 3 3 3"
    ascent="676"
    descent="-324"
    x-height="388"
    cap-height="644"
    bbox="-206 -259 1028 846"
    underline-thickness="50"
    underline-position="-200"
    unicode-range="U+0020-FB04"
  />
<missing-glyph horiz-adv-x="500" 
d="M0 0v700h500v-700h-500zM250 395l170 255h-340zM280 350l170 -255v510zM80 50h340l-170 255zM50 605v-510l170 255z" />
    <glyph glyph-name="f_f" unicode="ff" horiz-adv-x="501" 
d="M415 388h56q17 0 21.5 -4.5t4.5 -15.5q0 -9 -5.5 -13t-22.5 -4h-54v-281q0 -30 4.5 -35.5t30.5 -5.5q23 0 30 -3t7 -13q0 -16 -14 -16l-22 1q-22 0 -46.5 1t-31.5 1t-41.5 -1.5t-40.5 -1.5q-14 0 -14 15q0 9 5 11t28 3q17 1 20.5 8.5t3.5 35.5v281h-170v-275l1 -28
q1 -14 4.5 -16.5t20.5 -3.5q23 0 29 -2.5t6 -13.5q0 -15 -14 -15q-7 0 -43.5 1.5t-42.5 1.5q-7 0 -44 -1.5t-43 -1.5q-13 0 -13 14q0 11 6 13t30 3q15 1 18.5 7.5t3.5 35.5v281h-31q-17 0 -21 2.5t-4 13.5q0 16 3.5 18.5t21.5 2.5h31v69q0 113 48.5 166t126.5 53
q43 0 67.5 -20t24.5 -47q0 -22 -13.5 -35t-31.5 -13q-22 0 -31 14t-9 27q0 2 3.5 16t3.5 16q0 16 -24 16q-26 0 -43.5 -14.5t-26 -42.5t-11.5 -57.5t-3 -70.5v-77h170v69q0 31 5.5 60.5t18.5 58.5t33 51t51 35.5t70 13.5q49 0 75 -21.5t26 -46.5q0 -17 -12.5 -31t-32.5 -14
t-31 11t-11 26q0 6 3 14q6 18 6 20q0 16 -32 16q-31 0 -52 -29.5t-28.5 -69t-7.5 -86.5v-77z" />
    <glyph glyph-name="f_f_i" unicode="ffi" horiz-adv-x="742" 
d="M334 438q0 46 8.5 85t28 75t58.5 57t94 21q61 0 92 -24t31 -57q0 -20 -11.5 -35.5t-36.5 -15.5q-17 0 -30.5 11t-13.5 31q0 13 8 28q6 12 6 16q0 22 -43 22q-57 0 -83.5 -41.5t-26.5 -142.5v-80h92q23 0 60 3.5t45 3.5q36 6 44 6q9 0 9 -15q0 -6 -1 -38t-1 -49v-235
q0 -26 4 -31t25 -5q20 0 26.5 -2.5t6.5 -14.5q0 -14 -14 -14q-8 0 -46.5 1.5t-44.5 1.5t-39 -1.5t-38 -1.5q-16 0 -16 13q0 11 6 13.5t33 3.5q14 1 16.5 8t2.5 40v202q0 61 -12 69q-10 5 -54 5h-104v-300q0 -14 5.5 -16.5t29.5 -3.5q11 -1 15 -1.5t7 -4t3 -10.5
q0 -11 -4 -14.5t-19 -3.5q-6 0 -35 1.5t-34 1.5q-13 0 -46.5 -1.5t-46.5 -1.5q-14 0 -14 14q0 16 20 16q28 0 33 7.5t5 46.5v270h-170v-300q0 -13 4 -18t21 -5q25 0 30.5 -2t5.5 -14q0 -15 -15 -15q-7 0 -42.5 1.5t-41.5 1.5q-7 0 -44.5 -1.5t-43.5 -1.5q-11 0 -11 11
q0 13 3.5 15.5t20.5 2.5q23 0 27.5 6t4.5 32v287h-28q-19 0 -23 2.5t-4 16.5q0 13 3.5 15.5t19.5 2.5h32v89q0 81 42.5 140t129.5 59q49 0 73.5 -21.5t24.5 -45.5q0 -17 -10.5 -30.5t-32.5 -13.5q-16 0 -26 10t-10 24q0 3 2 16t2 15q0 21 -34 21q-20 0 -34.5 -8.5t-23 -26
t-13.5 -32.5t-6.5 -41t-2 -36.5t-0.5 -33.5v-85h170v50z" />
    <glyph glyph-name="f_f_l" unicode="ffl" horiz-adv-x="743" 
d="M334 351h-170v-279l1 -21q1 -8 1 -10t2 -6.5t7 -5.5t14 -1q25 0 30.5 -2t5.5 -14q0 -15 -15 -15q-7 0 -42.5 1.5t-40.5 1.5q-7 0 -45.5 -1.5t-44.5 -1.5q-11 0 -11 11q0 13 3.5 15.5t20.5 2.5q24 0 28.5 6t4.5 32v287h-29q-19 0 -23 2.5t-4 16.5q0 13 4 15.5t19 2.5h33
v67q0 105 43.5 163t129.5 58q44 0 71 -20.5t27 -46.5q0 -16 -10.5 -30t-32.5 -14q-16 0 -26 10t-10 24q0 3 1.5 16t1.5 15q0 21 -33 21q-44 0 -62.5 -44.5t-18.5 -103.5v-115h170v42q0 49 8.5 90t28 77.5t57.5 57.5t91 21q49 0 83 -23l38 18q11 5 16 5t6 -4.5t1 -30.5v-538
q0 -52 5 -63t26 -11q18 0 24.5 -2.5t6.5 -14.5q0 -15 -15 -15q-7 0 -42.5 1.5t-41.5 1.5q-7 0 -43 -1.5t-42 -1.5q-13 0 -13 17q0 9 5 10.5t26 2.5q19 1 22.5 10t3.5 51v476q0 17 -1.5 27.5t-6.5 27t-19.5 25t-36.5 8.5q-39 0 -60.5 -16t-33.5 -66t-12 -144v-38h72
q16 0 21.5 -4t5.5 -17q0 -10 -6.5 -13t-26.5 -3h-66v-298q0 -16 5 -20.5t23 -4.5q21 0 27 -2.5t6 -14.5q0 -14 -12 -14q-6 0 -39.5 1.5t-38.5 1.5q-8 0 -48 -1.5t-46 -1.5q-8 0 -11 2.5t-3 12.5q0 9 4.5 11.5t20.5 2.5q23 0 27 7t4 41v277z" />
    <glyph glyph-name="f_i" unicode="fi" horiz-adv-x="492" 
d="M165 388h92q53 0 92 6q35 7 57 7q9 0 9 -16q0 -7 -1 -43.5t-1 -42.5v-235q0 -26 4 -31t25 -5q20 0 26.5 -2.5t6.5 -14.5q0 -14 -14 -14q-8 0 -46.5 1.5t-44.5 1.5t-39 -1.5t-38 -1.5q-16 0 -16 13q0 11 6 13.5t33 3.5q14 1 16.5 8t2.5 40v202q0 37 -2 50.5t-10 18.5
q-10 5 -54 5h-104v-300q0 -14 5.5 -16.5t29.5 -3.5q11 -1 15 -1.5t7 -4t3 -10.5q0 -11 -4 -14.5t-19 -3.5q-6 0 -35 1.5t-34 1.5q-13 0 -46.5 -1.5t-46.5 -1.5q-14 0 -14 14q0 16 20 16q28 0 33 7.5t5 46.5v270h-21q-23 0 -29 3t-6 19q0 15 18 15h38v61q0 64 17.5 111t47 71
t60 34.5t64.5 10.5q37 0 63.5 -9.5t38.5 -24t16.5 -26t4.5 -21.5q0 -20 -11.5 -35.5t-36.5 -15.5q-17 0 -30.5 11t-13.5 31q0 13 8 28q6 12 6 16q0 22 -43 22q-54 0 -82 -39.5t-28 -144.5v-80z" />
    <glyph glyph-name="f_l" unicode="fl" 
d="M163 388h72q17 0 22 -3t5 -18q0 -8 -3 -11.5t-8.5 -4t-21.5 -0.5h-66v-298q0 -16 5 -20.5t23 -4.5q21 0 27 -2.5t6 -14.5q0 -14 -12 -14q-6 0 -39.5 1.5t-38.5 1.5q-8 0 -48 -1.5t-46 -1.5q-8 0 -11 2.5t-3 12.5q0 9 4.5 11.5t20.5 2.5q23 0 27 7t4 41v277h-24
q-20 0 -25.5 3t-5.5 15q0 13 6 16.5t25 3.5h24v43q0 33 4 63t16 64.5t31 59t53.5 41t80.5 16.5q49 0 85 -24l23 13q20 11 31 11q5 0 5 -33v-503q0 -79 4 -98q2 -8 7 -10.5t20 -2.5q18 0 24.5 -2.5t6.5 -14.5q0 -15 -15 -15q-7 0 -42.5 1.5t-41.5 1.5q-7 0 -43 -1.5t-42 -1.5
q-13 0 -13 17q0 9 5 10.5t26 2.5q19 1 22.5 10t3.5 51v476q0 17 -1.5 27.5t-6.5 27t-19.5 25t-36.5 8.5q-35 0 -56.5 -15t-32 -47.5t-14 -69t-3.5 -94.5v-38z" />
    <glyph glyph-name=".notdef" horiz-adv-x="500" 
d="M0 0v700h500v-700h-500zM250 395l170 255h-340zM280 350l170 -255v510zM80 50h340l-170 255zM50 605v-510l170 255z" />
    <glyph glyph-name=".null" horiz-adv-x="0" 
 />
    <glyph glyph-name="nonmarkingreturn" horiz-adv-x="333" 
 />
    <glyph glyph-name="space" unicode=" " horiz-adv-x="208" 
 />
    <glyph glyph-name="exclam" unicode="!" horiz-adv-x="239" 
d="M124 103q24 0 41.5 -17t17.5 -42t-17.5 -42t-41.5 -17q-25 0 -42 17t-17 42t17 42t42 17zM124 659q23 0 37 -46t14 -120q0 -67 -8 -128t-19.5 -95t-22.5 -34t-23 34.5t-20.5 94t-8.5 122.5q0 80 14 126t37 46z" />
    <glyph glyph-name="quotedbl" unicode="&#x22;" horiz-adv-x="408" 
d="M103 373l-26 143q-12 66 -12 83q0 60 50 60q22 0 35.5 -15t13.5 -38q0 -41 -10 -90l-28 -143h-23zM282 373l-26 143q-12 66 -12 83q0 60 50 60q22 0 35.5 -15t13.5 -38q0 -41 -10 -90l-28 -143h-23z" />
    <glyph glyph-name="numbersign" unicode="#" horiz-adv-x="516" 
d="M470 374h-97l-19 -141h94v-43h-100l-27 -190h-43l26 190h-124l-27 -190h-43l26 190h-90v43h96l20 141h-94v43h100l27 194h44l-28 -194h125l28 194h43l-28 -194h91v-43zM310 233l20 141h-125l-19 -141h124z" />
    <glyph glyph-name="dollar" unicode="$" horiz-adv-x="468" 
d="M257 599l-3 -231q100 -60 136 -98.5t36 -105.5q0 -62 -43.5 -116t-133.5 -62l-1 -106q0 -11 -2 -13q-1 -1 -23 -1q-7 0 -8 2t-1 12l1 106q-88 3 -135 49q-39 36 -39 82q0 19 12 35.5t33 16.5q17 0 30.5 -12.5t13.5 -42.5q0 -4 -3.5 -24t-3.5 -24q0 -6 3.5 -13.5t12 -16.5
t28.5 -15.5t48 -7.5l5 259q-35 23 -51.5 34.5t-42 33t-37 38t-21 39.5t-9.5 48q0 34 14 67.5t53 62t98 31.5l1 48q1 9 2 10q0 1 22 1q7 0 8.5 -1.5t0.5 -10.5l-1 -47q65 -1 105.5 -32.5t40.5 -73.5q0 -25 -13.5 -36t-28.5 -11q-22 0 -35 18t-13 41q0 3 1.5 16.5t1.5 15.5
q0 36 -59 35zM222 387l2 212q-33 -4 -61.5 -25.5t-28.5 -68.5q0 -34 21 -60.5t67 -57.5zM253 254l-4 -241q39 5 70.5 33t31.5 72q0 30 -16 57t-32.5 41t-49.5 38z" />
    <glyph glyph-name="percent" unicode="%" horiz-adv-x="720" 
d="M166 639q-21 0 -34.5 -15.5t-18.5 -45t-6 -49t-1 -50.5q0 -28 1 -46.5t6 -47t18 -44t34 -15.5q20 0 33 15.5t18 45.5t6 48.5t1 47.5t-1 47.5t-6 48t-17.5 45t-32.5 15.5zM164 659q21 0 41 -7.5t42 -25t35.5 -54.5t13.5 -90q0 -43 -9.5 -76t-23.5 -51t-33 -30t-34.5 -15.5
t-30.5 -3.5q-54 0 -93 42.5t-39 129.5q0 52 13.5 90t35 56.5t42 26.5t40.5 8zM133 8l410 626q15 23 18 24q4 1 25 1q10 0 10 -5q0 -6 -13 -23l-403 -619q-12 -19 -15.5 -22.5t-8.5 -4.5h-26q-8 0 -8 4t11 19zM557 323q-21 0 -34.5 -15.5t-18.5 -45t-6 -49t-1 -50.5
q0 -28 1 -46.5t6 -47t18 -44t34 -15.5q20 0 33 15.5t18 45.5t6 48.5t1 47.5t-1 47.5t-6 48t-17.5 45t-32.5 15.5zM555 343q21 0 41 -7.5t42 -25t35.5 -54.5t13.5 -90q0 -43 -9.5 -76t-23.5 -51t-33 -30t-34.5 -15.5t-30.5 -3.5q-54 0 -93 42.5t-39 129.5q0 52 13.5 90
t35 56.5t42 26.5t40.5 8z" />
    <glyph glyph-name="ampersand" unicode="&#x26;" horiz-adv-x="767" 
d="M260 338q47 -58 79.5 -89.5t99.5 -84.5q41 61 77 142q16 35 25.5 53.5t25.5 41.5t35 32.5t43 9.5t42.5 -16t18.5 -45q0 -26 -14.5 -37t-31.5 -11q-39 0 -39 34q0 14 -1 17.5t-7 3.5q-14 0 -27.5 -18.5t-35.5 -65.5q-51 -107 -87 -158q130 -97 205 -97q49 0 68 36
q7 14 14 14q14 0 14 -15q0 -34 -39.5 -68t-106.5 -34q-93 0 -216 92q-17 -17 -27 -25.5t-37 -28t-59.5 -29t-69.5 -9.5q-85 0 -125 48.5t-40 102.5q0 103 125 176q-48 79 -48 155q0 89 57.5 141.5t129.5 52.5q64 0 96.5 -37.5t32.5 -83.5q0 -27 -11.5 -52.5t-26 -43.5
t-42.5 -39.5t-46 -33t-51 -31.5zM245 361q30 17 47 29t37 31t29.5 43.5t9.5 55.5q0 42 -23.5 74t-64.5 32q-40 0 -67 -31.5t-27 -78.5q0 -40 14.5 -74.5t44.5 -80.5zM184 288q-61 -44 -61 -104q0 -47 40 -97.5t102 -50.5q61 0 113 58q-61 47 -103 86.5t-57.5 59.5t-33.5 48z
" />
    <glyph glyph-name="quotesingle" unicode="'" horiz-adv-x="229" 
d="M103 373l-26 143q-12 66 -12 83q0 60 50 60q22 0 35.5 -15t13.5 -38q0 -41 -10 -90l-28 -143h-23z" />
    <glyph glyph-name="parenleft" unicode="(" horiz-adv-x="304" 
d="M257 -258q-14 0 -41 35q-169 215 -169 437q0 211 154 413q30 39 39.5 47t20.5 8q10 0 10 -7q0 -1 -14.5 -25t-34.5 -65.5t-40.5 -94.5t-35 -126.5t-14.5 -147.5q0 -72 14 -145t34.5 -127t41 -97t34.5 -68.5t14 -28.5v-3t-3.5 -3t-9.5 -2z" />
    <glyph glyph-name="parenright" unicode=")" horiz-adv-x="304" 
d="M47 682q13 0 41 -35q169 -215 169 -437q0 -211 -154 -413q-30 -39 -39.5 -47t-20.5 -8q-10 0 -10 7q0 1 14.5 25t34.5 65.5t40.5 94.5t35 126.5t14.5 147.5q0 72 -14 145t-34.5 127t-41 97t-34.5 68.5t-14 28.5v3t3.5 3t9.5 2z" />
    <glyph glyph-name="asterisk" unicode="*" horiz-adv-x="467" 
d="M224 472q0 38 -19 99q-12 40 -12 57q0 23 11.5 35.5t29.5 12.5q20 0 30.5 -15t10.5 -33q0 -14 -17 -76q-11 -40 -14 -80q25 18 36 27.5t44 45.5q38 40 66 40q18 0 29 -10.5t11 -26.5q0 -14 -6.5 -24.5t-22.5 -17.5t-22 -9t-25 -7q-54 -12 -103 -33q29 -17 93 -32
q42 -10 64 -22.5t22 -36.5q0 -16 -10.5 -28t-27.5 -12q-32 0 -69 43q-37 40 -79 69q3 -42 20 -99q13 -46 13 -57q0 -23 -12 -34.5t-30 -11.5q-19 0 -30.5 13.5t-11.5 32.5q0 14 14 64q16 54 17 95q-26 -19 -38 -30t-48 -51q-32 -35 -62 -35q-17 0 -27.5 12.5t-10.5 28.5
q0 32 52 48q65 19 82 24.5t42 18.5q-32 15 -107 35q-22 5 -34 9.5t-24 16t-12 28.5t11.5 28t26.5 11q25 0 57 -31q64 -63 92 -82z" />
    <glyph glyph-name="plus" unicode="+" 
d="M444 276h-169v-169h-60v169h-169v60h169v169h60v-169h169v-60z" />
    <glyph glyph-name="comma" unicode="," horiz-adv-x="254" 
d="M175 27q-5 -12 -9.5 -18.5t-18 -15t-32.5 -8.5q-28 0 -43.5 18t-15.5 43q0 26 17.5 43.5t44.5 17.5q44 0 68.5 -38t24.5 -88q0 -64 -34.5 -117t-58.5 -53q-5 0 -11.5 4.5t-6.5 10.5q0 11 14 22q19 15 30.5 26t26 41.5t14.5 66.5q0 21 -10 45z" />
    <glyph glyph-name="hyphen" unicode="-" horiz-adv-x="293" 
d="M67 251h174q10 0 13 -4t3 -18v-20q-1 -20 -3 -23q-3 -4 -31 -4h-159q-20 0 -24 2.5t-4 16.5v22q1 24 8 27q3 1 23 1z" />
    <glyph glyph-name="period" unicode="." horiz-adv-x="254" 
d="M127 107q25 0 43 -18t18 -43t-18 -43t-43 -18t-43 18t-18 43t18 43t43 18z" />
    <glyph glyph-name="slash" unicode="/" horiz-adv-x="281" 
d="M13 -213l209 851q5 19 9.5 23t24.5 4q17 0 17 -7q0 -2 -1 -6.5t-2.5 -10t-1.5 -7.5l-206 -840q-6 -25 -11 -30t-25 -5q-18 0 -18 8q0 10 5 20z" />
    <glyph glyph-name="zero" unicode="0" 
d="M244 626q93 0 147.5 -82.5t54.5 -244.5q0 -158 -59.5 -236t-140.5 -78q-82 0 -142 77.5t-60 236.5q0 160 56.5 243.5t143.5 83.5zM248 602q-26 0 -45 -14t-30.5 -41.5t-18.5 -54t-10 -67.5t-3.5 -64.5t-0.5 -61.5q0 -37 0.5 -61t3.5 -62.5t10.5 -64t18.5 -51t30.5 -38.5
t44.5 -13q24 0 42.5 14.5t29 42.5t17.5 55t9.5 67t3 62.5t0.5 56.5q0 33 -0.5 55.5t-3 62t-9.5 66.5t-17.5 54.5t-29 42t-42.5 14.5z" />
    <glyph glyph-name="one" unicode="1" 
d="M294 452v-380q0 -29 5.5 -35.5t33.5 -7.5q38 -1 44.5 -2.5t6.5 -11.5q0 -12 -4 -15t-14 -3q-5 0 -56.5 1.5t-60.5 1.5q-5 0 -53.5 -1.5t-58.5 -1.5h-12.5t-7 2t-4 5t-0.5 9q0 11 5.5 13.5t28.5 2.5q47 0 54 8q8 10 8 91v402q0 27 -3 35t-18 8q-6 0 -34.5 -3t-33.5 -3
q-10 0 -10 18q0 9 3.5 11t22.5 4q64 8 125 20q9 2 15.5 3.5t9 2t4.5 0.5q12 0 12 -11q0 -8 -2 -28.5t-2 -22.5l-1 -17q-1 -17 -2 -44t-1 -51z" />
    <glyph glyph-name="two" unicode="2" 
d="M144 83l182 4q21 1 56 5.5t37 4.5q15 0 15 -17q0 -3 -21 -74q-3 -9 -6 -21.5t-4.5 -18t-4 -11t-5.5 -7.5t-7 -2q-17 0 -17 9q4 29 4 35q0 10 -14.5 13t-51.5 4q-58 2 -152 -7q-96 -9 -107 -9q-12 0 -12 16q0 12 17 28q51 47 74 69t71 77.5t84 113.5q54 85 54 162
q0 56 -25 96t-74 40q-52 0 -87 -35.5t-35 -85.5q0 -74 61 -74q13 0 28 4q4 1 11.5 4t8.5 3q8 0 8 -8q0 -17 -26 -34t-58 -17q-38 0 -61.5 26t-23.5 66q0 63 57 123.5t151 60.5q80 0 120.5 -48.5t40.5 -111.5q0 -103 -138 -241q-112 -112 -150 -142z" />
    <glyph glyph-name="three" unicode="3" 
d="M264 353q39 2 69.5 -6.5t47 -22.5t27 -33.5t13.5 -35t3 -30.5q0 -94 -82 -167t-194 -73q-59 0 -91.5 22t-32.5 55q0 48 44 48q23 0 32 -12.5t9 -25.5q0 -7 -5 -21.5t-5 -16.5q0 -25 49 -25q20 0 47 11.5t57 35t50.5 69t20.5 103.5q0 48 -17.5 76t-48.5 28q-20 0 -36 -12
q-6 -5 -9 -10q-4 -3 -8 -3q-14 0 -24.5 6t-10.5 13q0 13 41 28q116 43 116 139q0 50 -26 75t-60 25q-48 0 -78.5 -31.5t-30.5 -62.5q0 -19 11 -35t37 -16q2 0 13 1t13 1q9 0 9 -9q0 -10 -17.5 -19.5t-42.5 -9.5q-35 0 -55.5 19.5t-20.5 47.5q0 51 56.5 99t146.5 48
q38 0 65 -11.5t39 -30t17 -34.5t5 -32q0 -30 -13 -56.5t-39 -48t-43.5 -32.5t-47.5 -28z" />
    <glyph glyph-name="four" unicode="4" 
d="M364 220h69q16 0 21 -3t5 -14q0 -12 -4.5 -16t-17.5 -4h-73v-117q0 -26 7.5 -30.5t44.5 -5.5q11 0 15 -3.5t4 -12.5q0 -12 -4 -14.5t-17 -2.5q-9 0 -54 1.5t-52 1.5q-8 0 -47.5 -1.5t-46.5 -1.5q-14 0 -14 17q0 12 5.5 14t30.5 2q32 0 38.5 5t7.5 28l1 61v59h-234
q-20 0 -20 11q0 4 15 25l288 396q13 18 17.5 22t10.5 4q12 0 12 -17q0 -13 -3.5 -122.5t-3.5 -130.5q0 -42 -0.5 -96t-0.5 -55zM81 220h202q1 185 4 281z" />
    <glyph glyph-name="five" unicode="5" 
d="M147 494l-2 -135q53 37 122 37q80 0 120.5 -48.5t40.5 -107.5q0 -102 -81.5 -178.5t-184.5 -76.5q-54 0 -88 22t-34 58q0 21 12 34.5t32 13.5q16 0 27 -9t11 -24q0 -17 -15 -33q-8 -9 -8 -13q0 -10 18 -17.5t42 -7.5q23 0 49.5 10.5t54.5 33t46 68t18 107.5
q0 135 -91 135q-38 0 -64.5 -16.5t-31.5 -48.5q0 -1 -1.5 -15.5t-2.5 -17.5q-4 -7 -10 -7q-8 0 -23 8.5t-15 19.5q0 3 7.5 17t7.5 17q4 16 4 154q0 24 -6 118q-1 7 -1 21q0 12 13.5 20t22.5 8t12 -19q1 -3 1 -5q3 -17 86 -17q80 0 137 19q10 3 12 3q11 0 11 -18
q0 -28 -9.5 -45t-29 -24.5t-36.5 -9.5t-44 -2q-9 0 -56 1.5t-55 1.5q-12 0 -15 -6.5t-3 -25.5z" />
    <glyph glyph-name="six" unicode="6" 
d="M150 352q53 61 123 61t123 -52.5t53 -153.5q0 -96 -54 -159t-138 -63q-102 0 -155.5 80.5t-53.5 212.5q0 92 25.5 162.5t66.5 109t85.5 57.5t89.5 19q61 0 99.5 -26.5t38.5 -61.5q0 -19 -10.5 -30t-28.5 -11q-45 0 -45 55l1 12q1 13 0 15q-4 23 -49 23
q-76 0 -122.5 -69.5t-48.5 -180.5zM253 383q-43 0 -76 -39.5t-33 -123.5q0 -31 3.5 -60.5t13 -67t33 -60.5t58.5 -23q32 0 55 19.5t34.5 50.5t16 59.5t4.5 55.5t-3.5 53.5t-13.5 60.5t-33.5 54.5t-58.5 20.5z" />
    <glyph glyph-name="seven" unicode="7" 
d="M209 606h121q40 0 64 4q2 0 11 2t17 3.5t10 1.5q5 0 14.5 -10t9.5 -15q0 -1 -2 -4.5t-4.5 -8t-3.5 -5.5q-69 -118 -167 -419q-34 -104 -54 -137t-47 -33q-16 0 -30 11.5t-14 33.5q0 11 2.5 20t17 38.5t45.5 85.5q131 237 188 357q-15 0 -41.5 1t-48.5 1.5t-44 0.5
q-120 0 -137 -7q-8 -3 -11 -8t-12 -28q-4 -13 -13 -13q-17 0 -17 12q0 18 32 144q2 8 3 11t3.5 5.5t7.5 2.5q18 0 18 -11q0 -15 3 -21t21 -10.5t58 -4.5z" />
    <glyph glyph-name="eight" unicode="8" 
d="M300 346q144 -69 144 -175q0 -68 -57.5 -127t-156.5 -59q-92 0 -138 48.5t-46 106.5q0 33 13.5 60.5t39.5 47.5t43 30t45 23q-65 38 -93 76.5t-28 86.5q0 65 48 113.5t134 48.5q83 0 129.5 -43t46.5 -95q0 -82 -124 -142zM276 358q91 52 91 125q0 44 -28.5 81.5
t-91.5 37.5q-51 0 -80.5 -31.5t-29.5 -69.5q0 -25 12 -47t35.5 -40.5t42.5 -29.5t49 -26zM214 288q-41 -15 -76 -50t-35 -92q0 -59 37.5 -96.5t96.5 -37.5q49 0 92.5 27t43.5 86q0 44 -34 79.5t-125 83.5z" />
    <glyph glyph-name="nine" unicode="9" 
d="M340 259q-53 -61 -123 -61t-123 52.5t-53 153.5q0 96 54 159t138 63q102 0 155.5 -80.5t53.5 -212.5q0 -92 -25.5 -162.5t-66.5 -109t-85.5 -57.5t-89.5 -19q-61 0 -99.5 26.5t-38.5 61.5q0 19 10.5 30t28.5 11q45 0 45 -55l-1 -13q-1 -12 0 -14q4 -23 49 -23
q76 0 122.5 69.5t48.5 180.5zM237 228q43 0 76 39.5t33 123.5q0 31 -3.5 60.5t-13 67t-33 60.5t-58.5 23q-32 0 -55 -19.5t-34.5 -50.5t-16 -59.5t-4.5 -55.5t3.5 -53.5t13.5 -60.5t33.5 -54.5t58.5 -20.5z" />
    <glyph glyph-name="colon" unicode=":" horiz-adv-x="254" 
d="M127 377q25 0 43 -18t18 -43t-18 -43t-43 -18t-43 18t-18 43t18 43t43 18zM127 107q25 0 43 -18t18 -43t-18 -43t-43 -18t-43 18t-18 43t18 43t43 18z" />
    <glyph glyph-name="semicolon" unicode=";" horiz-adv-x="254" 
d="M127 377q25 0 43 -18t18 -43t-18 -43t-43 -18t-43 18t-18 43t18 43t43 18zM175 27q-5 -12 -9.5 -18.5t-18 -15t-32.5 -8.5q-28 0 -43.5 18t-15.5 43q0 26 17.5 43.5t44.5 17.5q44 0 68.5 -38t24.5 -88q0 -64 -34.5 -117t-58.5 -53q-5 0 -11.5 4.5t-6.5 10.5q0 11 14 22
q19 15 30.5 26t26 41.5t14.5 66.5q0 21 -10 45z" />
    <glyph glyph-name="less" unicode="&#x3c;" 
d="M444 107l-398 169v59l398 169v-61l-338 -138l338 -137v-61z" />
    <glyph glyph-name="equal" unicode="=" 
d="M444 367h-398v61h398v-61zM444 184h-398v61h398v-61z" />
    <glyph glyph-name="greater" unicode="&#x3e;" 
d="M444 276l-398 -169v61l338 137l-338 138v61l398 -169v-59z" />
    <glyph glyph-name="question" unicode="?" horiz-adv-x="430" 
d="M149 304v-82q0 -12 -0.5 -17t-4 -9t-11.5 -4q-9 0 -13 4t-4.5 13t0.5 23l5 170q0 23 14 23q10 0 12 -4.5t2 -21.5q0 -56 12 -73q14 -21 48 -21q40 0 65 36t25 108q0 17 -1 31.5t-7.5 45.5t-18.5 52.5t-38 39t-62 17.5q-32 0 -49 -13t-17 -30q0 -3 2.5 -19t2.5 -18
q0 -14 -9.5 -23t-23.5 -9q-20 0 -30 12.5t-10 28.5q0 42 42.5 68.5t95.5 26.5q87 0 151.5 -63.5t64.5 -149.5q0 -76 -48.5 -123.5t-112.5 -47.5q-43 0 -82 29zM132 105q25 0 42.5 -18t17.5 -43q0 -24 -17.5 -41.5t-42.5 -17.5t-42.5 17.5t-17.5 41.5q0 25 18 43t42 18z" />
    <glyph glyph-name="at" unicode="@" horiz-adv-x="754" 
d="M706 179h32q-43 -116 -137.5 -179t-211.5 -63q-149 0 -249 96.5t-100 250.5q0 163 111 269t265 106q72 0 129.5 -24.5t91.5 -64t51.5 -85.5t17.5 -94q0 -106 -75.5 -198.5t-144.5 -92.5q-25 0 -46 14t-21 43q0 11 3 31q-21 -28 -34.5 -42.5t-42 -30t-60.5 -15.5
q-49 0 -72 28t-23 70q0 67 44 135t104 108.5t109 40.5q24 0 39 -8.5t19 -16.5t9 -24l11 25q7 16 10.5 20t12.5 5l47 2q12 0 12 -7q0 -6 -13 -32q-20 -49 -62.5 -166.5t-42.5 -136.5q0 -15 16 -15q46 0 109 84t63 178q0 87 -66 161.5t-186 74.5q-95 0 -172 -51.5t-118 -134
t-41 -176.5q0 -137 85.5 -217t210.5 -80q69 0 136 27t113 76q39 42 67 109zM456 462q-39 0 -84.5 -55.5t-74 -124.5t-28.5 -113q0 -25 12.5 -34t24.5 -9q31 0 70.5 38.5t82.5 132.5q33 73 33 117q0 21 -9 33t-15 13.5t-12 1.5z" />
    <glyph glyph-name="A" unicode="A" horiz-adv-x="635" 
d="M399 215h-214l-29 -81q-18 -51 -18 -75q0 -13 9 -19t35 -10q3 0 7.5 -0.5t6.5 -1t5 -1t4.5 -1t3 -1.5t2 -2.5t1 -3.5t0.5 -5q0 -11 -3.5 -14t-12.5 -3q-3 0 -39.5 1.5t-51.5 1.5t-48 -1.5t-37 -1.5q-15 0 -15 12t3 14.5t18 3.5h4q13 1 22 4.5t22 15.5t27.5 40.5
t31.5 73.5l181 477q7 19 11 26t12 7t12 -7t13 -36l131 -407q55 -165 71 -181q6 -7 50 -10q9 -1 12.5 -4t3.5 -13q0 -6 -1 -9.5t-3.5 -4.5t-5 -1.5t-7.5 -0.5q-8 0 -42 1.5t-59 1.5q-27 0 -70.5 -1.5t-48.5 -1.5q-9 0 -12.5 3t-3.5 14q0 9 5 12t25 3q43 0 43 13q0 1 -22 77z
M196 245h192l-87 274z" />
    <glyph glyph-name="B" unicode="B" horiz-adv-x="590" 
d="M119 157v389q0 48 -4 55q-8 10 -43 10q-24 0 -29.5 2.5t-5.5 12.5q0 18 13 18q10 0 49 -1.5t45 -1.5q12 0 67.5 1.5t83.5 1.5q65 0 110 -16.5t64 -42.5t26 -47.5t7 -42.5q0 -61 -43 -100.5t-115 -52.5q98 -4 149 -50.5t51 -115.5q0 -30 -10.5 -60t-33 -59t-66 -47
t-101.5 -18q-1 0 -71 5q-45 3 -87 3q-44 0 -79 -5q-18 -3 -42 -3q-5 0 -10.5 4t-5.5 12q0 11 6.5 14t37.5 6q27 3 31 18q6 20 6 111zM210 615v-261q5 -1 37 -1q53 0 87 13.5t47 37t16.5 40t3.5 39.5q0 71 -31 102.5t-104 31.5q-30 0 -56 -2zM210 325v-207q0 -61 13.5 -78.5
t64.5 -17.5q64 0 102.5 30t38.5 114q0 89 -45.5 124.5t-131.5 35.5q-8 0 -22 -0.5t-20 -0.5z" />
    <glyph glyph-name="C" unicode="C" horiz-adv-x="656" 
d="M372 659q74 0 145 -42q18 -11 24 -11q7 0 10.5 4.5t15.5 28.5q4 6 12 6q14 0 14 -15q0 -6 -1.5 -37.5t-1.5 -36.5q0 -8 1.5 -50t1.5 -49q0 -19 -15 -19q-12 0 -15.5 8t-8.5 34q-2 11 -3 18q-10 52 -57.5 92t-115.5 40q-40 0 -76.5 -17t-68 -53t-50 -100.5t-18.5 -149.5
q0 -146 57.5 -222t152.5 -76q52 0 90 16.5t59 45.5t31.5 55.5t16.5 59.5q3 16 7 21t12 5q16 0 16 -14q0 -3 -1.5 -18.5t-1.5 -18.5q-4 -50 -4 -98q0 -5 1.5 -30t1.5 -27q0 -12 -14 -12q-11 0 -19 21q-9 21 -18 21q-11 0 -26 -10q-67 -46 -161 -46q-143 0 -231 96t-88 231
q0 91 39.5 170t115.5 129t171 50z" />
    <glyph glyph-name="D" unicode="D" horiz-adv-x="702" 
d="M119 170v275q0 134 -7 150q-4 7 -11.5 9.5t-37.5 4.5q-13 1 -17 2t-7 4t-3 10q0 19 17 19q9 0 58.5 -1.5t57.5 -1.5q12 0 78 1.5t77 1.5q155 0 243.5 -90.5t88.5 -234.5q0 -61 -18 -117.5t-53.5 -104t-96.5 -76.5t-139 -29q-14 0 -92 4q-76 4 -89 4q-12 0 -70 -2
q-12 0 -26 -1t-22 -1l-8 -1q-15 0 -15 15q0 12 6 15t35 5q28 2 36 5.5t10 18.5q5 30 5 116zM215 477v-301q0 -78 2.5 -100.5t12.5 -34.5q15 -19 91 -19q64 0 109.5 27t68.5 73.5t32.5 97t9.5 109.5q0 65 -13.5 114.5t-44 89t-84.5 60.5t-130 21q-24 0 -50 -4q-4 -20 -4 -133
z" />
    <glyph glyph-name="E" unicode="E" horiz-adv-x="585" 
d="M261 612h-22t-16.5 -0.5t-7.5 -0.5v-257q81 0 106.5 16t34.5 79q3 19 17 19q16 0 16 -23q0 -7 -1.5 -47.5t-1.5 -72.5q0 -26 1.5 -55t1.5 -35q0 -35 -19 -35q-16 0 -16 19q-1 5 -2 14q-4 32 -8 44.5t-17.5 26t-39 17t-72.5 4.5v-206q0 -50 1.5 -63t7.5 -19q8 -7 45 -7
q97 0 147.5 10t74 33.5t32.5 70.5q6 30 9.5 36.5t12.5 6.5q15 0 15 -17q0 -41 -7 -160q0 -13 -15 -13q-6 0 -43 0.5t-91.5 1.5t-102.5 1q-68 0 -157.5 -1.5t-93.5 -1.5q-21 0 -21 16q0 12 5 14.5t26 2.5q31 0 40 2.5t13 13.5q6 22 6 116v363q0 46 -3 63t-14 18q-4 1 -28.5 3
t-28.5 3q-6 2 -6 11q0 13 5.5 17t22.5 4q6 0 79 -1.5t122 -1.5q52 0 132 1.5t98 1.5q9 0 11 -4t2 -18q0 -15 1 -55.5t1 -63.5q0 -20 -15 -20q-9 0 -13 6.5t-8 27.5q-9 52 -54.5 73.5t-161.5 21.5z" />
    <glyph glyph-name="F" unicode="F" horiz-adv-x="542" 
d="M263 611h-48v-275h45q49 0 72 27.5t23 67.5q0 18 17 18q10 0 13 -6.5t3 -28.5q0 -11 -1.5 -44.5t-1.5 -48.5q0 -16 1.5 -56t1.5 -53q0 -33 -17 -33t-17 15q0 49 -9 69t-34 31q-29 12 -82 12h-14v-189q0 -61 8 -74t52 -13q27 -1 34 -4t7 -13q0 -11 -4 -13.5t-19 -2.5
q-7 0 -51 1.5t-70 1.5q-27 0 -70 -1.5t-50 -1.5q-22 0 -22 14q0 13 4.5 15.5t24.5 3.5q36 2 44 4.5t11 17.5q5 23 5 116v366q0 58 -4 66q-5 9 -57 11q-20 0 -20 14q0 19 25 19q17 0 92.5 -1.5t118.5 -1.5q64 0 134.5 1.5t72.5 1.5q21 0 25 -1.5t6 -7.5v-9.5t-0.5 -17.5
t-0.5 -19q0 -13 2.5 -58.5t2.5 -53.5q0 -9 -0.5 -12t-4 -5.5t-11.5 -2.5q-14 0 -16 19q-9 76 -53 105.5t-168 29.5z" />
    <glyph glyph-name="G" unicode="G" horiz-adv-x="709" 
d="M618 159v-66q0 -14 2 -32q0 -5 1.5 -13t2.5 -14t1 -7q0 -7 -7 -7q-2 0 -8.5 2.5t-7.5 2.5q-14 5 -37 5q-21 0 -87 -25q-61 -22 -117 -22q-77 0 -138.5 28.5t-99 76t-57.5 104.5t-20 117q0 147 97 248.5t237 101.5q59 0 121 -28q3 -1 15 -8t23 -12.5t15 -5.5q6 0 9 3.5
t13 22.5q7 10 16 10q14 0 14 -13q0 -5 -1.5 -32.5t-1.5 -31.5q0 -9 2 -55.5t2 -55.5q0 -15 -17 -15q-11 0 -14 5t-7 29q-12 71 -53 108q-54 49 -137 49q-62 0 -106.5 -31.5t-66.5 -83.5t-31.5 -104.5t-9.5 -109.5q0 -26 2 -50.5t8.5 -60t21.5 -64.5t36.5 -55.5t58 -41.5
t82.5 -15q17 0 37.5 3t45.5 11t42.5 24.5t20.5 39.5q2 13 2 55q0 34 -14.5 47t-57.5 13q-21 0 -21 14q0 16 15 16q10 0 61 -1.5t60 -1.5t57.5 1.5t56.5 1.5q18 0 18 -17q0 -14 -19 -14q-38 0 -49 -7.5t-11 -38.5z" />
    <glyph glyph-name="H" unicode="H" horiz-adv-x="753" 
d="M215 346h323v156q0 87 -7 97q-4 7 -12.5 8t-45.5 3q-14 1 -14 15q0 19 17 19q8 0 51.5 -1.5t52.5 -1.5t56 1.5t55 1.5q18 0 18 -18q0 -12 -6.5 -14t-35.5 -2q-23 0 -28 -11t-5 -53v-462q0 -38 7.5 -45t46.5 -9q16 -1 20.5 -3t4.5 -13q0 -17 -19 -17q-6 0 -51.5 1.5
t-53.5 1.5q-10 0 -59 -1.5t-57 -1.5q-18 0 -18 15q0 12 7 15t42 5q17 1 23 7t8.5 23t2.5 60v194h-323v-204q0 -53 5 -65t24 -14q3 0 21 -1.5t20 -2.5q10 -3 10 -15q0 -17 -19 -17q-11 0 -65.5 1.5t-63.5 1.5q-8 0 -49.5 -1.5t-48.5 -1.5q-13 0 -13 17t15 17q36 0 46 2t15 9
q7 10 7 84v399q0 27 -0.5 37.5t-3.5 24.5t-10.5 18.5t-20.5 4.5q-30 0 -36 2.5t-6 14.5q0 11 4.5 14t12.5 3q10 0 60 -1.5t58 -1.5q10 0 42 1.5t48 1.5q15 0 21 -4t6 -14q0 -16 -41 -16q-26 0 -32 -13.5t-6 -50.5v-200z" />
    <glyph glyph-name="I" unicode="I" horiz-adv-x="334" 
d="M215 490v-324q0 -103 5 -123q5 -13 44 -14q26 0 32.5 -3t6.5 -12q0 -17 -10 -17q-11 0 -63.5 1.5t-61.5 1.5t-62.5 -1.5t-61.5 -1.5q-13 0 -13 14q0 11 4 14.5t22 3.5q23 0 35 2.5t17.5 12t6.5 17.5t1 29q0 16 1 52.5t1 44.5v345q0 53 -5.5 66t-34.5 13q-22 0 -28.5 3
t-6.5 13t3 13.5t12 3.5q7 0 52 -1.5t53 -1.5q12 0 63.5 1.5t52.5 1.5q15 0 15 -16q0 -11 -5 -14t-25 -3q-18 0 -28 -2.5t-12.5 -5t-4.5 -7.5q-5 -16 -5 -106z" />
    <glyph glyph-name="J" unicode="J" horiz-adv-x="324" 
d="M215 524v-484q0 -144 -48.5 -203.5t-143.5 -59.5q-67 0 -98.5 25t-31.5 61q0 22 12 39t38 17q22 0 33.5 -13t11.5 -30q0 -3 -2 -19.5t-2 -18.5q0 -34 44 -34q74 0 83 92q8 75 8 167v455q0 75 -7 84q-4 6 -11.5 7t-40.5 3q-20 2 -20 16q0 16 21 16q7 0 47 -1.5t49 -1.5
t51 1.5t50 1.5q25 0 25 -18q0 -9 -4 -11t-22 -3q-31 -1 -36.5 -12.5t-5.5 -75.5z" />
    <glyph glyph-name="K" unicode="K" horiz-adv-x="637" 
d="M282 359l261 -280q29 -31 46 -39.5t49 -10.5q19 0 19 -17q0 -15 -12 -15q-9 0 -58 1.5t-57 1.5q-12 0 -74 -1.5t-72 -1.5q-13 0 -13 15q0 7 0.5 10t6 5t10.5 2.5t20 0.5q31 0 31 9q0 8 -34 46l-195 218v-199q0 -52 5 -61t35 -11q29 -2 35.5 -4.5t6.5 -12.5q0 -18 -18 -18
q-8 0 -49 1.5t-48 1.5q-10 0 -61.5 -1.5t-59.5 -1.5q-14 0 -14 14q0 13 7 16t23 3q15 0 21 0.5t11.5 3t7.5 8.5q7 15 7 96v399q-1 52 -5.5 62.5t-28.5 11.5l-35 1q-8 3 -8 18q0 14 19 14q9 0 56 -1.5t55 -1.5t46.5 1.5t44.5 1.5q21 0 21 -17q0 -12 -6.5 -14.5t-24.5 -2.5
q-30 0 -36.5 -11.5t-6.5 -70.5v-197q105 107 207 221q23 23 23 39q0 9 -6 13t-13.5 5t-24.5 2q-13 1 -18 1.5t-8 4t-3 10.5q0 17 23 17q8 0 50.5 -1.5t49.5 -1.5q8 0 49 1.5t47 1.5q17 0 17 -17q0 -11 -6 -13.5t-25 -3.5q-27 -1 -53.5 -16t-40.5 -28.5t-40 -41.5z" />
    <glyph glyph-name="L" unicode="L" horiz-adv-x="585" 
d="M119 156v323q0 96 -5 116q-5 15 -36 15q-25 0 -31.5 3t-6.5 13q0 18 24 18q12 0 50 -1.5t57 -1.5q13 0 58 1.5t57 1.5q17 0 17 -18q0 -10 -6.5 -12.5t-28.5 -3.5q-31 -1 -38.5 -3.5t-11.5 -15.5q-3 -8 -3 -51v-355q0 -106 9 -135q4 -20 53 -20q33 0 59 0.5t48 4t37.5 5.5
t29.5 10t22.5 12t16.5 16.5t12 19t9.5 25t8 28.5t7.5 34q4 18 16 18t14 -6t1 -24l-5 -144q-1 -23 -3.5 -30t-12.5 -7h-7q-6 1 -21 2t-33 2q-80 4 -194 4q-36 0 -89 -0.5t-69 -0.5q-15 0 -32.5 -0.5t-27 -1t-14.5 -0.5q-21 0 -21 16q0 12 6.5 14t44.5 4q26 1 32.5 21t6.5 104
z" />
    <glyph glyph-name="M" unicode="M" horiz-adv-x="822" 
d="M405 133l188 464q18 47 32 47q11 0 34 -1.5t33 -1.5q14 0 42 1l29 2q22 0 22 -18q0 -14 -17 -14q-43 0 -52 -3t-11 -11t-2 -43v-470q0 -27 1.5 -36t7.5 -14t21 -5q31 0 38.5 -3t7.5 -15q0 -9 -3.5 -12t-16.5 -3q-9 0 -56 1.5t-54 1.5q-9 0 -54 -1.5t-52 -1.5
q-19 0 -19 15q0 12 5.5 14.5t32.5 3.5t32.5 2.5t9.5 9.5q3 8 3 70v435l-215 -527q-8 -20 -11 -24t-10 -4q-8 0 -11.5 4.5t-10.5 23.5l-197 527v-403q0 -66 10 -89.5t48 -25.5q31 -1 31 -18q0 -14 -25 -14q-7 0 -45.5 1.5t-44.5 1.5t-39 -1.5t-38 -1.5q-15 0 -15 15
q0 11 5 13.5t22 3.5q37 1 47.5 19.5t10.5 72.5v413q0 50 -7.5 63t-45.5 13q-13 0 -18 0.5t-9 4t-4 11.5q0 18 16 18q7 0 35 -1.5t36 -1.5q9 0 35 1.5t37 1.5q12 0 18.5 -7.5t17.5 -35.5z" />
    <glyph glyph-name="N" unicode="N" horiz-adv-x="697" 
d="M152 545v-369q0 -94 16 -119q19 -28 57 -28q20 0 25 -3t5 -12q0 -7 -1 -9.5t-7 -5t-18 -2.5q-7 0 -41 1.5t-58 1.5q-16 0 -50 -1.5t-40 -1.5q-13 0 -16.5 3t-3.5 12q0 17 13 17q51 0 71 32q15 24 15 125v398q-17 19 -28.5 23t-48.5 4q-18 0 -18 15q0 18 18 18
q5 0 33.5 -1.5t33.5 -1.5q6 0 40 1.5t39 1.5q9 0 19 -5q2 -2 10 -14.5t9 -13.5l328 -445v344q0 22 -1 34t-4.5 28t-13 24t-24.5 11q-42 7 -45 12q-2 3 -2 8q0 10 4.5 13.5t21.5 3.5q15 0 37 -1.5t38 -1.5q13 0 49 1.5t41 1.5q18 0 18 -17q0 -9 -6.5 -12.5t-28.5 -6.5
q-32 -4 -41.5 -25.5t-9.5 -84.5v-481q0 -14 -0.5 -19.5t-4 -10t-10.5 -4.5t-11.5 5t-21.5 29z" />
    <glyph glyph-name="O" unicode="O" horiz-adv-x="737" 
d="M367 659q142 0 233 -99.5t91 -237.5q0 -141 -91 -240t-233 -99t-231.5 98.5t-89.5 238.5t89.5 239.5t231.5 99.5zM367 629q-97 0 -149.5 -67t-52.5 -241q0 -90 15 -152t43.5 -95.5t63 -47t80.5 -13.5q47 0 82 13.5t64 46.5t44 95.5t15 152.5t-15 152t-44 95.5t-64 47
t-82 13.5z" />
    <glyph glyph-name="P" unicode="P" horiz-adv-x="542" 
d="M210 315v-182q0 -73 4.5 -87.5t25.5 -15.5q56 -2 61 -7q2 -3 2 -11q0 -15 -16 -15q-11 0 -67 1.5t-65 1.5q-8 0 -50.5 -1.5t-49.5 -1.5q-14 0 -14 15q0 14 11 16q7 1 36 2q22 1 26.5 11t4.5 56v466q0 33 -5.5 40.5t-33.5 7.5q-19 0 -25.5 0.5t-10.5 4t-4 11.5q0 17 19 17
q7 0 45 -1.5t45 -1.5q11 0 67.5 1.5t66.5 1.5q115 0 176 -47.5t61 -122.5q0 -163 -238 -163q-34 0 -72 4zM210 613v-269q27 -3 42 -3q46 0 78 13t48 35.5t23 46t7 50.5q0 46 -19.5 75t-49 38.5t-64 13.5t-65.5 0z" />
    <glyph glyph-name="Q" unicode="Q" horiz-adv-x="737" 
d="M397 -17q-36 -20 -91 -45q114 5 237 -54q83 -39 111 -50t54 -11q41 0 67 30q11 13 15 13q10 0 10 -11q0 -9 -10 -26t-28 -37.5t-52.5 -35.5t-76.5 -15q-59 0 -94.5 20t-112.5 86q-12 11 -31 24t-53 28.5t-61 15.5q-19 0 -24 -4t-9 -19q-7 -27 -28 -27q-10 0 -17 7.5
t-7 19.5q0 22 38 39q64 29 106 52q-77 10 -134.5 43.5t-87 72t-47 86.5t-21.5 78t-4 56q0 147 93.5 243.5t228.5 96.5q138 0 230.5 -99t92.5 -239q0 -147 -88 -236.5t-206 -101.5zM367 629q-97 0 -149.5 -67t-52.5 -241q0 -90 15 -152t43.5 -95.5t63 -47t80.5 -13.5
q47 0 82 13.5t64 46.5t44 95.5t15 152.5t-15 152t-44 95.5t-64 47t-82 13.5z" />
    <glyph glyph-name="R" unicode="R" horiz-adv-x="639" 
d="M210 318v-233q0 -38 5 -46t31 -9q31 -1 38.5 -3.5t7.5 -15.5q0 -14 -17 -14q-9 0 -54.5 1.5t-52.5 1.5q-9 0 -55 -1.5t-53 -1.5q-26 0 -26 16q0 13 15 15q8 2 44 3q18 0 22 12q4 14 4 96v404q0 45 -3.5 54t-22.5 9q-40 0 -49 3.5t-9 15.5q0 6 2.5 9.5t9 5t11.5 1.5h18h8
q21 0 116 1.5t128 1.5q99 0 153 -42t54 -111q0 -77 -58.5 -118.5t-148.5 -42.5q50 -7 83.5 -28t50 -46t32.5 -66q34 -88 50 -112.5t44 -24.5q25 0 34 23q4 11 5.5 14.5t4 5.5t7.5 2q13 0 13 -19q0 -28 -28.5 -62t-83.5 -34q-52 0 -87 35.5t-47 83.5q-3 11 -12 61t-11 57
q-14 60 -48.5 79t-124.5 19zM210 612v-267h45q80 0 126 36.5t46 108.5q0 73 -42.5 98.5t-115.5 25.5q-33 0 -59 -2z" />
    <glyph glyph-name="S" unicode="S" horiz-adv-x="528" 
d="M432 486q0 -17 -3 -21.5t-12 -4.5q-6 0 -10 2.5t-6.5 10t-3.5 13.5t-3 21q-6 44 -30.5 72.5t-53 39t-60.5 10.5q-41 0 -68 -19.5t-35 -41t-8 -43.5q0 -79 102 -116l99 -35q142 -51 142 -178q0 -82 -57 -147.5t-153 -65.5q-32 0 -57 6.5t-38.5 14t-40.5 24.5q-5 5 -16 5
q-5 0 -9 -2.5t-6.5 -6.5t-11.5 -16q-9 -11 -16 -11q-15 0 -15 18q0 3 1 27t1 40q0 13 -1 59.5t-1 58.5q0 21 16 21q10 0 13.5 -8t8.5 -45q12 -83 59.5 -120.5t108.5 -37.5q51 0 89 33.5t38 98.5q0 93 -97 132l-113 45q-58 23 -88.5 66.5t-30.5 92.5q0 25 8.5 53.5t27.5 58.5
t57 49.5t89 19.5q44 0 101 -23q16 -7 26 -7q12 0 22 7q23 18 28 18q14 0 14 -14l-1 -16q-2 -17 -3.5 -39t-1.5 -35q0 -8 -0.5 -35t-0.5 -29z" />
    <glyph glyph-name="T" unicode="T" horiz-adv-x="698" 
d="M396 611v-484q0 -39 0.5 -55.5t5.5 -27.5t11 -12t23 -2q47 -2 52 -6q3 -3 3 -11q0 -16 -13 -16q-11 0 -66 1.5t-64 1.5q-10 0 -65.5 -1.5t-64.5 -1.5q-12 0 -12 14q0 13 6.5 15.5t38.5 3.5q25 1 32 3t10 10q7 18 7 99v469h-57q-31 0 -53 -3t-48.5 -11.5t-45 -29.5
t-27.5 -53q-12 -42 -14 -45q-4 -6 -13 -6q-7 0 -10.5 4t-4 9.5t-0.5 20.5v129q0 18 13 18t107.5 -1.5t207.5 -1.5q107 0 198 1.5t101 1.5q11 0 14 -5.5t3 -27.5v-114q0 -35 -14 -35q-16 0 -21 14q-1 3 -4.5 20.5t-4.5 20.5q-18 53 -57 73.5t-117 20.5h-57z" />
    <glyph glyph-name="U" unicode="U" horiz-adv-x="688" 
d="M580 472v-224q0 -29 -1 -50.5t-6 -51t-13.5 -50.5t-24.5 -43.5t-38 -37t-55 -23.5t-75 -9q-69 0 -119 15.5t-75.5 37.5t-40.5 57t-18 62t-3 65v323q0 45 -5.5 56t-33.5 11q-22 0 -27 2.5t-5 15.5q0 16 18 16q8 0 47.5 -1.5t46.5 -1.5q9 0 55 1.5t54 1.5q22 0 22 -17
t-21 -17h-23.5t-14.5 -4.5t-10 -9t-4.5 -20t-2.5 -30v-47.5v-259q0 -34 1 -54.5t10 -56.5t25.5 -57.5t51 -38.5t82.5 -17q92 0 134 60q22 31 29 70t7 138v203q0 76 -11.5 99.5t-59.5 23.5q-23 0 -23 16q0 18 18 18q15 0 45.5 -1.5t39.5 -1.5q11 0 48 1.5t44 1.5q20 0 20 -17
q0 -8 -5 -11.5t-27 -6.5q-38 -5 -47 -29.5t-9 -107.5z" />
    <glyph glyph-name="V" unicode="V" horiz-adv-x="655" 
d="M349 119l139 372q25 68 25 84q0 31 -58 34q-21 1 -21 15q0 12 3.5 16t13.5 4q13 0 51 -1.5t57 -1.5q11 0 70 3h6q15 0 15 -18q0 -3 -0.5 -5t-2 -3.5l-2.5 -2.5t-3.5 -2t-4 -1.5t-4.5 -1t-4 -0.5h-5l-4 -1q-37 -4 -54.5 -28.5t-55.5 -126.5l-174 -461q-7 -19 -9.5 -23
t-9.5 -4t-10.5 6t-14.5 35l-202 538q-17 45 -27 54t-40 11q-18 2 -18 16q0 18 16 18q6 0 47.5 -1.5t50.5 -1.5q11 0 55 1.5t49 1.5q21 0 21 -18q0 -10 -8.5 -13t-46.5 -5q-18 0 -18 -10q0 -6 13 -41z" />
    <glyph glyph-name="W" unicode="W" horiz-adv-x="906" 
d="M652 143l104 348q16 53 16 72q0 22 -12 31t-35 15q-24 5 -28.5 8t-4.5 12q0 15 14 15q7 0 46.5 -1.5t45.5 -1.5q7 0 45 1.5t44 1.5q14 0 14 -13q0 -11 -3.5 -14t-23.5 -8q-33 -9 -47 -26.5t-30 -71.5l-154 -511q-10 -34 -20 -34q-12 0 -23 37l-161 499l-148 -496
q-8 -27 -11.5 -33.5t-11.5 -6.5q-11 0 -23 41l-163 547q-10 35 -17 44t-24 11q-25 2 -30.5 5t-5.5 14q0 10 5 13t18 3q7 0 41.5 -1.5t40.5 -1.5q8 0 50 1.5t49 1.5q18 0 18 -13q0 -14 -6.5 -17.5t-20.5 -3.5q-13 0 -18.5 -0.5t-10 -3.5t-4.5 -9q0 -5 7 -29l125 -425l124 411
q-14 37 -21 46t-26 10q-24 1 -30.5 3.5t-6.5 15.5q0 15 21 15q8 0 47 -1.5t45 -1.5q8 0 50.5 1.5t49.5 1.5q8 0 12 -2.5t5 -5t1 -7.5q0 -6 -0.5 -9t-4.5 -5t-7.5 -2.5t-13.5 -1.5q-15 -1 -21.5 -2t-10.5 -4.5t-4 -9.5q0 -7 9 -35z" />
    <glyph glyph-name="X" unicode="X" horiz-adv-x="667" 
d="M343 383l87 135q37 57 37 69q0 6 -3.5 10t-11.5 6.5t-15.5 3.5t-21.5 3q-17 0 -17 14q0 10 3.5 14.5t7 5t11.5 0.5q2 0 37 -1.5t59 -1.5q7 0 34.5 1.5t39.5 1.5q16 0 16 -19q0 -9 -5.5 -11.5t-29.5 -5.5q-29 -4 -44.5 -17.5t-44.5 -55.5l-120 -178l189 -280
q22 -32 31 -39.5t30 -8.5q20 -1 25.5 -2t9 -5t3.5 -14q0 -11 -24 -11h-13q-49 3 -100 3q-9 0 -54.5 -1.5t-52.5 -1.5q-15 0 -15 12q0 19 17 20q5 0 13 1q30 2 32 8l1 4q0 14 -39 71l-112 166l-102 -158q-33 -51 -33 -68q0 -20 44 -24q24 -2 24 -15q0 -17 -20 -17
q-7 0 -42 1.5t-41 1.5q-8 0 -52 -1.5t-51 -1.5q-13 0 -13 13q0 12 4.5 15t18.5 4q34 2 58 19t63 76l124 182l-178 262q-17 24 -29 32.5t-29 9.5q-29 1 -33 8q-2 3 -2 10q0 16 19 16q14 0 50 -1.5t51 -1.5q22 0 59.5 1.5t45.5 1.5q18 0 22 -3.5t4 -15.5q0 -8 -6 -11t-28 -3
q-26 0 -26 -13q0 -14 28 -51z" />
    <glyph glyph-name="Y" unicode="Y" horiz-adv-x="635" 
d="M360 287l116 233q21 44 21 58q0 32 -56 32q-23 0 -23 15q0 12 4.5 15.5t15.5 3.5q8 0 51.5 -1.5t50.5 -1.5q6 0 38 1.5t37 1.5q16 0 16 -17t-11 -17q-41 -2 -56 -14t-46 -72l-145 -276v-166q0 -36 4.5 -42.5t30.5 -7.5q38 -1 47 -3.5t9 -15.5q0 -16 -14 -16
q-19 0 -66.5 1.5t-68.5 1.5q-9 0 -56.5 -1.5t-55.5 -1.5q-17 0 -17 13q0 14 7 17t37 3q31 0 39 7t8 40v171l-176 307q-21 37 -31.5 45t-37.5 10q-14 1 -18 2t-6.5 4t-2.5 11q0 17 19 17q14 0 53 -1.5t53 -1.5q8 0 55 1.5t59 1.5q16 0 16 -17q0 -10 -6 -13.5t-26 -3.5
q-12 0 -17.5 -0.5t-12 -1.5t-9 -4.5t-2.5 -8.5q0 -6 19 -40z" />
    <glyph glyph-name="Z" unicode="Z" horiz-adv-x="569" 
d="M40 50l367 561h-13q-103 0 -144 -1.5t-85.5 -11t-58.5 -29.5t-18 -58q0 -4 -0.5 -9t-1 -7.5t-1 -6t-1 -5t-1 -3.5t-2 -3l-3 -2t-3.5 -1h-5q-7 0 -11 2.5t-4.5 4.5t-0.5 6q0 10 1 61.5t1 59.5q0 3 -0.5 9.5t-0.5 10t1 8t4 6.5t9 2t120.5 -1.5t130.5 -1.5t99 1.5t96 1.5
q15 0 15 -8q0 -6 -15 -28l-378 -578q194 0 242 8q54 9 78 33t38 90q3 16 5.5 20t9.5 4q19 0 19 -14q0 -18 -2 -24q-3 -80 -3 -114q0 -28 -2.5 -34.5t-16.5 -6.5q-34 0 -142 4q-106 4 -136 4q-2 0 -36 -0.5t-59 -0.5q-20 0 -53 -1t-43 -1q-20 0 -20 11q0 4 24 42z" />
    <glyph glyph-name="bracketleft" unicode="[" horiz-adv-x="340" 
d="M166 -208h125q15 0 18 -1.5t3 -10.5q0 -19 -6 -20q-3 -1 -25 -1h-173q-8 0 -9.5 5t-1.5 28v844q0 25 2 27t27 2h155q25 0 27 -1q4 -3 4 -15q0 -13 -3 -15t-18 -2h-125v-840z" />
    <glyph glyph-name="backslash" unicode="\" horiz-adv-x="281" 
d="M219 -206l-206 840q0 2 -1.5 7.5t-2.5 10t-1 6.5q0 5 3.5 6t19.5 1q15 0 19 -3.5t9 -23.5l209 -851l5 -20q0 -6 -4 -7t-22 -1q-13 0 -17.5 5.5t-10.5 29.5z" />
    <glyph glyph-name="bracketright" unicode="]" horiz-adv-x="340" 
d="M174 632h-125q-11 0 -14.5 0.5t-5 3t-1.5 9.5q0 18 6 19q3 1 25 1h173q8 0 9.5 -4.5t1.5 -27.5v-844q0 -26 -2 -28t-27 -2h-155q-25 0 -27 2q-4 2 -4 14q0 13 3 15t18 2h125v840z" />
    <glyph glyph-name="asciicircum" unicode="^" 
d="M418 299h-57l-116 253l-116 -253h-57l145 312h56z" />
    <glyph glyph-name="underscore" unicode="_" horiz-adv-x="500" 
d="M0 -125v50h500v-50h-500z" />
    <glyph glyph-name="grave" unicode="`" horiz-adv-x="333" 
d="M103 602l117 -126q16 -17 16 -25t-10 -8q-8 0 -63 37q-2 2 -53.5 32t-59.5 37q-24 19 -24 40q0 16 11.5 26.5t25.5 10.5q18 0 40 -24z" />
    <glyph glyph-name="a" unicode="a" horiz-adv-x="398" 
d="M246 236l1 50q1 49 -16.5 70t-58.5 21q-34 0 -46.5 -11.5t-14.5 -39.5q-3 -36 -35 -36q-36 0 -36 36q0 10 4.5 20.5t17 24t41 22t70.5 8.5q44 0 75.5 -11.5t46 -25.5t22 -39t8 -38t0.5 -37l-4 -166q-1 -32 4.5 -46t21.5 -14q11 0 19 10q8 11 12 11q12 0 12 -11
q0 -6 -4 -16t-21 -21.5t-43 -11.5q-69 0 -77 70q-38 -36 -65 -53t-58 -17q-41 0 -66.5 27.5t-25.5 62.5q0 52 53 101t163 60zM243 81l3 131q-68 -6 -101 -35t-33 -68q0 -21 13.5 -44.5t44.5 -23.5q12 0 23 5t19.5 11t30.5 24z" />
    <glyph glyph-name="b" unicode="b" horiz-adv-x="497" 
d="M153 57v-44q0 -24 -11 -24q-4 0 -16 1.5t-25.5 4t-15.5 2.5q-9 1 -25.5 2t-27 1.5t-12.5 1.5q-7 3 -7 13q0 13 25 15q33 0 36 22q1 3 3 57.5t2 62.5v340q0 93 -8 103q-8 9 -43 9q-12 0 -12 15q0 3 1.5 5.5t4.5 4.5t6.5 3t10.5 2.5t12.5 2t15 2.5t17.5 3q8 2 24.5 5.5
t28 6t13.5 2.5q8 0 8 -14q0 -12 -1.5 -72t-1.5 -70q0 -144 -2 -202q40 83 125 83q80 0 131.5 -64t51.5 -143q0 -90 -63 -147.5t-133 -57.5q-81 0 -112 68zM157 210v-53q0 -138 93 -138q51 0 84.5 44.5t33.5 136.5q0 44 -8.5 80.5t-33.5 65t-64 28.5q-60 0 -89 -61
q-16 -33 -16 -103z" />
    <glyph glyph-name="c" unicode="c" horiz-adv-x="413" 
d="M255 401q58 0 98 -26.5t40 -67.5q0 -16 -11 -28.5t-29 -12.5q-34 0 -34 33q0 5 2 20t2 19q0 13 -19.5 26t-48.5 13q-59 0 -92 -47.5t-33 -126.5q0 -20 1.5 -38t8.5 -45t19.5 -46t37 -33t57.5 -14q32 0 61.5 15.5t41.5 41.5q6 12 8.5 15t6.5 3q6 0 10 -4.5t4 -9.5
q0 -8 -8 -23t-24.5 -34t-49.5 -32.5t-76 -13.5q-91 0 -141 60.5t-50 136.5q0 84 60.5 151.5t157.5 67.5z" />
    <glyph glyph-name="d" unicode="d" horiz-adv-x="515" 
d="M358 345l4 177q0 92 -2 99q-3 11 -22 11h-30q-10 2 -10 13q0 6 1 9t6 5t9.5 2.5t16.5 0.5q40 2 91 12q6 2 13 2q11 0 11 -12l-2 -61q-3 -61 -3 -74q0 -14 -2 -94t-2 -89v-210q0 -74 6.5 -89t34.5 -15q18 0 18 -16q0 -9 -4.5 -11t-25.5 -3q-36 -2 -49 -4q-7 -1 -18 -3.5
t-19 -4.5l-7 -1q-9 0 -11.5 16t-3.5 57q-50 -73 -144 -73q-72 0 -125 51.5t-53 139.5q0 90 56 155.5t144 65.5q74 0 122 -56zM356 174v96q0 44 -24 75t-78 31q-45 0 -75 -30t-40 -67t-10 -79q0 -77 28 -126t91 -49q35 0 62.5 18t35.5 44q10 30 10 87z" />
    <glyph glyph-name="e" unicode="e" horiz-adv-x="407" 
d="M255 241h-129q-3 -17 -3 -39q0 -66 33 -117t90 -51q69 0 108 74q6 10 13 10q12 0 12 -15q0 -36 -43 -77t-121 -41q-86 0 -132 59t-46 136q0 84 51 152.5t138 68.5q70 0 109.5 -49t39.5 -93q0 -9 -4 -14t-8 -5.5t-12 -0.5t-48.5 1t-47.5 1zM131 271h94q45 0 60 6.5
t15 26.5q0 25 -18.5 49t-55.5 24q-78 0 -95 -106z" />
    <glyph glyph-name="f" unicode="f" horiz-adv-x="249" 
d="M84 388v67q0 75 17 118t61.5 73t101.5 30q37 0 67.5 -18t30.5 -51q0 -17 -11.5 -30.5t-31.5 -13.5q-23 0 -33 12.5t-10 24.5q0 9 4 20q4 12 4 17q0 13 -33 13q-59 0 -77 -68q-9 -34 -9 -118v-76h60q17 0 20 -2.5t3 -16.5q0 -13 -3.5 -15.5t-19.5 -2.5h-60v-267
q0 -40 2.5 -47t17.5 -8q5 0 15.5 -0.5t19.5 -1t10 -0.5q7 -7 7 -15q0 -15 -15 -15q-6 0 -41 1.5t-42 1.5q-8 0 -49.5 -1.5t-47.5 -1.5q-9 0 -12 3t-3 11q0 6 1 9t3.5 4t5 1.5t8.5 0.5q31 0 35 7q4 6 4 51v267h-39q-17 0 -17 13q0 18 3 21t19 3h34z" />
    <glyph glyph-name="g" unicode="g" horiz-adv-x="442" 
d="M283 365q47 40 87 40q29 0 49 -14.5t20 -36.5q0 -15 -10 -25t-24 -10q-26 0 -37 32q-4 11 -5.5 15t-6 7.5t-12.5 3.5q-21 0 -47 -26q42 -53 42 -106q0 -9 -1 -19.5t-8 -31t-19.5 -37t-38 -30.5t-60.5 -18q-44 -4 -62 -9q-23 -10 -23 -33q0 -37 82 -38l82 -1
q74 -1 108.5 -37.5t34.5 -88.5q0 -64 -54 -112t-154 -48q-93 0 -148 37.5t-55 91.5q0 32 27.5 62t88.5 27q-57 21 -57 73q0 53 52 80q-36 8 -66.5 44t-30.5 93q0 56 38.5 103.5t111.5 47.5q51 0 96 -36zM192 379q-28 0 -47 -26.5t-24.5 -53.5t-5.5 -51q0 -119 72 -119
q74 0 74 125t-69 125zM162 -45q5 -7 5 -10q0 -9 -15 -11q-69 -8 -69 -70q0 -42 38 -68.5t105 -26.5q80 0 113.5 34t33.5 73q0 11 -3.5 22.5t-19.5 26.5t-44 20q-12 2 -75 5.5t-69 4.5z" />
    <glyph glyph-name="h" unicode="h" horiz-adv-x="500" 
d="M426 243v-162q0 -39 4 -46t25 -8q19 0 24.5 -2t5.5 -12q0 -16 -12 -16q-8 0 -46.5 1.5t-44.5 1.5q-7 0 -42 -1.5t-41 -1.5q-7 0 -10 2.5t-3 11.5q0 10 5 13.5t24 3.5q22 0 26 6t4 38v164q0 23 -0.5 36t-4.5 34.5t-11 33t-22 20.5t-37 9q-59 0 -92 -47q-18 -25 -18 -86
v-170q0 -25 4.5 -31.5t27.5 -6.5q10 0 14 -0.5t7 -4t3 -10.5q0 -10 -3.5 -13t-11.5 -3q-7 0 -41 1.5t-40 1.5q-7 0 -44.5 -1.5t-43.5 -1.5q-13 0 -13 14q0 16 21 16q29 0 34 9t5 63v469q0 47 -4 55q-5 6 -14 6q-3 0 -17.5 -1.5t-16.5 -1.5q-13 0 -13 14q0 4 1.5 6.5t5 4.5
t7 3.5t11 3t13.5 2t17.5 2t19.5 2.5q3 1 19 4t29 5.5t16 2.5q11 0 11 -10q0 -7 -2 -55.5t-2 -57.5v-223q52 66 136 66q34 0 66.5 -14t47.5 -43q16 -31 16 -96z" />
    <glyph glyph-name="i" unicode="i" horiz-adv-x="243" 
d="M164 274v-190q0 -26 1 -35t6.5 -14t18.5 -6q27 -2 33 -4.5t6 -14.5q0 -8 -3.5 -10.5t-12.5 -2.5q-3 0 -34 1.5t-44 1.5q-14 0 -50 -1.5t-47 -1.5q-12 0 -16 3t-4 11q0 11 6.5 13.5t33.5 4.5q5 0 9.5 1t7 3.5t5 4.5t3.5 6t2 6.5t1 8.5v9v10.5v10.5v217v5q0 30 -3 37.5
t-18 7.5h-11t-9.5 -0.5t-8 0t-7 1t-4.5 2t-3 4.5t-1 7q0 15 19 15q22 0 64 4q12 1 25 3t20.5 3t8.5 1q10 0 10 -14q0 -3 -1.5 -25t-1.5 -30q0 -5 -0.5 -25t-0.5 -28zM120 668q23 0 35.5 -16.5t12.5 -36.5q0 -21 -12 -38t-36 -17q-21 0 -34.5 14.5t-13.5 40.5q0 24 13 38.5
t35 14.5z" />
    <glyph glyph-name="j" unicode="j" horiz-adv-x="228" 
d="M160 276v-244q0 -99 -15 -157q-12 -47 -55 -80.5t-117 -33.5q-34 0 -57 8.5t-32 21.5t-12 22.5t-3 18.5q0 17 12.5 30t31.5 13q16 0 29 -10.5t13 -31.5q0 -1 -0.5 -6.5t-0.5 -9.5v-7q4 -25 35 -25q68 0 81 92q9 63 9 162v227q0 38 -2 60q-1 18 -14 18q-3 0 -20 -2.5
t-18 -2.5q-11 0 -11 15q0 10 4 12.5t22 5.5q41 6 105 23q5 1 10 1q9 0 9 -10q0 -4 -1.5 -25t-1.5 -24q0 -1 -0.5 -10t-0.5 -23.5v-27.5zM121 668q22 0 34 -16t12 -38q0 -10 -2.5 -20.5t-14 -22t-31.5 -11.5q-22 0 -34.5 15.5t-12.5 37.5q0 25 14.5 40t34.5 15z" />
    <glyph glyph-name="k" unicode="k" horiz-adv-x="453" 
d="M157 200l90 97q25 29 25 39q0 15 -24 20q-25 5 -25 17q0 9 4.5 12t17.5 3q2 0 12.5 -1t28 -1.5t34.5 -0.5q6 0 37 1.5t36 1.5q16 0 16 -15q0 -17 -20 -17q-24 0 -50.5 -16t-80.5 -71l-29 -30l135 -155q41 -47 74 -54q19 -4 24 -7t5 -10q0 -16 -9 -16q-6 0 -41 1.5
t-57 1.5q-10 0 -51 -1.5t-46 -1.5q-15 0 -15 15q0 10 5 13t17 3q20 4 21 8q0 3 -15 23l-96 128l-23 -25v-91q0 -26 2.5 -32.5t16.5 -7.5q23 -1 29.5 -4.5t6.5 -10.5q0 -19 -19 -19q-7 0 -41.5 1.5t-39.5 1.5q-7 0 -39.5 -1.5t-37.5 -1.5q-16 0 -16 15q0 11 5 12.5t33 3.5
q16 1 19 11.5t3 66.5v495q0 21 -6.5 24.5t-39.5 3.5q-18 0 -18 11t4.5 14.5t15.5 4.5q21 1 66 9q4 1 15 3t20 3.5t14 1.5q8 0 8 -12q0 -4 -0.5 -28t-0.5 -36v-400z" />
    <glyph glyph-name="l" unicode="l" horiz-adv-x="236" 
d="M157 553v-395q0 -109 4 -120q3 -7 10 -8.5t35 -2.5q11 0 14.5 -3.5t3.5 -13.5q0 -13 -13 -13q-8 0 -46 1.5t-44 1.5q-8 0 -49.5 -1.5t-48.5 -1.5q-12 0 -12 13q0 8 4 12t9.5 4.5t21.5 1.5q12 1 16.5 1.5t8.5 3t5 8.5q3 15 3 94v413q0 67 -3 75t-19 8h-33q-13 2 -13 10
q0 19 18 21q46 3 97 12q12 2 20 2q13 0 13 -14q0 -9 -1 -55.5t-1 -53.5z" />
    <glyph glyph-name="m" unicode="m" horiz-adv-x="726" 
d="M652 266v-200q0 -27 3.5 -33t22.5 -6q22 0 28.5 -2.5t6.5 -15.5q0 -12 -16 -12q-7 0 -43 1.5t-42 1.5t-42 -1.5t-43 -1.5q-14 0 -14 14q0 12 6 14t33 2q14 0 16.5 6t2.5 33v161q0 32 -2 53t-9 43.5t-22 33.5t-39 11q-39 0 -66 -34t-27 -78v-202q0 -26 10 -26
q30 0 39.5 -3.5t9.5 -13.5q0 -14 -16 -14q-7 0 -45 1.5t-44 1.5t-36 -1.5t-36 -1.5q-14 0 -14 13q0 11 5.5 13t27.5 3q14 2 16 6t2 43v182q0 55 -12.5 83.5t-45.5 28.5q-41 0 -74 -40t-33 -89v-175l1 -24q1 -9 5.5 -11t27.5 -3q10 0 13.5 -0.5t6.5 -4t3 -10.5q0 -15 -18 -15
q-7 0 -42 1.5t-41 1.5q-7 0 -40.5 -1.5t-38.5 -1.5q-17 0 -17 14q0 12 6 14t34 3q16 1 19 5.5t3 26.5v225q0 42 -5.5 53.5t-25.5 11.5q-13 0 -18 0.5t-8 3.5t-3 9q0 14 15 16q63 9 85 14q20 3 25 3q13 0 13 -25v-57q45 82 131 82q47 0 74.5 -22.5t34.5 -53.5q10 16 17 24.5
t23 23t37.5 21.5t48.5 7q31 0 54 -8.5t36 -23.5t21 -28.5t11 -31.5t3.5 -24t0.5 -14z" />
    <glyph glyph-name="n" unicode="n" horiz-adv-x="495" 
d="M422 277v-197l1 -25q1 -20 6.5 -24t32.5 -4q6 0 8.5 -0.5t6 -1.5t5 -4t1.5 -8q0 -10 -3.5 -13t-11.5 -3q-7 0 -43 1.5t-42 1.5t-26.5 -0.5t-38.5 -1.5l-18 -1q-16 0 -16 14q0 11 4 13t28 4q21 1 23 10q2 5 2 32v190q0 21 -0.5 32.5t-3 29t-8 26.5t-16 16t-26.5 7
q-45 0 -86 -46t-41 -101v-156q0 -24 3 -31t14 -8q37 -2 40 -8q2 -3 2 -9q0 -15 -15 -15q-6 0 -42.5 1.5t-42.5 1.5t-40 -1.5t-39 -1.5q-16 0 -16 14q0 11 5.5 13t32.5 3q14 1 17 9.5t3 39.5v210q0 46 -5.5 56t-28.5 11q-10 1 -12.5 1.5t-4.5 3t-2 10.5q0 15 21 15q24 0 69 7
q1 0 14 3t16 3q8 0 9.5 -6t1.5 -24v-63q56 93 142 93q63 0 91.5 -34.5t28.5 -84.5z" />
    <glyph glyph-name="o" unicode="o" horiz-adv-x="480" 
d="M240 401q76 0 139.5 -59t63.5 -149q0 -87 -61 -147.5t-143 -60.5q-80 0 -141 59.5t-61 146.5t61 148.5t142 61.5zM240 377q-60 0 -85 -44.5t-25 -135.5q0 -36 3.5 -64t13.5 -59t34 -48t59 -17q34 0 57 15.5t34 44.5t15 58t4 67q0 86 -23.5 134.5t-86.5 48.5z" />
    <glyph glyph-name="p" unicode="p" horiz-adv-x="512" 
d="M160 41v-202q0 -37 3.5 -45t22.5 -8q30 0 37 -3t7 -12q0 -15 -23 -15q-7 0 -46 1.5t-47 1.5t-47.5 -1.5t-46.5 -1.5q-18 0 -18 15q0 11 6 13t26 2q15 0 21 0.5t11.5 3.5t7.5 9q5 13 5 83v354q0 95 -4 108t-17 13h-10.5h-17h-9.5q-9 0 -9 14q0 6 2 9t14.5 5.5t37.5 3.5
q18 1 45 4t36 3q10 0 10 -39v-29q14 20 23.5 30.5t37 24t63.5 13.5q83 0 139 -57t56 -146q0 -90 -54 -149t-141 -59q-76 0 -121 56zM160 247v-116q0 -49 14 -73q27 -46 87 -46q63 0 92.5 52t29.5 126q0 22 -3 44t-13 57.5t-37 58t-68 22.5q-61 0 -88 -51q-14 -27 -14 -74z
" />
    <glyph glyph-name="q" unicode="q" horiz-adv-x="504" 
d="M361 345l51 40q14 11 19 11q11 0 11 -14q0 -27 -4 -67q-2 -66 -2 -119v-371q0 -28 4 -33t26 -5q11 0 16 -0.5t9 -4t4 -10.5q0 -10 -4.5 -13t-18.5 -3l-19 1q-19 1 -40.5 1.5t-27.5 0.5q-8 0 -45.5 -1.5t-43.5 -1.5q-18 0 -18 13q0 12 6 14.5t27 2.5h16q17 0 22.5 8
t5.5 40v216q-25 -32 -54 -48.5t-79 -16.5q-85 0 -135 57.5t-50 133.5q0 86 58.5 153t146.5 67q65 0 119 -51zM355 201v49q0 61 -18 85q-29 39 -87 39q-40 0 -67 -21.5t-37 -56.5t-13 -57.5t-3 -45.5q0 -22 2.5 -42.5t12.5 -56t37 -57t68 -21.5q38 0 66 21.5t33 59.5
q6 46 6 104z" />
    <glyph glyph-name="r" unicode="r" horiz-adv-x="336" 
d="M163 168v-87q0 -36 6 -43.5t30 -9.5q14 -1 20.5 -1.5t11.5 -2t6 -4t1 -6.5q0 -17 -23 -17q-9 0 -40 1.5t-48 1.5q-15 0 -48 -1.5t-37 -1.5q-13 0 -13 11t6.5 15t28.5 4q15 0 18 7t3 36v222q0 42 -4.5 52.5t-26.5 10.5q-18 0 -23.5 2.5t-5.5 11.5q0 11 4 13t22 3
q11 0 35.5 3t43.5 5.5t20 2.5q8 0 10.5 -4.5t2.5 -19.5v-72q12 31 28.5 52.5t33.5 31t29.5 13.5t23.5 4q22 0 38.5 -14t16.5 -38q0 -17 -12 -30t-29 -13q-22 0 -30 27q-5 23 -20 23q-29 0 -54 -50t-25 -138z" />
    <glyph glyph-name="s" unicode="s" horiz-adv-x="359" 
d="M175 401q29 0 57 -14q20 -10 25 -10q7 0 18 11q8 8 15 8q10 0 10 -12q0 -5 -1.5 -25.5t-1.5 -24.5v-61q0 -12 -15 -12q-6 0 -8.5 4t-5.5 20q-15 89 -87 89q-31 0 -47.5 -19t-16.5 -41q0 -16 5.5 -26.5t19 -18t25 -11.5t35.5 -11q121 -34 121 -129q0 -57 -40 -95t-94 -38
q-43 0 -81 21l-4 3q-5 3 -9.5 5t-5.5 2q-8 0 -19 -11t-19 -11q-11 0 -11 11q0 2 0.5 7.5t1.5 16t2 18.5q4 44 4 60t0.5 22t4 10t11.5 4q15 0 15 -16q0 -59 30.5 -86t68.5 -27q39 0 56.5 22.5t17.5 48.5q0 27 -15.5 46t-30 25.5t-37.5 12.5q-61 17 -88.5 41.5t-27.5 73.5
q0 45 31 81t91 36z" />
    <glyph glyph-name="t" unicode="t" horiz-adv-x="273" 
d="M79 346h-19q-23 0 -23 12q0 6 12 17q51 46 75 112q6 17 9.5 21t9.5 4q9 0 11 -7t2 -29v-86h83q9 0 10.5 -3t1.5 -16q0 -16 -3 -18.5t-22 -2.5h-68l-6 -219q-3 -99 48 -99q15 0 24.5 7.5t12.5 16t8 16t11 7.5q14 0 14 -14q0 -34 -28.5 -57t-68.5 -23q-108 0 -104 105z" />
    <glyph glyph-name="u" unicode="u" horiz-adv-x="494" 
d="M340 262v65q0 21 -3.5 25t-23.5 4q-26 0 -32 2t-6 12q0 7 4.5 10.5t10 4t19.5 0.5q52 0 84 4l19 2q9 0 9 -12l-1 -9q0 -10 -0.5 -21t-0.5 -14q0 -10 -0.5 -32t-0.5 -33v-142q0 -77 12 -89q7 -8 35 -10q13 0 13 -14q0 -10 -3.5 -12.5t-15.5 -2.5q-30 0 -51 -1l-57 -7
q-4 0 -6 1.5t-3.5 10.5t-2.5 27.5t-1 51.5q-20 -29 -34 -45.5t-44 -32.5t-67 -16q-49 0 -86 30.5t-37 99.5q0 47 3 101q3 81 4 106q1 21 -4.5 25.5t-32.5 4.5q-16 0 -21 2t-5 12q0 15 15 15q37 0 110 5l16 1q9 0 9 -8q0 -2 -1.5 -21t-1.5 -23q-10 -140 -10 -207
q0 -59 17 -83t50 -24q49 0 79.5 36.5t36.5 71.5q6 34 6 129z" />
    <glyph glyph-name="v" unicode="v" horiz-adv-x="429" 
d="M233 103l68 159q25 57 25 69q0 11 -6.5 17t-13 7.5t-21.5 3.5q-14 2 -14 13q0 16 19 16q4 0 30 -1.5t30 -1.5q5 0 32.5 1.5t31.5 1.5q15 0 15 -14q0 -8 -6 -11t-21 -6q-20 -3 -32.5 -21t-31.5 -62l-84 -189q-2 -5 -17 -40.5t-21 -49.5q-6 -16 -16 -16q-9 0 -14 12
q-3 6 -16 42.5t-14 40.5l-86 226q-14 36 -22 44.5t-34 13.5q-14 4 -14 16q0 14 14 14q6 0 37.5 -1.5t36.5 -1.5q6 0 38.5 1.5t37.5 1.5q19 0 19 -15q0 -14 -15 -14q-23 -8 -25 -13q0 -8 9 -31z" />
    <glyph glyph-name="w" unicode="w" horiz-adv-x="652" 
d="M466 101l68 173q18 46 18 58q0 19 -20 24q-19 5 -24 8t-5 10q0 14 20 14q4 0 27.5 -1.5t27.5 -1.5q5 0 30.5 1.5t29.5 1.5q14 0 14 -13q0 -9 -3.5 -12t-18.5 -7q-22 -6 -34 -21.5t-32 -63.5l-107 -262q-11 -28 -16 -29q-2 -1 -5 -1q-12 0 -22 31l-91 268l-102 -258
q-1 -3 -3 -8.5t-3.5 -8t-3 -6t-2.5 -5.5t-2.5 -4.5t-2.5 -4t-2.5 -2.5t-3 -1.5t-3.5 -0.5q-7 0 -10 7q-6 7 -16 38l-114 293q-11 27 -16 34t-18 8q-10 1 -13 2t-5.5 4t-2.5 9q0 14 13 14q6 0 36 -1.5t35 -1.5q6 0 37.5 1.5t36.5 1.5q18 0 18 -14q0 -8 -4 -11.5t-8 -4
t-15 -1.5q-19 0 -19 -12q0 -9 13 -40l81 -204l84 216l-4 14q-4 13 -8.5 18.5t-15.5 7.5q-28 9 -29 13q0 18 15 18q6 0 39 -1.5t38 -1.5q6 0 36 1.5t35 1.5q15 0 15 -13q0 -16 -12 -16q-17 0 -23.5 -2.5t-6.5 -14.5q0 -9 14 -51z" />
    <glyph glyph-name="x" unicode="x" horiz-adv-x="469" 
d="M243 242l39 46q39 47 39 58q0 10 -24 11q-13 0 -17.5 3.5t-4.5 11.5q0 16 12 16q4 0 35 -1.5t37 -1.5q5 0 32.5 1.5t31.5 1.5q14 0 14 -14q0 -11 -6 -13.5t-26 -4.5q-11 -1 -18.5 -3.5t-24.5 -18t-45 -46.5l-57 -66l120 -151q23 -29 34.5 -36t24.5 -7q13 -1 17 -1.5
t6.5 -3t2.5 -9.5q0 -10 -4 -13.5t-16 -3.5q-7 0 -42.5 1.5t-41.5 1.5q-7 0 -40.5 -1.5t-39.5 -1.5q-16 0 -16 14q0 8 3.5 12t14.5 4q20 1 20 6q0 8 -25 38l-72 92l-50 -68q-33 -43 -33 -54q0 -10 27 -14q19 -3 20 -8q1 -3 1 -7q0 -15 -19 -15q-6 0 -35.5 1.5t-34.5 1.5
t-31 -1.5t-30 -1.5q-8 0 -11.5 3t-3.5 13q0 8 3.5 10t18.5 5q16 3 25 6t27.5 19.5t43.5 47.5l66 82l-113 143q-24 30 -46 33q-17 2 -21 4.5t-4 11.5q0 13 10 13q7 0 42.5 -1.5t41.5 -1.5q7 0 42.5 1.5t41.5 1.5q14 0 14 -16q0 -10 -4.5 -12t-17.5 -3q-17 0 -17 -7
q0 -5 18 -27z" />
    <glyph glyph-name="y" unicode="y" horiz-adv-x="441" 
d="M202 0l-130 305q-11 30 -23.5 42t-29.5 12q-19 0 -19 15q0 5 1 8t4 4.5t4.5 2t8 0t8.5 -0.5q1 0 31 -1.5t46 -1.5q6 0 32.5 1.5t40.5 1.5q9 0 11.5 -2t2.5 -11q0 -16 -12 -16q-28 0 -30.5 -11t11.5 -37q2 -6 4 -10l83 -196l56 131q30 69 30 91q0 14 -12 23t-30 9
q-12 0 -12 16q0 5 1 7t6 4t16 2q3 0 27.5 -1.5t29.5 -1.5q6 0 35.5 1.5t34.5 1.5q13 0 13 -15q0 -14 -17 -14q-43 0 -66 -56l-198 -472q-14 -35 -21 -49t-20.5 -27t-31.5 -13q-16 0 -27 11t-11 29q0 16 10 28t19 17t26 13q24 11 41 37.5t39 78.5z" />
    <glyph glyph-name="z" unicode="z" horiz-adv-x="385" 
d="M332 341l-130 -210q-43 -68 -62 -107q121 0 152 28q26 25 33 75q4 18 14 18q17 0 17 -14l-4 -31q-7 -42 -7 -70q0 -21 -2 -27t-12 -6l-69 1q-70 1 -87 1q-23 0 -60 -1t-53 -1h-4q-26 0 -26 10q0 6 6 14l46 69l164 270q-116 0 -140 -22q-16 -15 -34 -72q-5 -16 -15 -16
q-15 0 -15 10q0 2 2 15t2 15q4 32 4 57v30q7 11 23 11t70.5 -1.5t75.5 -1.5q7 0 54 1.5t61 1.5q15 0 15 -10q0 -4 -19 -37z" />
    <glyph glyph-name="braceleft" unicode="{" horiz-adv-x="296" 
d="M178 137v-170q0 -55 13 -70.5t41 -15.5h28v-43h-52q-49 0 -69.5 24t-20.5 85v173q0 86 -72 99v42q72 13 72 98v173q0 61 20.5 85t69.5 24h52v-43h-28q-28 0 -41 -15.5t-13 -70.5v-170q0 -71 -64 -102q64 -32 64 -103z" />
    <glyph glyph-name="bar" unicode="|" horiz-adv-x="289" 
d="M175 -250h-61v1000h61v-1000z" />
    <glyph glyph-name="braceright" unicode="}" horiz-adv-x="296" 
d="M118 342v170q0 54 -12.5 70t-41.5 16h-28v43h52q49 0 69.5 -24t20.5 -85v-173q0 -85 72 -98v-42q-72 -13 -72 -99v-173q0 -61 -20 -85t-70 -24h-52v43h28q28 0 41 15.5t13 70.5v170q0 70 64 103q-64 30 -64 102z" />
    <glyph glyph-name="asciitilde" unicode="~" 
d="M442 372l18 -54q-20 -32 -31 -46.5t-34 -29t-51 -14.5q-24 0 -43.5 10.5t-78.5 52.5q-42 29 -72 29q-24 0 -43.5 -13.5t-29.5 -27.5t-30 -45l-17 54q20 32 32.5 48t37 31.5t53.5 15.5q17 0 33.5 -6t27.5 -13.5t42 -29.5q58 -43 89 -43q23 0 43.5 14.5t29.5 28t24 38.5z
" />
    <glyph glyph-name="uni00A0" unicode="&#xa0;" horiz-adv-x="208" 
 />
    <glyph glyph-name="exclamdown" unicode="&#xa1;" horiz-adv-x="239" 
d="M115 298q-24 0 -41.5 17t-17.5 42t17.5 42t41.5 17q25 0 42 -17t17 -42t-17 -42t-42 -17zM115 -258q-23 0 -37 46t-14 120q0 67 8 128t19.5 95t22.5 34t23 -34.5t20.5 -94t8.5 -122.5q0 -80 -14 -126t-37 -46z" />
    <glyph glyph-name="cent" unicode="&#xa2;" horiz-adv-x="426" 
d="M227 29v344q-92 -30 -92 -170q0 -87 25 -124.5t67 -49.5zM260 401q58 0 98 -26.5t40 -67.5q0 -16 -11 -28.5t-29 -12.5q-34 0 -34 33q0 5 2 20t2 19q0 12 -18.5 25.5t-49.5 13.5v-351q28 -1 52.5 12.5t34.5 24.5t15 20q7 13 9.5 15.5t6.5 2.5q5 0 9 -4.5t4 -9.5
q0 -24 -35.5 -60t-95.5 -42v-125q0 -16 -2.5 -19t-15.5 -3q-11 0 -13 4t-2 23v119q-87 2 -136 62t-49 136q0 74 48.5 138.5t136.5 78.5v165q0 16 2 19.5t12 3.5q14 0 16.5 -3t2.5 -20v-163z" />
    <glyph glyph-name="sterling" unicode="&#xa3;" horiz-adv-x="485" 
d="M242 326h120q8 0 9.5 -2t1.5 -9v-19q0 -5 -0.5 -6.5t-2.5 -2.5t-7 -1h-104q21 -57 21 -107q0 -43 -14 -77q69 -29 103 -29q24 0 38.5 7.5t20 16t12.5 26.5q6 13 15 13q11 0 11 -13q0 -32 -25 -78q-32 -60 -109 -60q-59 0 -105 45q-53 -45 -117 -45q-43 0 -68 20.5
t-25 52.5q0 38 32.5 60t76.5 22q43 0 88 -20q-3 33 -12 62t-43 104h-102q-9 0 -10.5 2t-1.5 11v16q0 4 0.5 6t2 3.5t3.5 1.5h6h86q-28 63 -28 121q0 77 48.5 128t125.5 51q62 0 100 -33.5t38 -75.5q0 -9 -1.5 -19.5t-13 -25t-31.5 -14.5q-23 0 -35 15.5t-12 36.5
q0 7 4.5 27.5t4.5 25.5q0 18 -16.5 28t-41.5 10q-48 0 -70 -29t-22 -62q0 -57 49 -184zM196 59q-62 46 -98 46q-28 0 -42 -14.5t-14 -31.5q0 -47 71 -47q54 0 83 47z" />
    <glyph glyph-name="currency" unicode="&#xa4;" 
d="M332 422l50 51l31 -30l-51 -51q30 -42 30 -86q0 -45 -30 -87l51 -51l-31 -30l-50 50q-46 -29 -88 -29q-44 0 -86 29l-50 -50l-31 30l51 51q-30 43 -30 86q0 45 30 87l-51 51l31 30l50 -51q41 30 88 30q46 0 86 -30zM245 403q-41 0 -69.5 -29t-28.5 -69t29 -68.5t69 -28.5
t69 28.5t29 68.5q0 41 -28.5 69.5t-69.5 28.5z" />
    <glyph glyph-name="yen" unicode="&#xa5;" horiz-adv-x="605" 
d="M419 356l-48 -92h156q21 0 23 -2q2 -3 2 -16q0 -8 -4.5 -9.5t-24.5 -1.5h-168v-158q0 -32 4.5 -39t29.5 -8q53 -3 53 -17q0 -8 -2.5 -11.5t-5.5 -4t-9 -0.5q-8 0 -49.5 1.5t-47.5 1.5q-24 0 -75 -1.5t-58 -1.5q-10 0 -13 2.5t-3 10.5q0 12 7 15t34 3q30 0 37 6.5t7 37.5
v163h-181q-20 0 -23 3q-2 2 -2 15q0 8 3.5 9.5t21.5 1.5h165l-54 92h-111q-21 0 -23 3q-2 2 -2 14q0 9 3.5 10.5t21.5 1.5h95l-82 142q-20 35 -29.5 42.5t-35.5 9.5q-17 1 -21.5 3.5t-4.5 13.5q0 9 3.5 12t14.5 3q6 0 45 -1.5t54 -1.5t55 1.5t56 1.5q15 0 15 -16
q0 -11 -5.5 -13t-25.5 -2q-11 0 -16.5 -0.5t-11.5 -1.5t-8.5 -4.5t-2.5 -8.5q0 -2 18 -38l82 -142h121l54 109q20 40 20 55q0 30 -53 30q-22 0 -22 15q0 17 20 17q6 0 38 -1.5t36 -1.5q8 0 48 1.5t46 1.5q14 0 14 -15q0 -16 -10 -17q-39 -2 -53 -13t-44 -68l-59 -113h93
q21 0 23 -3q2 -2 2 -15q0 -8 -4.5 -9.5t-24.5 -1.5h-104zM343 272l42 84h-90z" />
    <glyph glyph-name="brokenbar" unicode="&#xa6;" horiz-adv-x="289" 
d="M175 325h-61v350h61v-350zM175 -175h-61v350h61v-350z" />
    <glyph glyph-name="section" unicode="&#xa7;" horiz-adv-x="433" 
d="M257 60q51 -53 70.5 -88t19.5 -82q0 -71 -45.5 -110t-104.5 -39q-52 0 -86 30.5t-34 73.5q0 30 14.5 44.5t34.5 14.5q18 0 31.5 -12.5t13.5 -33.5q0 -22 -20 -42q-16 -16 -16 -20q0 -6 3 -12.5t18 -14t41 -7.5q45 0 70.5 28.5t25.5 64.5q0 28 -16 53t-72 75
q-77 68 -118 123.5t-41 120.5q0 39 26 77t83 38q8 0 22 -2q-43 44 -67 83t-24 85q0 64 44.5 107.5t107.5 43.5q52 0 85.5 -33t33.5 -72q0 -24 -13 -41.5t-35 -17.5q-20 0 -33 14.5t-13 31.5q0 24 23 44q13 10 13 19q0 14 -17.5 24t-43.5 10q-42 0 -70 -27t-28 -68
q0 -29 20 -56t104 -102q123 -110 123 -212q0 -60 -33.5 -88t-69.5 -28q-12 0 -27 3zM162 321q-31 0 -48.5 -19.5t-17.5 -45.5q0 -42 63.5 -110t115.5 -68q30 0 46 18.5t16 44.5q0 46 -62.5 113t-112.5 67z" />
    <glyph glyph-name="dieresis" unicode="&#xa8;" horiz-adv-x="333" 
d="M72 583q21 0 35.5 -14.5t14.5 -35.5t-14.5 -35.5t-35.5 -14.5q-20 0 -35 14.5t-15 35.5t15 35.5t35 14.5zM261 583q21 0 35.5 -14.5t14.5 -35.5t-14.5 -35.5t-35.5 -14.5q-20 0 -35 14.5t-15 35.5t14.5 35.5t35.5 14.5z" />
    <glyph glyph-name="copyright" unicode="&#xa9;" horiz-adv-x="765" 
d="M548 156l1 -34q0 -10 -12 -10q-8 0 -14 14q-6 12 -12 12q-4 0 -14 -6q-48 -29 -111 -29q-97 0 -156.5 60t-59.5 146q0 89 62.5 153.5t158.5 64.5q51 0 95 -23q17 -10 19 -10q4 0 6.5 3t9.5 16q2 5 10 5q12 0 12 -11q0 -4 -1 -23.5t-1 -22.5q0 -5 1 -32t1 -30
q0 -14 -13 -14q-9 0 -11 4t-6 25q-1 3 -1 4q-6 35 -38 60.5t-79 25.5q-36 0 -63 -16t-41 -38.5t-22.5 -52t-11 -50t-2.5 -39.5q0 -25 4.5 -50.5t17 -58.5t42.5 -53.5t74 -20.5q37 0 63.5 11.5t40 32t18.5 33.5t9 32q4 18 15 18q13 0 13 -11q0 -2 -1 -12t-1 -12
q-2 -34 -2 -61zM383 663q144 0 246 -102t102 -246t-102 -246t-246 -102t-246 102t-102 246t102 246t246 102zM383 629q-130 0 -222 -92t-92 -222t92 -222t222 -92t222 92t92 222t-92 222t-222 92z" />
    <glyph glyph-name="ordfeminine" unicode="&#xaa;" horiz-adv-x="286" 
d="M175 559v27q0 53 -49 53q-17 0 -26 -5.5t-10.5 -10.5t-2.5 -14q0 -24 -22 -24q-24 0 -24 25q0 19 23.5 34t63.5 15q95 0 95 -84v-111v-5v-5.5v-5t0.5 -5t1.5 -4t2 -3.5t3 -2.5t4.5 -2t5.5 -0.5q6 0 11 7t9 7q9 0 9 -11t-10.5 -21t-34.5 -10q-44 0 -49 41q-43 -41 -81 -41
q-25 0 -42 16.5t-17 38.5q0 31 32 62.5t108 38.5zM175 465v74q-87 -7 -87 -59q0 -5 1.5 -12t11 -16.5t25.5 -9.5q20 0 49 23z" />
    <glyph glyph-name="guillemotleft" unicode="&#xab;" horiz-adv-x="424" 
d="M87 192l132 -176q6 -9 6 -11q0 -5 -14 -5h-21q-13 0 -17.5 3t-15.5 17l-111 150q-14 20 -14 21q0 4 14 22l106 143q16 20 21 24.5t17 4.5h21q15 0 15 -4q0 -3 -10 -17zM253 192l132 -176q6 -9 6 -11q0 -5 -15 -5h-20q-13 0 -18 3t-15 17l-111 150q-14 16 -14 21
q0 4 14 22l106 143q16 20 21 24.5t17 4.5h20q16 0 16 -4q0 -3 -10 -17z" />
    <glyph glyph-name="logicalnot" unicode="&#xac;" 
d="M444 186h-61v166h-337v61h398v-227z" />
    <glyph glyph-name="uni00AD" unicode="&#xad;" horiz-adv-x="293" 
d="M67 251h174q10 0 13 -4t3 -18v-20q-1 -20 -3 -23q-3 -4 -31 -4h-159q-20 0 -24 2.5t-4 16.5v22q1 24 8 27q3 1 23 1z" />
    <glyph glyph-name="registered" unicode="&#xae;" horiz-adv-x="765" 
d="M314 311v-156q0 -7 0.5 -10t5.5 -5t10 -2.5t20 -0.5q7 -1 9.5 -1.5t5.5 -3.5t3 -9q0 -11 -13 -11q-6 0 -37.5 1t-36.5 1q-6 0 -36 -1t-35 -1q-20 0 -20 12q0 9 6.5 10.5t35.5 3.5q11 0 13 6q5 20 5 233q0 101 -5 109q-2 4 -23.5 5t-22.5 1q-9 2 -9 11q0 13 19 13h38
q11 0 67.5 2t65.5 2q50 0 84 -11.5t47 -30.5t17 -31.5t4 -25.5q0 -11 -3.5 -23t-13.5 -30t-36.5 -31.5t-65.5 -17.5q39 -10 57.5 -29t34.5 -55q30 -66 39 -75q8 -8 22 -8q16 0 20 12q5 15 14 15q11 0 11 -14q0 -19 -20 -40.5t-58 -21.5q-76 0 -97 96q-12 58 -17.5 72.5
t-18.5 24.5q-9 8 -24 11t-25 3.5t-37 0.5zM314 496v-164q41 0 64 4q41 7 59 32t18 52q0 78 -109 78q-12 0 -32 -2zM383 663q144 0 246 -102t102 -246t-102 -246t-246 -102t-246 102t-102 246t102 246t246 102zM383 629q-130 0 -222 -92t-92 -222t92 -222t222 -92t222 92
t92 222t-92 222t-222 92z" />
    <glyph glyph-name="macron" unicode="&#xaf;" horiz-adv-x="333" 
d="M44 564h237q25 0 27 -2q4 -2 4 -18v-23q0 -15 -3.5 -17.5t-23.5 -2.5h-238l-16 1q-7 0 -8.5 2.5t-1.5 16.5v23q0 15 3.5 17.5t19.5 2.5z" />
    <glyph glyph-name="degree" unicode="&#xb0;" horiz-adv-x="352" 
d="M176 641q57 0 97.5 -40t40.5 -97t-40.5 -98t-97.5 -41t-97.5 41t-40.5 98t40.5 97t97.5 40zM176 600q-41 0 -69 -28t-28 -68q0 -41 28.5 -69.5t68.5 -28.5t68.5 28.5t28.5 69.5t-28.5 68.5t-68.5 27.5z" />
    <glyph glyph-name="plusminus" unicode="&#xb1;" 
d="M444 66h-398v60h398v-60zM444 335h-169v-169h-60v169h-169v60h169v169h60v-169h169v-60z" />
    <glyph glyph-name="twosuperior" unicode="&#xb2;" horiz-adv-x="329" 
d="M114 440q8 0 36.5 0.5t37.5 0.5q12 0 48.5 3t37.5 3q4 0 9 -4t5 -8q0 -1 -13 -40q-2 -6 -4.5 -13t-4 -13t-2.5 -8q-6 -1 -16 -1q-13 0 -13 8l1 8q2 8 2 10q0 5 -83 5q-25 0 -69 -4q-38 -5 -46 -5q-12 0 -12 14q0 8 14 18q19 14 43.5 35t55.5 52.5t51.5 68t20.5 67.5
q0 39 -16.5 55.5t-37.5 16.5q-27 0 -48 -20t-21 -43q0 -19 10 -27.5t22 -8.5q1 0 3 0.5t5.5 1.5t5.5 1q9 3 14 3q12 0 12 -8q0 -10 -18 -20.5t-40 -10.5q-29 0 -44 15.5t-15 36.5q0 36 38 71t97 35q51 0 79 -28t28 -63q0 -53 -70 -117q-54 -49 -103 -87z" />
    <glyph glyph-name="threesuperior" unicode="&#xb3;" horiz-adv-x="329" 
d="M194 588q30 -1 50 -11t28 -23.5t10.5 -22.5t2.5 -16q0 -15 -9.5 -36t-29 -43.5t-56.5 -38t-84 -15.5q-37 0 -60 12.5t-23 33.5q0 13 10 21.5t24 8.5q11 0 20.5 -7.5t9.5 -16.5q0 -2 -3 -11t-3 -10q0 -11 25 -11q37 0 71 32t34 82q0 27 -11.5 41t-25.5 14q-8 0 -21 -8
q-11 -7 -18 -7q-22 0 -22 14q0 6 18 14q27 10 40.5 16t27.5 22.5t14 39.5q0 22 -14.5 35.5t-32.5 13.5q-26 0 -45.5 -14.5t-19.5 -34.5q0 -23 23 -23q2 0 9 1t8 1q12 0 12 -8q0 -7 -13 -13t-32 -6q-20 0 -35 11.5t-15 27.5q0 30 36 56t91 26q38 0 63 -16.5t25 -43.5
q0 -21 -15 -40t-28.5 -27t-35.5 -20z" />
    <glyph glyph-name="acute" unicode="&#xb4;" horiz-adv-x="333" 
d="M113 476l117 126q20 24 40 24q14 0 25.5 -10.5t11.5 -26.5q0 -20 -16.5 -34t-81.5 -51q-8 -5 -47 -30t-44 -28q-9 -3 -11 -3q-10 0 -10 8t16 25z" />
    <glyph glyph-name="mu" unicode="&#xb5;" horiz-adv-x="500" 
d="M58 385h81v-230q0 -109 68 -109q57 0 115 66v273h81v-257q0 -33 1.5 -49.5t9 -28t22.5 -11.5q31 0 40 60h20q-2 -55 -28.5 -84t-68.5 -29q-17 0 -30 5.5t-20 12t-12.5 19t-7.5 19.5t-4.5 21t-2.5 16q-22 -25 -36 -39.5t-48.5 -34t-68.5 -19.5q-21 0 -37.5 7.5t-22.5 14
t-16 20.5q-1 -48 9 -104q14 -79 14 -86q0 -19 -12 -36.5t-34 -17.5q-24 0 -33.5 18t-9.5 35q0 22 22 112q9 36 9 144v292z" />
    <glyph glyph-name="paragraph" unicode="&#xb6;" horiz-adv-x="539" 
d="M259 641h154q19 0 49 2q9 0 21.5 0.5t14.5 0.5q11 0 15 -3.5t4 -14.5q0 -9 -7 -12t-34 -3q-24 0 -29 -11.5t-5 -52.5v-804h-36v868h-96v-868h-36v516q-243 0 -243 192q0 92 62.5 141t165.5 49z" />
    <glyph glyph-name="periodcentered" unicode="&#xb7;" horiz-adv-x="317" 
d="M159 372q27 0 46.5 -19.5t19.5 -47.5t-19.5 -47t-46.5 -19q-28 0 -47.5 19.5t-19.5 46.5q0 28 19.5 47.5t47.5 19.5z" />
    <glyph glyph-name="cedilla" unicode="&#xb8;" horiz-adv-x="333" 
d="M140 5h27l-9 -49q85 -11 85 -81q0 -41 -37.5 -68t-102.5 -27q-49 0 -49 17q0 9 7 11t29 3q75 4 75 53q0 29 -43 42z" />
    <glyph glyph-name="onesuperior" unicode="&#xb9;" horiz-adv-x="329" 
d="M201 638v-204q0 -14 2 -17t13 -3q31 0 36 -2t5 -9q0 -9 -4.5 -11t-17.5 -2t-36 1t-32 1q-31 0 -65 -2h-12q-14 0 -14 11q0 7 4.5 10t22.5 3h27q6 11 6 50v216q0 20 -7 20q-3 0 -21.5 -2t-21.5 -2q-12 0 -12 12q0 7 4.5 9t22.5 4q12 1 36 4t43 6l18 3q7 0 7 -7
q0 -4 -1.5 -20t-1.5 -22q0 -7 -0.5 -23.5t-0.5 -23.5z" />
    <glyph glyph-name="ordmasculine" unicode="&#xba;" horiz-adv-x="334" 
d="M167 659q54 0 93 -37t39 -92q0 -56 -40 -91.5t-92 -35.5q-56 0 -94 38t-38 88q0 56 39 93t93 37zM168 639q-42 0 -57.5 -28t-15.5 -78q0 -110 72 -110q41 0 56.5 27.5t15.5 80.5q0 50 -14 79t-57 29z" />
    <glyph glyph-name="guillemotright" unicode="&#xbb;" horiz-adv-x="424" 
d="M337 193l-132 176q-6 9 -6 11q0 5 15 5h20q13 0 17.5 -3t15.5 -17l111 -149q14 -20 14 -22q0 -4 -14 -22l-106 -143q-16 -20 -21 -24.5t-17 -4.5h-20q-16 0 -16 4t10 17zM171 193l-132 176q-6 9 -6 11q0 5 15 5h20q13 0 18 -3t15 -17l111 -149q14 -16 14 -22
q0 -4 -14 -22l-106 -143q-16 -20 -21 -24.5t-17 -4.5h-20q-16 0 -16 4t10 17z" />
    <glyph glyph-name="onequarter" unicode="&#xbc;" horiz-adv-x="720" 
d="M641 124h37q12 0 16 -0.5t5.5 -3t1.5 -9.5q0 -9 -3 -11t-18 -2h-39v-51q0 -16 2.5 -20t12.5 -4q12 0 16.5 -0.5t8.5 -2t4.5 -4t0.5 -7.5q0 -11 -15 -11q-4 0 -25.5 1t-35.5 1q-6 0 -34.5 -1t-35.5 -1q-15 0 -15 11q0 9 5.5 10.5t38.5 2.5q3 0 4 1t2 6t1.5 14t0.5 26v29
h-129q-27 0 -27 9q0 4 14 20l180 209q14 16 19 16q13 0 13 -12q0 -22 -2 -32q0 -14 -1.5 -92.5t-2.5 -91.5zM463 124h114q0 85 2 131zM201 562v-204q0 -14 2 -17t13 -3q32 0 36 -2q5 -2 5 -9q0 -9 -4.5 -11t-17.5 -2q-8 0 -47 1t-46 1q-14 0 -48 -2h-4q-14 0 -14 11
q0 13 37 13q18 0 20 3q3 5 3 47v216q0 14 -1 17t-7 3q-3 0 -20.5 -2t-20.5 -2q-13 0 -13 12q0 7 4.5 9t22.5 4q15 1 37 4.5t38.5 6t19.5 2.5q9 0 9 -12q0 -20 -3 -35q-1 -32 -1 -49zM133 8l410 626q15 23 18 24q4 1 25 1q10 0 10 -5q0 -6 -13 -23l-403 -619
q-12 -19 -15.5 -22.5t-8.5 -4.5h-26q-8 0 -8 4t11 19z" />
    <glyph glyph-name="onehalf" unicode="&#xbd;" horiz-adv-x="720" 
d="M504 49q8 0 36.5 0.5t37.5 0.5q12 0 48.5 3t37.5 3q4 0 9 -4t5 -8l-13 -39q-3 -8 -7 -21l-4 -13q-6 -1 -16 -1q-13 0 -13 8l1 8q2 8 2 10q0 5 -83 5q-25 0 -69 -4q-38 -5 -46 -5q-12 0 -12 13q0 8 14 18q19 14 43.5 35t55.5 52.5t51.5 68t20.5 67.5q0 39 -16.5 55.5
t-37.5 16.5q-27 0 -48 -20t-21 -43q0 -19 10 -27.5t22 -8.5q2 0 14 3t14 3q12 0 12 -8q0 -10 -18 -20.5t-40 -10.5q-29 0 -44 15.5t-15 36.5q0 36 38 71t97 35q51 0 79 -28t28 -63q0 -53 -70 -117q-54 -49 -103 -87zM201 562v-204q0 -14 2 -17t13 -3q32 0 36 -2q5 -2 5 -9
q0 -9 -4.5 -11t-17.5 -2q-8 0 -47 1t-46 1q-14 0 -48 -2h-4q-14 0 -14 11q0 8 5.5 10.5t31.5 2.5q18 0 20 3q3 5 3 47v216q0 14 -1 17t-7 3q-3 0 -20.5 -2t-20.5 -2q-13 0 -13 12q0 7 4.5 9t22.5 4q48 4 78 10q4 1 7.5 2t5 1.5t2.5 0.5h2q9 0 9 -8q0 -25 -3 -40
q-1 -32 -1 -49zM133 8l410 626q15 23 18 24q4 1 25 1q10 0 10 -5q0 -6 -13 -23l-403 -619q-12 -19 -15.5 -22.5t-8.5 -4.5h-26q-8 0 -8 4t11 19z" />
    <glyph glyph-name="threequarters" unicode="&#xbe;" horiz-adv-x="720" 
d="M196 512q26 -1 44.5 -9t27 -17t13.5 -21t5.5 -17t0.5 -9q0 -46 -50.5 -89.5t-128.5 -43.5q-36 0 -59.5 12.5t-23.5 33.5q0 13 10 21.5t24 8.5q16 0 23.5 -8t7.5 -17q0 -1 -3.5 -10t-3.5 -10q0 -11 25 -11q35 0 70 32t35 82q0 25 -10 40t-26 15q-5 0 -18 -7.5t-17 -7.5
q-6 0 -16.5 4t-10.5 10t18 14q41 14 61.5 30.5t20.5 47.5q0 22 -14 35.5t-34 13.5q-22 0 -42.5 -14t-20.5 -36t22 -22q6 0 10 1t8 1q12 0 12 -8q0 -7 -13 -13t-32 -6q-21 0 -36 11.5t-15 27.5q0 28 35.5 55t91.5 27q38 0 63.5 -16.5t25.5 -43.5q0 -16 -7.5 -30t-22 -25.5
t-24 -17t-26.5 -14.5zM133 8l410 626q15 23 18 24q4 1 25 1q10 0 10 -5q0 -6 -13 -23l-403 -619q-12 -19 -15.5 -22.5t-8.5 -4.5h-26q-8 0 -8 4t11 19zM641 124h37q12 0 16 -0.5t5.5 -3t1.5 -9.5q0 -9 -3 -11t-18 -2h-39v-51q0 -16 2.5 -20t12.5 -4q12 0 16.5 -0.5t8.5 -2
t4.5 -4t0.5 -7.5q0 -11 -15 -11q-4 0 -25.5 1t-35.5 1q-6 0 -34.5 -1t-35.5 -1q-15 0 -15 11q0 9 5.5 10.5t38.5 2.5q3 0 4 1t2 6t1.5 14t0.5 26v29h-129q-27 0 -27 9q0 4 14 20l180 209q14 16 19 16q13 0 13 -12q0 -22 -2 -32q0 -14 -1.5 -92.5t-2.5 -91.5zM463 124h114
q0 85 2 131z" />
    <glyph glyph-name="questiondown" unicode="&#xbf;" horiz-adv-x="430" 
d="M281 97v82q0 12 0.5 17t4 9t11.5 4q9 0 13 -4t4.5 -13t-0.5 -23l-5 -170q0 -23 -14 -23q-10 0 -12 4.5t-2 21.5q0 56 -12 73q-14 21 -48 21q-40 0 -65 -36t-25 -108q0 -17 1 -31.5t7.5 -45.5t18.5 -52.5t38 -39t62 -17.5q32 0 49 13t17 30q0 3 -2.5 19t-2.5 18
q0 14 9.5 23t23.5 9q20 0 30 -12.5t10 -28.5q0 -42 -42.5 -68.5t-95.5 -26.5q-87 0 -151.5 63.5t-64.5 149.5q0 76 48.5 123.5t112.5 47.5q43 0 82 -29zM298 296q-25 0 -42.5 18t-17.5 43q0 24 17.5 41.5t42.5 17.5t42.5 -17.5t17.5 -41.5q0 -25 -18 -43t-42 -18z" />
    <glyph glyph-name="Agrave" unicode="&#xc0;" horiz-adv-x="635" 
d="M399 215h-214l-29 -81q-18 -51 -18 -75q0 -13 9 -19t35 -10q3 0 7.5 -0.5t6.5 -1t5 -1t4.5 -1t3 -1.5t2 -2.5t1 -3.5t0.5 -5q0 -11 -3.5 -14t-12.5 -3q-3 0 -39.5 1.5t-51.5 1.5t-48 -1.5t-37 -1.5q-15 0 -15 12t3 14.5t18 3.5h4q13 1 22 4.5t22 15.5t27.5 40.5
t31.5 73.5l181 477q7 19 11 26t12 7t12 -7t13 -36l131 -407q55 -165 71 -181q6 -7 50 -10q9 -1 12.5 -4t3.5 -13q0 -6 -1 -9.5t-3.5 -4.5t-5 -1.5t-7.5 -0.5q-8 0 -42 1.5t-59 1.5q-27 0 -70.5 -1.5t-48.5 -1.5q-9 0 -12.5 3t-3.5 14q0 9 5 12t25 3q43 0 43 13q0 1 -22 77z
M196 245h192l-87 274zM366 710l-173 81q-29 13 -35 17.5t-6 12.5t6 9.5t24 1.5h97q29 0 34 -2q7 -3 23 -24l54 -65q22 -27 22 -35q0 -11 -10 -11q-6 0 -36 15z" />
    <glyph glyph-name="Aacute" unicode="&#xc1;" horiz-adv-x="635" 
d="M281 741l53 65q17 21 23 24q5 2 35 2h96q18 0 24 -1.5t6 -9.5t-6 -12.5t-35 -17.5l-172 -81q-32 -15 -36 -15q-11 0 -11 11q0 8 23 35zM399 215h-214l-29 -81q-18 -51 -18 -75q0 -13 9 -19t35 -10q3 0 7.5 -0.5t6.5 -1t5 -1t4.5 -1t3 -1.5t2 -2.5t1 -3.5t0.5 -5
q0 -11 -3.5 -14t-12.5 -3q-3 0 -39.5 1.5t-51.5 1.5t-48 -1.5t-37 -1.5q-15 0 -15 12t3 14.5t18 3.5h4q13 1 22 4.5t22 15.5t27.5 40.5t31.5 73.5l181 477q7 19 11 26t12 7t12 -7t13 -36l131 -407q55 -165 71 -181q6 -7 50 -10q9 -1 12.5 -4t3.5 -13q0 -6 -1 -9.5t-3.5 -4.5
t-5 -1.5t-7.5 -0.5q-8 0 -42 1.5t-59 1.5q-27 0 -70.5 -1.5t-48.5 -1.5q-9 0 -12.5 3t-3.5 14q0 9 5 12t25 3q43 0 43 13q0 1 -22 77zM196 245h192l-87 274z" />
    <glyph glyph-name="Acircumflex" unicode="&#xc2;" horiz-adv-x="635" 
d="M399 215h-214l-29 -81q-18 -51 -18 -75q0 -13 9 -19t35 -10q3 0 7.5 -0.5t6.5 -1t5 -1t4.5 -1t3 -1.5t2 -2.5t1 -3.5t0.5 -5q0 -11 -3.5 -14t-12.5 -3q-3 0 -39.5 1.5t-51.5 1.5t-48 -1.5t-37 -1.5q-15 0 -15 12t3 14.5t18 3.5h4q13 1 22 4.5t22 15.5t27.5 40.5
t31.5 73.5l181 477q7 19 11 26t12 7t12 -7t13 -36l131 -407q55 -165 71 -181q6 -7 50 -10q9 -1 12.5 -4t3.5 -13q0 -6 -1 -9.5t-3.5 -4.5t-5 -1.5t-7.5 -0.5q-8 0 -42 1.5t-59 1.5q-27 0 -70.5 -1.5t-48.5 -1.5q-9 0 -12.5 3t-3.5 14q0 9 5 12t25 3q43 0 43 13q0 1 -22 77z
M196 245h192l-87 274zM317 786l-109 -71q-30 -20 -37 -20q-5 0 -9 4.5t-4 8.5q0 5 20 25l89 93q14 14 21 17t26 3h41q20 0 27.5 -3.5t25.5 -21.5l84 -82l9.5 -9.5t9 -9.5t4.5 -5q3 -3 3 -7q0 -12 -14 -12q-10 0 -33 13z" />
    <glyph glyph-name="Atilde" unicode="&#xc3;" horiz-adv-x="635" 
d="M399 215h-214l-29 -81q-18 -51 -18 -75q0 -13 9 -19t35 -10q3 0 7.5 -0.5t6.5 -1t5 -1t4.5 -1t3 -1.5t2 -2.5t1 -3.5t0.5 -5q0 -11 -3.5 -14t-12.5 -3q-3 0 -39.5 1.5t-51.5 1.5t-48 -1.5t-37 -1.5q-15 0 -15 12t3 14.5t18 3.5h4q13 1 22 4.5t22 15.5t27.5 40.5
t31.5 73.5l181 477q7 19 11 26t12 7t12 -7t13 -36l131 -407q55 -165 71 -181q6 -7 50 -10q9 -1 12.5 -4t3.5 -13q0 -6 -1 -9.5t-3.5 -4.5t-5 -1.5t-7.5 -0.5q-8 0 -42 1.5t-59 1.5q-27 0 -70.5 -1.5t-48.5 -1.5q-9 0 -12.5 3t-3.5 14q0 9 5 12t25 3q43 0 43 13q0 1 -22 77z
M196 245h192l-87 274zM274 806q20 0 83 -21q67 -22 75 -22q28 0 69 32q9 7 15 7q15 0 15 -13q0 -7 -12 -22t-31 -31t-49 -27.5t-61 -11.5q-27 0 -59 12q-12 4 -28.5 10.5t-22 9t-14.5 5.5t-13.5 4t-10.5 1.5t-12 0.5q-27 0 -64 -27q-12 -7 -16 -7q-15 0 -15 14
q0 9 21.5 28.5t40.5 31.5q44 27 89 26z" />
    <glyph glyph-name="Adieresis" unicode="&#xc4;" horiz-adv-x="635" 
d="M399 215h-214l-29 -81q-18 -51 -18 -75q0 -13 9 -19t35 -10q3 0 7.5 -0.5t6.5 -1t5 -1t4.5 -1t3 -1.5t2 -2.5t1 -3.5t0.5 -5q0 -11 -3.5 -14t-12.5 -3q-3 0 -39.5 1.5t-51.5 1.5t-48 -1.5t-37 -1.5q-15 0 -15 12t3 14.5t18 3.5h4q13 1 22 4.5t22 15.5t27.5 40.5
t31.5 73.5l181 477q7 19 11 26t12 7t12 -7t13 -36l131 -407q55 -165 71 -181q6 -7 50 -10q9 -1 12.5 -4t3.5 -13q0 -6 -1 -9.5t-3.5 -4.5t-5 -1.5t-7.5 -0.5q-8 0 -42 1.5t-59 1.5q-27 0 -70.5 -1.5t-48.5 -1.5q-9 0 -12.5 3t-3.5 14q0 9 5 12t25 3q43 0 43 13q0 1 -22 77z
M196 245h192l-87 274zM227 806q23 0 39 -16t16 -39t-16 -39t-39 -16t-39 16t-16 39t16 39t39 16zM449 806q23 0 39 -16t16 -39t-16 -39t-39 -16t-39 16t-16 39t16 39t39 16z" />
    <glyph glyph-name="Aring" unicode="&#xc5;" horiz-adv-x="635" 
d="M333 783q-23 0 -39.5 -16.5t-16.5 -39.5t16.5 -39.5t39.5 -16.5t39.5 16.5t16.5 39.5t-16.5 39.5t-39.5 16.5zM196 245h192l-87 274zM360 634l133 -413q55 -165 71 -181q6 -7 50 -10q9 -1 12.5 -4t3.5 -13q0 -6 -1 -9.5t-3.5 -4.5t-5 -1.5t-7.5 -0.5q-8 0 -42 1.5
t-59 1.5q-27 0 -70.5 -1.5t-48.5 -1.5q-9 0 -12.5 3t-3.5 14q0 9 5 12t25 3q43 0 43 13q0 1 -22 77l-29 96h-214l-29 -81q-18 -51 -18 -75q0 -13 9 -19t35 -10q3 0 7.5 -0.5t6.5 -1t5 -1t4.5 -1t3 -1.5t2 -2.5t1 -3.5t0.5 -5q0 -11 -3.5 -14t-12.5 -3q-3 0 -39.5 1.5
t-51.5 1.5t-48 -1.5t-37 -1.5q-15 0 -15 12t3 14.5t18 3.5h4q13 1 22 4.5t22 15.5t27.5 40.5t31.5 73.5l179 471q-36 9 -56 36.5t-20 58.5q0 40 28.5 68.5t68.5 28.5t68.5 -28.5t28.5 -68.5q0 -30 -18.5 -56t-51.5 -37z" />
    <glyph glyph-name="AE" unicode="&#xc6;" horiz-adv-x="896" 
d="M524 611v-255q27 0 39 0.5t31.5 3t28 7.5t19.5 14t15.5 23t6.5 34q1 11 2.5 16.5t5.5 9.5t11 4q16 0 16 -18q0 -11 -1.5 -68t-1.5 -66q0 -7 1.5 -48.5t1.5 -46.5q0 -12 -4 -16.5t-16 -4.5q-8 0 -11.5 8t-5.5 33q-4 52 -30.5 67.5t-107.5 17.5v-215q0 -58 6.5 -69.5
t39.5 -11.5q64 0 99.5 2t70 9t51.5 22.5t29.5 40t18.5 63.5q3 21 16 21q16 0 16 -16q0 -7 -2 -40.5t-2 -39.5t-1 -39.5t-2 -38.5q-1 -6 -2 -9.5t-6 -5.5t-14 -2q-16 0 -128.5 1.5t-199.5 1.5q-36 0 -95.5 -1.5t-63.5 -1.5q-11 0 -15 3.5t-4 13.5q0 11 7 13t48 3
q26 1 31.5 20t5.5 98v107h-218l-69 -111q-26 -42 -38 -69q-3 -5 -3 -14q0 -16 11.5 -21.5t45.5 -10.5q11 -1 15.5 -3.5t4.5 -12.5q0 -16 -19 -16q-7 0 -44 1.5t-43 1.5q-8 0 -48 -1.5t-47 -1.5q-14 0 -14 15q0 9 5 12t24 5q20 2 35.5 14t22.5 21.5t24 37.5l279 444
q28 45 28 51q0 9 -31 11q-30 2 -37 4.5t-7 13.5q0 18 24 18q4 0 76.5 -1.5t176.5 -1.5q51 0 121 1.5t103 1.5q10 0 13.5 -7t3.5 -26v-101q0 -18 -2 -23t-12 -5q-15 0 -18 27q-6 61 -58.5 81.5t-157.5 20.5h-51zM228 284h200v324z" />
    <glyph glyph-name="Ccedilla" unicode="&#xc7;" horiz-adv-x="656" 
d="M357 -17l-4 -26q90 -10 90 -77q0 -31 -16 -53t-41.5 -31.5t-47 -13.5t-41.5 -4q-58 0 -58 20q0 10 5.5 12.5t29.5 2.5q43 0 61 15.5t18 35.5q0 31 -42 38l16 83q-123 13 -202 104t-79 221q0 91 39.5 170t115.5 129t171 50q74 0 145 -42q18 -11 24 -11q7 0 10.5 4.5
t15.5 28.5q4 6 12 6q14 0 14 -15q0 -6 -1.5 -37.5t-1.5 -36.5q0 -8 1.5 -50t1.5 -49q0 -19 -15 -19q-12 0 -15.5 8t-8.5 34q-2 11 -3 18q-10 52 -57.5 92t-115.5 40q-92 0 -152.5 -81.5t-60.5 -238.5q0 -146 57.5 -222t152.5 -76q52 0 90 16.5t59 45.5t31.5 55.5t16.5 59.5
q3 16 7 21t12 5q16 0 16 -14q0 -3 -1.5 -18.5t-1.5 -18.5q-4 -50 -4 -98q0 -5 1.5 -30t1.5 -27q0 -12 -14 -12q-11 0 -19 21q-9 21 -18 21q-7 0 -35 -16q-1 0 -7.5 -4.5t-12 -7t-15.5 -7.5t-21.5 -8t-26.5 -6.5t-35 -5t-42 -1.5z" />
    <glyph glyph-name="Egrave" unicode="&#xc8;" horiz-adv-x="585" 
d="M261 612h-22t-16.5 -0.5t-7.5 -0.5v-257q81 0 106.5 16t34.5 79q3 19 17 19q16 0 16 -23q0 -7 -1.5 -47.5t-1.5 -72.5q0 -26 1.5 -55t1.5 -35q0 -35 -19 -35q-16 0 -16 19q-1 5 -2 14q-4 32 -8 44.5t-17.5 26t-39 17t-72.5 4.5v-206q0 -50 1.5 -63t7.5 -19q8 -7 45 -7
q97 0 147.5 10t74 33.5t32.5 70.5q6 30 9.5 36.5t12.5 6.5q15 0 15 -17q0 -41 -7 -160q0 -13 -15 -13q-6 0 -43 0.5t-91.5 1.5t-102.5 1q-68 0 -157.5 -1.5t-93.5 -1.5q-21 0 -21 16q0 12 5 14.5t26 2.5q31 0 40 2.5t13 13.5q6 22 6 116v363q0 46 -3 63t-14 18q-4 1 -28.5 3
t-28.5 3q-6 2 -6 11q0 13 5.5 17t22.5 4q6 0 79 -1.5t122 -1.5q52 0 132 1.5t98 1.5q9 0 11 -4t2 -18q0 -15 1 -55.5t1 -63.5q0 -20 -15 -20q-9 0 -13 6.5t-8 27.5q-9 52 -54.5 73.5t-161.5 21.5zM342 710l-172 81q-29 13 -35 17.5t-6 12.5t6 9.5t24 1.5h96q30 0 35 -2
t23 -24l53 -65q23 -27 23 -35t-11 -11q-4 -1 -36 15z" />
    <glyph glyph-name="Eacute" unicode="&#xc9;" horiz-adv-x="585" 
d="M229 741l53 65q18 22 23 24t34 2h97q18 0 24 -1.5t6 -9.5t-6 -12.5t-35 -17.5l-172 -81q-32 -15 -36 -15q-11 0 -11 11q0 8 23 35zM261 612h-22t-16.5 -0.5t-7.5 -0.5v-257q81 0 106.5 16t34.5 79q3 19 17 19q16 0 16 -23q0 -7 -1.5 -47.5t-1.5 -72.5q0 -26 1.5 -55
t1.5 -35q0 -35 -19 -35q-16 0 -16 19q-1 5 -2 14q-4 32 -8 44.5t-17.5 26t-39 17t-72.5 4.5v-206q0 -50 1.5 -63t7.5 -19q8 -7 45 -7q97 0 147.5 10t74 33.5t32.5 70.5q6 30 9.5 36.5t12.5 6.5q15 0 15 -17q0 -41 -7 -160q0 -13 -15 -13q-6 0 -43 0.5t-91.5 1.5t-102.5 1
q-68 0 -157.5 -1.5t-93.5 -1.5q-21 0 -21 16q0 12 5 14.5t26 2.5q31 0 40 2.5t13 13.5q6 22 6 116v363q0 46 -3 63t-14 18q-4 1 -28.5 3t-28.5 3q-6 2 -6 11q0 13 5.5 17t22.5 4q6 0 79 -1.5t122 -1.5q52 0 132 1.5t98 1.5q9 0 11 -4t2 -18q0 -15 1 -55.5t1 -63.5
q0 -20 -15 -20q-9 0 -13 6.5t-8 27.5q-9 52 -54.5 73.5t-161.5 21.5z" />
    <glyph glyph-name="Ecircumflex" unicode="&#xca;" horiz-adv-x="585" 
d="M261 612h-22t-16.5 -0.5t-7.5 -0.5v-257q81 0 106.5 16t34.5 79q3 19 17 19q16 0 16 -23q0 -7 -1.5 -47.5t-1.5 -72.5q0 -26 1.5 -55t1.5 -35q0 -35 -19 -35q-16 0 -16 19q-1 5 -2 14q-4 32 -8 44.5t-17.5 26t-39 17t-72.5 4.5v-206q0 -50 1.5 -63t7.5 -19q8 -7 45 -7
q97 0 147.5 10t74 33.5t32.5 70.5q6 30 9.5 36.5t12.5 6.5q15 0 15 -17q0 -41 -7 -160q0 -13 -15 -13q-6 0 -43 0.5t-91.5 1.5t-102.5 1q-68 0 -157.5 -1.5t-93.5 -1.5q-21 0 -21 16q0 12 5 14.5t26 2.5q31 0 40 2.5t13 13.5q6 22 6 116v363q0 46 -3 63t-14 18q-4 1 -28.5 3
t-28.5 3q-6 2 -6 11q0 13 5.5 17t22.5 4q6 0 79 -1.5t122 -1.5q52 0 132 1.5t98 1.5q9 0 11 -4t2 -18q0 -15 1 -55.5t1 -63.5q0 -20 -15 -20q-9 0 -13 6.5t-8 27.5q-9 52 -54.5 73.5t-161.5 21.5zM273 786l-109 -71q-30 -20 -37 -20q-5 0 -9 4.5t-4 8.5q0 5 20 25l89 93
q14 14 21 17t26 3h41q21 0 28.5 -3.5t25.5 -21.5l83 -82l9.5 -9.5t9 -9.5t4.5 -5q3 -3 3 -7q0 -12 -14 -12q-10 0 -33 13z" />
    <glyph glyph-name="Edieresis" unicode="&#xcb;" horiz-adv-x="585" 
d="M261 612h-22t-16.5 -0.5t-7.5 -0.5v-257q81 0 106.5 16t34.5 79q3 19 17 19q16 0 16 -23q0 -7 -1.5 -47.5t-1.5 -72.5q0 -26 1.5 -55t1.5 -35q0 -35 -19 -35q-16 0 -16 19q-1 5 -2 14q-4 32 -8 44.5t-17.5 26t-39 17t-72.5 4.5v-206q0 -50 1.5 -63t7.5 -19q8 -7 45 -7
q97 0 147.5 10t74 33.5t32.5 70.5q6 30 9.5 36.5t12.5 6.5q15 0 15 -17q0 -41 -7 -160q0 -13 -15 -13q-6 0 -43 0.5t-91.5 1.5t-102.5 1q-68 0 -157.5 -1.5t-93.5 -1.5q-21 0 -21 16q0 12 5 14.5t26 2.5q31 0 40 2.5t13 13.5q6 22 6 116v363q0 46 -3 63t-14 18q-4 1 -28.5 3
t-28.5 3q-6 2 -6 11q0 13 5.5 17t22.5 4q6 0 79 -1.5t122 -1.5q52 0 132 1.5t98 1.5q9 0 11 -4t2 -18q0 -15 1 -55.5t1 -63.5q0 -20 -15 -20q-9 0 -13 6.5t-8 27.5q-9 52 -54.5 73.5t-161.5 21.5zM183 806q23 0 39 -16t16 -39t-16 -39t-39 -16t-39 16t-16 39t16 39t39 16z
M405 806q23 0 39 -16t16 -39t-16 -39t-39 -16t-39 16t-16 39t16 39t39 16z" />
    <glyph glyph-name="Igrave" unicode="&#xcc;" horiz-adv-x="334" 
d="M215 490v-324q0 -103 5 -123q5 -13 44 -14q26 0 32.5 -3t6.5 -12q0 -17 -10 -17q-11 0 -68.5 1.5t-66.5 1.5t-57.5 -1.5t-56.5 -1.5q-13 0 -13 14q0 11 4.5 14.5t20.5 4.5q44 2 48 5q13 8 13 46q0 16 1 57t1 49v345q0 53 -5.5 66t-34.5 13q-22 0 -28.5 3t-6.5 13t3 13.5
t12 3.5q7 0 52 -1.5t53 -1.5q12 0 63.5 1.5t52.5 1.5q15 0 15 -16q0 -11 -5 -14t-25 -3q-18 0 -28 -2.5t-12.5 -5t-4.5 -7.5q-5 -16 -5 -106zM215 710l-172 81q-29 13 -35 17.5t-6 12.5t6 9.5t24 1.5h96q30 0 35 -2t23 -24l53 -65q23 -27 23 -35q0 -11 -10 -11q-7 0 -37 15z
" />
    <glyph glyph-name="Iacute" unicode="&#xcd;" horiz-adv-x="334" 
d="M215 490v-324q0 -103 5 -123q5 -13 44 -14q26 0 32.5 -3t6.5 -12q0 -17 -10 -17q-11 0 -68.5 1.5t-66.5 1.5t-57.5 -1.5t-56.5 -1.5q-13 0 -13 14q0 11 4.5 14.5t20.5 4.5q44 2 48 5q13 8 13 46q0 16 1 57t1 49v345q0 53 -5.5 66t-34.5 13q-22 0 -28.5 3t-6.5 13t3 13.5
t12 3.5q7 0 52 -1.5t53 -1.5q12 0 63.5 1.5t52.5 1.5q15 0 15 -16q0 -11 -5 -14t-25 -3q-18 0 -28 -2.5t-12.5 -5t-4.5 -7.5q-5 -16 -5 -106zM119 741l53 65q17 21 23 24q5 2 35 2h96q18 0 24 -1.5t6 -9.5t-6 -12.5t-35 -17.5l-172 -81q-32 -15 -36 -15q-11 0 -11 11
q0 8 23 35z" />
    <glyph glyph-name="Icircumflex" unicode="&#xce;" horiz-adv-x="334" 
d="M215 490v-324q0 -103 5 -123q5 -13 44 -14q26 0 32.5 -3t6.5 -12q0 -17 -10 -17q-11 0 -68.5 1.5t-66.5 1.5t-57.5 -1.5t-56.5 -1.5q-13 0 -13 14q0 11 4.5 14.5t20.5 4.5q44 2 48 5q13 8 13 46q0 16 1 57t1 49v345q0 53 -5.5 66t-34.5 13q-22 0 -28.5 3t-6.5 13t3 13.5
t12 3.5q7 0 52 -1.5t53 -1.5q12 0 63.5 1.5t52.5 1.5q15 0 15 -16q0 -11 -5 -14t-25 -3q-18 0 -28 -2.5t-12.5 -5t-4.5 -7.5q-5 -16 -5 -106zM148 790l-102 -75q-25 -20 -33 -20q-12 0 -12 11q0 8 22 32l73 84q18 21 24 23l6 1h12h48q22 0 27 -4q1 0 21 -20l80 -88
q19 -19 19 -28q0 -11 -12 -11q-7 0 -32 14z" />
    <glyph glyph-name="Idieresis" unicode="&#xcf;" horiz-adv-x="334" 
d="M215 490v-324q0 -103 5 -123q5 -13 44 -14q26 0 32.5 -3t6.5 -12q0 -17 -10 -17q-11 0 -68.5 1.5t-66.5 1.5t-57.5 -1.5t-56.5 -1.5q-13 0 -13 14q0 11 4.5 14.5t20.5 4.5q44 2 48 5q13 8 13 46q0 16 1 57t1 49v345q0 53 -5.5 66t-34.5 13q-22 0 -28.5 3t-6.5 13t3 13.5
t12 3.5q7 0 52 -1.5t53 -1.5q12 0 63.5 1.5t52.5 1.5q15 0 15 -16q0 -11 -5 -14t-25 -3q-18 0 -28 -2.5t-12.5 -5t-4.5 -7.5q-5 -16 -5 -106zM68 806q23 0 39 -16t16 -39t-16 -39t-39 -16t-39 16t-16 39t16 39t39 16zM266 806q23 0 39 -16t16 -39t-16 -39t-39 -16t-39 16
t-16 39t16 39t39 16z" />
    <glyph glyph-name="Eth" unicode="&#xd0;" horiz-adv-x="702" 
d="M119 336v109q0 134 -7 150q-4 7 -11.5 9.5t-37.5 4.5q-13 1 -17 2t-7 4t-3 10q0 19 17 19q9 0 58.5 -1.5t57.5 -1.5q12 0 78 1.5t77 1.5q159 0 245.5 -93.5t86.5 -231.5t-80 -232.5t-227 -94.5q-14 0 -92 4q-76 4 -89 4q-12 0 -70 -2q-12 0 -26 -1t-22 -1l-8 -1
q-15 0 -15 15q0 12 6 15t35 5q28 2 36 5.5t10 18.5q5 30 5 116v136h-66q-11 0 -13.5 3t-2.5 14q0 9 3.5 11t22.5 2h56zM215 477v-141h134q18 0 22.5 -3t4.5 -15q0 -8 -3 -10t-13 -2h-145v-130q0 -76 3 -100t12 -35q15 -19 91 -19q61 0 105 24.5t68.5 69t35.5 97t11 116.5
q0 136 -63 210.5t-209 74.5q-24 0 -50 -4q-4 -20 -4 -133z" />
    <glyph glyph-name="Ntilde" unicode="&#xd1;" horiz-adv-x="697" 
d="M152 545v-369q0 -94 16 -119q19 -28 57 -28q20 0 25 -3t5 -12q0 -7 -1 -9.5t-7 -5t-18 -2.5q-7 0 -41 1.5t-58 1.5q-16 0 -50 -1.5t-40 -1.5q-13 0 -16.5 3t-3.5 12q0 17 13 17q51 0 71 32q15 24 15 125v398q-17 19 -28.5 23t-48.5 4q-18 0 -18 15q0 18 18 18
q5 0 33.5 -1.5t33.5 -1.5q6 0 40 1.5t39 1.5q9 0 19 -5q2 -2 10 -14.5t9 -13.5l328 -445v344q0 22 -1 34t-4.5 28t-13 24t-24.5 11q-42 7 -45 12q-2 3 -2 8q0 10 4.5 13.5t21.5 3.5q15 0 37 -1.5t38 -1.5q13 0 49 1.5t41 1.5q18 0 18 -17q0 -9 -6.5 -12.5t-28.5 -6.5
q-32 -4 -41.5 -25.5t-9.5 -84.5v-481q0 -14 -0.5 -19.5t-4 -10t-10.5 -4.5t-11.5 5t-21.5 29zM294 806q23 0 82 -21q61 -22 75 -22q28 0 69 32q9 7 16 7q5 0 10 -4t5 -9q0 -20 -47.5 -56t-105.5 -36q-28 0 -60 12q-14 5 -32.5 12t-25 9.5t-15.5 5.5t-14.5 3.5t-13.5 0.5
q-27 0 -63 -27q-12 -7 -17 -7q-6 0 -10.5 4.5t-4.5 9.5q0 9 21.5 28t40.5 32q41 28 90 26z" />
    <glyph glyph-name="Ograve" unicode="&#xd2;" horiz-adv-x="737" 
d="M367 659q142 0 233 -99.5t91 -237.5q0 -141 -91 -240t-233 -99t-231.5 98.5t-89.5 238.5t89.5 239.5t231.5 99.5zM367 629q-97 0 -149.5 -67t-52.5 -241q0 -90 15 -152t43.5 -95.5t63 -47t80.5 -13.5q47 0 82 13.5t64 46.5t44 95.5t15 152.5t-15 152t-44 95.5t-64 47
t-82 13.5zM417 710l-173 81q-29 13 -35 17.5t-6 12.5t6 9.5t24 1.5h97q29 0 34 -2q7 -3 23 -24l54 -65q22 -27 22 -35q0 -11 -10 -11q-9 0 -36 15z" />
    <glyph glyph-name="Oacute" unicode="&#xd3;" horiz-adv-x="737" 
d="M367 659q142 0 233 -99.5t91 -237.5q0 -141 -91 -240t-233 -99t-231.5 98.5t-89.5 238.5t89.5 239.5t231.5 99.5zM367 629q-97 0 -149.5 -67t-52.5 -241q0 -90 15 -152t43.5 -95.5t63 -47t80.5 -13.5q47 0 82 13.5t64 46.5t44 95.5t15 152.5t-15 152t-44 95.5t-64 47
t-82 13.5zM296 741l54 65q16 21 23 24q5 2 34 2h97q18 0 24 -1.5t6 -9.5t-6 -12.5t-35 -17.5l-173 -81q-31 -15 -35 -15q-11 0 -11 11q0 8 22 35z" />
    <glyph glyph-name="Ocircumflex" unicode="&#xd4;" horiz-adv-x="737" 
d="M367 659q142 0 233 -99.5t91 -237.5q0 -141 -91 -240t-233 -99t-231.5 98.5t-89.5 238.5t89.5 239.5t231.5 99.5zM367 629q-97 0 -149.5 -67t-52.5 -241q0 -90 15 -152t43.5 -95.5t63 -47t80.5 -13.5q47 0 82 13.5t64 46.5t44 95.5t15 152.5t-15 152t-44 95.5t-64 47
t-82 13.5zM347 786l-109 -71q-30 -20 -37 -20q-5 0 -8.5 4.5t-3.5 8.5q0 6 19 25l89 93q14 15 20.5 17.5t27.5 2.5h41q20 0 27.5 -4t25.5 -21l83 -82q4 -4 9 -9.5t10 -9.5l5 -5q2 -4 2 -7q0 -12 -14 -12q-10 0 -33 13z" />
    <glyph glyph-name="Otilde" unicode="&#xd5;" horiz-adv-x="737" 
d="M367 659q142 0 233 -99.5t91 -237.5q0 -141 -91 -240t-233 -99t-231.5 98.5t-89.5 238.5t89.5 239.5t231.5 99.5zM367 629q-97 0 -149.5 -67t-52.5 -241q0 -90 15 -152t43.5 -95.5t63 -47t80.5 -13.5q47 0 82 13.5t64 46.5t44 95.5t15 152.5t-15 152t-44 95.5t-64 47
t-82 13.5zM316 806q23 0 82 -21q61 -22 75 -22q28 0 70 32q8 7 15 7q5 0 10 -4t5 -9q0 -20 -47.5 -56t-105.5 -36q-28 0 -60 12q-14 5 -32.5 12t-25 9.5t-15.5 5.5t-14.5 3.5t-13.5 0.5q-27 0 -63 -27q-12 -7 -17 -7q-6 0 -10.5 4.5t-4.5 9.5q0 9 21.5 28t40.5 32
q41 28 90 26z" />
    <glyph glyph-name="Odieresis" unicode="&#xd6;" horiz-adv-x="737" 
d="M367 659q142 0 233 -99.5t91 -237.5q0 -141 -91 -240t-233 -99t-231.5 98.5t-89.5 238.5t89.5 239.5t231.5 99.5zM367 629q-97 0 -149.5 -67t-52.5 -241q0 -90 15 -152t43.5 -95.5t63 -47t80.5 -13.5q47 0 82 13.5t64 46.5t44 95.5t15 152.5t-15 152t-44 95.5t-64 47
t-82 13.5zM257 806q23 0 39 -16t16 -39t-16 -39t-39 -16t-39 16t-16 39t16 39t39 16zM479 806q23 0 39 -16t16 -39t-16 -39t-39 -16t-39 16t-16 39t16 39t39 16z" />
    <glyph glyph-name="multiply" unicode="&#xd7;" 
d="M421 439l-133 -134l133 -133l-42 -43l-134 134l-134 -134l-42 43l133 133l-133 134l42 43l134 -134l134 134z" />
    <glyph glyph-name="Oslash" unicode="&#xd8;" horiz-adv-x="737" 
d="M573 584l44 53q14 16 17 16q4 0 12 -7t8 -9q0 -6 -8 -14l-51 -60q96 -100 96 -242q0 -149 -94 -243.5t-228 -94.5q-124 0 -205 72l-47 -55q-10 -12 -15 -12q-4 0 -10.5 5.5t-6.5 9.5q0 5 21 31l35 41q-95 98 -95 244q0 138 90 239t233 101q113 0 204 -75zM191 134
l342 403q-48 92 -165 92q-45 0 -79 -13t-63.5 -45.5t-45 -96t-15.5 -157.5q0 -111 26 -183zM546 507l-341 -404q48 -90 167 -90q42 0 75.5 14.5t54 33.5t35 52.5t21.5 56.5t10.5 60.5t3.5 50.5v40q0 108 -26 186z" />
    <glyph glyph-name="Ugrave" unicode="&#xd9;" horiz-adv-x="688" 
d="M580 472v-224q0 -29 -1 -50.5t-6 -51t-13.5 -50.5t-24.5 -43.5t-38 -37t-55 -23.5t-75 -9q-69 0 -119 15.5t-75.5 37.5t-40.5 57t-18 62t-3 65v323q0 45 -5.5 56t-33.5 11q-22 0 -27 2.5t-5 15.5q0 16 18 16q8 0 47.5 -1.5t46.5 -1.5q9 0 55 1.5t54 1.5q22 0 22 -17
t-21 -17h-23.5t-14.5 -4.5t-10 -9t-4.5 -20t-2.5 -30v-47.5v-259q0 -34 1 -54.5t10 -56.5t25.5 -57.5t51 -38.5t82.5 -17q92 0 134 60q22 31 29 70t7 138v203q0 76 -11.5 99.5t-59.5 23.5q-23 0 -23 16q0 18 18 18q15 0 45.5 -1.5t39.5 -1.5q11 0 48 1.5t44 1.5q20 0 20 -17
q0 -8 -5 -11.5t-27 -6.5q-38 -5 -47 -29.5t-9 -107.5zM402 710l-172 81q-29 13 -35.5 17.5t-6.5 12.5t6.5 9.5t24.5 1.5h96q30 0 35 -2q6 -3 22 -24l54 -65q23 -27 23 -35q0 -11 -11 -11q-6 0 -36 15z" />
    <glyph glyph-name="Uacute" unicode="&#xda;" horiz-adv-x="688" 
d="M580 472v-224q0 -29 -1 -50.5t-6 -51t-13.5 -50.5t-24.5 -43.5t-38 -37t-55 -23.5t-75 -9q-69 0 -119 15.5t-75.5 37.5t-40.5 57t-18 62t-3 65v323q0 45 -5.5 56t-33.5 11q-22 0 -27 2.5t-5 15.5q0 16 18 16q8 0 47.5 -1.5t46.5 -1.5q9 0 55 1.5t54 1.5q22 0 22 -17
t-21 -17h-23.5t-14.5 -4.5t-10 -9t-4.5 -20t-2.5 -30v-47.5v-259q0 -34 1 -54.5t10 -56.5t25.5 -57.5t51 -38.5t82.5 -17q92 0 134 60q22 31 29 70t7 138v203q0 76 -11.5 99.5t-59.5 23.5q-23 0 -23 16q0 18 18 18q15 0 45.5 -1.5t39.5 -1.5q11 0 48 1.5t44 1.5q20 0 20 -17
q0 -8 -5 -11.5t-27 -6.5q-38 -5 -47 -29.5t-9 -107.5zM294 741l53 65q18 22 23 24t35 2h96q18 0 24 -1.5t6 -9.5t-6 -12.5t-35 -17.5l-172 -81q-32 -15 -36 -15q-11 0 -11 11q0 8 23 35z" />
    <glyph glyph-name="Ucircumflex" unicode="&#xdb;" horiz-adv-x="688" 
d="M580 472v-224q0 -29 -1 -50.5t-6 -51t-13.5 -50.5t-24.5 -43.5t-38 -37t-55 -23.5t-75 -9q-69 0 -119 15.5t-75.5 37.5t-40.5 57t-18 62t-3 65v323q0 45 -5.5 56t-33.5 11q-22 0 -27 2.5t-5 15.5q0 16 18 16q8 0 47.5 -1.5t46.5 -1.5q9 0 55 1.5t54 1.5q22 0 22 -17
t-21 -17h-23.5t-14.5 -4.5t-10 -9t-4.5 -20t-2.5 -30v-47.5v-259q0 -34 1 -54.5t10 -56.5t25.5 -57.5t51 -38.5t82.5 -17q92 0 134 60q22 31 29 70t7 138v203q0 76 -11.5 99.5t-59.5 23.5q-23 0 -23 16q0 18 18 18q15 0 45.5 -1.5t39.5 -1.5q11 0 48 1.5t44 1.5q20 0 20 -17
q0 -8 -5 -11.5t-27 -6.5q-38 -5 -47 -29.5t-9 -107.5zM333 786l-110 -71q-32 -20 -36 -20q-5 0 -9 4.5t-4 8.5q0 5 20 25l88 93q14 15 21 17.5t27 2.5h41q19 0 27 -4t26 -21l83 -82l7.5 -7.5l7.5 -7.5l5.5 -5.5l3.5 -3.5q3 -6 3 -7q0 -12 -14 -12q-11 0 -34 13z" />
    <glyph glyph-name="Udieresis" unicode="&#xdc;" horiz-adv-x="688" 
d="M580 472v-224q0 -29 -1 -50.5t-6 -51t-13.5 -50.5t-24.5 -43.5t-38 -37t-55 -23.5t-75 -9q-69 0 -119 15.5t-75.5 37.5t-40.5 57t-18 62t-3 65v323q0 45 -5.5 56t-33.5 11q-22 0 -27 2.5t-5 15.5q0 16 18 16q8 0 47.5 -1.5t46.5 -1.5q9 0 55 1.5t54 1.5q22 0 22 -17
t-21 -17h-23.5t-14.5 -4.5t-10 -9t-4.5 -20t-2.5 -30v-47.5v-259q0 -34 1 -54.5t10 -56.5t25.5 -57.5t51 -38.5t82.5 -17q92 0 134 60q22 31 29 70t7 138v203q0 76 -11.5 99.5t-59.5 23.5q-23 0 -23 16q0 18 18 18q15 0 45.5 -1.5t39.5 -1.5q11 0 48 1.5t44 1.5q20 0 20 -17
q0 -8 -5 -11.5t-27 -6.5q-38 -5 -47 -29.5t-9 -107.5zM243 806q23 0 39 -16t16 -39t-16 -39t-39 -16t-39 16t-16 39t16 39t39 16zM465 806q23 0 39 -16t16 -39t-16 -39t-39 -16t-39 16t-16 39t16 39t39 16z" />
    <glyph glyph-name="Yacute" unicode="&#xdd;" horiz-adv-x="635" 
d="M360 287l116 233q21 44 21 58q0 32 -56 32q-23 0 -23 15q0 12 4.5 15.5t15.5 3.5q8 0 51.5 -1.5t50.5 -1.5q6 0 38 1.5t37 1.5q16 0 16 -17t-11 -17q-41 -2 -56 -14t-46 -72l-145 -276v-166q0 -36 4.5 -42.5t30.5 -7.5q38 -1 47 -3.5t9 -15.5q0 -16 -14 -16
q-19 0 -66.5 1.5t-68.5 1.5q-9 0 -56.5 -1.5t-55.5 -1.5q-17 0 -17 13q0 14 7 17t37 3q31 0 39 7t8 40v171l-176 307q-21 37 -31.5 45t-37.5 10q-14 1 -18 2t-6.5 4t-2.5 11q0 17 19 17q14 0 53 -1.5t53 -1.5q8 0 55 1.5t59 1.5q16 0 16 -17q0 -10 -6 -13.5t-26 -3.5
q-12 0 -17.5 -0.5t-12 -1.5t-9 -4.5t-2.5 -8.5q0 -6 19 -40zM281 741l53 65q17 21 23 24q5 2 35 2h96q18 0 24 -1.5t6 -9.5t-6 -12.5t-35 -17.5l-172 -81q-32 -15 -36 -15q-11 0 -11 11q0 8 23 35z" />
    <glyph glyph-name="Thorn" unicode="&#xde;" horiz-adv-x="542" 
d="M210 160v-64q0 -48 6.5 -56t44.5 -9q15 0 20.5 -0.5t12 -2.5t8 -5t1.5 -9q0 -17 -23 -17q-9 0 -56 1.5t-55 1.5q-9 0 -56.5 -1.5t-55.5 -1.5q-16 0 -16 14q0 13 7 16t30 3q27 0 34 9.5t7 48.5v469q0 38 -5.5 45t-35.5 8q-24 1 -31 4t-7 13q0 18 19 18q8 0 49.5 -2
t48.5 -2q8 0 53.5 2t52.5 2q26 0 26 -17q0 -12 -7 -14.5t-37 -3.5h-1q-24 -1 -29 -12t-5 -46v-63q5 0 29.5 0.5t45.5 0.5q111 0 173 -47t62 -123t-53.5 -119.5t-183.5 -43.5q-43 0 -73 3zM210 459v-270q22 -2 39 -2q159 0 159 144q0 71 -43 99.5t-155 28.5z" />
    <glyph glyph-name="germandbls" unicode="&#xdf;" horiz-adv-x="503" 
d="M160 452v-366q0 -38 2.5 -46.5t16.5 -11.5q15 -3 18 -5t3 -9q0 -17 -20 -17q-6 0 -37 1.5t-36 1.5q-6 0 -37 -1.5t-36 -1.5q-14 0 -14 13q0 8 3 11.5t9 4t24 1.5q16 1 19.5 10t3.5 45v389q0 97 49 151t131 54q84 0 129.5 -48.5t45.5 -113.5q0 -117 -136 -136
q82 -27 123 -82t41 -124q0 -79 -45 -134t-113 -55q-38 0 -62 20t-24 56q0 22 13 38t35 16q18 0 27.5 -10.5t9.5 -23.5q0 -12 -12 -28q-14 -19 -14 -24q0 -3 1.5 -6.5t7.5 -7t16 -3.5q12 0 21.5 4.5t16 14t11.5 19.5t7.5 25t4.5 26t2.5 28.5t0.5 25.5v23v17q0 83 -35.5 128
t-79.5 45q-22 0 -22 13q0 12 10 12q54 0 82.5 28.5t28.5 99.5q0 133 -89 133q-28 0 -47.5 -11t-30 -27t-16 -45.5t-6.5 -53t-1 -63.5z" />
    <glyph glyph-name="agrave" unicode="&#xe0;" horiz-adv-x="398" 
d="M246 236l1 50q1 49 -16.5 70t-58.5 21q-34 0 -46.5 -11.5t-14.5 -39.5q-3 -36 -35 -36q-36 0 -36 36q0 10 4.5 20.5t17 24t41 22t70.5 8.5q44 0 75.5 -11.5t46 -25.5t22 -39t8 -38t0.5 -37l-4 -166q-1 -32 4.5 -46t21.5 -14q11 0 19 10q8 11 12 11q12 0 12 -11
q0 -6 -4 -16t-21 -21.5t-43 -11.5q-69 0 -77 70q-38 -36 -65 -53t-58 -17q-41 0 -66.5 27.5t-25.5 62.5q0 52 53 101t163 60zM243 81l3 131q-68 -6 -101 -35t-33 -68q0 -21 13.5 -44.5t44.5 -23.5q12 0 23 5t19.5 11t30.5 24zM136 602l117 -126q16 -17 16 -25t-10 -8
q-7 0 -63 37q-2 2 -53.5 32t-59.5 37q-24 19 -24 40q0 16 11.5 26.5t25.5 10.5q18 0 40 -24z" />
    <glyph glyph-name="aacute" unicode="&#xe1;" horiz-adv-x="398" 
d="M246 236l1 50q1 49 -16.5 70t-58.5 21q-34 0 -46.5 -11.5t-14.5 -39.5q-3 -36 -35 -36q-36 0 -36 36q0 10 4.5 20.5t17 24t41 22t70.5 8.5q44 0 75.5 -11.5t46 -25.5t22 -39t8 -38t0.5 -37l-4 -166q-1 -32 4.5 -46t21.5 -14q11 0 19 10q8 11 12 11q12 0 12 -11
q0 -6 -4 -16t-21 -21.5t-43 -11.5q-69 0 -77 70q-38 -36 -65 -53t-58 -17q-41 0 -66.5 27.5t-25.5 62.5q0 52 53 101t163 60zM243 81l3 131q-68 -6 -101 -35t-33 -68q0 -21 13.5 -44.5t44.5 -23.5q12 0 23 5t19.5 11t30.5 24zM146 476l117 126q20 24 40 24q14 0 25.5 -10.5
t11.5 -26.5q0 -20 -16.5 -34t-81.5 -51q-8 -5 -47 -30t-44 -28q-9 -3 -11 -3q-10 0 -10 8t16 25z" />
    <glyph glyph-name="acircumflex" unicode="&#xe2;" horiz-adv-x="398" 
d="M246 236l1 50q1 49 -16.5 70t-58.5 21q-34 0 -46.5 -11.5t-14.5 -39.5q-3 -36 -35 -36q-36 0 -36 36q0 10 4.5 20.5t17 24t41 22t70.5 8.5q44 0 75.5 -11.5t46 -25.5t22 -39t8 -38t0.5 -37l-4 -166q-1 -32 4.5 -46t21.5 -14q11 0 19 10q8 11 12 11q12 0 12 -11
q0 -6 -4 -16t-21 -21.5t-43 -11.5q-69 0 -77 70q-38 -36 -65 -53t-58 -17q-41 0 -66.5 27.5t-25.5 62.5q0 52 53 101t163 60zM243 81l3 131q-68 -6 -101 -35t-33 -68q0 -21 13.5 -44.5t44.5 -23.5q12 0 23 5t19.5 11t30.5 24zM188 549l-92 -96q-15 -16 -22 -16q-11 0 -11 11
t16 35l78 128q8 14 12 16.5t15 2.5h21q13 0 17 -2.5t12 -15.5l92 -141q10 -17 10 -23q0 -5 -4.5 -8t-7.5 -3q-6 0 -29 19z" />
    <glyph glyph-name="atilde" unicode="&#xe3;" horiz-adv-x="398" 
d="M246 236l1 50q1 49 -16.5 70t-58.5 21q-34 0 -46.5 -11.5t-14.5 -39.5q-3 -36 -35 -36q-36 0 -36 36q0 10 4.5 20.5t17 24t41 22t70.5 8.5q44 0 75.5 -11.5t46 -25.5t22 -39t8 -38t0.5 -37l-4 -166q-1 -32 4.5 -46t21.5 -14q11 0 19 10q8 11 12 11q12 0 12 -11
q0 -6 -4 -16t-21 -21.5t-43 -11.5q-69 0 -77 70q-38 -36 -65 -53t-58 -17q-41 0 -66.5 27.5t-25.5 62.5q0 52 53 101t163 60zM243 81l3 131q-68 -6 -101 -35t-33 -68q0 -21 13.5 -44.5t44.5 -23.5q12 0 23 5t19.5 11t30.5 24zM157 583q24 0 98 -27q27 -9 37 -9q28 0 50 22
q10 8 15 8q4 0 8 -3.5t4 -8.5q0 -3 -4.5 -11t-15.5 -20t-25 -23t-36.5 -18.5t-47.5 -7.5q-31 0 -74 19q-38 17 -58 17q-25 0 -52 -22q-8 -5 -13 -5q-13 0 -13 13q0 11 28 35q44 41 99 41z" />
    <glyph glyph-name="adieresis" unicode="&#xe4;" horiz-adv-x="398" 
d="M246 236l1 50q1 49 -16.5 70t-58.5 21q-34 0 -46.5 -11.5t-14.5 -39.5q-3 -36 -35 -36q-36 0 -36 36q0 10 4.5 20.5t17 24t41 22t70.5 8.5q44 0 75.5 -11.5t46 -25.5t22 -39t8 -38t0.5 -37l-4 -166q-1 -32 4.5 -46t21.5 -14q11 0 19 10q8 11 12 11q12 0 12 -11
q0 -6 -4 -16t-21 -21.5t-43 -11.5q-69 0 -77 70q-38 -36 -65 -53t-58 -17q-41 0 -66.5 27.5t-25.5 62.5q0 52 53 101t163 60zM243 81l3 131q-68 -6 -101 -35t-33 -68q0 -21 13.5 -44.5t44.5 -23.5q12 0 23 5t19.5 11t30.5 24zM105 583q21 0 35.5 -14.5t14.5 -35.5
t-14.5 -35.5t-35.5 -14.5q-20 0 -35 14.5t-15 35.5t15 35.5t35 14.5zM294 583q21 0 35.5 -14.5t14.5 -35.5t-14.5 -35.5t-35.5 -14.5q-20 0 -35 14.5t-15 35.5t14.5 35.5t35.5 14.5z" />
    <glyph glyph-name="aring" unicode="&#xe5;" horiz-adv-x="398" 
d="M246 236l1 50q1 49 -16.5 70t-58.5 21q-34 0 -46.5 -11.5t-14.5 -39.5q-3 -36 -35 -36q-36 0 -36 36q0 10 4.5 20.5t17 24t41 22t70.5 8.5q44 0 75.5 -11.5t46 -25.5t22 -39t8 -38t0.5 -37l-4 -166q-1 -32 4.5 -46t21.5 -14q11 0 19 10q8 11 12 11q12 0 12 -11
q0 -6 -4 -16t-21 -21.5t-43 -11.5q-69 0 -77 70q-38 -36 -65 -53t-58 -17q-41 0 -66.5 27.5t-25.5 62.5q0 52 53 101t163 60zM243 81l3 131q-68 -6 -101 -35t-33 -68q0 -21 13.5 -44.5t44.5 -23.5q12 0 23 5t19.5 11t30.5 24zM200 625q37 0 64 -26.5t27 -64.5t-26.5 -65
t-64.5 -27t-65 27t-27 65t27 64.5t65 26.5zM200 590q-23 0 -39.5 -17t-16.5 -40t16.5 -39.5t39.5 -16.5t39.5 16.5t16.5 39.5q0 24 -16.5 40.5t-39.5 16.5z" />
    <glyph glyph-name="ae" unicode="&#xe6;" horiz-adv-x="609" 
d="M326 215q-4 -86 35 -133.5t93 -47.5q75 0 99 68q7 16 15 16q13 0 13 -15q0 -35 -42.5 -76.5t-119.5 -41.5q-104 0 -146 73q-85 -73 -149 -73q-48 0 -71 28.5t-23 63.5q0 61 59 104t156 55q2 42 2 65q0 76 -76 76q-55 0 -57 -33q-1 -20 -3 -29t-10 -16.5t-24 -7.5
q-22 0 -30 12.5t-8 23.5q0 32 39.5 53t101.5 21q38 0 66 -11.5t37 -20.5t20 -24q42 56 124 56q70 0 110.5 -49t40.5 -108q0 -20 -6.5 -25.5t-16.5 -5.5q-9 0 -56 1t-55 1q-12 0 -64.5 0.5t-53.5 -0.5zM330 245h97q45 0 60.5 8.5t15.5 40.5q0 39 -20.5 61t-53.5 22
q-81 0 -99 -132zM262 78q-23 69 -17 134q-21 -3 -33 -6t-34 -10.5t-34.5 -17t-22.5 -27t-10 -40.5q0 -33 20 -55t49 -22q33 0 82 44z" />
    <glyph glyph-name="ccedilla" unicode="&#xe7;" horiz-adv-x="413" 
d="M219 -15l-5 -29q85 -11 85 -81q0 -38 -35.5 -66.5t-104.5 -28.5q-49 0 -49 17q0 6 4 9t10 3.5t21 1.5q76 4 76 53q0 29 -43 42l14 82q-73 14 -114 68.5t-41 125.5q0 84 60.5 151.5t157.5 67.5q58 0 98 -26.5t40 -67.5q0 -16 -11 -28.5t-29 -12.5q-34 0 -34 33q0 5 2 20
t2 19q0 13 -19.5 26t-48.5 13q-59 0 -92 -47.5t-33 -126.5q0 -20 1.5 -38t8.5 -45t19.5 -46t37 -33t57.5 -14q35 0 63.5 17.5t39.5 39.5q6 12 8.5 15t6.5 3q15 0 15 -12q0 -5 -4.5 -16.5t-17 -27.5t-30.5 -30t-48.5 -23t-67.5 -8z" />
    <glyph glyph-name="egrave" unicode="&#xe8;" horiz-adv-x="407" 
d="M255 241h-129q-3 -17 -3 -39q0 -66 33 -117t90 -51q69 0 108 74q6 10 13 10q12 0 12 -15q0 -36 -43 -77t-121 -41q-86 0 -132 59t-46 136q0 84 51 152.5t138 68.5q70 0 109.5 -49t39.5 -93q0 -9 -4 -14t-8 -5.5t-12 -0.5t-48.5 1t-47.5 1zM131 271h94q45 0 60 6.5
t15 26.5q0 25 -18.5 49t-55.5 24q-78 0 -95 -106zM155 602l117 -126q16 -17 16 -25t-10 -8q-8 0 -63 37q-2 2 -53.5 32t-59.5 37q-24 19 -24 40q0 16 11.5 26.5t25.5 10.5q18 0 40 -24z" />
    <glyph glyph-name="eacute" unicode="&#xe9;" horiz-adv-x="407" 
d="M255 241h-129q-3 -17 -3 -39q0 -66 33 -117t90 -51q69 0 108 74q6 10 13 10q12 0 12 -15q0 -36 -43 -77t-121 -41q-86 0 -132 59t-46 136q0 84 51 152.5t138 68.5q70 0 109.5 -49t39.5 -93q0 -9 -4 -14t-8 -5.5t-12 -0.5t-48.5 1t-47.5 1zM131 271h94q45 0 60 6.5
t15 26.5q0 25 -18.5 49t-55.5 24q-78 0 -95 -106zM165 476l117 126q20 24 40 24q14 0 25.5 -10.5t11.5 -26.5q0 -20 -16.5 -34t-81.5 -51q-8 -5 -47 -30t-44 -28q-9 -3 -11 -3q-10 0 -10 8t16 25z" />
    <glyph glyph-name="ecircumflex" unicode="&#xea;" horiz-adv-x="407" 
d="M255 241h-129q-3 -17 -3 -39q0 -66 33 -117t90 -51q69 0 108 74q6 10 13 10q12 0 12 -15q0 -36 -43 -77t-121 -41q-86 0 -132 59t-46 136q0 84 51 152.5t138 68.5q70 0 109.5 -49t39.5 -93q0 -9 -4 -14t-8 -5.5t-12 -0.5t-48.5 1t-47.5 1zM131 271h94q45 0 60 6.5
t15 26.5q0 25 -18.5 49t-55.5 24q-78 0 -95 -106zM207 549l-92 -96q-15 -16 -22 -16q-11 0 -11 11t16 35l78 128q8 14 12 16.5t15 2.5h21q13 0 17 -2.5t12 -15.5l92 -141q10 -17 10 -23q0 -5 -4.5 -8t-7.5 -3q-6 0 -29 19z" />
    <glyph glyph-name="edieresis" unicode="&#xeb;" horiz-adv-x="407" 
d="M255 241h-129q-3 -17 -3 -39q0 -66 33 -117t90 -51q69 0 108 74q6 10 13 10q12 0 12 -15q0 -36 -43 -77t-121 -41q-86 0 -132 59t-46 136q0 84 51 152.5t138 68.5q70 0 109.5 -49t39.5 -93q0 -9 -4 -14t-8 -5.5t-12 -0.5t-48.5 1t-47.5 1zM131 271h94q45 0 60 6.5
t15 26.5q0 25 -18.5 49t-55.5 24q-78 0 -95 -106zM124 583q21 0 35.5 -14.5t14.5 -35.5t-14.5 -35.5t-35.5 -14.5q-20 0 -35 14.5t-15 35.5t15 35.5t35 14.5zM313 583q21 0 35.5 -14.5t14.5 -35.5t-14.5 -35.5t-35.5 -14.5q-20 0 -35 14.5t-15 35.5t14.5 35.5t35.5 14.5z
" />
    <glyph glyph-name="igrave" unicode="&#xec;" horiz-adv-x="243" 
d="M164 274v-190q0 -26 1 -35t6.5 -14t18.5 -6q26 -1 32.5 -4t6.5 -15q0 -8 -3.5 -10.5t-12.5 -2.5q-3 0 -34 1.5t-44 1.5q-14 0 -50 -1.5t-47 -1.5q-12 0 -16 3t-4 11q0 11 6.5 13.5t33.5 4.5q5 0 9.5 1t7 3.5t5 4.5t3.5 6t2 6.5t1 8.5v9v10.5v10.5v217v5q0 30 -3 37.5
t-18 7.5h-11t-9.5 -0.5t-8 0t-7 1t-4.5 2t-3 4.5t-1 7q0 15 19 15q22 0 64 4q12 1 25 3t20.5 3t8.5 1q10 0 10 -14q0 -3 -1.5 -25t-1.5 -30q0 -5 -0.5 -25t-0.5 -28zM58 602l117 -126q16 -17 16 -25t-10 -8q-7 0 -63 37q-2 2 -53.5 32t-59.5 37q-24 19 -24 40
q0 16 11.5 26.5t25.5 10.5q18 0 40 -24z" />
    <glyph glyph-name="iacute" unicode="&#xed;" horiz-adv-x="243" 
d="M164 274v-190q0 -26 1 -35t6.5 -14t18.5 -6q26 -1 32.5 -4t6.5 -15q0 -8 -3.5 -10.5t-12.5 -2.5q-3 0 -34 1.5t-44 1.5q-14 0 -50 -1.5t-47 -1.5q-12 0 -16 3t-4 11q0 11 6.5 13.5t33.5 4.5q5 0 9.5 1t7 3.5t5 4.5t3.5 6t2 6.5t1 8.5v9v10.5v10.5v217v5q0 30 -3 37.5
t-18 7.5h-11t-9.5 -0.5t-8 0t-7 1t-4.5 2t-3 4.5t-1 7q0 15 19 15q22 0 64 4q12 1 25 3t20.5 3t8.5 1q10 0 10 -14q0 -3 -1.5 -25t-1.5 -30q0 -5 -0.5 -25t-0.5 -28zM68 476l117 126q20 24 40 24q14 0 25.5 -10.5t11.5 -26.5q0 -20 -16.5 -34t-81.5 -51q-8 -5 -47 -30
t-44 -28q-9 -3 -11 -3q-10 0 -10 8t16 25z" />
    <glyph glyph-name="icircumflex" unicode="&#xee;" horiz-adv-x="243" 
d="M164 274v-190q0 -26 1 -35t6.5 -14t18.5 -6q26 -1 32.5 -4t6.5 -15q0 -8 -3.5 -10.5t-12.5 -2.5q-3 0 -34 1.5t-44 1.5q-14 0 -50 -1.5t-47 -1.5q-12 0 -16 3t-4 11q0 11 6.5 13.5t33.5 4.5q5 0 9.5 1t7 3.5t5 4.5t3.5 6t2 6.5t1 8.5v9v10.5v10.5v217v5q0 30 -3 37.5
t-18 7.5h-11t-9.5 -0.5t-8 0t-7 1t-4.5 2t-3 4.5t-1 7q0 15 19 15q22 0 64 4q12 1 25 3t20.5 3t8.5 1q10 0 10 -14q0 -3 -1.5 -25t-1.5 -30q0 -5 -0.5 -25t-0.5 -28zM111 551l-62 -79q-25 -35 -35 -35q-13 0 -13 11q0 4 10 24l64 131q9 19 14.5 23t21.5 4h18q16 0 19 -3
t14 -24l66 -126q14 -27 14 -30q0 -10 -11 -10q-8 0 -30 22z" />
    <glyph glyph-name="idieresis" unicode="&#xef;" horiz-adv-x="243" 
d="M164 274v-190q0 -26 1 -35t6.5 -14t18.5 -6q26 -1 32.5 -4t6.5 -15q0 -8 -3.5 -10.5t-12.5 -2.5q-3 0 -34 1.5t-44 1.5q-14 0 -50 -1.5t-47 -1.5q-12 0 -16 3t-4 11q0 11 6.5 13.5t33.5 4.5q5 0 9.5 1t7 3.5t5 4.5t3.5 6t2 6.5t1 8.5v9v10.5v10.5v217v5q0 30 -3 37.5
t-18 7.5h-11t-9.5 -0.5t-8 0t-7 1t-4.5 2t-3 4.5t-1 7q0 15 19 15q22 0 64 4q12 1 25 3t20.5 3t8.5 1q10 0 10 -14q0 -3 -1.5 -25t-1.5 -30q0 -5 -0.5 -25t-0.5 -28zM45 583q21 0 35.5 -14.5t14.5 -35.5t-15 -35.5t-35 -14.5q-21 0 -36 14.5t-15 35.5t15 35.5t36 14.5z
M198 583q21 0 36 -14.5t15 -35.5t-15 -35.5t-36 -14.5q-20 0 -35 14.5t-15 35.5t15 35.5t35 14.5z" />
    <glyph glyph-name="eth" unicode="&#xf0;" horiz-adv-x="481" 
d="M234 603l79 60q13 10 17 10q5 0 11 -8.5t6 -11.5q0 -4 -11 -12l-81 -57q186 -170 186 -359q0 -109 -58 -174.5t-143 -65.5q-86 0 -144.5 61.5t-58.5 143.5q0 90 61.5 150.5t140.5 60.5q44 0 85 -30q-23 86 -105 186l-90 -66q-10 -8 -13 -8t-9.5 7.5t-6.5 10.5t13 13
l87 64q-33 31 -85 70q-8 5 -8 13q0 15 14 15q11 0 46 -22.5t67 -50.5zM240 377q-62 0 -86 -46.5t-24 -133.5q0 -36 3.5 -64t13.5 -59t34 -48t59 -17q34 0 57 15.5t34 44.5t15 58t4 67q0 94 -25.5 138.5t-84.5 44.5z" />
    <glyph glyph-name="ntilde" unicode="&#xf1;" horiz-adv-x="495" 
d="M422 277v-197l1 -25q1 -20 6.5 -24t32.5 -4q6 0 8.5 -0.5t6 -1.5t5 -4t1.5 -8q0 -10 -3.5 -13t-11.5 -3q-7 0 -43 1.5t-42 1.5t-26.5 -0.5t-38.5 -1.5l-18 -1q-16 0 -16 14q0 11 4 13t28 4q21 1 23 10q2 5 2 32v190q0 21 -0.5 32.5t-3 29t-8 26.5t-16 16t-26.5 7
q-45 0 -86 -46t-41 -101v-156q0 -24 3 -31t14 -8q37 -2 40 -8q2 -3 2 -9q0 -15 -15 -15q-6 0 -42.5 1.5t-42.5 1.5t-40 -1.5t-39 -1.5q-16 0 -16 14q0 11 5.5 13t32.5 3q14 1 17 9.5t3 39.5v210q0 46 -5.5 56t-28.5 11q-10 1 -12.5 1.5t-4.5 3t-2 10.5q0 15 21 15q24 0 69 7
q1 0 14 3t16 3q8 0 9.5 -6t1.5 -24v-63q56 93 142 93q63 0 91.5 -34.5t28.5 -84.5zM205 583q24 0 98 -27q27 -9 37 -9q28 0 50 22q10 8 15 8q4 0 8 -3.5t4 -8.5q0 -3 -4.5 -11t-15.5 -20t-25 -23t-36.5 -18.5t-47.5 -7.5q-31 0 -74 19q-38 17 -58 17q-25 0 -52 -22
q-8 -5 -13 -5q-13 0 -13 13q0 11 28 35q44 41 99 41z" />
    <glyph glyph-name="ograve" unicode="&#xf2;" horiz-adv-x="480" 
d="M240 401q76 0 139.5 -59t63.5 -149q0 -87 -61 -147.5t-143 -60.5q-80 0 -141 59.5t-61 146.5t61 148.5t142 61.5zM240 377q-60 0 -85 -44.5t-25 -135.5q0 -36 3.5 -64t13.5 -59t34 -48t59 -17q34 0 57 15.5t34 44.5t15 58t4 67q0 86 -23.5 134.5t-86.5 48.5zM177 602
l117 -126q16 -17 16 -25t-10 -8q-8 0 -63 37q-2 2 -53.5 32t-59.5 37q-24 19 -24 40q0 16 11.5 26.5t25.5 10.5q18 0 40 -24z" />
    <glyph glyph-name="oacute" unicode="&#xf3;" horiz-adv-x="480" 
d="M240 401q76 0 139.5 -59t63.5 -149q0 -87 -61 -147.5t-143 -60.5q-80 0 -141 59.5t-61 146.5t61 148.5t142 61.5zM240 377q-60 0 -85 -44.5t-25 -135.5q0 -36 3.5 -64t13.5 -59t34 -48t59 -17q34 0 57 15.5t34 44.5t15 58t4 67q0 86 -23.5 134.5t-86.5 48.5zM187 476
l117 126q20 24 40 24q14 0 25.5 -10.5t11.5 -26.5q0 -20 -16.5 -34t-81.5 -51q-8 -5 -47 -30t-44 -28q-9 -3 -11 -3q-10 0 -10 8t16 25z" />
    <glyph glyph-name="ocircumflex" unicode="&#xf4;" horiz-adv-x="480" 
d="M240 401q76 0 139.5 -59t63.5 -149q0 -87 -61 -147.5t-143 -60.5q-80 0 -141 59.5t-61 146.5t61 148.5t142 61.5zM240 377q-60 0 -85 -44.5t-25 -135.5q0 -36 3.5 -64t13.5 -59t34 -48t59 -17q34 0 57 15.5t34 44.5t15 58t4 67q0 86 -23.5 134.5t-86.5 48.5zM229 549
l-92 -96q-15 -16 -22 -16q-11 0 -11 11t16 35l78 128q8 14 12 16.5t15 2.5h21q12 0 16.5 -2.5t12.5 -15.5l92 -141q10 -17 10 -23q0 -5 -4.5 -8t-7.5 -3q-6 0 -29 19z" />
    <glyph glyph-name="otilde" unicode="&#xf5;" horiz-adv-x="480" 
d="M240 401q76 0 139.5 -59t63.5 -149q0 -87 -61 -147.5t-143 -60.5q-80 0 -141 59.5t-61 146.5t61 148.5t142 61.5zM240 377q-60 0 -85 -44.5t-25 -135.5q0 -36 3.5 -64t13.5 -59t34 -48t59 -17q34 0 57 15.5t34 44.5t15 58t4 67q0 86 -23.5 134.5t-86.5 48.5zM198 583
q24 0 98 -27q27 -9 37 -9q28 0 50 22q10 8 15 8q4 0 8 -3.5t4 -8.5q0 -3 -4.5 -11t-15.5 -20t-25 -23t-36.5 -18.5t-47.5 -7.5q-31 0 -74 19q-38 17 -58 17q-25 0 -52 -22q-8 -5 -13 -5q-13 0 -13 13q0 11 28 35q44 41 99 41z" />
    <glyph glyph-name="odieresis" unicode="&#xf6;" horiz-adv-x="480" 
d="M240 401q76 0 139.5 -59t63.5 -149q0 -87 -61 -147.5t-143 -60.5q-80 0 -141 59.5t-61 146.5t61 148.5t142 61.5zM240 377q-60 0 -85 -44.5t-25 -135.5q0 -36 3.5 -64t13.5 -59t34 -48t59 -17q34 0 57 15.5t34 44.5t15 58t4 67q0 86 -23.5 134.5t-86.5 48.5zM146 583
q21 0 35.5 -14.5t14.5 -35.5t-14.5 -35.5t-35.5 -14.5q-20 0 -35 14.5t-15 35.5t15 35.5t35 14.5zM335 583q21 0 35.5 -14.5t14.5 -35.5t-14.5 -35.5t-35.5 -14.5q-20 0 -35 14.5t-15 35.5t14.5 35.5t35.5 14.5z" />
    <glyph glyph-name="divide" unicode="&#xf7;" 
d="M245 501q19 0 33 -13.5t14 -33.5q0 -19 -14 -33t-33 -14t-33 13.5t-14 33.5t14 33.5t33 13.5zM245 205q20 0 33.5 -14t13.5 -33q0 -20 -14 -33.5t-33 -13.5t-33 13.5t-14 33.5t14 33.5t33 13.5zM444 276h-398v60h398v-60z" />
    <glyph glyph-name="oslash" unicode="&#xf8;" horiz-adv-x="480" 
d="M117 28l-33 -39q-10 -13 -15 -13q-3 0 -10.5 5.5t-7.5 9.5q0 8 13 21l30 37q-57 58 -57 142q0 90 62.5 150t141.5 60q60 0 116 -40l30 34q15 16 16 16q4 0 12 -6.5t8 -9.5t-7 -13l-35 -41q62 -61 62 -149q0 -86 -61 -146.5t-143 -60.5q-66 0 -122 43zM341 293l-192 -226
q27 -58 90 -58q111 0 111 182q0 65 -9 102zM138 100l190 226q-29 51 -88 51q-62 0 -86 -48t-24 -132q0 -64 8 -97z" />
    <glyph glyph-name="ugrave" unicode="&#xf9;" horiz-adv-x="494" 
d="M340 262v65q0 21 -3.5 25t-23.5 4q-26 0 -32 2t-6 12q0 7 4.5 10.5t10 4t19.5 0.5q52 0 84 4l19 2q9 0 9 -12l-1 -9q0 -10 -0.5 -21t-0.5 -14q0 -10 -0.5 -32t-0.5 -33v-142q0 -77 12 -89q7 -8 35 -10q13 0 13 -14q0 -10 -3.5 -12.5t-15.5 -2.5q-30 0 -51 -1l-57 -7
q-4 0 -6 1.5t-3.5 10.5t-2.5 27.5t-1 51.5q-20 -29 -34 -45.5t-44 -32.5t-67 -16q-49 0 -86 30.5t-37 99.5q0 47 3 101q3 81 4 106q1 21 -4.5 25.5t-32.5 4.5q-16 0 -21 2t-5 12q0 15 15 15q37 0 110 5l16 1q9 0 9 -8q0 -2 -1.5 -21t-1.5 -23q-10 -140 -10 -207
q0 -59 17 -83t50 -24q49 0 79.5 36.5t36.5 71.5q6 34 6 129zM184 602l117 -126q16 -17 16 -25t-10 -8q-7 0 -63 37q-2 2 -53.5 32t-59.5 37q-24 19 -24 40q0 16 11.5 26.5t25.5 10.5q18 0 40 -24z" />
    <glyph glyph-name="uacute" unicode="&#xfa;" horiz-adv-x="494" 
d="M340 262v65q0 21 -3.5 25t-23.5 4q-26 0 -32 2t-6 12q0 7 4.5 10.5t10 4t19.5 0.5q52 0 84 4l19 2q9 0 9 -12l-1 -9q0 -10 -0.5 -21t-0.5 -14q0 -10 -0.5 -32t-0.5 -33v-142q0 -77 12 -89q7 -8 35 -10q13 0 13 -14q0 -10 -3.5 -12.5t-15.5 -2.5q-30 0 -51 -1l-57 -7
q-4 0 -6 1.5t-3.5 10.5t-2.5 27.5t-1 51.5q-20 -29 -34 -45.5t-44 -32.5t-67 -16q-49 0 -86 30.5t-37 99.5q0 47 3 101q3 81 4 106q1 21 -4.5 25.5t-32.5 4.5q-16 0 -21 2t-5 12q0 15 15 15q37 0 110 5l16 1q9 0 9 -8q0 -2 -1.5 -21t-1.5 -23q-10 -140 -10 -207
q0 -59 17 -83t50 -24q49 0 79.5 36.5t36.5 71.5q6 34 6 129zM194 476l117 126q20 24 40 24q14 0 25.5 -10.5t11.5 -26.5q0 -20 -16.5 -34t-81.5 -51q-8 -5 -47 -30t-44 -28q-9 -3 -11 -3q-10 0 -10 8t16 25z" />
    <glyph glyph-name="ucircumflex" unicode="&#xfb;" horiz-adv-x="494" 
d="M340 262v65q0 21 -3.5 25t-23.5 4q-26 0 -32 2t-6 12q0 7 4.5 10.5t10 4t19.5 0.5q52 0 84 4l19 2q9 0 9 -12l-1 -9q0 -10 -0.5 -21t-0.5 -14q0 -10 -0.5 -32t-0.5 -33v-142q0 -77 12 -89q7 -8 35 -10q13 0 13 -14q0 -10 -3.5 -12.5t-15.5 -2.5q-30 0 -51 -1l-57 -7
q-4 0 -6 1.5t-3.5 10.5t-2.5 27.5t-1 51.5q-20 -29 -34 -45.5t-44 -32.5t-67 -16q-49 0 -86 30.5t-37 99.5q0 47 3 101q3 81 4 106q1 21 -4.5 25.5t-32.5 4.5q-16 0 -21 2t-5 12q0 15 15 15q37 0 110 5l16 1q9 0 9 -8q0 -2 -1.5 -21t-1.5 -23q-10 -140 -10 -207
q0 -59 17 -83t50 -24q49 0 79.5 36.5t36.5 71.5q6 34 6 129zM236 549l-92 -96q-15 -16 -22 -16q-11 0 -11 11t16 35l78 128q8 14 12 16.5t15 2.5h21q13 0 17 -2.5t12 -15.5l92 -141q10 -17 10 -23q0 -5 -4.5 -8t-7.5 -3q-6 0 -29 19z" />
    <glyph glyph-name="udieresis" unicode="&#xfc;" horiz-adv-x="494" 
d="M340 262v65q0 21 -3.5 25t-23.5 4q-26 0 -32 2t-6 12q0 7 4.5 10.5t10 4t19.5 0.5q52 0 84 4l19 2q9 0 9 -12l-1 -9q0 -10 -0.5 -21t-0.5 -14q0 -10 -0.5 -32t-0.5 -33v-142q0 -77 12 -89q7 -8 35 -10q13 0 13 -14q0 -10 -3.5 -12.5t-15.5 -2.5q-30 0 -51 -1l-57 -7
q-4 0 -6 1.5t-3.5 10.5t-2.5 27.5t-1 51.5q-20 -29 -34 -45.5t-44 -32.5t-67 -16q-49 0 -86 30.5t-37 99.5q0 47 3 101q3 81 4 106q1 21 -4.5 25.5t-32.5 4.5q-16 0 -21 2t-5 12q0 15 15 15q37 0 110 5l16 1q9 0 9 -8q0 -2 -1.5 -21t-1.5 -23q-10 -140 -10 -207
q0 -59 17 -83t50 -24q49 0 79.5 36.5t36.5 71.5q6 34 6 129zM153 583q21 0 35.5 -14.5t14.5 -35.5t-14.5 -35.5t-35.5 -14.5q-20 0 -35 14.5t-15 35.5t15 35.5t35 14.5zM342 583q21 0 35.5 -14.5t14.5 -35.5t-14.5 -35.5t-35.5 -14.5q-20 0 -35 14.5t-15 35.5t14.5 35.5
t35.5 14.5z" />
    <glyph glyph-name="yacute" unicode="&#xfd;" horiz-adv-x="441" 
d="M202 0l-130 305q-11 30 -23.5 42t-29.5 12q-19 0 -19 15q0 5 1 8t4 4.5t4.5 2t8 0t8.5 -0.5q1 0 31 -1.5t46 -1.5q6 0 32.5 1.5t40.5 1.5q9 0 11.5 -2t2.5 -11q0 -16 -12 -16q-28 0 -30.5 -11t11.5 -37q2 -6 4 -10l83 -196l56 131q30 69 30 91q0 14 -12 23t-30 9
q-12 0 -12 16q0 5 1 7t6 4t16 2q3 0 27.5 -1.5t29.5 -1.5q6 0 35.5 1.5t34.5 1.5q13 0 13 -15q0 -14 -17 -14q-43 0 -66 -56l-198 -472q-14 -35 -21 -49t-20.5 -27t-31.5 -13q-16 0 -27 11t-11 29q0 16 10 28t19 17t26 13q24 11 41 37.5t39 78.5zM167 476l117 126
q20 24 40 24q14 0 25.5 -10.5t11.5 -26.5q0 -20 -16.5 -34t-81.5 -51q-8 -5 -47 -30t-44 -28q-9 -3 -11 -3q-10 0 -10 8t16 25z" />
    <glyph glyph-name="thorn" unicode="&#xfe;" horiz-adv-x="512" 
d="M160 41v-202q0 -37 4 -44.5t24 -7.5q25 0 33.5 -2.5t8.5 -12.5q0 -16 -21 -16q-8 0 -48.5 1.5t-46.5 1.5q-8 0 -48 -1.5t-46 -1.5q-18 0 -18 15q0 7 3.5 10.5t8.5 4t19 0.5q36 0 41 13t5 83v710q0 21 -2.5 29t-14.5 8q-3 0 -17.5 -1.5t-16.5 -1.5q-14 0 -14 14
q0 9 4.5 11.5t26.5 5.5q70 12 89 17q6 2 15 2q15 0 14 -14l-1 -23q-2 -18 -2 -77v-230q45 64 119 64q73 0 135 -52t62 -151q0 -93 -54.5 -150.5t-137.5 -57.5q-34 0 -60.5 10.5t-37.5 20t-26 25.5zM160 247v-116q0 -49 14 -73q27 -46 87 -46q63 0 92.5 52t29.5 126
q0 22 -3 44t-13 57.5t-37 58t-68 22.5q-61 0 -88 -51q-14 -27 -14 -74z" />
    <glyph glyph-name="ydieresis" unicode="&#xff;" horiz-adv-x="441" 
d="M202 0l-130 305q-11 30 -23.5 42t-29.5 12q-19 0 -19 15q0 5 1 8t4 4.5t4.5 2t8 0t8.5 -0.5q1 0 31 -1.5t46 -1.5q6 0 32.5 1.5t40.5 1.5q9 0 11.5 -2t2.5 -11q0 -16 -12 -16q-28 0 -30.5 -11t11.5 -37q2 -6 4 -10l83 -196l56 131q30 69 30 91q0 14 -12 23t-30 9
q-12 0 -12 16q0 5 1 7t6 4t16 2q3 0 27.5 -1.5t29.5 -1.5q6 0 35.5 1.5t34.5 1.5q13 0 13 -15q0 -14 -17 -14q-43 0 -66 -56l-198 -472q-14 -35 -21 -49t-20.5 -27t-31.5 -13q-16 0 -27 11t-11 29q0 16 10 28t19 17t26 13q24 11 41 37.5t39 78.5zM126 583q21 0 35.5 -14.5
t14.5 -35.5t-14.5 -35.5t-35.5 -14.5q-20 0 -35 14.5t-15 35.5t15 35.5t35 14.5zM315 583q21 0 35.5 -14.5t14.5 -35.5t-14.5 -35.5t-35.5 -14.5q-20 0 -35 14.5t-15 35.5t14.5 35.5t35.5 14.5z" />
    <glyph glyph-name="dotlessi" unicode="&#x131;" horiz-adv-x="243" 
d="M164 274v-190q0 -26 1 -35t6.5 -14t18.5 -6q26 -1 32.5 -4t6.5 -15q0 -8 -3.5 -10.5t-12.5 -2.5q-3 0 -34 1.5t-44 1.5q-14 0 -50 -1.5t-47 -1.5q-12 0 -16 3t-4 11q0 11 6.5 13.5t33.5 4.5q5 0 9.5 1t7 3.5t5 4.5t3.5 6t2 6.5t1 8.5v9v10.5v10.5v217v5q0 30 -3 37.5
t-18 7.5h-11t-9.5 -0.5t-8 0t-7 1t-4.5 2t-3 4.5t-1 7q0 15 19 15q22 0 64 4q12 1 25 3t20.5 3t8.5 1q10 0 10 -14q0 -3 -1.5 -25t-1.5 -30q0 -5 -0.5 -25t-0.5 -28z" />
    <glyph glyph-name="Lslash" unicode="&#x141;" horiz-adv-x="585" 
d="M215 381l115 102q13 12 17 12q5 0 5 -22q0 -10 -8 -17l-129 -114v-157q0 -106 9 -135q4 -20 53 -20q33 0 59 0.5t48 4t37.5 5.5t29.5 10t22.5 12t16.5 16.5t12 19t9.5 25t8 28.5t7.5 34q4 18 16 18t14 -6t1 -24l-5 -144q-1 -23 -3.5 -30t-12.5 -7h-7q-6 1 -21 2t-33 2
q-80 4 -194 4q-36 0 -89 -0.5t-69 -0.5q-15 0 -32.5 -0.5t-27 -1t-14.5 -0.5q-21 0 -21 16q0 12 6.5 14t44.5 4q26 1 32.5 21t6.5 104v101l-74 -65q-14 -13 -17 -13t-3 25q0 10 8 16q5 4 9 8l77 67v184q0 96 -5 116q-5 15 -36 15q-25 0 -31.5 3t-6.5 13q0 18 24 18
q12 0 50 -1.5t57 -1.5q13 0 58 1.5t57 1.5q17 0 17 -18q0 -10 -6.5 -12.5t-28.5 -3.5q-31 -1 -38.5 -3.5t-11.5 -15.5q-3 -8 -3 -51v-159z" />
    <glyph glyph-name="lslash" unicode="&#x142;" horiz-adv-x="236" 
d="M79 315v233q0 67 -3 75t-19 8h-33q-13 2 -13 14t17 16q74 8 98 13q12 2 20 2q13 0 13 -14q0 -9 -1 -55.5t-1 -53.5v-169l54 49q1 1 5 4t7.5 5.5t4.5 2.5q5 0 5 -14q0 -13 -2.5 -17t-14.5 -15l-59 -52v-189q0 -109 4 -120q3 -7 10 -8.5t35 -2.5q11 0 14.5 -3.5t3.5 -13.5
q0 -13 -13 -13q-8 0 -46 1.5t-44 1.5q-8 0 -49.5 -1.5t-48.5 -1.5q-12 0 -12 13q0 8 4 12t9.5 4.5t21.5 1.5q11 0 16.5 0.5t9 3.5t4.5 9q3 15 3 94v143l-50 -44q-13 -11 -16 -11q-5 0 -5 9q0 15 3 21t18 19z" />
    <glyph glyph-name="OE" unicode="&#x152;" horiz-adv-x="984" 
d="M680 611q-56 0 -67 -1v-254q77 0 104.5 13.5t33.5 65.5q4 34 19 34q16 0 16 -21q0 -7 -1.5 -55.5t-1.5 -73.5q0 -35 1.5 -65t1.5 -35q0 -19 -19 -19q-9 0 -12.5 7.5t-5.5 33.5q-4 54 -32.5 69t-103.5 16v-222q0 -49 7 -61.5t37 -12.5q107 0 155.5 8.5t71 30.5t36.5 73
q0 1 4.5 20t6.5 22q4 4 13 4q11 0 13.5 -7.5t0.5 -32.5l-6 -122q-1 -24 -7 -27q-4 -2 -13 -2q-1 0 -76.5 1.5t-150.5 1.5q-157 0 -200 -3l-143 -11q-131 0 -223.5 94t-92.5 225q0 38 10 80t35.5 89t64 84t101.5 61.5t142 24.5q31 0 92 -1.5t95 -1.5q54 0 124 0.5t118.5 1.5
t51.5 1q20 0 25.5 -5t5.5 -19q0 -77 1 -115q0 -13 -2.5 -17.5t-11.5 -4.5q-5 0 -7 0.5t-5 5t-5 12.5q-14 63 -55.5 86.5t-145.5 23.5zM517 190v267q0 87 -30.5 123.5t-106.5 36.5q-50 0 -88 -17t-60.5 -46.5t-37 -60t-20.5 -69t-7.5 -61t-1.5 -46.5q0 -143 50.5 -222
t151.5 -79q23 0 42 3.5t40 14.5t35 29t23.5 50.5t9.5 76.5z" />
    <glyph glyph-name="oe" unicode="&#x153;" horiz-adv-x="726" 
d="M574 241h-128q-2 -14 -2 -42q0 -20 5.5 -44.5t18 -53.5t39.5 -48t65 -19q35 0 61.5 18.5t34.5 42.5q5 15 8 18.5t8 3.5q14 0 14 -13q0 -38 -43.5 -78.5t-116.5 -40.5q-95 0 -143 74q-68 -74 -156 -74q-78 0 -140 59t-62 147q0 94 64 152t140 58q90 0 158 -79
q56 79 145 79q40 0 71.5 -18.5t47.5 -44t24 -46.5t8 -32q0 -22 -26 -22q-13 0 -47.5 1.5t-47.5 1.5zM240 377q-111 0 -111 -179q0 -37 2.5 -62.5t12.5 -58.5t34 -50.5t62 -17.5q52 0 81 40t29 145q0 87 -24 135t-86 48zM450 271h95q45 0 59 5.5t14 28.5q0 28 -21 50t-51 22
q-74 0 -96 -106z" />
    <glyph glyph-name="Scaron" unicode="&#x160;" horiz-adv-x="528" 
d="M432 486q0 -17 -3 -21.5t-12 -4.5q-6 0 -10 2.5t-6.5 10t-3.5 13.5t-3 21q-6 44 -30.5 72.5t-53 39t-60.5 10.5q-41 0 -68 -19.5t-35 -41t-8 -43.5q0 -79 102 -116l99 -35q142 -51 142 -178q0 -82 -57 -147.5t-153 -65.5q-32 0 -57 6.5t-38.5 14t-40.5 24.5q-5 5 -16 5
q-5 0 -9 -2.5t-6.5 -6.5t-11.5 -16q-9 -11 -16 -11q-15 0 -15 18q0 3 1 27t1 40q0 13 -1 59.5t-1 58.5q0 21 16 21q10 0 13.5 -8t8.5 -45q12 -83 59.5 -120.5t108.5 -37.5q51 0 89 33.5t38 98.5q0 93 -97 132l-113 45q-58 23 -88.5 66.5t-30.5 92.5q0 25 8.5 53.5t27.5 58.5
t57 49.5t89 19.5q44 0 101 -23q16 -7 26 -7q12 0 22 7q23 18 28 18q14 0 14 -14l-1 -16q-2 -17 -3.5 -39t-1.5 -35q0 -8 -0.5 -35t-0.5 -29zM288 755l109 72q28 19 37 19q6 0 9.5 -4.5t3.5 -8.5q0 -2 -20 -25l-89 -93q-14 -14 -21 -17t-26 -3h-41q-20 0 -27.5 4t-26.5 22
l-107 106q-2 2 -2 6q0 5 4.5 9t9.5 4q8 0 33 -14z" />
    <glyph glyph-name="scaron" unicode="&#x161;" horiz-adv-x="359" 
d="M175 401q29 0 57 -14q20 -10 25 -10q7 0 18 11q8 8 15 8q10 0 10 -12q0 -5 -1.5 -25.5t-1.5 -24.5v-61q0 -12 -15 -12q-6 0 -8.5 4t-5.5 20q-15 89 -87 89q-31 0 -47.5 -19t-16.5 -41q0 -16 5.5 -26.5t19 -18t25 -11.5t35.5 -11q121 -34 121 -129q0 -57 -40 -95t-94 -38
q-43 0 -81 21l-4 3q-5 3 -9.5 5t-5.5 2q-8 0 -19 -11t-19 -11q-11 0 -11 11q0 2 0.5 7.5t1.5 16t2 18.5q4 44 4 60t0.5 22t4 10t11.5 4q15 0 15 -16q0 -59 30.5 -86t68.5 -27q39 0 56.5 22.5t17.5 48.5q0 27 -15.5 46t-30 25.5t-37.5 12.5q-61 17 -88.5 41.5t-27.5 73.5
q0 45 31 81t91 36zM191 518l92 97q14 15 22 15q11 0 11 -10q0 -11 -16 -35l-78 -129q-9 -13 -12.5 -16t-14.5 -3h-21q-12 0 -16.5 3t-12.5 16l-92 141q-10 17 -10 23q0 10 12 10q8 0 29 -18z" />
    <glyph glyph-name="Ydieresis" unicode="&#x178;" horiz-adv-x="635" 
d="M360 287l116 233q21 44 21 58q0 32 -56 32q-23 0 -23 15q0 12 4.5 15.5t15.5 3.5q8 0 51.5 -1.5t50.5 -1.5q6 0 38 1.5t37 1.5q16 0 16 -17t-11 -17q-41 -2 -56 -14t-46 -72l-145 -276v-166q0 -36 4.5 -42.5t30.5 -7.5q38 -1 47 -3.5t9 -15.5q0 -16 -14 -16
q-19 0 -66.5 1.5t-68.5 1.5q-9 0 -56.5 -1.5t-55.5 -1.5q-17 0 -17 13q0 14 7 17t37 3q31 0 39 7t8 40v171l-176 307q-21 37 -31.5 45t-37.5 10q-14 1 -18 2t-6.5 4t-2.5 11q0 17 19 17q14 0 53 -1.5t53 -1.5q8 0 55 1.5t59 1.5q16 0 16 -17q0 -10 -6 -13.5t-26 -3.5
q-12 0 -17.5 -0.5t-12 -1.5t-9 -4.5t-2.5 -8.5q0 -6 19 -40zM224 806q23 0 39 -16t16 -39t-16 -39t-39 -16t-39 16t-16 39t16 39t39 16zM446 806q23 0 39 -16t16 -39t-16 -39t-39 -16t-39 16t-16 39t16 39t39 16z" />
    <glyph glyph-name="Zcaron" unicode="&#x17d;" horiz-adv-x="569" 
d="M40 50l367 561h-13q-103 0 -144 -1.5t-85.5 -11t-58.5 -29.5t-18 -58q0 -4 -0.5 -9t-1 -7.5t-1 -6t-1 -5t-1 -3.5t-2 -3l-3 -2t-3.5 -1h-5q-7 0 -11 2.5t-4.5 4.5t-0.5 6q0 10 1 61.5t1 59.5q0 3 -0.5 9.5t-0.5 10t1 8t4 6.5t9 2t120.5 -1.5t130.5 -1.5t99 1.5t96 1.5
q15 0 15 -8q0 -6 -15 -28l-378 -578q194 0 242 8q51 8 76.5 32t39.5 91q3 16 5.5 20t9.5 4q19 0 19 -14q0 -18 -2 -24q-3 -80 -3 -114q0 -28 -2.5 -34.5t-16.5 -6.5q-7 0 -44 1.5t-56 2.5q-116 4 -178 4q-4 0 -37 -0.5t-58 -0.5t-58.5 -1t-37.5 -1q-20 0 -20 11q0 4 24 42z
M291 755l110 72q30 19 37 19q5 0 8.5 -4.5t3.5 -8.5q0 -3 -19 -25l-89 -93q-14 -15 -21 -17.5t-27 -2.5h-41q-20 0 -27.5 4t-25.5 22l-107 106q-2 2 -2 6q0 13 14 13q8 0 33 -14z" />
    <glyph glyph-name="zcaron" unicode="&#x17e;" horiz-adv-x="385" 
d="M332 341l-130 -210q-43 -68 -62 -107q121 0 152 28q26 25 33 75q4 18 14 18q17 0 17 -14l-4 -31q-7 -42 -7 -70q0 -21 -2 -27t-12 -6l-69 1q-70 1 -87 1q-23 0 -60 -1t-53 -1h-4q-26 0 -26 10q0 6 6 14l46 69l164 270q-116 0 -140 -22q-16 -15 -34 -72q-5 -16 -15 -16
q-15 0 -15 10q0 2 2 15t2 15q4 32 4 57v30q7 11 23 11t70.5 -1.5t75.5 -1.5q7 0 54 1.5t61 1.5q15 0 15 -10q0 -4 -19 -37zM204 518l92 97q14 15 22 15q11 0 11 -10q0 -11 -16 -35l-78 -129q-9 -13 -12.5 -16t-14.5 -3h-21q-12 0 -16.5 3t-12.5 16l-92 141q-10 17 -10 23
q0 10 12 10q8 0 29 -18z" />
    <glyph glyph-name="florin" unicode="&#x192;" horiz-adv-x="441" 
d="M259 385h91q10 0 13 -0.5t5 -2t2 -6.5q0 -15 -6.5 -18t-30.5 -3h-79q-44 -286 -68 -372q-16 -59 -39.5 -105.5t-64.5 -81t-91 -34.5q-73 0 -73 52q0 17 11 27t26 10q14 0 23 -8.5t9 -21.5l-2 -21q0 -14 16 -14q47 0 84 118q40 119 92 451h-61q-16 0 -19.5 1t-3.5 6
q0 13 7 20q2 3 21 3h62q12 89 37.5 150.5t57 90t58.5 39.5t55 11q36 0 56.5 -16.5t20.5 -36.5q0 -15 -10 -27.5t-29 -12.5q-15 0 -25 9t-10 22q0 2 3 12.5t3 12.5q0 13 -18 13q-78 0 -123 -267z" />
    <glyph glyph-name="circumflex" unicode="&#x2c6;" horiz-adv-x="333" 
d="M155 549l-92 -96q-15 -16 -22 -16q-11 0 -11 11t16 35l78 128q8 14 12 16.5t15 2.5h21q12 0 16.5 -2.5t12.5 -15.5l92 -141q10 -17 10 -23q0 -5 -4.5 -8t-7.5 -3q-6 0 -29 19z" />
    <glyph glyph-name="caron" unicode="&#x2c7;" horiz-adv-x="333" 
d="M178 518l92 97q14 15 22 15q11 0 11 -10q0 -11 -16 -35l-78 -129q-9 -13 -12.5 -16t-14.5 -3h-21q-12 0 -16.5 3t-12.5 16l-92 141q-10 17 -10 23q0 10 12 10q8 0 29 -18z" />
    <glyph glyph-name="uni02C9" unicode="&#x2c9;" horiz-adv-x="333" 
d="M44 564h237q25 0 27 -2q4 -2 4 -18v-23q0 -15 -3.5 -17.5t-23.5 -2.5h-238l-16 1q-7 0 -8.5 2.5t-1.5 16.5v23q0 15 3.5 17.5t19.5 2.5z" />
    <glyph glyph-name="breve" unicode="&#x2d8;" horiz-adv-x="333" 
d="M165 535q95 0 117 75q4 14 15 14q14 0 14 -19q0 -10 -3 -25.5t-13 -36.5t-25 -38.5t-42.5 -30t-61.5 -12.5q-43 0 -74 19t-44.5 46t-19.5 46t-6 29q0 22 16 22q9 0 14 -15q29 -74 113 -74z" />
    <glyph glyph-name="dotaccent" unicode="&#x2d9;" horiz-adv-x="333" 
d="M167 589q23 0 39 -16t16 -39q0 -22 -16 -38.5t-39 -16.5t-39 16t-16 39t16 39t39 16z" />
    <glyph glyph-name="ring" unicode="&#x2da;" horiz-adv-x="333" 
d="M167 625q37 0 64 -26.5t27 -64.5t-26.5 -65t-64.5 -27t-65 27t-27 65t27 64.5t65 26.5zM167 590q-23 0 -39.5 -17t-16.5 -40t16.5 -39.5t39.5 -16.5t39.5 16.5t16.5 39.5q0 24 -16.5 40.5t-39.5 16.5z" />
    <glyph glyph-name="ogonek" unicode="&#x2db;" horiz-adv-x="333" 
d="M108 8h25q-21 -24 -21 -57q0 -42 27.5 -67.5t60.5 -25.5q23 0 43.5 11.5t21.5 11.5q4 0 7.5 -3t3.5 -8q0 -19 -31 -43t-75 -24q-48 0 -80.5 31.5t-32.5 73.5q0 49 51 100z" />
    <glyph glyph-name="tilde" unicode="&#x2dc;" horiz-adv-x="333" 
d="M124 583q24 0 98 -27q27 -9 37 -9q28 0 50 22q10 8 15 8q4 0 8 -3.5t4 -8.5q0 -3 -4.5 -11t-15.5 -20t-25 -23t-36.5 -18.5t-47.5 -7.5q-31 0 -74 19q-38 17 -58 17q-25 0 -52 -22q-8 -5 -13 -5q-13 0 -13 13q0 11 28 35q44 41 99 41z" />
    <glyph glyph-name="hungarumlaut" unicode="&#x2dd;" horiz-adv-x="333" 
d="M45 474l96 116q17 20 26.5 27t23.5 7q16 0 24.5 -9.5t8.5 -22.5q0 -15 -9 -24.5t-50 -39.5q-9 -6 -49.5 -36.5t-58.5 -43.5q-8 -6 -15 -6q-11 0 -11 9q0 6 14 23zM194 474l96 116q28 34 49 34q17 0 25.5 -9.5t8.5 -22.5q0 -15 -9 -24.5t-50 -39.5l-108 -80q-10 -6 -16 -6
q-10 0 -10 9q0 6 14 23z" />
    <glyph glyph-name="uni03A9" unicode="&#x3a9;" horiz-adv-x="641" 
d="M611 132l-22 -132h-211l-6 17q5 11 25 50t30.5 63.5t25.5 63t22 75.5t7 73q-1 132 -47 194t-116 62q-73 0 -116.5 -61.5t-43.5 -199.5q0 -53 16.5 -111.5t36 -100.5t46.5 -92q3 -5 5 -8.5t4 -7.5l-8 -17h-209l-21 132l24 1q14 -42 27.5 -54.5t40.5 -12.5h90
q-29 25 -48.5 46t-46 56.5t-40.5 80.5t-14 95q0 127 74 205t186 78q113 0 184.5 -74.5t71.5 -201.5q0 -45 -13.5 -87.5t-39.5 -80t-47 -62t-53 -55.5h95q28 0 40 11.5t26 55.5z" />
    <glyph glyph-name="uni03BC" unicode="&#x3bc;" horiz-adv-x="500" 
d="M58 385h81v-230q0 -109 68 -109q57 0 115 66v273h81v-257q0 -33 1.5 -49.5t9 -28t22.5 -11.5q31 0 40 60h20q-2 -55 -28.5 -84t-68.5 -29q-17 0 -30 5.5t-20 12t-12.5 19t-7.5 19.5t-4.5 21t-2.5 16q-22 -25 -36 -39.5t-48.5 -34t-68.5 -19.5q-21 0 -37.5 7.5t-22.5 14
t-16 20.5q-1 -48 9 -104q14 -79 14 -86q0 -19 -12 -36.5t-34 -17.5q-24 0 -33.5 18t-9.5 35q0 22 22 112q9 36 9 144v292z" />
    <glyph glyph-name="pi" unicode="&#x3c0;" horiz-adv-x="502" 
d="M455 424l23 -8q-10 -54 -32 -84q-14 -4 -59 -4q-4 -45 -4 -203q0 -81 38 -81q20 0 43 26l11 -20q-16 -29 -41.5 -45t-52.5 -16q-81 0 -81 116q0 65 9 225q-26 0 -71 1t-61 1v-15q0 -93 -12.5 -167.5t-24 -103.5t-21.5 -41q-31 -14 -55 -16l-6 16q44 57 63.5 150t19.5 178
q-28 0 -49 -5.5t-32.5 -12t-32.5 -21.5l-13 21l8 9q8 10 9.5 12t9.5 11t11.5 11.5t12.5 10t15.5 10t17 7.5t20 7t22.5 3.5t26 1.5q31 0 111 -2q20 0 62.5 -0.5t63.5 -0.5t31.5 5.5t20.5 23.5z" />
    <glyph glyph-name="uni2010" unicode="&#x2010;" horiz-adv-x="293" 
d="M67 251h174q10 0 13 -4t3 -18v-20q-1 -20 -3 -23q-3 -4 -31 -4h-159q-20 0 -24 2.5t-4 16.5v22q1 24 8 27q3 1 23 1z" />
    <glyph glyph-name="figuredash" unicode="&#x2012;" 
d="M468 199h-446v35h446v-35z" />
    <glyph glyph-name="endash" unicode="&#x2013;" horiz-adv-x="429" 
d="M406 199h-383v35h383v-35z" />
    <glyph glyph-name="emdash" unicode="&#x2014;" horiz-adv-x="804" 
d="M781 199h-758v35h758v-35z" />
    <glyph glyph-name="quoteleft" unicode="&#x2018;" horiz-adv-x="229" 
d="M73 435q5 12 9.5 18.5t18 15t32.5 8.5q27 0 42.5 -17.5t15.5 -43.5t-17 -43.5t-44 -17.5q-44 0 -68.5 38t-24.5 88q0 64 34.5 117t58.5 53q5 0 11.5 -4.5t6.5 -10.5q0 -11 -14 -22q-19 -15 -30.5 -26t-26 -41.5t-14.5 -66.5q0 -21 10 -45z" />
    <glyph glyph-name="quoteright" unicode="&#x2019;" horiz-adv-x="229" 
d="M156 571q-5 -12 -9.5 -18.5t-18 -15t-32.5 -8.5q-28 0 -43.5 18t-15.5 43q0 26 17.5 43.5t44.5 17.5q44 0 68.5 -38t24.5 -88q0 -64 -34.5 -117t-58.5 -53q-5 0 -11.5 4.5t-6.5 10.5q0 11 14 22q19 15 30.5 26t26 41.5t14.5 66.5q0 21 -10 45z" />
    <glyph glyph-name="quotesinglbase" unicode="&#x201a;" horiz-adv-x="254" 
d="M175 27q-5 -12 -9.5 -18.5t-18 -15t-32.5 -8.5q-28 0 -43.5 18t-15.5 43q0 26 17.5 43.5t44.5 17.5q44 0 68.5 -38t24.5 -88q0 -64 -34.5 -117t-58.5 -53q-5 0 -11.5 4.5t-6.5 10.5q0 11 14 22q19 15 30.5 26t26 41.5t14.5 66.5q0 21 -10 45z" />
    <glyph glyph-name="quotedblleft" unicode="&#x201c;" horiz-adv-x="440" 
d="M73 435q5 12 9.5 18.5t18 15t32.5 8.5q27 0 42.5 -17.5t15.5 -43.5t-17 -43.5t-44 -17.5q-44 0 -68.5 38t-24.5 88q0 64 34.5 117t58.5 53q5 0 11.5 -4.5t6.5 -10.5q0 -11 -14 -22q-19 -15 -30.5 -26t-26 -41.5t-14.5 -66.5q0 -21 10 -45zM284 435q5 12 9.5 18.5t18 15
t32.5 8.5q28 0 43.5 -18t15.5 -43q0 -26 -17.5 -43.5t-44.5 -17.5q-44 0 -68.5 38t-24.5 88q0 64 34.5 117t58.5 53q5 0 11.5 -4.5t6.5 -10.5q0 -11 -14 -22q-19 -15 -30.5 -26t-26 -41.5t-14.5 -66.5q0 -21 10 -45z" />
    <glyph glyph-name="quotedblright" unicode="&#x201d;" horiz-adv-x="440" 
d="M367 571q-5 -12 -9.5 -18.5t-18 -15t-32.5 -8.5q-27 0 -42.5 17.5t-15.5 43.5t17 43.5t44 17.5q44 0 68.5 -38t24.5 -88q0 -64 -34.5 -117t-58.5 -53q-5 0 -11.5 4.5t-6.5 10.5q0 11 14 22q19 15 30.5 26t26 41.5t14.5 66.5q0 21 -10 45zM156 571q-5 -12 -9.5 -18.5
t-18 -15t-32.5 -8.5q-28 0 -43.5 18t-15.5 43q0 26 17.5 43.5t44.5 17.5q44 0 68.5 -38t24.5 -88q0 -64 -34.5 -117t-58.5 -53q-5 0 -11.5 4.5t-6.5 10.5q0 11 14 22q19 15 30.5 26t26 41.5t14.5 66.5q0 21 -10 45z" />
    <glyph glyph-name="quotedblbase" unicode="&#x201e;" horiz-adv-x="465" 
d="M386 27q-5 -12 -9.5 -18.5t-18 -15t-32.5 -8.5q-27 0 -42.5 17.5t-15.5 43.5t17 43.5t44 17.5q44 0 68.5 -38t24.5 -88q0 -64 -34.5 -117t-58.5 -53q-5 0 -11.5 4.5t-6.5 10.5q0 11 14 22q19 15 30.5 26t26 41.5t14.5 66.5q0 21 -10 45zM175 27q-5 -12 -9.5 -18.5
t-18 -15t-32.5 -8.5q-28 0 -43.5 18t-15.5 43q0 26 17.5 43.5t44.5 17.5q44 0 68.5 -38t24.5 -88q0 -64 -34.5 -117t-58.5 -53q-5 0 -11.5 4.5t-6.5 10.5q0 11 14 22q19 15 30.5 26t26 41.5t14.5 66.5q0 21 -10 45z" />
    <glyph glyph-name="dagger" unicode="&#x2020;" horiz-adv-x="499" 
d="M200 278l-2 13q0 3 19 35q18 33 20 73q-31 -3 -84 -18q-33 -10 -58 -10q-21 0 -36 10.5t-15 30.5q0 6 2 13.5t14 17t34 9.5q16 0 84 -17q35 -9 59 -11q-2 35 -11 65q-20 77 -20 102q0 35 13.5 51.5t32.5 16.5t32 -15.5t13 -46.5q0 -25 -22 -107q-11 -44 -12 -66
q28 4 76 17q35 10 64 10q27 0 39.5 -11.5t12.5 -26.5q0 -19 -14 -30.5t-36 -11.5q-30 0 -59 9q-59 16 -83 19q1 -52 23 -82q17 -25 17 -27q0 -3 -0.5 -7.5t-2 -9t-1.5 -6.5q-11 -60 -16.5 -98t-12 -130t-8.5 -221q0 -49 -2 -55q-4 -5 -12 -5q-9 0 -11 5t-2 19q0 230 -16 372
q-8 68 -19 124z" />
    <glyph glyph-name="daggerdbl" unicode="&#x2021;" horiz-adv-x="453" 
d="M238 449q30 3 66 14q47 16 59 16q24 0 35 -12t11 -27q0 -18 -12 -29.5t-31 -11.5t-46 9q-55 17 -82 19q8 -43 34 -72q7 -8 7 -12q0 -3 -5 -9q-36 -48 -36 -126q0 -63 34 -120q6 -10 6 -14q0 -5 -6 -12q-29 -35 -34 -73q25 2 85 21q28 7 43 7q19 0 31 -11t12 -27
q0 -7 -2.5 -15.5t-13.5 -17t-29 -8.5q-11 0 -59 15q-37 11 -67 14q6 -50 21 -97q14 -43 14 -57q0 -21 -12 -38t-33 -17q-19 0 -32 16.5t-13 37.5q0 19 14 62q15 50 20 93q-29 0 -78 -17q-33 -11 -51 -11q-22 0 -33 12.5t-11 25.5q0 16 12 28t31 12t55 -11q34 -10 75 -17
q-2 32 -23 59q-1 1 -6 6.5t-9 10.5t-4 7q0 3 5 11.5t11 17.5t7 11q20 40 20 98q0 60 -20 96q-23 34 -23 38t17 23q19 21 25 60q-28 -2 -82 -19q-31 -9 -48 -9q-18 0 -30.5 11t-12.5 28q0 19 13 29.5t30 10.5q16 0 58 -15q31 -9 72 -14q-3 39 -21 96q-13 40 -13 59
q0 27 13.5 41t31.5 14q21 0 33 -17.5t12 -38.5q0 -14 -14 -57q-19 -63 -21 -97z" />
    <glyph glyph-name="bullet" unicode="&#x2022;" 
d="M245 452q61 0 104 -43t43 -104q0 -60 -43 -103.5t-104 -43.5t-104 43.5t-43 103.5q0 61 43 104t104 43z" />
    <glyph glyph-name="onedotenleader" unicode="&#x2024;" horiz-adv-x="500" 
d="M250 107q25 0 43 -18t18 -43t-18 -43t-43 -18t-43 18t-18 43t18 43t43 18z" />
    <glyph glyph-name="twodotenleader" unicode="&#x2025;" horiz-adv-x="500" 
d="M375 107q25 0 43 -18t18 -43t-18 -43t-43 -18t-43 18t-18 43t18 43t43 18zM125 107q25 0 43 -18t18 -43t-18 -43t-43 -18t-43 18t-18 43t18 43t43 18z" />
    <glyph glyph-name="ellipsis" unicode="&#x2026;" horiz-adv-x="1000" 
d="M500 107q25 0 43 -18t18 -43t-18 -43t-43 -18t-43 18t-18 43t18 43t43 18zM833 107q25 0 43 -18t18 -43t-18 -43t-43 -18t-43 18t-18 43t18 43t43 18zM167 107q25 0 43 -18t18 -43t-18 -43t-43 -18t-43 18t-18 43t18 43t43 18z" />
    <glyph glyph-name="perthousand" unicode="&#x2030;" horiz-adv-x="1049" 
d="M166 639q-21 0 -34.5 -15.5t-18.5 -45t-6 -49t-1 -50.5q0 -28 1 -46.5t6 -47t18 -44t34 -15.5q20 0 33 15.5t18 45.5t6 48.5t1 47.5t-1 47.5t-6 48t-17.5 45t-32.5 15.5zM164 659q21 0 41 -7.5t42 -25t35.5 -54.5t13.5 -90q0 -43 -9.5 -76t-23.5 -51t-33 -30t-34.5 -15.5
t-30.5 -3.5q-54 0 -93 42.5t-39 129.5q0 52 13.5 90t35 56.5t42 26.5t40.5 8zM133 8l410 626q15 23 18 24q4 1 25 1q10 0 10 -5q0 -6 -13 -23l-403 -619q-12 -19 -15.5 -22.5t-8.5 -4.5h-26q-8 0 -8 4t11 19zM557 323q-21 0 -34.5 -15.5t-18.5 -45t-6 -49t-1 -50.5
q0 -28 1 -46.5t6 -47t18 -44t34 -15.5q20 0 33 15.5t18 45.5t6 48.5t1 47.5t-1 47.5t-6 48t-17.5 45t-32.5 15.5zM555 343q21 0 41 -7.5t42 -25t35.5 -54.5t13.5 -90q0 -43 -9.5 -76t-23.5 -51t-33 -30t-34.5 -15.5t-30.5 -3.5q-54 0 -93 42.5t-39 129.5q0 52 13.5 90
t35 56.5t42 26.5t40.5 8zM886 323q-21 0 -34.5 -15.5t-18.5 -45t-6 -49t-1 -50.5q0 -28 1 -46.5t6 -47t18 -44t34 -15.5q20 0 33 15.5t18 45.5t6 48.5t1 47.5t-1 47.5t-6 48t-17.5 45t-32.5 15.5zM884 343q21 0 41 -7.5t42 -25t35.5 -54.5t13.5 -90q0 -43 -9.5 -76
t-23.5 -51t-33 -30t-34.5 -15.5t-30.5 -3.5q-54 0 -93 42.5t-39 129.5q0 52 13.5 90t35 56.5t42 26.5t40.5 8z" />
    <glyph glyph-name="guilsinglleft" unicode="&#x2039;" horiz-adv-x="258" 
d="M87 192l132 -176q6 -9 6 -11q0 -5 -15 -5h-20q-13 0 -18 3t-15 17l-111 150q-14 20 -14 21q0 4 14 22l106 143q16 20 21 24.5t17 4.5h20q16 0 16 -4q0 -3 -10 -17z" />
    <glyph glyph-name="guilsinglright" unicode="&#x203a;" horiz-adv-x="258" 
d="M171 193l-132 176q-6 9 -6 11q0 5 15 5h20q13 0 18 -3t15 -17l111 -149q14 -20 14 -22q0 -4 -14 -22l-106 -143q-16 -20 -21 -24.5t-17 -4.5h-20q-16 0 -16 4t10 17z" />
    <glyph glyph-name="fraction" unicode="&#x2044;" horiz-adv-x="62" 
d="M-195 8l410 626q15 23 18 24q4 1 25 1q10 0 10 -5q0 -6 -13 -23l-403 -619q-12 -19 -15.5 -22.5t-8.5 -4.5h-26q-8 0 -8 4t11 19z" />
    <glyph glyph-name="zero.superior" unicode="&#x2070;" horiz-adv-x="329" 
d="M164 735q23 0 44 -8t42 -26.5t33.5 -55t12.5 -87.5q0 -53 -14 -90.5t-36 -54.5t-42 -24t-39 -7q-54 0 -93 42.5t-39 129.5q0 58 16 98t40.5 56t42 21.5t32.5 5.5zM166 715q-25 0 -38.5 -23t-17 -54.5t-3.5 -82.5q0 -32 1.5 -52.5t6.5 -47t17.5 -40t32.5 -13.5t32.5 14
t17.5 41.5t6 48t1 53.5q0 74 -10.5 115t-45.5 41z" />
    <glyph glyph-name="four.superior" unicode="&#x2074;" horiz-adv-x="329" 
d="M244 516h37q12 0 16 -0.5t5.5 -3t1.5 -9.5q0 -10 -3 -12t-18 -2h-39v-50q0 -17 2.5 -20.5t12.5 -3.5q12 0 16.5 -0.5t8.5 -2t4.5 -4t0.5 -7.5q0 -11 -18 -11q-8 0 -32.5 1t-27.5 1q-6 0 -34 -1t-32 -1q-15 0 -15 11q0 9 5.5 10.5t38.5 2.5q3 0 4 1t2 5.5t1.5 14t0.5 26.5
v28h-131h-12.5t-7.5 1t-5.5 3t-1.5 6t14 20l180 209q14 16 20 16q13 0 13 -12q0 -20 -3 -32q0 -14 -1.5 -92.5t-2.5 -91.5zM72 516h110q0 85 2 131z" />
    <glyph glyph-name="five.superior" unicode="&#x2075;" horiz-adv-x="329" 
d="M188 675l-73 1q-3 -2 -3 -16l-1 -64q33 16 69 16q52 0 79.5 -26.5t27.5 -60.5q0 -59 -53 -101t-117 -42q-10 0 -20.5 1.5t-26.5 5.5t-26.5 14.5t-10.5 26.5q0 10 11 19t23 9q13 0 21.5 -7.5t8.5 -17.5q0 -14 -17 -21q14 -10 32 -10q43 0 72 30.5t29 84.5q0 71 -51 71
q-15 0 -33.5 -7.5t-20.5 -26.5q-2 -15 -4 -19t-11 -4q-7 0 -18.5 5.5t-11.5 12.5q0 2 5 10.5t5 9.5q2 20 2 84q0 18 -4 62l-1 11q0 9 11 13.5t17 4.5q7 0 10 -2t3.5 -4t1.5 -8q0 -4 17 -6q10 0 18 -0.5t11.5 -1t6 -0.5h4.5q33 0 65 9l19 4q12 0 12 -14q0 -46 -78 -46z" />
    <glyph glyph-name="six.superior" unicode="&#x2076;" horiz-adv-x="329" 
d="M112 597q39 24 68 24q49 0 83 -29.5t34 -84.5q0 -59 -37 -92t-88 -33q-54 0 -95 37.5t-41 119.5q0 59 19.5 101t50 61t56 26.5t48.5 7.5q33 0 62 -15t29 -37q0 -23 -28 -23q-17 0 -27.5 10t-10.5 22q0 9 -1 12.5t-6 7t-16 3.5q-46 0 -70 -36t-30 -82zM168 597
q-31 0 -46 -25t-15 -60q0 -54 18 -82t45 -28q31 0 46 32t15 71q0 38 -16.5 65t-46.5 27z" />
    <glyph glyph-name="seven.superior" unicode="&#x2077;" horiz-adv-x="329" 
d="M48 674l17 64q3 14 14 14q6 0 9.5 -0.5t5.5 -3.5t2.5 -5t1.5 -9q2 -6 42 -6h75q9 0 43 2l23 3q5 0 13 -7t8 -10l-7 -12q-7 -12 -14.5 -25t-8.5 -15q-32 -67 -91 -215q-15 -37 -26.5 -52t-31.5 -15q-11 0 -22.5 7t-11.5 21t41 79q42 67 115 191q-136 0 -149 -1t-17 -12
t-6.5 -13.5t-9.5 -2.5q-18 0 -18 9q0 4 3 14z" />
    <glyph glyph-name="eight.superior" unicode="&#x2078;" horiz-adv-x="329" 
d="M207 580q86 -36 86 -93q0 -39 -37.5 -72t-101.5 -33q-57 0 -89 26.5t-32 60.5q0 50 85 88q-72 35 -72 87q0 38 33.5 64.5t86.5 26.5q56 0 85.5 -25.5t29.5 -52.5q0 -46 -74 -77zM182 591q51 24 51 63q0 21 -15 41t-54 20q-33 0 -47.5 -16.5t-14.5 -35.5q0 -21 18 -37
t62 -35zM144 545q-24 -10 -43.5 -28.5t-19.5 -43.5q0 -28 20.5 -49.5t56.5 -21.5q34 0 56.5 16.5t22.5 42.5q0 23 -17.5 40t-75.5 44z" />
    <glyph glyph-name="nine.superior" unicode="&#x2079;" horiz-adv-x="329" 
d="M216 520q-39 -24 -68 -24q-49 0 -83 29.5t-34 84.5q0 59 37 92t88 33q54 0 95 -37.5t41 -119.5q0 -59 -19.5 -101t-50 -61t-56 -26.5t-48.5 -7.5q-33 0 -62 15t-29 37q0 23 28 23q17 0 27.5 -10t10.5 -22q0 -9 1 -12.5t6 -7t16 -3.5q46 0 70 36t30 82zM160 520
q31 0 46 25t15 60q0 54 -18 82t-45 28q-31 0 -46 -32t-15 -71q0 -38 16.5 -65t46.5 -27z" />
    <glyph glyph-name="parenleft.superior" unicode="&#x207d;" horiz-adv-x="221" 
d="M188 729q15 0 15 -6q0 -2 -21 -30q-69 -108 -69 -218q0 -53 22 -115.5t56 -107.5l5 -7.5t5 -8.5l2 -3q0 -6 -12 -6q-10 0 -17 4.5t-25 24.5q-103 114 -103 221q0 61 28 115.5t84 116.5q18 20 30 20z" />
    <glyph glyph-name="parenright.superior" unicode="&#x207e;" horiz-adv-x="221" 
d="M33 227q-15 0 -15 6q0 2 21 30q69 108 69 218q0 53 -22 115.5t-56 107.5l-5 7.5t-5 8.5l-2 3q0 6 12 6q10 0 17 -4.5t25 -24.5q103 -114 103 -221q0 -61 -28 -115.5t-84 -116.5q-18 -20 -30 -20z" />
    <glyph glyph-name="n.superior" unicode="&#x207f;" horiz-adv-x="346" 
d="M285 420v-119q0 -10 3 -12t20 -2q10 0 13 -1.5t3 -9.5q0 -13 -10 -13q-6 0 -25.5 1t-29.5 1q-8 0 -25 -1t-24 -1q-14 0 -14 9q0 11 4.5 13t22.5 2q8 0 9 3.5t1 19.5v114q0 34 -6 48t-28 14q-18 0 -39.5 -13.5t-32.5 -30.5t-11 -54v-80q0 -21 14 -21q15 0 19.5 -2.5
t4.5 -10.5q0 -11 -17 -11q-3 0 -19 1t-30 1q-5 0 -24.5 -1t-25.5 -1q-10 0 -10 12q0 8 4.5 10t21.5 2q8 0 10 4.5t2 21.5v126q0 26 -3 31.5t-18 5.5q-8 0 -10.5 1.5t-2.5 9.5t2 10t12 3h4l21 3t25 3.5t12 1.5q8 0 8 -21v-36q41 57 92 57q47 0 62 -23.5t15 -64.5z" />
    <glyph glyph-name="zero.inferior" unicode="&#x2080;" horiz-adv-x="329" 
d="M164 229q23 0 44 -8t42 -26.5t33.5 -55t12.5 -87.5q0 -53 -14 -90.5t-36 -54.5t-42 -24t-39 -7q-54 0 -93 42.5t-39 129.5q0 58 16 98t40.5 56t42 21.5t32.5 5.5zM166 209q-25 0 -38.5 -23t-17 -54.5t-3.5 -82.5q0 -32 1.5 -52.5t6.5 -47t17.5 -40t32.5 -13.5t32.5 14
t17.5 41.5t6 48t1 53.5q0 74 -10.5 115t-45.5 41z" />
    <glyph glyph-name="one.inferior" unicode="&#x2081;" horiz-adv-x="329" 
d="M201 131v-204q0 -14 2 -17t13 -3q31 0 36 -2q5 -3 5 -9q0 -9 -4.5 -11t-17.5 -2t-36 1t-32 1q-31 0 -65 -2h-12q-14 0 -14 11q0 7 4.5 10t22.5 3h27q6 11 6 50v216q0 20 -7 20q-3 0 -21.5 -2t-21.5 -2q-12 0 -12 12q0 7 4.5 9t22.5 4q12 1 36 4t43 6l18 3q7 0 7 -7
q0 -4 -1.5 -20t-1.5 -22q0 -7 -0.5 -23.5t-0.5 -23.5z" />
    <glyph glyph-name="two.inferior" unicode="&#x2082;" horiz-adv-x="329" 
d="M115 -66q8 0 36.5 0.5t37.5 0.5q12 0 48.5 3t37.5 3q3 0 8.5 -4t5.5 -8l-13 -39q-2 -6 -4.5 -13t-4 -13t-2.5 -8q-6 -1 -16 -1q-13 0 -13 8l2 8q1 8 1 10q0 5 -83 5q-25 0 -69 -4q-38 -5 -46 -5q-12 0 -12 13q0 8 14 18q19 14 43.5 35t55.5 52.5t51.5 68t20.5 67.5
q0 39 -16.5 55.5t-37.5 16.5q-27 0 -48 -20t-21 -43q0 -19 10 -27.5t22 -8.5q2 0 14 3t14 3q12 0 12 -8q0 -10 -18 -20.5t-40 -10.5q-29 0 -44 15.5t-15 36.5q0 36 38 71t97 35q51 0 79 -28t28 -63q0 -53 -70 -117q-54 -49 -103 -87z" />
    <glyph glyph-name="three.inferior" unicode="&#x2083;" horiz-adv-x="329" 
d="M194 82q30 -1 50 -11t28 -23.5t10.5 -22.5t2.5 -16q0 -15 -9.5 -36t-29 -43.5t-56.5 -38t-84 -15.5q-37 0 -60 12.5t-23 33.5q0 13 10 21.5t24 8.5q11 0 20.5 -7.5t9.5 -16.5q0 -2 -3 -11t-3 -10q0 -11 25 -11q37 0 71 32t34 82q0 27 -11.5 41t-25.5 14q-8 0 -21 -8
q-11 -7 -18 -7q-22 0 -22 14q0 6 18 14q27 10 40.5 16t27.5 22.5t14 39.5q0 22 -14.5 35.5t-32.5 13.5q-26 0 -45.5 -14.5t-19.5 -34.5q0 -23 23 -23q2 0 9 1t8 1q12 0 12 -8q0 -7 -13 -13t-32 -6q-20 0 -35 11.5t-15 27.5q0 30 36 56t91 26q38 0 63 -16.5t25 -43.5
q0 -21 -15 -40t-28.5 -27t-35.5 -20z" />
    <glyph glyph-name="four.inferior" unicode="&#x2084;" horiz-adv-x="329" 
d="M244 9h37q12 0 16 -0.5t5.5 -3t1.5 -9.5q0 -10 -3 -12t-18 -2h-39v-50q0 -17 2.5 -20.5t12.5 -3.5q12 0 16.5 -0.5t8.5 -2t4.5 -4t0.5 -7.5q0 -11 -18 -11q-8 0 -32.5 1t-27.5 1q-6 0 -34 -1t-32 -1q-15 0 -15 11q0 9 5.5 10.5t38.5 2.5q3 0 4 1t2 5.5t1.5 14t0.5 26.5
v28h-131h-12.5t-7.5 1t-5.5 3t-1.5 6t14 20l180 209q14 16 20 16q13 0 13 -12q0 -20 -3 -32q0 -14 -1.5 -92.5t-2.5 -91.5zM72 9h110q0 85 2 131z" />
    <glyph glyph-name="five.inferior" unicode="&#x2085;" horiz-adv-x="329" 
d="M194 169l-73 1q-3 -2 -3 -16l-1 -64q33 16 69 16q52 0 79.5 -26.5t27.5 -60.5q0 -59 -53 -101t-117 -42q-10 0 -20.5 1.5t-26.5 5.5t-26.5 14.5t-10.5 26.5q0 10 11 19t23 9q13 0 21.5 -7.5t8.5 -17.5q0 -14 -17 -21q14 -10 32 -10q43 0 72 30.5t29 84.5q0 71 -51 71
q-15 0 -33.5 -7.5t-20.5 -26.5q-2 -15 -4 -19t-11 -4q-7 0 -18.5 5.5t-11.5 12.5q0 2 5 10.5t5 9.5q2 20 2 84q0 18 -4 62l-1 11q0 9 11 13.5t17 4.5q7 0 10 -2t3.5 -4t1.5 -8q0 -4 17 -6q10 0 18 -0.5t11.5 -1t6 -0.5h4.5q33 0 65 9l19 4q12 0 12 -14q0 -46 -78 -46z" />
    <glyph glyph-name="six.inferior" unicode="&#x2086;" horiz-adv-x="329" 
d="M112 91q39 24 68 24q49 0 83 -29.5t34 -84.5q0 -59 -37 -92t-88 -33q-54 0 -95 37.5t-41 119.5q0 59 19.5 101t50 61t56 26.5t48.5 7.5q33 0 62 -15t29 -37q0 -23 -28 -23q-17 0 -27.5 10t-10.5 22q0 9 -1 12.5t-6 7t-16 3.5q-46 0 -70 -36t-30 -82zM168 91
q-31 0 -46 -25t-15 -60q0 -54 18 -82t45 -28q31 0 46 32t15 71q0 38 -16.5 65t-46.5 27z" />
    <glyph glyph-name="seven.inferior" unicode="&#x2087;" horiz-adv-x="329" 
d="M49 168l17 64q3 14 14 14q6 0 9.5 -0.5t5.5 -3.5t2.5 -5t1.5 -9q2 -6 42 -6h75q9 0 43 2l23 3q5 0 13 -7t8 -10l-7 -12q-7 -12 -14.5 -25t-8.5 -15q-32 -67 -91 -215q-15 -37 -26.5 -52t-31.5 -15q-11 0 -22.5 7t-11.5 21t41 79q42 67 115 191q-136 0 -149 -1t-17 -12
t-6.5 -13.5t-9.5 -2.5q-18 0 -18 9q0 4 3 14z" />
    <glyph glyph-name="eight.inferior" unicode="&#x2088;" horiz-adv-x="329" 
d="M207 74q86 -36 86 -93q0 -39 -37.5 -72t-101.5 -33q-57 0 -89 26.5t-32 60.5q0 50 85 88q-72 35 -72 87q0 38 33.5 64.5t86.5 26.5q56 0 85.5 -25.5t29.5 -52.5q0 -46 -74 -77zM182 85q51 24 51 63q0 21 -15 41t-54 20q-33 0 -47.5 -16.5t-14.5 -35.5q0 -21 18 -37
t62 -35zM144 39q-24 -10 -43.5 -28.5t-19.5 -43.5q0 -28 20.5 -49.5t56.5 -21.5q34 0 56.5 16.5t22.5 42.5q0 23 -17.5 40t-75.5 44z" />
    <glyph glyph-name="nine.inferior" unicode="&#x2089;" horiz-adv-x="329" 
d="M216 14q-39 -24 -68 -24q-49 0 -83 29.5t-34 84.5q0 59 37 92t88 33q54 0 95 -37.5t41 -119.5q0 -59 -19.5 -101t-50 -61t-56 -26.5t-48.5 -7.5q-33 0 -62 15t-29 37q0 23 28 23q17 0 27.5 -10t10.5 -22q0 -9 1 -12.5t6 -7t16 -3.5q46 0 70 36t30 82zM160 14q31 0 46 25
t15 60q0 54 -18 82t-45 28q-31 0 -46 -32t-15 -71q0 -38 16.5 -65t46.5 -27z" />
    <glyph glyph-name="parenleft.inferior" unicode="&#x208d;" horiz-adv-x="221" 
d="M188 413q15 0 15 -6q0 -2 -21 -30q-69 -108 -69 -218q0 -53 22 -115.5t56 -107.5l5 -7.5t5 -8.5l2 -3q0 -6 -12 -6q-10 0 -17 4.5t-25 24.5q-103 114 -103 221q0 61 28 115.5t84 116.5q18 20 30 20z" />
    <glyph glyph-name="parenright.inferior" unicode="&#x208e;" horiz-adv-x="221" 
d="M33 -89q-15 0 -15 6q0 2 21 30q69 108 69 218q0 53 -22 115.5t-56 107.5l-5 7.5t-5 8.5l-2 3q0 6 12 6q10 0 17 -4.5t25 -24.5q103 -114 103 -221q0 -61 -28 -115.5t-84 -116.5q-18 -20 -30 -20z" />
    <glyph glyph-name="colonmonetary" unicode="&#x20a1;" horiz-adv-x="656" 
d="M551 610l44 113q10 24 14 24t14 -3.5t10 -8.5q0 -1 -1 -3t-3.5 -8.5t-5.5 -14.5l-30 -79q0 -6 -1.5 -39t-1.5 -38q0 -8 1.5 -49t1.5 -47q0 -19 -15 -19q-16 0 -18 14q-9 53 -12 63l-196 -503q25 -2 52 1.5t57 14.5t54.5 35.5t37.5 59.5q13 37 19 66q3 16 7 21t12 5
q16 0 16 -14q0 -3 -1.5 -18.5t-1.5 -18.5q-4 -50 -4 -98q0 -5 1.5 -30t1.5 -27q0 -12 -14 -12q-11 0 -19 21q-9 21 -20 21q-9 0 -24 -10q-78 -52 -185 -45l-24 -63q-8 -19 -13 -19q-4 0 -13 4t-9 9q0 1 0.5 3t3.5 9t7 17l16 43q-60 10 -107 38l-40 -104q-8 -19 -13 -19
q-4 0 -13 4t-9 9q0 4 11 29l38 98q-130 98 -130 268q0 140 92 244.5t235 104.5q17 0 41 -3l26 67q10 24 14 24t14 -3.5t10 -8.5q0 -3 -10 -26l-23 -60q41 -14 72 -32q18 -11 24 -11t10 4zM321 18l208 534q-33 49 -95 69l-209 -537q36 -50 96 -66zM205 118l198 509
q-10 2 -25 2q-60 0 -104 -31t-66 -82t-32 -102t-10 -104q0 -111 39 -192z" />
    <glyph glyph-name="Euro" unicode="&#x20ac;" horiz-adv-x="488" 
d="M365 274l-4 -19q-3 -10 -12 -10h-183q5 -40 14 -74.5t25 -69t43 -54.5t62 -20q28 0 53.5 14.5t37.5 29.5q13 17 21.5 36t12.5 27.5t10 8.5q5 0 9.5 -6t4.5 -11q0 -14 -9 -35t-27.5 -46.5t-56 -43t-85.5 -17.5q-62 0 -109.5 39.5t-72 96.5t-31.5 125h-36q-12 0 -9 13l3 16
q2 11 15 11h25v3q0 25 5 57h-40q-13 0 -9 13l4 16q3 11 14 11h39q26 101 94 171t158 70q135 0 135 -92q0 -20 -13.5 -28.5t-27.5 -8.5t-28 12.5t-14 35.5v26q0 30 -48 30q-61 0 -109 -57.5t-60 -158.5h218q11 0 9 -11l-4 -19q-2 -10 -13 -10h-214v-25q0 -21 1 -35h194
q10 0 8 -11z" />
    <glyph glyph-name="afii61289" unicode="&#x2113;" horiz-adv-x="369" 
d="M335 105l19 -16q-55 -102 -150 -102q-63 0 -92 35q-31 38 -31 130v72l-52 -39l-11 23l63 50v117q0 107 9 154t37 81q36 46 82 46q40 0 61.5 -34t21.5 -86q0 -73 -33.5 -135t-96.5 -127v-81q0 -85 18.5 -119t58.5 -34q51 0 96 65zM162 427v-109q81 97 81 217q0 93 -40 93
q-24 0 -32.5 -43.5t-8.5 -157.5z" />
    <glyph glyph-name="trademark" unicode="&#x2122;" horiz-adv-x="773" 
d="M210 616v-212q0 -28 1 -33q2 -5 18 -5q15 0 20.5 -2t5.5 -12q0 -8 -2.5 -10t-9.5 -2t-32.5 0.5t-30.5 0.5q-8 0 -34.5 -0.5t-29.5 -0.5q-10 0 -10 12q0 10 5.5 12t27.5 2q5 0 7 1t3.5 5.5t2 13t0.5 25.5v205q-55 -1 -74.5 -9t-28.5 -40q-4 -18 -15 -18q-13 0 -13 22v51
q0 21 13 21q7 0 43 -1t44 -1h132q5 0 37 1t41 1q7 0 8.5 -4t1.5 -17v-51q0 -9 -0.5 -13t-3 -7t-8.5 -3q-7 0 -10 4t-8 22q-8 26 -27 33t-74 9zM556 422l84 194q8 18 11 22.5t10 4.5q5 0 23 -0.5t19 -0.5q5 0 13 0.5t10 0.5q7 0 9.5 -0.5t5.5 -3.5t3 -10q0 -13 -22 -13
q-13 0 -15 -1q-2 -2 -2 -18v-212q0 -13 1.5 -16t10.5 -3q24 0 24 -14q0 -12 -10 -12q-6 0 -29.5 0.5t-30.5 0.5t-24 -0.5t-21 -0.5h-10.5t-5.5 3t-3 9q0 9 4.5 11t23.5 3q9 1 10.5 5.5t1.5 25.5v168l-92 -211q-5 -11 -7 -13.5t-9 -2.5q-10 0 -15 16l-84 209v-151
q0 -19 0.5 -26.5t5 -13t13.5 -5.5q24 -2 24 -15q0 -5 -6 -8.5t-10 -3.5q-3 0 -17 0.5t-19 0.5q-9 0 -24 -0.5t-18 -0.5q-17 0 -17 13q0 8 4.5 10t17.5 3t16 7.5t3 27.5v186q0 21 -2.5 25t-18.5 4q-20 0 -20 13q0 14 14 14q2 0 14.5 -1t19.5 -1q8 0 19.5 1t14.5 1
q7 0 12 -4.5t11 -19.5z" />
    <glyph glyph-name="Omega" unicode="&#x2126;" horiz-adv-x="641" 
d="M611 132l-22 -132h-211l-6 17q5 11 25 50t30.5 63.5t25.5 63t22 75.5t7 73q-1 132 -47 194t-116 62q-73 0 -116.5 -61.5t-43.5 -199.5q0 -53 16.5 -111.5t36 -100.5t46.5 -92q3 -5 5 -8.5t4 -7.5l-8 -17h-209l-21 132l24 1q14 -42 27.5 -54.5t40.5 -12.5h90
q-29 25 -48.5 46t-46 56.5t-40.5 80.5t-14 95q0 127 74 205t186 78q113 0 184.5 -74.5t71.5 -201.5q0 -45 -13.5 -87.5t-39.5 -80t-47 -62t-53 -55.5h95q28 0 40 11.5t26 55.5z" />
    <glyph glyph-name="estimated" unicode="&#x212e;" horiz-adv-x="772" 
d="M741 296h-576q-5 0 -5 -4v-174q0 -10 8 -20q92 -95 218 -95q136 0 229 106h51q-48 -57 -122.5 -90t-158.5 -33q-147 0 -251 93t-104 226t104 226.5t251 93.5q148 0 252 -93.5t104 -226.5v-9zM610 319v175q0 11 -8 21q-93 91 -216 91q-125 0 -217 -94q-9 -9 -9 -22v-171
q0 -6 5 -6h441q4 0 4 6z" />
    <glyph glyph-name="onethird" unicode="&#x2153;" horiz-adv-x="720" 
d="M201 562v-204q0 -14 2 -17t13 -3q32 0 36 -2q5 -2 5 -9q0 -9 -4.5 -11t-17.5 -2q-8 0 -47 1t-46 1q-14 0 -48 -2h-4q-14 0 -14 11q0 8 5.5 10.5t31.5 2.5q18 0 20 3q3 5 3 47v216q0 14 -1 17t-7 3q-3 0 -20.5 -2t-20.5 -2q-13 0 -13 12q0 7 4.5 9t22.5 4q48 4 78 10
q4 1 7.5 2t5 1.5t2.5 0.5h2q9 0 9 -8q0 -25 -3 -40q-1 -32 -1 -49zM133 8l410 626q15 23 18 24q4 1 25 1q10 0 10 -5q0 -6 -13 -23l-403 -619q-12 -19 -15.5 -22.5t-8.5 -4.5h-26q-8 0 -8 4t11 19zM587 196q26 -1 44.5 -8.5t27 -17t13.5 -21.5t5.5 -17t0.5 -9q0 -50 -53 -91
t-126 -41q-37 0 -60 12t-23 33q0 13 10 21.5t24 8.5q16 0 23.5 -8t7.5 -17q0 -1 -3.5 -10t-3.5 -10q0 -11 25 -11q39 0 71.5 33.5t32.5 80.5q0 25 -9.5 40t-26.5 15q-9 0 -26 -12q-3 -3 -8 -3q-6 0 -16.5 4t-10.5 11t18 13q25 8 39.5 15t28 23.5t13.5 39.5t-13.5 37
t-32.5 14q-24 0 -44.5 -15t-20.5 -35q0 -24 23 -24q1 0 8 1t9 1q12 0 12 -8q0 -7 -13 -13t-32 -6q-20 0 -35 12t-15 28q0 31 37.5 56t89.5 25q38 0 63 -16.5t25 -43.5q0 -21 -15 -40t-28.5 -27t-35.5 -20z" />
    <glyph glyph-name="twothirds" unicode="&#x2154;" horiz-adv-x="720" 
d="M114 366q8 0 36.5 0.5t37.5 0.5q12 0 48.5 3t37.5 3q4 0 9 -4t5 -8q0 -1 -2.5 -8.5t-6 -17t-4.5 -14.5q-1 -3 -11 -34q-6 -1 -16 -1q-13 0 -13 8l1 8q2 8 2 10q0 3 -3.5 4.5t-10.5 1.5h-13.5t-15.5 -0.5t-14 -0.5l-60 -1q-24 -1 -50.5 -4t-30.5 -3q-12 0 -12 13
q0 8 14 18q19 14 43.5 35t55.5 52.5t51.5 68t20.5 67.5q0 33 -16 52.5t-38 19.5q-30 0 -49.5 -19.5t-19.5 -43.5q0 -19 10 -27.5t22 -8.5q2 0 14.5 3t14.5 3q11 0 11 -8q0 -10 -18 -20.5t-40 -10.5q-29 0 -44 15.5t-15 36.5q0 32 36.5 68t98.5 36q57 0 82 -30t25 -59
q0 -53 -70 -117q-54 -49 -103 -87zM133 8l410 626q15 23 18 24q4 1 25 1q10 0 10 -5q0 -6 -13 -23l-403 -619q-12 -19 -15.5 -22.5t-8.5 -4.5h-26q-8 0 -8 4t11 19zM587 196q26 -1 44.5 -8.5t27 -17t13.5 -21.5t5.5 -17t0.5 -9q0 -50 -53 -91t-126 -41q-37 0 -60 12t-23 33
q0 13 10 21.5t24 8.5q16 0 23.5 -8t7.5 -17q0 -1 -3.5 -10t-3.5 -10q0 -11 25 -11q39 0 71.5 33.5t32.5 80.5q0 25 -9.5 40t-26.5 15q-9 0 -26 -12q-3 -3 -8 -3q-6 0 -16.5 4t-10.5 11t18 13q25 8 39.5 15t28 23.5t13.5 39.5t-13.5 37t-32.5 14q-24 0 -44.5 -15t-20.5 -35
q0 -24 23 -24q1 0 8 1t9 1q12 0 12 -8q0 -7 -13 -13t-32 -6q-20 0 -35 12t-15 28q0 31 37.5 56t89.5 25q38 0 63 -16.5t25 -43.5q0 -21 -15 -40t-28.5 -27t-35.5 -20z" />
    <glyph glyph-name="oneeighth" unicode="&#x215b;" horiz-adv-x="720" 
d="M598 189q86 -36 86 -93q0 -39 -37.5 -72t-101.5 -33q-57 0 -89 26.5t-32 60.5q0 50 85 88q-72 35 -72 87q0 38 33.5 64.5t86.5 26.5q56 0 85.5 -25.5t29.5 -52.5q0 -46 -74 -77zM573 200q51 24 51 63q0 21 -15 41t-54 20q-33 0 -47.5 -16.5t-14.5 -35.5q0 -21 18 -37
t62 -35zM535 154q-24 -10 -43.5 -28.5t-19.5 -43.5q0 -28 20.5 -49.5t56.5 -21.5q34 0 56.5 16.5t22.5 42.5q0 23 -17.5 40t-75.5 44zM201 562v-204q0 -14 2 -17t13 -3q32 0 36 -2q5 -2 5 -9q0 -9 -4.5 -11t-17.5 -2q-8 0 -47 1t-46 1q-14 0 -48 -2h-4q-14 0 -14 11
q0 8 5.5 10.5t31.5 2.5q18 0 20 3q3 5 3 47v216q0 14 -1 17t-7 3q-3 0 -20.5 -2t-20.5 -2q-13 0 -13 12q0 7 4.5 9t22.5 4q48 4 78 10q4 1 7.5 2t5 1.5t2.5 0.5h2q9 0 9 -8q0 -25 -3 -40q-1 -32 -1 -49zM133 8l410 626q15 23 18 24q4 1 25 1q10 0 10 -5q0 -6 -13 -23
l-403 -619q-12 -19 -15.5 -22.5t-8.5 -4.5h-26q-8 0 -8 4t11 19z" />
    <glyph glyph-name="threeeighths" unicode="&#x215c;" horiz-adv-x="720" 
d="M598 189q86 -36 86 -93q0 -39 -37.5 -72t-101.5 -33q-57 0 -89 26.5t-32 60.5q0 50 85 88q-72 35 -72 87q0 38 33.5 64.5t86.5 26.5q56 0 85.5 -25.5t29.5 -52.5q0 -46 -74 -77zM573 200q51 24 51 63q0 21 -15 41t-54 20q-33 0 -47.5 -16.5t-14.5 -35.5q0 -21 18 -37
t62 -35zM535 154q-24 -10 -43.5 -28.5t-19.5 -43.5q0 -28 20.5 -49.5t56.5 -21.5q34 0 56.5 16.5t22.5 42.5q0 23 -17.5 40t-75.5 44zM194 512q30 -1 50 -11t28 -23.5t10.5 -22.5t2.5 -16q0 -15 -9.5 -36t-29 -43.5t-56.5 -38t-84 -15.5q-37 0 -60 12.5t-23 33.5
q0 13 10 21.5t24 8.5q11 0 20.5 -7.5t9.5 -16.5q0 -2 -3 -11t-3 -10q0 -11 25 -11q37 0 71 32t34 82q0 27 -11.5 41t-25.5 14q-8 0 -21 -8q-11 -7 -18 -7q-22 0 -22 14q0 6 18 14q27 10 40.5 16t27.5 22.5t14 39.5q0 22 -14.5 35.5t-32.5 13.5q-26 0 -45.5 -14.5
t-19.5 -34.5q0 -23 23 -23q2 0 9 1t8 1q12 0 12 -8q0 -7 -13 -13t-32 -6q-20 0 -35 11.5t-15 27.5q0 30 36 56t91 26q38 0 63 -16.5t25 -43.5q0 -21 -15 -40t-28.5 -27t-35.5 -20zM133 8l410 626q15 23 18 24q4 1 25 1q10 0 10 -5q0 -6 -13 -23l-403 -619
q-12 -19 -15.5 -22.5t-8.5 -4.5h-26q-8 0 -8 4t11 19z" />
    <glyph glyph-name="fiveeighths" unicode="&#x215d;" horiz-adv-x="720" 
d="M598 189q86 -36 86 -93q0 -39 -37.5 -72t-101.5 -33q-57 0 -89 26.5t-32 60.5q0 50 85 88q-72 35 -72 87q0 38 33.5 64.5t86.5 26.5q56 0 85.5 -25.5t29.5 -52.5q0 -46 -74 -77zM573 200q51 24 51 63q0 21 -15 41t-54 20q-33 0 -47.5 -16.5t-14.5 -35.5q0 -21 18 -37
t62 -35zM535 154q-24 -10 -43.5 -28.5t-19.5 -43.5q0 -28 20.5 -49.5t56.5 -21.5q34 0 56.5 16.5t22.5 42.5q0 23 -17.5 40t-75.5 44zM133 8l410 626q15 23 18 24q4 1 25 1q10 0 10 -5q0 -6 -13 -23l-403 -619q-12 -19 -15.5 -22.5t-8.5 -4.5h-26q-8 0 -8 4t11 19zM188 599
l-73 1q-3 -2 -3 -16l-1 -64q33 16 69 16q52 0 79.5 -26.5t27.5 -60.5q0 -59 -53 -101t-117 -42q-10 0 -20.5 1.5t-26.5 5.5t-26.5 14.5t-10.5 26.5q0 10 11 19t23 9q13 0 21.5 -7.5t8.5 -17.5q0 -14 -17 -21q14 -10 32 -10q43 0 72 30.5t29 84.5q0 71 -51 71
q-15 0 -33.5 -7.5t-20.5 -26.5q-2 -15 -4 -19t-11 -4q-7 0 -18.5 5.5t-11.5 12.5q0 2 5 10.5t5 9.5q2 20 2 84q0 18 -4 62l-1 11q0 9 11 13.5t17 4.5q7 0 10 -2t3.5 -4t1.5 -8q0 -4 17 -6q10 0 18 -0.5t11.5 -1t6 -0.5h4.5q33 0 65 9l19 4q12 0 12 -14q0 -46 -78 -46z" />
    <glyph glyph-name="seveneighths" unicode="&#x215e;" horiz-adv-x="720" 
d="M598 189q86 -36 86 -93q0 -39 -37.5 -72t-101.5 -33q-57 0 -89 26.5t-32 60.5q0 50 85 88q-72 35 -72 87q0 38 33.5 64.5t86.5 26.5q56 0 85.5 -25.5t29.5 -52.5q0 -46 -74 -77zM573 200q51 24 51 63q0 21 -15 41t-54 20q-33 0 -47.5 -16.5t-14.5 -35.5q0 -21 18 -37
t62 -35zM535 154q-24 -10 -43.5 -28.5t-19.5 -43.5q0 -28 20.5 -49.5t56.5 -21.5q34 0 56.5 16.5t22.5 42.5q0 23 -17.5 40t-75.5 44zM115 8l410 626q15 23 18 24q4 1 25 1q10 0 10 -5q0 -6 -13 -23l-403 -619q-12 -19 -15.5 -22.5t-8.5 -4.5h-26q-8 0 -8 4t11 19zM48 598
l17 64q3 14 14 14q6 0 9.5 -0.5t5.5 -3.5t2.5 -5t1.5 -9q2 -6 42 -6h75q9 0 43 2l23 3q5 0 13 -7t8 -10l-7 -12q-7 -12 -14.5 -25t-8.5 -15q-32 -67 -91 -215q-15 -37 -26.5 -52t-31.5 -15q-11 0 -22.5 7t-11.5 21t41 79q42 67 115 191q-136 0 -149 -1t-17 -12t-6.5 -13.5
t-9.5 -2.5q-18 0 -18 9q0 4 3 14z" />
    <glyph glyph-name="partialdiff" unicode="&#x2202;" horiz-adv-x="472" 
d="M233 382h1q75 0 116 -60q7 70 8 97q3 76 -23 140q-14 33 -44.5 56.5t-68.5 23.5q-60 0 -122 -52q-12 -1 -23.5 22t-4.5 38q56 37 125 37q119 0 185 -128q45 -86 45 -209q0 -132 -43 -224q-63 -136 -184 -136q-74 0 -118 48t-44 131q0 86 52 149q57 67 143 67zM254 345h-1
q-57 0 -92 -52q-40 -64 -40 -171q0 -47 21.5 -77t58.5 -30q57 0 98 95q30 65 43 173q-9 22 -33.5 42t-54.5 20z" />
    <glyph glyph-name="Delta" unicode="&#x2206;" horiz-adv-x="563" 
d="M532 0h-502v24l229 592l37 10l236 -602v-24zM427 45l-175 457l-171 -457h346z" />
    <glyph glyph-name="product" unicode="&#x220f;" horiz-adv-x="611" 
d="M586 620v-25q-56 -4 -68.5 -14.5t-12.5 -52.5v-505q0 -47 12.5 -59t66.5 -16v-25h-235v25q51 4 61.5 15t10.5 60v536q0 19 -6 24.5t-26 5.5h-170q-20 0 -25 -4.5t-5 -22.5v-539q0 -48 9 -59.5t56 -15.5v-25h-228v25q53 4 65.5 16t12.5 59v505q0 42 -12.5 52.5t-68.5 14.5
v25h563z" />
    <glyph glyph-name="summation" unicode="&#x2211;" 
d="M470 92l-39 -173h-406v23l197 304l-193 351v23h402q4 -67 11 -146l-26 -5q-9 54 -29 90q-10 18 -27.5 24.5t-65.5 6.5h-160l161 -287l-198 -310h223q59 0 78.5 15.5t45.5 89.5z" />
    <glyph glyph-name="minus" unicode="&#x2212;" 
d="M444 276h-398v60h398v-60z" />
    <glyph glyph-name="uni2215" unicode="&#x2215;" horiz-adv-x="62" 
d="M-195 8l410 626q15 23 18 24q4 1 25 1q10 0 10 -5q0 -6 -13 -23l-403 -619q-12 -19 -15.5 -22.5t-8.5 -4.5h-26q-8 0 -8 4t11 19z" />
    <glyph glyph-name="uni2219" unicode="&#x2219;" horiz-adv-x="317" 
d="M159 372q27 0 46.5 -19.5t19.5 -47.5t-19.5 -47t-46.5 -19q-28 0 -47.5 19.5t-19.5 46.5q0 28 19.5 47.5t47.5 19.5z" />
    <glyph glyph-name="radical" unicode="&#x221a;" 
d="M475 789l-149 -925l-20 -10l-190 489l-77 -36l-11 31l144 66l143 -383h2l121 776z" />
    <glyph glyph-name="infinity" unicode="&#x221e;" horiz-adv-x="668" 
d="M626 256v-1q0 -64 -40.5 -104t-94.5 -40q-40 0 -76 23t-80 77q-41 -49 -77.5 -74.5t-83.5 -25.5q-54 0 -93.5 40.5t-39.5 100.5q0 62 40 102t100 40q77 0 157 -98q1 1 13 14.5t14.5 16l14 14t16.5 15t16 12t19 11.5t19 7.5t22.5 6t23.5 1.5q57 0 93.5 -38t36.5 -100z
M181 163h1q24 0 49.5 16.5t36.5 27.5t38 42q-24 32 -37.5 47.5t-39 31.5t-52.5 16q-37 0 -59.5 -26.5t-22.5 -66.5q0 -37 24.5 -62.5t61.5 -25.5zM490 344h-1q-15 0 -30 -5.5t-29.5 -18t-23.5 -21t-24 -25t-18 -20.5q44 -52 70.5 -71.5t58.5 -19.5q36 0 58 27t22 61
q0 42 -23 67.5t-60 25.5z" />
    <glyph glyph-name="integral" unicode="&#x222b;" horiz-adv-x="338" 
d="M143 7l-18 365q-18 379 140 379q21 0 38.5 -11.5t18.5 -31.5q0 -20 -12.5 -31t-29.5 -11t-28 22t-20 22q-40 0 -34 -145l17 -339q19 -404 -143 -404q-24 0 -40 13t-16 31q-1 19 14 32t34 13q14 0 25 -24t20 -24q19 0 28 39t6 105z" />
    <glyph glyph-name="approxequal" unicode="&#x2248;" horiz-adv-x="474" 
d="M404 388l34 -31q-45 -86 -114 -86q-39 0 -97 35q-48 29 -76 29q-42 0 -82 -63l-35 30q19 39 52 62.5t70 23.5q12 0 23 -2t22 -6.5t17 -7.5t17.5 -9.5t13.5 -7.5q50 -30 76 -30q41 0 79 63zM404 234l34 -31q-45 -86 -114 -86q-37 0 -97 35q-47 29 -76 29q-26 0 -44 -16
t-38 -47l-35 30q19 39 51.5 62.5t70.5 23.5q12 0 23 -1.5t22.5 -6.5t16.5 -7t17.5 -10t13.5 -8q4 -2 15 -8.5t15.5 -9t13.5 -6t16.5 -5t15.5 -1.5q24 0 41 15t38 48z" />
    <glyph glyph-name="notequal" unicode="&#x2260;" horiz-adv-x="474" 
d="M343 444l-35 -79h123v-54h-144l-53 -121h197v-54h-218l-44 -98l-43 18l36 80h-120v54h142l52 121h-194v54h215l44 97z" />
    <glyph glyph-name="lessequal" unicode="&#x2264;" horiz-adv-x="474" 
d="M429 90l-382 194v58l382 193v-64l-327 -157v-2l327 -158v-64zM432 0h-389v56h389v-56z" />
    <glyph glyph-name="greaterequal" unicode="&#x2265;" horiz-adv-x="474" 
d="M48 535l383 -194v-57l-383 -194v64l327 158v2l-327 157v64zM431 0h-388v56h388v-56z" />
    <glyph glyph-name="lozenge" unicode="&#x25ca;" horiz-adv-x="495" 
d="M452 298l-172 -360h-65l-172 360l173 363h64zM391 298l-141 305h-3l-143 -304l143 -304h2z" />
    <glyph glyph-name="A.sc" unicode="&#xe000;" horiz-adv-x="443" 
d="M272 130h-143q-21 -55 -21 -75q0 -11 5 -17t10 -7.5t18 -2.5q14 -2 18.5 -4.5t4.5 -11.5q0 -15 -11 -15q-2 0 -29 1.5t-33 1.5t-38.5 -1.5t-37.5 -1.5q-15 0 -15 13q0 11 4.5 14t20.5 6q21 5 35.5 20.5t31.5 60.5l121 304q10 23 13 27.5t9 4.5q8 0 11 -8q5 -10 11 -31
l110 -320q13 -38 21 -48.5t31 -10.5q24 0 24 -15q0 -11 -5 -14t-19 -3q-7 0 -40 1.5t-38 1.5q-7 0 -42.5 -1.5t-40.5 -1.5q-23 0 -23 16q0 7 3.5 10t7 3.5t12.5 1.5h2q33 2 36 8l1 7q0 10 -9 37zM137 156h126l-56 173z" />
    <glyph glyph-name="AE.sc" unicode="&#xe001;" horiz-adv-x="580" 
d="M343 406v-167q20 0 30.5 1.5t23 11t15.5 29.5q5 27 8 33.5t13 6.5q15 0 15 -14q0 -9 -1 -43.5t-1 -44.5q0 -6 1 -26.5t1 -28.5q0 -23 -3 -31t-12 -8q-10 0 -12.5 5.5t-4.5 29.5q-3 34 -21 43.5t-52 9.5v-118q0 -48 6.5 -58.5t31.5 -10.5q60 0 91.5 16.5t48.5 69.5
q5 15 8 19.5t10 4.5q9 0 11 -6t2 -24v-73q0 -22 -6 -29t-22 -7q-3 0 -55 1.5t-99 1.5q-45 0 -82 -0.5t-56 -1.5t-20 -1q-6 0 -8.5 0.5t-5 4t-2.5 10.5q0 11 5 14.5t19 3.5q29 0 35.5 10t6.5 53v76h-131l-29 -49q-30 -50 -30 -69q0 -14 9.5 -18t32.5 -6q12 -2 13 -9
q1 -3 1 -7q0 -10 -3.5 -12t-15.5 -2q-9 0 -28.5 1.5t-28.5 1.5q-8 0 -34.5 -1.5t-29.5 -1.5q-15 0 -15 12q0 11 3 13.5t18 5.5q9 1 14.5 4t19 20.5t34.5 53.5l151 258q17 31 17 32q0 8 -21 8q-40 0 -40 13q0 15 27 15h140q25 0 65.5 1t46.5 1q11 0 35.5 0.5t28.5 0.5
q13 0 13 -21q0 -6 2 -38.5t2 -37.5q0 -19 -15 -19q-11 0 -16 18q-11 41 -42 55t-113 14zM146 195h116v200z" />
    <glyph glyph-name="Aacute.sc" unicode="&#xe002;" horiz-adv-x="443" 
d="M272 130h-143q-21 -55 -21 -75q0 -11 5 -17t10 -7.5t18 -2.5q14 -2 18.5 -4.5t4.5 -11.5q0 -15 -11 -15q-2 0 -29 1.5t-33 1.5t-38.5 -1.5t-37.5 -1.5q-15 0 -15 13q0 11 4.5 14t20.5 6q21 5 35.5 20.5t31.5 60.5l121 304q10 23 13 27.5t9 4.5q8 0 11 -8q5 -10 11 -31
l110 -320q13 -38 21 -48.5t31 -10.5q24 0 24 -15q0 -11 -5 -14t-19 -3q-7 0 -40 1.5t-38 1.5q-7 0 -42.5 -1.5t-40.5 -1.5q-23 0 -23 16q0 7 3.5 10t7 3.5t12.5 1.5h2q33 2 36 8l1 7q0 10 -9 37zM137 156h126l-56 173zM181 523l116 126q22 24 40 24q14 0 25.5 -10.5
t11.5 -26.5q0 -20 -16.5 -34t-81.5 -51q-7 -4 -45 -29t-46 -29q-9 -3 -10 -3q-11 0 -11 8t17 25z" />
    <glyph glyph-name="Acircumflex.sc" unicode="&#xe003;" horiz-adv-x="443" 
d="M272 130h-143q-21 -55 -21 -75q0 -11 5 -17t10 -7.5t18 -2.5q14 -2 18.5 -4.5t4.5 -11.5q0 -15 -11 -15q-2 0 -29 1.5t-33 1.5t-38.5 -1.5t-37.5 -1.5q-15 0 -15 13q0 11 4.5 14t20.5 6q21 5 35.5 20.5t31.5 60.5l121 304q10 23 13 27.5t9 4.5q8 0 11 -8q5 -10 11 -31
l110 -320q13 -38 21 -48.5t31 -10.5q24 0 24 -15q0 -11 -5 -14t-19 -3q-7 0 -40 1.5t-38 1.5q-7 0 -42.5 -1.5t-40.5 -1.5q-23 0 -23 16q0 7 3.5 10t7 3.5t12.5 1.5h2q33 2 36 8l1 7q0 10 -9 37zM137 156h126l-56 173zM222 596l-91 -96q-16 -16 -23 -16q-11 0 -11 11t16 35
l79 128q8 14 11.5 16.5t14.5 2.5h21q13 0 17 -2.5t13 -15.5l91 -141q10 -17 10 -23q0 -5 -4.5 -8t-7.5 -3q-6 0 -29 19z" />
    <glyph glyph-name="Adieresis.sc" unicode="&#xe004;" horiz-adv-x="443" 
d="M272 130h-143q-21 -55 -21 -75q0 -11 5 -17t10 -7.5t18 -2.5q14 -2 18.5 -4.5t4.5 -11.5q0 -15 -11 -15q-2 0 -29 1.5t-33 1.5t-38.5 -1.5t-37.5 -1.5q-15 0 -15 13q0 11 4.5 14t20.5 6q21 5 35.5 20.5t31.5 60.5l121 304q10 23 13 27.5t9 4.5q8 0 11 -8q5 -10 11 -31
l110 -320q13 -38 21 -48.5t31 -10.5q24 0 24 -15q0 -11 -5 -14t-19 -3q-7 0 -40 1.5t-38 1.5q-7 0 -42.5 -1.5t-40.5 -1.5q-23 0 -23 16q0 7 3.5 10t7 3.5t12.5 1.5h2q33 2 36 8l1 7q0 10 -9 37zM137 156h126l-56 173zM139 630q21 0 35.5 -14.5t14.5 -35.5t-14.5 -35.5
t-35.5 -14.5q-20 0 -35 14.5t-15 35.5t15 35.5t35 14.5zM328 630q21 0 35.5 -14.5t14.5 -35.5t-14.5 -35.5t-35.5 -14.5q-20 0 -35 14.5t-15 35.5t15 35.5t35 14.5z" />
    <glyph glyph-name="Agrave.sc" unicode="&#xe005;" horiz-adv-x="443" 
d="M272 130h-143q-21 -55 -21 -75q0 -11 5 -17t10 -7.5t18 -2.5q14 -2 18.5 -4.5t4.5 -11.5q0 -15 -11 -15q-2 0 -29 1.5t-33 1.5t-38.5 -1.5t-37.5 -1.5q-15 0 -15 13q0 11 4.5 14t20.5 6q21 5 35.5 20.5t31.5 60.5l121 304q10 23 13 27.5t9 4.5q8 0 11 -8q5 -10 11 -31
l110 -320q13 -38 21 -48.5t31 -10.5q24 0 24 -15q0 -11 -5 -14t-19 -3q-7 0 -40 1.5t-38 1.5q-7 0 -42.5 -1.5t-40.5 -1.5q-23 0 -23 16q0 7 3.5 10t7 3.5t12.5 1.5h2q33 2 36 8l1 7q0 10 -9 37zM137 156h126l-56 173zM170 649l117 -126q16 -17 16 -25t-10 -8q-6 0 -63 37
q-3 2 -53.5 32t-59.5 37q-24 19 -24 40q0 16 11.5 26.5t25.5 10.5q20 0 40 -24z" />
    <glyph glyph-name="Aring.sc" unicode="&#xe006;" horiz-adv-x="443" 
d="M272 130h-143q-21 -55 -21 -75q0 -11 5 -17t10 -7.5t18 -2.5q14 -2 18.5 -4.5t4.5 -11.5q0 -15 -11 -15q-2 0 -29 1.5t-33 1.5t-38.5 -1.5t-37.5 -1.5q-15 0 -15 13q0 11 4.5 14t20.5 6q21 5 35.5 20.5t31.5 60.5l121 304q10 23 13 27.5t9 4.5q8 0 11 -8q5 -10 11 -31
l110 -320q13 -38 21 -48.5t31 -10.5q24 0 24 -15q0 -11 -5 -14t-19 -3q-7 0 -40 1.5t-38 1.5q-7 0 -42.5 -1.5t-40.5 -1.5q-23 0 -23 16q0 7 3.5 10t7 3.5t12.5 1.5h2q33 2 36 8l1 7q0 10 -9 37zM137 156h126l-56 173zM234 672q37 0 64 -26.5t27 -64.5t-26.5 -65t-64.5 -27
t-65 27t-27 65t27 64.5t65 26.5zM234 637q-23 0 -39.5 -17t-16.5 -40t16.5 -39.5t39.5 -16.5t39.5 16.5t16.5 39.5q0 24 -16.5 40.5t-39.5 16.5z" />
    <glyph glyph-name="Atilde.sc" unicode="&#xe007;" horiz-adv-x="443" 
d="M272 130h-143q-21 -55 -21 -75q0 -11 5 -17t10 -7.5t18 -2.5q14 -2 18.5 -4.5t4.5 -11.5q0 -15 -11 -15q-2 0 -29 1.5t-33 1.5t-38.5 -1.5t-37.5 -1.5q-15 0 -15 13q0 11 4.5 14t20.5 6q21 5 35.5 20.5t31.5 60.5l121 304q10 23 13 27.5t9 4.5q8 0 11 -8q5 -10 11 -31
l110 -320q13 -38 21 -48.5t31 -10.5q24 0 24 -15q0 -11 -5 -14t-19 -3q-7 0 -40 1.5t-38 1.5q-7 0 -42.5 -1.5t-40.5 -1.5q-23 0 -23 16q0 7 3.5 10t7 3.5t12.5 1.5h2q33 2 36 8l1 7q0 10 -9 37zM137 156h126l-56 173zM191 630q24 0 98 -27q27 -9 37 -9q28 0 50 22
q10 8 15 8q4 0 8 -3.5t4 -8.5q0 -3 -4.5 -11t-15.5 -20t-25 -23t-36.5 -18.5t-47.5 -7.5q-31 0 -74 19q-38 17 -58 17q-25 0 -52 -22q-8 -5 -13 -5q-13 0 -13 13q0 11 28 35q44 41 99 41z" />
    <glyph glyph-name="B.sc" unicode="&#xe008;" horiz-adv-x="453" 
d="M96 97v248q0 41 -6 48.5t-31 7.5q-9 1 -13.5 2t-8 5t-3.5 11q0 13 23 13h79q3 0 39 2q15 1 39 1q55 0 91.5 -9.5t52.5 -27t21.5 -33.5t5.5 -38q0 -42 -34.5 -67t-72.5 -30q67 -6 102.5 -37.5t35.5 -75.5q0 -53 -38 -86.5t-112 -33.5q-20 0 -73 1.5t-60 1.5t-43.5 -1.5
t-42.5 -1.5q-14 0 -14 17q0 9 5.5 11.5t32.5 4.5q18 1 21.5 12t3.5 55zM201 216h-24v-122q0 -49 9.5 -61t44.5 -12q48 0 70 22.5t22 71.5q0 55 -28.5 78t-93.5 23zM177 409v-169h20q63 0 85 18.5t22 65.5q0 43 -23.5 65t-55.5 22q-30 0 -48 -2z" />
    <glyph glyph-name="C.sc" unicode="&#xe009;" horiz-adv-x="462" 
d="M410 417q0 -7 -1 -31t-1 -29q0 -11 1.5 -29.5t1.5 -22.5q0 -11 -13 -11q-8 0 -11 7t-10 39q-8 39 -40 61t-69 22q-62 0 -95 -57t-33 -153q0 -105 35.5 -154.5t84.5 -49.5q46 0 78.5 27t47.5 71q0 1 4.5 18t6.5 20q3 5 10 5q12 0 12 -15q0 -5 -1.5 -28.5t-1.5 -27.5
q0 -6 1.5 -37t1.5 -36q0 -9 -12 -9q-7 0 -10 6q-6 16 -17 16q-8 0 -25 -9q-46 -25 -106 -25q-91 0 -149.5 66.5t-58.5 155.5q0 40 13 80.5t38.5 77t69 59.5t98.5 23q52 0 91 -24q16 -10 22 -10q5 0 11 12q4 14 13 14q13 0 13 -22z" />
    <glyph glyph-name="Ccedilla.sc" unicode="&#xe00a;" horiz-adv-x="462" 
d="M243 -15l-5 -29q84 -11 84 -81q0 -41 -37.5 -68t-102.5 -27q-48 0 -48 17q0 6 4 9t10 3.5t21 1.5q76 4 76 53q0 29 -43 42l13 80q-74 15 -124 76.5t-50 144.5q0 40 13 80.5t38.5 77t69 59.5t98.5 23q52 0 91 -24q16 -10 22 -10q5 0 11 12q4 14 13 14q13 0 13 -22
q0 -7 -1 -31t-1 -29q0 -11 1.5 -29.5t1.5 -22.5q0 -11 -13 -11q-8 0 -11 7t-10 39q-8 39 -40 61t-69 22q-62 0 -95 -57t-33 -153q0 -105 35 -154.5t85 -49.5q94 0 126 98q0 1 4.5 18t6.5 20q3 5 10 5q12 0 12 -15q0 -5 -1.5 -28.5t-1.5 -27.5q0 -6 1.5 -37t1.5 -36
q0 -9 -12 -9q-7 0 -10 6q-6 16 -17 16q-2 0 -9 -3.5t-16 -5.5q-46 -25 -112 -25z" />
    <glyph glyph-name="D.sc" unicode="&#xe00b;" horiz-adv-x="509" 
d="M50 432h88q10 0 46 2q10 0 27 0.5t23 0.5q54 0 96.5 -15t67.5 -37.5t41.5 -52.5t22.5 -57.5t6 -54.5q0 -98 -56 -161t-158 -63q-6 0 -27 1.5t-32 1.5q-9 0 -30.5 1.5t-28.5 1.5q-16 0 -85 -3q-18 0 -18 16q0 10 6 12.5t23 3.5q25 1 29.5 12t4.5 66v235q0 42 -4 50t-21 9
q-24 1 -29.5 3t-5.5 12q0 16 14 16zM177 405v-294q0 -60 8.5 -75.5t45.5 -15.5q69 0 103.5 52.5t34.5 147.5q0 187 -146 187q-26 0 -46 -2z" />
    <glyph glyph-name="E.sc" unicode="&#xe00c;" horiz-adv-x="430" 
d="M177 406v-167q21 0 30.5 0.5t24 4.5t22 13.5t9.5 25.5q4 26 6.5 32t12.5 6t12.5 -4t2.5 -17q0 -4 -1.5 -33t-1.5 -45q0 -12 1.5 -40t1.5 -35q0 -22 -17 -22q-12 0 -15 37q-1 15 -6 24.5t-10.5 15t-18 8t-23 3t-30.5 0.5v-124q0 -43 6 -53.5t28 -10.5q82 0 111.5 16
t50.5 78q5 16 16 16q9 0 11 -4.5t2 -21.5v-82q0 -20 -6 -25t-26 -5q-4 0 -61 1.5t-102 1.5q-32 0 -87 -1.5t-69 -1.5q-21 0 -21 16q0 6 1 9t6 5t9.5 2.5t17.5 0.5q22 1 27 13t5 66v239q0 38 -5.5 45.5t-31.5 7.5t-26 17q0 14 29 14h161q16 0 43 1t28 1q3 0 30 0.5t34 0.5
q17 0 18 -29l3 -58q1 -18 -1.5 -23t-11.5 -5t-12 5t-12 29q-9 26 -36.5 39t-88.5 13h-40z" />
    <glyph glyph-name="Eacute.sc" unicode="&#xe00d;" horiz-adv-x="430" 
d="M177 406v-167q21 0 30.5 0.5t24 4.5t22 13.5t9.5 25.5q4 26 6.5 32t12.5 6t12.5 -4t2.5 -17q0 -4 -1.5 -33t-1.5 -45q0 -12 1.5 -40t1.5 -35q0 -22 -17 -22q-12 0 -15 37q-1 15 -6 24.5t-10.5 15t-18 8t-23 3t-30.5 0.5v-124q0 -43 6 -53.5t28 -10.5q82 0 111.5 16
t50.5 78q5 16 16 16q9 0 11 -4.5t2 -21.5v-82q0 -20 -6 -25t-26 -5q-4 0 -61 1.5t-102 1.5q-32 0 -87 -1.5t-69 -1.5q-21 0 -21 16q0 6 1 9t6 5t9.5 2.5t17.5 0.5q22 1 27 13t5 66v239q0 38 -5.5 45.5t-31.5 7.5t-26 17q0 14 29 14h161q16 0 43 1t28 1q3 0 30 0.5t34 0.5
q17 0 18 -29l3 -58q1 -18 -1.5 -23t-11.5 -5t-12 5t-12 29q-9 26 -36.5 39t-88.5 13h-40zM163 523l116 126q22 24 40 24q14 0 25.5 -10.5t11.5 -26.5q0 -20 -16.5 -34t-81.5 -51q-7 -4 -45 -29t-46 -29q-9 -3 -10 -3q-11 0 -11 8t17 25z" />
    <glyph glyph-name="Ecircumflex.sc" unicode="&#xe00e;" horiz-adv-x="430" 
d="M177 406v-167q21 0 30.5 0.5t24 4.5t22 13.5t9.5 25.5q4 26 6.5 32t12.5 6t12.5 -4t2.5 -17q0 -4 -1.5 -33t-1.5 -45q0 -12 1.5 -40t1.5 -35q0 -22 -17 -22q-12 0 -15 37q-1 15 -6 24.5t-10.5 15t-18 8t-23 3t-30.5 0.5v-124q0 -43 6 -53.5t28 -10.5q82 0 111.5 16
t50.5 78q5 16 16 16q9 0 11 -4.5t2 -21.5v-82q0 -20 -6 -25t-26 -5q-4 0 -61 1.5t-102 1.5q-32 0 -87 -1.5t-69 -1.5q-21 0 -21 16q0 6 1 9t6 5t9.5 2.5t17.5 0.5q22 1 27 13t5 66v239q0 38 -5.5 45.5t-31.5 7.5t-26 17q0 14 29 14h161q16 0 43 1t28 1q3 0 30 0.5t34 0.5
q17 0 18 -29l3 -58q1 -18 -1.5 -23t-11.5 -5t-12 5t-12 29q-9 26 -36.5 39t-88.5 13h-40zM204 596l-91 -96q-16 -16 -23 -16q-11 0 -11 11t16 35l79 128q8 14 11.5 16.5t14.5 2.5h21q13 0 17 -2.5t13 -15.5l91 -141q10 -17 10 -23q0 -5 -4.5 -8t-7.5 -3q-6 0 -29 19z" />
    <glyph glyph-name="Edieresis.sc" unicode="&#xe00f;" horiz-adv-x="430" 
d="M177 406v-167q21 0 30.5 0.5t24 4.5t22 13.5t9.5 25.5q4 26 6.5 32t12.5 6t12.5 -4t2.5 -17q0 -4 -1.5 -33t-1.5 -45q0 -12 1.5 -40t1.5 -35q0 -22 -17 -22q-12 0 -15 37q-1 15 -6 24.5t-10.5 15t-18 8t-23 3t-30.5 0.5v-124q0 -43 6 -53.5t28 -10.5q82 0 111.5 16
t50.5 78q5 16 16 16q9 0 11 -4.5t2 -21.5v-82q0 -20 -6 -25t-26 -5q-4 0 -61 1.5t-102 1.5q-32 0 -87 -1.5t-69 -1.5q-21 0 -21 16q0 6 1 9t6 5t9.5 2.5t17.5 0.5q22 1 27 13t5 66v239q0 38 -5.5 45.5t-31.5 7.5t-26 17q0 14 29 14h161q16 0 43 1t28 1q3 0 30 0.5t34 0.5
q17 0 18 -29l3 -58q1 -18 -1.5 -23t-11.5 -5t-12 5t-12 29q-9 26 -36.5 39t-88.5 13h-40zM121 630q21 0 35.5 -14.5t14.5 -35.5t-14.5 -35.5t-35.5 -14.5q-20 0 -35 14.5t-15 35.5t15 35.5t35 14.5zM310 630q21 0 35.5 -14.5t14.5 -35.5t-14.5 -35.5t-35.5 -14.5
q-20 0 -35 14.5t-15 35.5t15 35.5t35 14.5z" />
    <glyph glyph-name="Egrave.sc" unicode="&#xe010;" horiz-adv-x="430" 
d="M177 406v-167q21 0 30.5 0.5t24 4.5t22 13.5t9.5 25.5q4 26 6.5 32t12.5 6t12.5 -4t2.5 -17q0 -4 -1.5 -33t-1.5 -45q0 -12 1.5 -40t1.5 -35q0 -22 -17 -22q-12 0 -15 37q-1 15 -6 24.5t-10.5 15t-18 8t-23 3t-30.5 0.5v-124q0 -43 6 -53.5t28 -10.5q82 0 111.5 16
t50.5 78q5 16 16 16q9 0 11 -4.5t2 -21.5v-82q0 -20 -6 -25t-26 -5q-4 0 -61 1.5t-102 1.5q-32 0 -87 -1.5t-69 -1.5q-21 0 -21 16q0 6 1 9t6 5t9.5 2.5t17.5 0.5q22 1 27 13t5 66v239q0 38 -5.5 45.5t-31.5 7.5t-26 17q0 14 29 14h161q16 0 43 1t28 1q3 0 30 0.5t34 0.5
q17 0 18 -29l3 -58q1 -18 -1.5 -23t-11.5 -5t-12 5t-12 29q-9 26 -36.5 39t-88.5 13h-40zM152 649l117 -126q16 -17 16 -25t-10 -8q-6 0 -63 37q-3 2 -53.5 32t-59.5 37q-24 19 -24 40q0 16 11.5 26.5t25.5 10.5q20 0 40 -24z" />
    <glyph glyph-name="Eth.sc" unicode="&#xe011;" horiz-adv-x="509" 
d="M96 202h-24q-33 0 -33 12t4 14t21 2h32v112q0 41 -4 49.5t-21 9.5q-24 1 -29.5 3t-5.5 12q0 8 2.5 11.5t6.5 4t14 0.5h79l29 2q12 0 35.5 0.5t31.5 0.5q54 0 96.5 -15t67.5 -37.5t41.5 -52.5t22.5 -57.5t6 -54.5q0 -98 -56 -161t-158 -63q-6 0 -27 1.5t-32 1.5
q-9 0 -30.5 1.5t-28.5 1.5q-16 0 -85 -3q-18 0 -18 16q0 10 6 12.5t23 3.5q25 1 29.5 12t4.5 66v95zM177 202v-91q0 -60 8.5 -75.5t45.5 -15.5q69 0 103.5 52.5t34.5 147.5q0 187 -146 187q-24 0 -46 -2v-175h80q16 0 20 -2t4 -12t-4.5 -12t-24.5 -2h-75z" />
    <glyph glyph-name="F.sc" unicode="&#xe012;" horiz-adv-x="384" 
d="M281 286q0 -12 -1 -36.5t-1 -40.5q0 -15 1 -36t1 -24q0 -36 -13 -36q-10 0 -12.5 4.5t-4.5 22.5q-4 31 -18 45.5t-56 14.5v-116q0 -40 4.5 -48t30.5 -8q17 0 22.5 -0.5t8.5 -4t3 -11.5q0 -15 -17 -15q-5 0 -36 1.5t-37 1.5q-20 0 -62 -1.5t-48 -1.5q-11 0 -11 15
q0 10 5.5 12t32.5 4q17 1 20 7t3 33v296q0 25 -4 31t-18 6q-24 0 -31 4t-7 14q0 13 26 13h143q18 0 74 2q15 0 40.5 0.5t32.5 0.5q10 0 11.5 -3.5t1.5 -14.5v-80q0 -34 -13 -34q-9 0 -11.5 3.5t-4.5 17.5q-4 25 -14.5 41t-21 24t-35 12t-38.5 4.5t-50 0.5v-180q20 0 31 1.5
t24.5 12.5t17.5 33q6 32 11 34q2 1 6 1q14 0 14 -22z" />
    <glyph glyph-name="G.sc" unicode="&#xe013;" horiz-adv-x="495" 
d="M419 407v-80q0 -22 -2.5 -29t-12.5 -7q-9 0 -11 4.5t-7 28.5q-8 39 -40.5 69t-75.5 30q-68 0 -99 -61t-31 -159q0 -81 28.5 -137.5t91.5 -56.5q47 0 68.5 19t21.5 68q0 20 -1.5 28t-8 14t-20.5 7q-29 2 -32 9q-1 3 -1 7q0 17 20 17q4 0 39.5 -1.5t42.5 -1.5t40.5 1.5
t38.5 1.5q13 0 13 -15q0 -16 -13 -17q-29 -2 -33 -7.5t-4 -21.5q0 -8 2 -46.5t2 -43.5q0 -15 -9 -15q-3 0 -16 3t-15 3q-9 0 -33 -10l-9 -3q-9 -3 -19.5 -6t-24.5 -6.5t-30 -5.5t-31 -2q-84 0 -145.5 57.5t-61.5 163.5q0 99 58 170t168 71q45 0 82 -18q3 -1 10.5 -4.5
t12.5 -5.5t7 -2q5 0 10 9q7 11 16 11q14 0 14 -30z" />
    <glyph glyph-name="H.sc" unicode="&#xe014;" horiz-adv-x="550" 
d="M177 236h196v117q0 47 -13 50q-3 0 -18 1t-18 2q-9 4 -9 12q0 17 14 17q7 0 45 -1.5t44 -1.5q7 0 43 1.5t42 1.5q16 0 16 -16q0 -9 -6 -11t-34 -4q-11 0 -15.5 -4t-5.5 -21q-4 -48 -4 -119v-174q0 -43 4 -50.5t28 -7.5q16 0 21.5 -2.5t5.5 -12.5q0 -16 -14 -16
q-5 0 -40 1.5t-41 1.5q-10 0 -45 -1.5t-49 -1.5q-16 0 -16 14q0 12 5.5 14t31.5 3q18 1 23 14.5t5 67.5v98h-196v-122q0 -42 2.5 -49t17.5 -8q29 -2 35 -4t6 -14q0 -14 -14 -14q-6 0 -46.5 1.5t-60.5 1.5q-5 0 -34.5 -1.5t-33.5 -1.5q-17 0 -17 15q0 10 5.5 12t33.5 4
q20 0 22 15q3 36 3 89v190q0 52 -1 63.5t-6 15.5q-2 2 -10 3t-17 1.5t-10 0.5q-16 2 -16 14q0 15 17 15q22 0 48 -1.5t29 -1.5q16 0 53 1.5t42 1.5q15 0 15 -15t-17 -15q-35 0 -39 -6q-7 -13 -7 -85v-78z" />
    <glyph glyph-name="I.sc" unicode="&#xe015;" horiz-adv-x="273" 
d="M177 364v-256q0 -59 4 -68q5 -13 45 -13q13 0 16 -1.5t3 -9.5q0 -11 -2.5 -15t-11.5 -4q-7 0 -46.5 1.5t-45.5 1.5q-7 0 -49 -1.5t-48 -1.5q-13 0 -13 13t2.5 15.5t14.5 2.5q43 0 46 4q4 5 4 47v231q0 36 -0.5 54t-4 27.5t-7 11t-12.5 1.5q-33 0 -41 2q-6 2 -6 10
q0 19 15 19q9 0 56 -1.5t54 -1.5t41 1.5t39 1.5q16 0 16 -19q0 -10 -7 -11.5t-45 -1.5q-12 0 -14.5 -6t-2.5 -33z" />
    <glyph glyph-name="Iacute.sc" unicode="&#xe016;" horiz-adv-x="273" 
d="M177 364v-256q0 -59 4 -68q5 -13 45 -13q13 0 16 -1.5t3 -9.5q0 -11 -2.5 -15t-11.5 -4q-7 0 -46.5 1.5t-45.5 1.5q-7 0 -49 -1.5t-48 -1.5q-13 0 -13 13t2.5 15.5t14.5 2.5q43 0 46 4q4 5 4 47v231q0 36 -0.5 54t-4 27.5t-7 11t-12.5 1.5q-33 0 -41 2q-6 2 -6 10
q0 19 15 19q9 0 56 -1.5t54 -1.5t41 1.5t39 1.5q16 0 16 -19q0 -10 -7 -11.5t-45 -1.5q-12 0 -14.5 -6t-2.5 -33zM84 523l116 126q22 24 40 24q14 0 25.5 -10.5t11.5 -26.5q0 -20 -16.5 -34t-81.5 -51q-7 -4 -45 -29t-46 -29q-9 -3 -10 -3q-11 0 -11 8t17 25z" />
    <glyph glyph-name="Icircumflex.sc" unicode="&#xe017;" horiz-adv-x="273" 
d="M177 364v-256q0 -59 4 -68q5 -13 45 -13q13 0 16 -1.5t3 -9.5q0 -11 -2.5 -15t-11.5 -4q-7 0 -46.5 1.5t-45.5 1.5q-7 0 -49 -1.5t-48 -1.5q-13 0 -13 13t2.5 15.5t14.5 2.5q43 0 46 4q4 5 4 47v231q0 36 -0.5 54t-4 27.5t-7 11t-12.5 1.5q-33 0 -41 2q-6 2 -6 10
q0 19 15 19q9 0 56 -1.5t54 -1.5t41 1.5t39 1.5q16 0 16 -19q0 -10 -7 -11.5t-45 -1.5q-12 0 -14.5 -6t-2.5 -33zM125 596l-91 -96q-16 -16 -23 -16q-11 0 -11 11t16 35l79 128q8 14 11.5 16.5t14.5 2.5h21q13 0 17 -2.5t13 -15.5l91 -141q10 -17 10 -23q0 -5 -4.5 -8
t-7.5 -3q-6 0 -29 19z" />
    <glyph glyph-name="Idieresis.sc" unicode="&#xe018;" horiz-adv-x="273" 
d="M177 364v-256q0 -59 4 -68q5 -13 45 -13q13 0 16 -1.5t3 -9.5q0 -11 -2.5 -15t-11.5 -4q-7 0 -46.5 1.5t-45.5 1.5q-7 0 -49 -1.5t-48 -1.5q-13 0 -13 13t2.5 15.5t14.5 2.5q43 0 46 4q4 5 4 47v231q0 36 -0.5 54t-4 27.5t-7 11t-12.5 1.5q-33 0 -41 2q-6 2 -6 10
q0 19 15 19q9 0 56 -1.5t54 -1.5t41 1.5t39 1.5q16 0 16 -19q0 -10 -7 -11.5t-45 -1.5q-12 0 -14.5 -6t-2.5 -33zM42 630q21 0 35.5 -14.5t14.5 -35.5t-14.5 -35.5t-35.5 -14.5q-20 0 -35 14.5t-15 35.5t15 35.5t35 14.5zM231 630q21 0 35.5 -14.5t14.5 -35.5t-14.5 -35.5
t-35.5 -14.5q-20 0 -35 14.5t-15 35.5t15 35.5t35 14.5z" />
    <glyph glyph-name="Igrave.sc" unicode="&#xe019;" horiz-adv-x="273" 
d="M177 364v-256q0 -59 4 -68q5 -13 45 -13q13 0 16 -1.5t3 -9.5q0 -11 -2.5 -15t-11.5 -4q-7 0 -46.5 1.5t-45.5 1.5q-7 0 -49 -1.5t-48 -1.5q-13 0 -13 13t2.5 15.5t14.5 2.5q43 0 46 4q4 5 4 47v231q0 36 -0.5 54t-4 27.5t-7 11t-12.5 1.5q-33 0 -41 2q-6 2 -6 10
q0 19 15 19q9 0 56 -1.5t54 -1.5t41 1.5t39 1.5q16 0 16 -19q0 -10 -7 -11.5t-45 -1.5q-12 0 -14.5 -6t-2.5 -33zM73 649l117 -126q16 -17 16 -25t-10 -8q-6 0 -63 37q-3 2 -53.5 32t-59.5 37q-24 19 -24 40q0 16 11.5 26.5t25.5 10.5q20 0 40 -24z" />
    <glyph glyph-name="J.alt" unicode="&#xe01a;" horiz-adv-x="443" 
d="M241 243v292q0 51 -6.5 64t-28.5 14q-32 1 -40 3t-8 13q0 15 19 15q9 0 55 -1.5t54 -1.5t53.5 1.5t52.5 1.5q13 0 13 -13q0 -12 -6.5 -15t-24.5 -3q-26 0 -31.5 -11t-5.5 -48v-285q0 -53 -3 -89.5t-14 -76.5t-31 -64t-56 -40t-86 -16q-53 0 -92 20t-39 67q0 25 15.5 40.5
t37.5 15.5q49 0 49 -46q0 -11 -4.5 -24t-4.5 -17q0 -14 13.5 -21.5t29.5 -7.5q32 0 45 11q44 36 44 222z" />
    <glyph glyph-name="J.sc" unicode="&#xe01b;" horiz-adv-x="338" 
d="M254 370v-246q0 -61 -35 -100t-105 -39q-48 0 -76 19.5t-28 52.5q0 19 13 31.5t34 12.5q18 0 29 -10.5t11 -27.5q0 -3 -2.5 -17t-2.5 -17q0 -20 28 -20q32 0 42.5 32.5t10.5 132.5v182q0 33 -3.5 40.5t-22.5 7.5q-37 0 -37 13q0 18 15 18q6 0 40.5 -1.5t53.5 -1.5
q11 0 44 1.5t41 1.5q12 0 12 -15q0 -11 -5 -13t-30 -3q-19 -1 -23 -7t-4 -27z" />
    <glyph glyph-name="K.sc" unicode="&#xe01c;" horiz-adv-x="454" 
d="M177 228l99 106q32 34 36 42q4 5 4 12q0 14 -16 14q-19 2 -23.5 4.5t-4.5 11.5q0 17 12 17q5 0 32.5 -1.5t31.5 -1.5q7 0 41 1.5t37 1.5q15 0 15 -19q0 -9 -5.5 -11t-24.5 -3q-20 0 -47 -25q-52 -47 -124 -122l132 -151q58 -65 75 -71q3 -1 20 -3.5t18 -2.5q7 -1 7 -12
q0 -10 -3.5 -14t-14.5 -4q-8 0 -49 1.5t-48 1.5q-8 0 -47.5 -1.5t-45.5 -1.5q-15 0 -15 14q0 15 15 16q33 4 34 8q0 7 -21 32l-120 145v-128q0 -38 3 -46t19 -9q22 -1 27 -2.5t5 -10.5q0 -12 -3 -15.5t-10 -3.5q-5 0 -39.5 1.5t-41.5 1.5t-45.5 -1.5t-44.5 -1.5
q-15 0 -15 15q0 13 6 15.5t26 2.5q24 0 27 10q5 14 5 121v195l-3 41q-3 7 -32 7q-15 0 -19 1.5t-4 10.5q0 19 16 19q7 0 45 -1.5t44 -1.5t39 1.5t38 1.5q16 0 16 -17q0 -9 -5.5 -11t-30.5 -4q-16 -1 -19.5 -12.5t-3.5 -56.5v-106z" />
    <glyph glyph-name="L.sc" unicode="&#xe01d;" horiz-adv-x="419" 
d="M217 24h33q62 0 84 21t31 68q3 18 6.5 24t13.5 6q11 0 13.5 -7t1.5 -27l-4 -91q-1 -9 -1.5 -12.5t-4 -6t-10.5 -2.5q-15 0 -65.5 1.5t-84.5 1.5q-39 0 -103 -1.5t-76 -1.5q-15 0 -15 15q0 11 5 13t30 2q15 0 20 13t5 44v275q0 32 -5.5 38t-30.5 6q-23 0 -23 15
q0 17 17 17q6 0 41 -1.5t48 -1.5q8 0 44.5 1.5t43.5 1.5q15 0 15 -16q0 -8 -2.5 -11.5t-7.5 -4t-18 -0.5q-29 0 -35 -8.5t-6 -51.5v-285q0 -23 6.5 -28.5t33.5 -5.5z" />
    <glyph glyph-name="Lslash.sc" unicode="&#xe01e;" horiz-adv-x="419" 
d="M177 273l67 60q15 15 19 15q5 0 5 -12q0 -16 -3.5 -22.5t-19.5 -20.5l-68 -60v-175q0 -23 6.5 -28.5t33.5 -5.5h33q62 0 84 21t31 68q3 18 6.5 24t13.5 6q11 0 13.5 -7t1.5 -27l-4 -91q-1 -9 -1.5 -12.5t-4 -6t-10.5 -2.5q-12 0 -58 1.5t-92 1.5q-39 0 -103 -1.5
t-76 -1.5q-15 0 -15 15q0 11 5 13t30 2q15 0 20 14t5 45v73l-41 -36q-12 -12 -16 -12t-4 6v21q1 9 23 28l38 34v159q0 32 -5.5 38t-30.5 6q-23 0 -23 15q0 17 17 17q7 0 45 -1.5t44 -1.5q8 0 44.5 1.5t43.5 1.5q15 0 15 -16q0 -8 -2.5 -11.5t-7.5 -4t-18 -0.5q-29 0 -35 -8
t-6 -51v-71z" />
    <glyph glyph-name="M.sc" unicode="&#xe01f;" horiz-adv-x="594" 
d="M293 111l119 283q12 29 16.5 35t14.5 6q4 0 24.5 -1.5t23.5 -1.5q4 0 26.5 1.5t25.5 1.5q18 0 18 -15q0 -16 -23 -16q-30 0 -35 -6t-5 -40v-274q0 -41 4 -48t30 -8q21 -1 26.5 -3.5t5.5 -12.5q0 -9 -4 -12t-14 -3q-6 0 -27.5 0.5t-40.5 1.5l-20 1q-1 0 -40.5 -1.5
t-47.5 -1.5q-17 0 -17 14q0 11 4.5 13t20.5 3t22 1.5t11.5 5t6.5 13.5q2 15 2 91v204l-134 -319q-8 -18 -10.5 -22t-7.5 -4t-9 5t-11 25l-124 328v-217q0 -29 0.5 -43t4 -31.5t11.5 -25t22 -8.5q26 -2 31.5 -4.5t5.5 -11.5q0 -17 -20 -17q-6 0 -36 1.5t-35 1.5t-34 -1.5
t-33 -1.5q-18 0 -18 15q0 6 0.5 8.5t3.5 4.5t7 2.5l12 1.5q30 4 40 20.5t10 71.5v235q0 32 -5 40.5t-29 8.5q-25 0 -32 2t-7 12q0 16 17 16q5 0 32 -1.5t31 -1.5q5 0 29.5 1.5t28.5 1.5q8 0 11.5 -4t10.5 -22z" />
    <glyph glyph-name="N.sc" unicode="&#xe020;" horiz-adv-x="500" 
d="M381 144v194q0 33 -10 50q-7 12 -28 12q-17 0 -21.5 2t-4.5 13q0 20 18 20q5 0 26 -1.5t33 -1.5q15 0 40 2l25 1q14 0 14 -16q0 -19 -23 -19q-19 0 -28 -11q-13 -15 -13 -51v-275q0 -57 -2 -65q-1 -6 -9 -6q-6 0 -23 22l-251 336v-238q0 -40 13 -61q5 -8 17 -15.5
t25 -7.5q16 0 16 -15q0 -16 -15 -16q-6 0 -37.5 1.5t-36.5 1.5q-6 0 -36.5 -1.5t-33.5 -1.5q-13 0 -13 14q0 17 15 17q16 0 29 8.5t17 19.5q12 31 12 70v252q-22 22 -39 22q-22 0 -22 14q0 21 17 21q3 0 26 -1.5t39 -1.5q2 0 17.5 1.5t19.5 1.5q7 0 12.5 -5.5t24.5 -30.5z
" />
    <glyph glyph-name="Ntilde.sc" unicode="&#xe021;" horiz-adv-x="500" 
d="M381 144v194q0 33 -10 50q-7 12 -28 12q-17 0 -21.5 2t-4.5 13q0 20 18 20q5 0 26 -1.5t33 -1.5q15 0 40 2l25 1q14 0 14 -16q0 -19 -23 -19q-19 0 -28 -11q-13 -15 -13 -51v-275q0 -57 -2 -65q-1 -6 -9 -6q-6 0 -23 22l-251 336v-238q0 -40 13 -61q5 -8 17 -15.5
t25 -7.5q16 0 16 -15q0 -16 -15 -16q-6 0 -37.5 1.5t-36.5 1.5q-6 0 -36.5 -1.5t-33.5 -1.5q-13 0 -13 14q0 17 15 17q16 0 29 8.5t17 19.5q12 31 12 70v252q-22 22 -39 22q-22 0 -22 14q0 21 17 21q3 0 26 -1.5t39 -1.5q2 0 17.5 1.5t19.5 1.5q7 0 12.5 -5.5t24.5 -30.5z
M214 630q24 0 98 -27q27 -9 37 -9q28 0 50 22q10 8 15 8q4 0 8 -3.5t4 -8.5q0 -3 -4.5 -11t-15.5 -20t-25 -23t-36.5 -18.5t-47.5 -7.5q-31 0 -74 19q-38 17 -58 17q-25 0 -52 -22q-8 -5 -13 -5q-13 0 -13 13q0 11 28 35q44 41 99 41z" />
    <glyph glyph-name="O.sc" unicode="&#xe022;" horiz-adv-x="531" 
d="M267 447q97 0 160 -67t63 -162q0 -99 -62.5 -166t-161.5 -67q-98 0 -161.5 66t-63.5 163q0 93 60 163t166 70zM268 423q-128 0 -128 -205q0 -209 124 -209q127 0 127 207t-123 207z" />
    <glyph glyph-name="OE.sc" unicode="&#xe023;" horiz-adv-x="680" 
d="M442 406v-167q35 0 51 10.5t20 37.5q4 24 6 28.5t11 4.5q16 0 16 -19q0 -11 -0.5 -40t-0.5 -31v-80q0 -18 -2 -22.5t-12 -4.5q-9 0 -11 5.5t-4 26.5q-3 35 -20 46.5t-54 11.5v-121q0 -48 6 -57t42 -9q22 0 37 2t34 9t33.5 24t25.5 43q1 2 3 8.5t4 12.5t3 7q3 3 9 3
q9 0 11 -5t2 -20q0 -85 -2 -99q-3 -14 -17 -14q-4 0 -43 1.5t-93 1.5q-29 0 -72 -1.5t-52 -1.5q-6 0 -52.5 -3t-72.5 -3q-89 0 -148 65.5t-59 151.5q0 101 71.5 164t161.5 63q22 0 92.5 -1.5t95.5 -1.5q20 0 74 1.5t76 1.5q12 0 12 -17q4 -52 4 -84q0 -15 -13 -15t-17 15
q-12 43 -42.5 57.5t-113.5 14.5zM361 157v129q0 35 -1.5 51.5t-9.5 36.5t-26 27.5t-49 7.5q-38 0 -65 -18t-40 -49t-18.5 -61.5t-5.5 -64.5q0 -41 5 -73t17.5 -62.5t39 -47t65.5 -16.5q53 0 70.5 29t17.5 111z" />
    <glyph glyph-name="Oacute.sc" unicode="&#xe024;" horiz-adv-x="531" 
d="M267 447q97 0 160 -67t63 -162q0 -99 -62.5 -166t-161.5 -67q-98 0 -161.5 66t-63.5 163q0 93 60 163t166 70zM268 423q-128 0 -128 -205q0 -209 124 -209q127 0 127 207t-123 207zM213 523l116 126q22 24 40 24q14 0 25.5 -10.5t11.5 -26.5q0 -20 -16.5 -34t-81.5 -51
q-7 -4 -45 -29t-46 -29q-9 -3 -10 -3q-11 0 -11 8t17 25z" />
    <glyph glyph-name="Ocircumflex.sc" unicode="&#xe025;" horiz-adv-x="531" 
d="M267 447q97 0 160 -67t63 -162q0 -99 -62.5 -166t-161.5 -67q-98 0 -161.5 66t-63.5 163q0 93 60 163t166 70zM268 423q-128 0 -128 -205q0 -209 124 -209q127 0 127 207t-123 207zM254 596l-91 -96q-16 -16 -23 -16q-11 0 -11 11t16 35l79 128q8 14 11.5 16.5t14.5 2.5
h21q13 0 17 -2.5t13 -15.5l91 -141q10 -17 10 -23q0 -5 -4.5 -8t-7.5 -3q-6 0 -29 19z" />
    <glyph glyph-name="Odieresis.sc" unicode="&#xe026;" horiz-adv-x="531" 
d="M267 447q97 0 160 -67t63 -162q0 -99 -62.5 -166t-161.5 -67q-98 0 -161.5 66t-63.5 163q0 93 60 163t166 70zM268 423q-128 0 -128 -205q0 -209 124 -209q127 0 127 207t-123 207zM171 630q21 0 35.5 -14.5t14.5 -35.5t-14.5 -35.5t-35.5 -14.5q-20 0 -35 14.5t-15 35.5
t15 35.5t35 14.5zM360 630q21 0 35.5 -14.5t14.5 -35.5t-14.5 -35.5t-35.5 -14.5q-20 0 -35 14.5t-15 35.5t15 35.5t35 14.5z" />
    <glyph glyph-name="Ograve.sc" unicode="&#xe027;" horiz-adv-x="531" 
d="M267 447q97 0 160 -67t63 -162q0 -99 -62.5 -166t-161.5 -67q-98 0 -161.5 66t-63.5 163q0 93 60 163t166 70zM268 423q-128 0 -128 -205q0 -209 124 -209q127 0 127 207t-123 207zM202 649l117 -126q16 -17 16 -25t-10 -8q-6 0 -63 37q-3 2 -53.5 32t-59.5 37
q-24 19 -24 40q0 16 11.5 26.5t25.5 10.5q20 0 40 -24z" />
    <glyph glyph-name="Oslash.sc" unicode="&#xe028;" horiz-adv-x="531" 
d="M130 28l-31 -37q-12 -14 -17 -14q-3 0 -11 6t-8 10t13 20l30 36q-65 66 -65 165q0 96 61.5 164.5t163.5 68.5q74 0 137 -45l36 43q11 12 14 12t11.5 -6.5t8.5 -10.5q0 -2 -14 -20l-33 -39q64 -69 64 -163q0 -99 -62.5 -166t-161.5 -67q-79 0 -136 43zM379 325l-213 -254
q15 -31 42.5 -46.5t55.5 -15.5q127 0 127 206q0 66 -12 110zM153 104l213 255q-30 64 -99 64q-127 0 -127 -205q0 -69 13 -114z" />
    <glyph glyph-name="Otilde.sc" unicode="&#xe029;" horiz-adv-x="531" 
d="M267 447q97 0 160 -67t63 -162q0 -99 -62.5 -166t-161.5 -67q-98 0 -161.5 66t-63.5 163q0 93 60 163t166 70zM268 423q-128 0 -128 -205q0 -209 124 -209q127 0 127 207t-123 207zM223 630q24 0 98 -27q27 -9 37 -9q28 0 50 22q10 8 15 8q4 0 8 -3.5t4 -8.5
q0 -3 -4.5 -11t-15.5 -20t-25 -23t-36.5 -18.5t-47.5 -7.5q-31 0 -74 19q-38 17 -58 17q-25 0 -52 -22q-8 -5 -13 -5q-13 0 -13 13q0 11 28 35q44 41 99 41z" />
    <glyph glyph-name="P.sc" unicode="&#xe02a;" horiz-adv-x="421" 
d="M177 203v-101q0 -52 4 -62.5t26 -10.5t29.5 -2.5t7.5 -12.5q0 -17 -20 -17q-8 0 -46.5 1.5t-44.5 1.5q-7 0 -43.5 -1.5t-42.5 -1.5q-14 0 -14 15q0 8 3 11.5t6.5 4t12.5 0.5q28 0 34.5 12t6.5 76v246q0 30 -4.5 37t-28.5 7q-10 0 -15 0.5t-9.5 4t-4.5 10.5q0 14 17 14
q6 0 44 -1.5t46 -1.5t50.5 1.5t49.5 1.5q60 0 107.5 -27.5t47.5 -91.5q0 -48 -38 -82.5t-125 -34.5q-26 0 -56 4zM177 409v-184q14 1 31 0t34.5 4.5t32 14.5t24 29.5t9.5 49.5q0 98 -131 86z" />
    <glyph glyph-name="Q.sc" unicode="&#xe02b;" horiz-adv-x="531" 
d="M293 -14q-16 -10 -54 -32q65 -1 129 -35q66 -35 83 -42t32 -7q14 0 26 8q18 12 20 12q12 0 12 -13q0 -18 -33.5 -48t-81.5 -30q-27 0 -52.5 13.5t-41 28.5t-44.5 47q-43 47 -79 47q-13 0 -16 -14q-8 -22 -25 -22q-20 0 -20 22q0 11 5.5 16.5t23.5 13.5q42 20 66 35
q-95 9 -148.5 75t-53.5 153q0 96 61.5 164.5t163.5 68.5q97 0 160.5 -67t63.5 -162q0 -88 -52.5 -154.5t-144.5 -77.5zM268 423q-68 0 -98 -52.5t-30 -152.5q0 -56 9.5 -100t38.5 -76.5t76 -32.5q127 0 127 207t-123 207z" />
    <glyph glyph-name="R.sc" unicode="&#xe02c;" horiz-adv-x="461" 
d="M177 207v-148q0 -19 3.5 -25t20.5 -6q33 0 33 -13q0 -18 -17 -18q-8 0 -48 1.5t-46 1.5t-37.5 -1.5t-36.5 -1.5q-16 0 -16 14t16 16q35 2 41 8t6 42v293q0 20 -6.5 27t-31.5 7q-14 0 -19 2t-5 12q0 17 25 17q6 0 35 -1.5t33 -1.5q9 0 57.5 1.5t56.5 1.5q47 0 79 -10.5
t46.5 -27.5t20 -32.5t5.5 -33.5q0 -17 -5.5 -33t-19 -33.5t-43 -29.5t-71.5 -15q54 -12 78 -37t50 -94q12 -32 16 -38.5t13 -6.5t13 5.5t10 21.5q7 13 14 13q11 0 11 -15q0 -22 -17 -49q-19 -31 -67 -31q-21 0 -36.5 8.5t-25 19.5t-18 34.5t-12.5 40.5t-11 51
q-8 39 -26 51.5t-68 12.5zM177 407v-174q127 0 127 93q0 91 -127 81z" />
    <glyph glyph-name="S.sc" unicode="&#xe02d;" horiz-adv-x="400" 
d="M50 9v38q0 7 -1.5 46t-1.5 45q0 19 14 19q8 0 10.5 -5.5t7.5 -31.5q3 -16 11 -32.5t21.5 -34t36.5 -29t52 -11.5q42 0 66 23.5t24 59.5q0 30 -16.5 49.5t-66.5 37.5q-90 33 -121.5 58.5t-31.5 80.5q0 43 34 84t101 41q33 0 56 -8q29 -10 35 -10q9 0 24 9q12 7 19 7
q11 0 11 -17q0 -8 -1 -51t-1 -50q0 -21 -14 -21q-8 0 -11 6t-13 36q-11 35 -39.5 55t-63.5 20t-56.5 -18.5t-21.5 -49.5q0 -35 26 -52t79 -33q75 -23 108.5 -54.5t33.5 -84.5q0 -56 -42 -101t-115 -45q-48 0 -82 20q-23 13 -27 13q-5 0 -8 -2.5t-14 -16.5q-4 -6 -11 -6
q-11 0 -11 16z" />
    <glyph glyph-name="Scaron.sc" unicode="&#xe02e;" horiz-adv-x="400" 
d="M50 9v38q0 7 -1.5 46t-1.5 45q0 19 14 19q8 0 10.5 -5.5t7.5 -31.5q3 -16 11 -32.5t21.5 -34t36.5 -29t52 -11.5q42 0 66 23.5t24 59.5q0 30 -16.5 49.5t-66.5 37.5q-90 33 -121.5 58.5t-31.5 80.5q0 43 34 84t101 41q33 0 56 -8q29 -10 35 -10q9 0 24 9q12 7 19 7
q11 0 11 -17q0 -8 -1 -51t-1 -50q0 -21 -14 -21q-8 0 -11 6t-13 36q-11 35 -39.5 55t-63.5 20t-56.5 -18.5t-21.5 -49.5q0 -35 26 -52t79 -33q75 -23 108.5 -54.5t33.5 -84.5q0 -56 -42 -101t-115 -45q-48 0 -82 20q-23 13 -27 13q-5 0 -8 -2.5t-14 -16.5q-4 -6 -11 -6
q-11 0 -11 16zM212 565l92 97q14 15 22 15q11 0 11 -10q0 -8 -15 -35l-79 -129q-1 -1 -2 -4q-18 -14 -25 -15h-21q-12 0 -16.5 3t-12.5 16l-92 141q-10 17 -10 23q0 10 12 10q9 0 30 -18z" />
    <glyph glyph-name="T.sc" unicode="&#xe02f;" horiz-adv-x="459" 
d="M270 407v-295q0 -60 4 -71t27 -13q37 -2 37 -14q0 -6 -0.5 -9t-3.5 -5.5t-10 -2.5q-8 0 -49 1.5t-48 1.5t-46.5 -1.5t-45.5 -1.5q-18 0 -18 14q0 6 0.5 9t4.5 5t8 2.5t15 0.5q19 1 25 1.5t12 9t6.5 21t0.5 43.5v304q-63 0 -90.5 -11.5t-40.5 -45.5q-2 -5 -6 -15.5
t-7 -17.5t-4 -8q-3 -2 -10 -2q-14 0 -12 26l3 82q1 13 4 16.5t15 3.5q10 0 91 -1.5t101 -1.5q28 0 110 1.5t87 1.5q7 0 8.5 -4.5t1.5 -26.5v-74q0 -8 -0.5 -12t-4 -7.5t-10.5 -3.5q-5 0 -8 4t-8 18q-4 9 -6 15q-15 39 -41.5 51t-91.5 12z" />
    <glyph glyph-name="Thorn.sc" unicode="&#xe030;" horiz-adv-x="434" 
d="M177 102v-18q0 -39 6.5 -46.5t35.5 -9.5q12 -1 16.5 -1.5t7 -3t2.5 -9.5q0 -17 -18 -17q-8 0 -48 1.5t-47 1.5q-6 0 -39 -1.5t-38 -1.5q-22 0 -22 15q0 10 6.5 12t25.5 3q22 1 26.5 10t4.5 43v293q0 23 -6 27t-36 5q-18 1 -18 14q0 16 15 16q4 0 39.5 -1.5t42.5 -1.5
t42 1.5t41 1.5q22 0 22 -15q0 -16 -21 -16q-31 0 -36 -10q-4 -18 -4 -60h72q75 0 111.5 -35t36.5 -81q0 -53 -38.5 -86.5t-121.5 -33.5q-21 0 -60 4zM177 308v-182q16 -2 24 -2q108 0 108 98q0 49 -28.5 68t-103.5 18z" />
    <glyph glyph-name="U.sc" unicode="&#xe031;" horiz-adv-x="506" 
d="M419 278v-86q0 -31 -1 -48t-5 -46t-14 -45t-27 -34t-45.5 -26t-67.5 -8q-83 0 -127.5 39t-44.5 141v194q0 33 -2.5 38.5t-19.5 5.5q-22 0 -28.5 2.5t-6.5 13.5q0 16 17 16q7 0 44 -1.5t43 -1.5t38 1.5t37 1.5q21 0 21 -19q0 -8 -4.5 -9.5t-24.5 -1.5q-24 0 -28.5 -9.5
t-4.5 -56.5v-158q0 -29 1 -47.5t7 -43.5t17.5 -39t33 -24.5t52.5 -10.5q61 0 86.5 35t25.5 112v140q0 28 -1 41t-5.5 30t-15.5 23.5t-29 6.5q-21 0 -21 13q0 18 17 18q6 0 39 -1.5t38 -1.5t32 1.5t31 1.5q10 0 14 -3.5t4 -14.5q0 -7 -2.5 -9.5t-12.5 -2.5q-41 -2 -50.5 -26
t-9.5 -101z" />
    <glyph glyph-name="Uacute.sc" unicode="&#xe032;" horiz-adv-x="506" 
d="M419 278v-86q0 -31 -1 -48t-5 -46t-14 -45t-27 -34t-45.5 -26t-67.5 -8q-83 0 -127.5 39t-44.5 141v194q0 33 -2.5 38.5t-19.5 5.5q-22 0 -28.5 2.5t-6.5 13.5q0 16 17 16q7 0 44 -1.5t43 -1.5t38 1.5t37 1.5q21 0 21 -19q0 -8 -4.5 -9.5t-24.5 -1.5q-24 0 -28.5 -9.5
t-4.5 -56.5v-158q0 -29 1 -47.5t7 -43.5t17.5 -39t33 -24.5t52.5 -10.5q61 0 86.5 35t25.5 112v140q0 28 -1 41t-5.5 30t-15.5 23.5t-29 6.5q-21 0 -21 13q0 18 17 18q6 0 39 -1.5t38 -1.5t32 1.5t31 1.5q10 0 14 -3.5t4 -14.5q0 -7 -2.5 -9.5t-12.5 -2.5q-41 -2 -50.5 -26
t-9.5 -101zM213 523l116 126q22 24 40 24q14 0 25.5 -10.5t11.5 -26.5q0 -20 -16.5 -34t-81.5 -51q-7 -4 -45 -29t-46 -29q-9 -3 -10 -3q-11 0 -11 8t17 25z" />
    <glyph glyph-name="Ucircumflex.sc" unicode="&#xe033;" horiz-adv-x="506" 
d="M419 278v-86q0 -31 -1 -48t-5 -46t-14 -45t-27 -34t-45.5 -26t-67.5 -8q-83 0 -127.5 39t-44.5 141v194q0 33 -2.5 38.5t-19.5 5.5q-22 0 -28.5 2.5t-6.5 13.5q0 16 17 16q7 0 44 -1.5t43 -1.5t38 1.5t37 1.5q21 0 21 -19q0 -8 -4.5 -9.5t-24.5 -1.5q-24 0 -28.5 -9.5
t-4.5 -56.5v-158q0 -29 1 -47.5t7 -43.5t17.5 -39t33 -24.5t52.5 -10.5q61 0 86.5 35t25.5 112v140q0 28 -1 41t-5.5 30t-15.5 23.5t-29 6.5q-21 0 -21 13q0 18 17 18q6 0 39 -1.5t38 -1.5t32 1.5t31 1.5q10 0 14 -3.5t4 -14.5q0 -7 -2.5 -9.5t-12.5 -2.5q-41 -2 -50.5 -26
t-9.5 -101zM254 596l-91 -96q-16 -16 -23 -16q-11 0 -11 11t16 35l79 128q8 14 11.5 16.5t14.5 2.5h21q13 0 17 -2.5t13 -15.5l91 -141q10 -17 10 -23q0 -5 -4.5 -8t-7.5 -3q-6 0 -29 19z" />
    <glyph glyph-name="Udieresis.sc" unicode="&#xe034;" horiz-adv-x="506" 
d="M419 278v-86q0 -31 -1 -48t-5 -46t-14 -45t-27 -34t-45.5 -26t-67.5 -8q-83 0 -127.5 39t-44.5 141v194q0 33 -2.5 38.5t-19.5 5.5q-22 0 -28.5 2.5t-6.5 13.5q0 16 17 16q7 0 44 -1.5t43 -1.5t38 1.5t37 1.5q21 0 21 -19q0 -8 -4.5 -9.5t-24.5 -1.5q-24 0 -28.5 -9.5
t-4.5 -56.5v-158q0 -29 1 -47.5t7 -43.5t17.5 -39t33 -24.5t52.5 -10.5q61 0 86.5 35t25.5 112v140q0 28 -1 41t-5.5 30t-15.5 23.5t-29 6.5q-21 0 -21 13q0 18 17 18q6 0 39 -1.5t38 -1.5t32 1.5t31 1.5q10 0 14 -3.5t4 -14.5q0 -7 -2.5 -9.5t-12.5 -2.5q-41 -2 -50.5 -26
t-9.5 -101zM171 630q21 0 35.5 -14.5t14.5 -35.5t-14.5 -35.5t-35.5 -14.5q-20 0 -35 14.5t-15 35.5t15 35.5t35 14.5zM360 630q21 0 35.5 -14.5t14.5 -35.5t-14.5 -35.5t-35.5 -14.5q-20 0 -35 14.5t-15 35.5t15 35.5t35 14.5z" />
    <glyph glyph-name="Ugrave.sc" unicode="&#xe035;" horiz-adv-x="506" 
d="M419 278v-86q0 -31 -1 -48t-5 -46t-14 -45t-27 -34t-45.5 -26t-67.5 -8q-83 0 -127.5 39t-44.5 141v194q0 33 -2.5 38.5t-19.5 5.5q-22 0 -28.5 2.5t-6.5 13.5q0 16 17 16q7 0 44 -1.5t43 -1.5t38 1.5t37 1.5q21 0 21 -19q0 -8 -4.5 -9.5t-24.5 -1.5q-24 0 -28.5 -9.5
t-4.5 -56.5v-158q0 -29 1 -47.5t7 -43.5t17.5 -39t33 -24.5t52.5 -10.5q61 0 86.5 35t25.5 112v140q0 28 -1 41t-5.5 30t-15.5 23.5t-29 6.5q-21 0 -21 13q0 18 17 18q6 0 39 -1.5t38 -1.5t32 1.5t31 1.5q10 0 14 -3.5t4 -14.5q0 -7 -2.5 -9.5t-12.5 -2.5q-41 -2 -50.5 -26
t-9.5 -101zM202 649l117 -126q16 -17 16 -25t-10 -8q-6 0 -63 37q-3 2 -53.5 32t-59.5 37q-24 19 -24 40q0 16 11.5 26.5t25.5 10.5q20 0 40 -24z" />
    <glyph glyph-name="V.sc" unicode="&#xe036;" horiz-adv-x="450" 
d="M250 105l80 223q13 37 13 51q0 22 -34 22q-27 0 -27 17t18 17q4 0 33.5 -1.5t35.5 -1.5q5 0 30 1.5t29 1.5q22 0 22 -15q0 -20 -30 -20q-11 0 -26.5 -13t-26.5 -43l-126 -341q-13 -25 -19 -27q-9 0 -19 27l-127 341q-16 43 -25 50q-8 7 -22 7q-29 0 -29 17q0 11 3.5 14
t15.5 3q6 0 40 -1.5t39 -1.5q8 0 49 1.5t48 1.5q16 0 16 -15q0 -19 -38 -19q-10 0 -14.5 -0.5t-8.5 -4t-4 -10.5q0 -4 11 -33z" />
    <glyph glyph-name="W.sc" unicode="&#xe037;" horiz-adv-x="632" 
d="M449 126l59 181q16 48 16 70q0 14 -8.5 18.5t-33.5 7.5q-16 2 -16 14q0 18 19 18q6 0 36 -1.5t35 -1.5t31 1.5t30 1.5q15 0 15 -17q0 -12 -15 -16q-35 -8 -50 -28.5t-36 -84.5l-90 -280q-7 -22 -10 -27.5t-9 -5.5q-7 0 -10 5t-8 22l-98 327l-96 -315q-12 -37 -17 -38
q-1 -1 -4 -1q-7 0 -10 6t-9 27l-90 321q-11 41 -20 55t-30 17q-20 3 -25 5.5t-5 11.5q0 16 17 16q5 0 41.5 -1.5t43.5 -1.5q6 0 36.5 1.5t35.5 1.5q18 0 18 -17q0 -12 -13 -14q-11 -1 -16.5 -2.5t-10 -5.5t-4.5 -12q0 -6 7 -31l63 -223l71 235q-5 19 -12 27.5t-26 9.5
q-21 0 -21 17q0 16 19 16q5 0 41 -1.5t43 -1.5q6 0 38 1.5t37 1.5q19 0 19 -17q0 -15 -23 -15q-32 0 -32 -17q0 -5 7 -30z" />
    <glyph glyph-name="X.sc" unicode="&#xe038;" horiz-adv-x="448" 
d="M255 241l107 -162q18 -27 30 -38.5t29 -12.5q8 -1 11 -1.5t6 -2t3.5 -4.5t0.5 -8q0 -15 -17 -15q-7 0 -45 1.5t-44 1.5q-7 0 -40.5 -1.5t-39.5 -1.5q-15 0 -15 13q0 14 15 17q18 0 24 1.5t6 9.5t-22 45l-62 95l-50 -75q-27 -40 -27 -55q0 -5 1.5 -8t7 -5t9.5 -3t16 -3
q18 -4 18 -14q0 -18 -16 -18q-4 0 -39.5 1.5t-40.5 1.5q-4 0 -30.5 -1.5t-31.5 -1.5q-13 0 -13 14q0 11 5.5 14t26.5 5q18 2 41 25q28 32 109 144l-82 126q-35 54 -46.5 66t-32.5 14q-12 2 -16 5t-4 11q0 14 15 14q5 0 39.5 -1.5t41.5 -1.5t41.5 1.5t40.5 1.5q18 0 18 -15
q0 -7 -3 -10.5t-6.5 -4t-12.5 -0.5q-20 0 -20 -12q0 -8 15 -32l65 -98q50 73 61 92t11 28q0 19 -28 21q-16 2 -20.5 4t-4.5 11q0 16 15 16q5 0 33 -1.5t33 -1.5q6 0 36.5 1.5t35.5 1.5q15 0 15 -17q0 -13 -14 -13q-26 -1 -47.5 -20.5t-62.5 -75.5z" />
    <glyph glyph-name="Y.sc" unicode="&#xe039;" horiz-adv-x="441" 
d="M250 194l58 129q19 44 19 56q0 22 -38 24q-18 2 -18 15q0 17 17 17q6 0 26 -1.5t37 -1.5q15 0 31.5 1t27.5 1.5t13 0.5q18 0 18 -17q0 -8 -6 -11t-30 -8q-10 -2 -15.5 -5t-18 -18.5t-26.5 -45.5l-83 -173v-94q0 -27 5 -32t32 -5q16 0 21 -0.5t7.5 -3t2.5 -9.5
q0 -9 -4.5 -12.5t-16.5 -3.5q-4 0 -37 1.5t-51 1.5q-11 0 -50.5 -1.5t-46.5 -1.5q-14 0 -14 16q0 9 4.5 11t20.5 3q34 1 40 8t6 44v78l-100 195q-16 30 -23.5 39t-21.5 10q-24 2 -30 5t-6 13q0 16 15 16q5 0 39.5 -1.5t48.5 -1.5q5 0 37 1.5t38 1.5q18 0 18 -16
q0 -10 -5.5 -13t-24.5 -5q-13 0 -13 -12q0 -8 13 -33z" />
    <glyph glyph-name="Yacute.sc" unicode="&#xe03a;" horiz-adv-x="441" 
d="M250 194l58 129q19 44 19 56q0 22 -38 24q-18 2 -18 15q0 17 17 17q6 0 26 -1.5t37 -1.5q15 0 31.5 1t27.5 1.5t13 0.5q18 0 18 -17q0 -8 -6 -11t-30 -8q-10 -2 -15.5 -5t-18 -18.5t-26.5 -45.5l-83 -173v-94q0 -27 5 -32t32 -5q16 0 21 -0.5t7.5 -3t2.5 -9.5
q0 -9 -4.5 -12.5t-16.5 -3.5q-4 0 -37 1.5t-51 1.5q-11 0 -50.5 -1.5t-46.5 -1.5q-14 0 -14 16q0 9 4.5 11t20.5 3q34 1 40 8t6 44v78l-100 195q-16 30 -23.5 39t-21.5 10q-24 2 -30 5t-6 13q0 16 15 16q5 0 39.5 -1.5t48.5 -1.5q5 0 37 1.5t38 1.5q18 0 18 -16
q0 -10 -5.5 -13t-24.5 -5q-13 0 -13 -12q0 -8 13 -33zM177 523l116 126q22 24 40 24q14 0 25.5 -10.5t11.5 -26.5q0 -20 -16.5 -34t-81.5 -51q-7 -4 -45 -29t-46 -29q-9 -3 -10 -3q-11 0 -11 8t17 25z" />
    <glyph glyph-name="Ydieresis.sc" unicode="&#xe03b;" horiz-adv-x="441" 
d="M250 194l58 129q19 44 19 56q0 22 -38 24q-18 2 -18 15q0 17 17 17q6 0 26 -1.5t37 -1.5q15 0 31.5 1t27.5 1.5t13 0.5q18 0 18 -17q0 -8 -6 -11t-30 -8q-10 -2 -15.5 -5t-18 -18.5t-26.5 -45.5l-83 -173v-94q0 -27 5 -32t32 -5q16 0 21 -0.5t7.5 -3t2.5 -9.5
q0 -9 -4.5 -12.5t-16.5 -3.5q-4 0 -37 1.5t-51 1.5q-11 0 -50.5 -1.5t-46.5 -1.5q-14 0 -14 16q0 9 4.5 11t20.5 3q34 1 40 8t6 44v78l-100 195q-16 30 -23.5 39t-21.5 10q-24 2 -30 5t-6 13q0 16 15 16q5 0 39.5 -1.5t48.5 -1.5q5 0 37 1.5t38 1.5q18 0 18 -16
q0 -10 -5.5 -13t-24.5 -5q-13 0 -13 -12q0 -8 13 -33zM135 630q21 0 35.5 -14.5t14.5 -35.5t-14.5 -35.5t-35.5 -14.5q-20 0 -35 14.5t-15 35.5t15 35.5t35 14.5zM324 630q21 0 35.5 -14.5t14.5 -35.5t-14.5 -35.5t-35.5 -14.5q-20 0 -35 14.5t-15 35.5t15 35.5t35 14.5z
" />
    <glyph glyph-name="Z.sc" unicode="&#xe03c;" horiz-adv-x="408" 
d="M121 25h73q76 0 104 14t39 57q6 26 9 31.5t12 5.5q15 0 15 -17q0 -89 -2 -105q-2 -14 -29 -14q-11 0 -69 1.5t-68 1.5q-8 0 -76.5 -1.5t-77.5 -1.5q-32 0 -32 9q0 8 17 36l240 364h-101q-52 0 -72 -19.5t-25 -56.5q-4 -19 -15 -19q-15 0 -15 16l1 87q0 10 3 14.5t7 5.5
t13 1q11 0 77 -1.5t75 -1.5q6 0 60 1.5t73 1.5q20 0 20 -12q0 -7 -18 -35z" />
    <glyph glyph-name="Zcaron.sc" unicode="&#xe03d;" horiz-adv-x="408" 
d="M121 25h73q76 0 104 14t39 57q6 26 9 31.5t12 5.5q15 0 15 -17q0 -89 -2 -105q-2 -14 -29 -14q-11 0 -69 1.5t-68 1.5q-8 0 -76.5 -1.5t-77.5 -1.5q-32 0 -32 9q0 8 17 36l240 364h-101q-52 0 -72 -19.5t-25 -56.5q-4 -19 -15 -19q-15 0 -15 16l1 87q0 10 3 14.5t7 5.5
t13 1q11 0 77 -1.5t75 -1.5q6 0 60 1.5t73 1.5q20 0 20 -12q0 -7 -18 -35zM216 565l92 97q14 15 22 15q11 0 11 -10q0 -8 -15 -35l-79 -129q-1 -1 -2 -4q-18 -14 -25 -15h-21q-12 0 -16.5 3t-12.5 16l-92 141q-10 17 -10 23q0 10 12 10q9 0 30 -18z" />
    <glyph glyph-name="dollar.alt" unicode="&#xe03e;" horiz-adv-x="485" 
d="M180 512v88q1 10 1.5 13t2.5 4.5t8 1.5q9 0 11 -3t2 -17v-80q49 4 67 2v77q0 13 2 17t10 4q9 0 11 -3.5t2 -16.5v-80q47 -6 76 -25.5t36.5 -35t7.5 -27.5q0 -18 -11 -31t-31 -13q-16 0 -28 10t-12 34q0 36 -6 45.5t-32 16.5v-210q81 -26 108.5 -57t27.5 -75
q0 -59 -38.5 -102t-97.5 -56v-112q0 -14 -1.5 -17.5t-10.5 -3.5t-11 3t-2 19v105q-32 -4 -67 -4v-101q0 -11 -0.5 -15t-2.5 -5.5t-7 -1.5q-11 0 -13 3.5t-2 18.5v105q-55 3 -95.5 32t-40.5 73q0 18 12.5 34t35.5 16q41 0 41 -47q0 -3 -1 -18t-1 -17q0 -18 11 -27t38 -18v215
q-54 24 -83.5 55t-29.5 85q0 55 36.5 94.5t76.5 47.5zM205 490v-175q8 -4 22.5 -9t28.5 -9.5t16 -5.5v205q-39 3 -67 -6zM180 329v153q-48 -28 -48 -79q0 -53 48 -74zM205 220v-209q42 -4 67 4v184q-45 15 -67 21zM297 190v-166q30 11 46.5 36t16.5 57q0 29 -16 45t-47 28z
" />
    <glyph glyph-name="eight.alt" unicode="&#xe03f;" 
d="M322 278q62 -20 89.5 -52t27.5 -81q0 -69 -54.5 -114.5t-153.5 -45.5q-25 0 -50.5 4t-58.5 15t-54 38t-21 66q0 86 109 128q-91 46 -91 124q0 61 48.5 111t144.5 50q86 0 126 -37.5t40 -84.5q0 -32 -17.5 -57.5t-36.5 -38t-48 -25.5zM293 287q76 37 76 109
q0 43 -29.5 71.5t-82.5 28.5q-62 0 -90.5 -33.5t-28.5 -68.5q0 -44 36.5 -69t118.5 -38zM178 227q-70 -36 -70 -113q0 -50 33.5 -77t88.5 -27q63 0 98 29t35 70q0 28 -10 44.5t-51.5 35.5t-123.5 38z" />
    <glyph glyph-name="five.alt" unicode="&#xe042;" 
d="M218 500h32q68 0 103 9q2 1 11.5 4t17.5 6t11 3q11 0 11 -19q0 -40 -31 -58q-26 -15 -101 -15h-140q2 -75 0 -139q1 1 9 7t18.5 12.5t25.5 14t37 12t46 4.5q78 0 119 -42t41 -103q0 -64 -40 -113.5t-97.5 -73.5t-118.5 -24q-63 0 -97.5 22t-34.5 60q0 21 12.5 34t30.5 13
q17 0 28 -9.5t11 -23.5q0 -4 -4.5 -23t-4.5 -22q0 -26 59 -26q77 0 118.5 57.5t41.5 122.5q0 53 -27.5 84t-75.5 31q-30 0 -60 -15t-36 -47q-5 -26 -7 -32t-9 -6q-8 0 -18.5 7t-10.5 19q0 7 4 25q11 50 11 110q0 64 -5 114q0 3 -1 15t-1 14q0 30 24 30q6 0 9.5 -2t4.5 -4.5
t2 -7.5q4 -16 17.5 -20.5t64.5 -4.5z" />
    <glyph glyph-name="four.alt" unicode="&#xe043;" 
d="M355 167h78q11 0 16 -0.5t9.5 -4.5t4.5 -12q0 -18 -30 -18h-78v-54q0 -33 9 -42.5t42 -9.5q21 0 27 -2t6 -13q0 -14 -22 -14q-8 0 -51 1.5t-50 1.5q-9 0 -54 -1.5t-53 -1.5q-16 0 -16 13q0 11 6.5 13t33.5 3q33 1 41 13.5t8 56.5v36h-231q-10 0 -15 0.5t-9.5 4.5t-4.5 12
q0 7 13 23l276 333q20 24 30 24t12 -7.5t2 -27.5v-327zM61 167h221v266z" />
    <glyph glyph-name="germandbls.sc" unicode="&#xe044;" horiz-adv-x="800" 
d="M50 9v38q0 7 -1.5 46t-1.5 45q0 19 14 19q8 0 10.5 -5.5t7.5 -31.5q3 -16 11 -32.5t21.5 -34t36.5 -29t52 -11.5q42 0 66 23.5t24 59.5q0 30 -16.5 49.5t-66.5 37.5q-90 33 -121.5 58.5t-31.5 80.5q0 43 34 84t101 41q33 0 56 -8q29 -10 35 -10q9 0 24 9q12 7 19 7
q11 0 11 -17q0 -8 -1 -51t-1 -50q0 -21 -14 -21q-8 0 -11 6t-13 36q-11 35 -39.5 55t-63.5 20t-56.5 -18.5t-21.5 -49.5q0 -35 26 -52t79 -33q75 -23 108.5 -54.5t33.5 -84.5q0 -56 -42 -101t-115 -45q-48 0 -82 20q-23 13 -27 13q-5 0 -8 -2.5t-14 -16.5q-4 -6 -11 -6
q-11 0 -11 16zM450 9v38q0 7 -1.5 46t-1.5 45q0 19 14 19q8 0 10.5 -5.5t7.5 -31.5q3 -16 11 -32.5t21.5 -34t36.5 -29t52 -11.5q42 0 66 23.5t24 59.5q0 30 -16.5 49.5t-66.5 37.5q-90 33 -121.5 58.5t-31.5 80.5q0 43 34 84t101 41q33 0 56 -8q29 -10 35 -10q9 0 24 9
q12 7 19 7q11 0 11 -17q0 -8 -1 -51t-1 -50q0 -21 -14 -21q-8 0 -11 6t-13 36q-11 35 -39.5 55t-63.5 20t-56.5 -18.5t-21.5 -49.5q0 -35 26 -52t79 -33q75 -23 108.5 -54.5t33.5 -84.5q0 -56 -42 -101t-115 -45q-48 0 -82 20q-23 13 -27 13q-5 0 -8 -2.5t-14 -16.5
q-4 -6 -11 -6q-11 0 -11 16z" />
    <glyph glyph-name="nine.alt" unicode="&#xe045;" 
d="M342 241q-45 -80 -135 -80q-68 0 -117 46t-49 122q0 75 52.5 133.5t143.5 58.5q87 0 145 -63t58 -174q0 -43 -8.5 -84.5t-28 -81t-47.5 -69t-70.5 -47t-94.5 -17.5q-69 0 -103.5 24t-34.5 57q0 17 12.5 30t31.5 13q18 0 30 -10.5t12 -26.5q0 -2 -1.5 -13.5t-1.5 -13.5
q0 -35 57 -35q136 0 149 231zM232 189q11 0 27 5.5t36.5 20t34.5 48t14 80.5q0 84 -33.5 118.5t-71.5 34.5q-42 0 -72 -40t-30 -121q0 -66 25 -106t70 -40z" />
    <glyph glyph-name="one.alt" unicode="&#xe046;" 
d="M290 314v-180q0 -69 10 -87.5t47 -18.5q11 0 16 -0.5t10 -4.5t5 -12q0 -14 -18 -14q-9 0 -55.5 1.5t-54.5 1.5q-9 0 -55 -1.5t-54 -1.5q-21 0 -21 13q0 6 2 9.5t8.5 5.5t11.5 2.5t18 0.5q14 1 21.5 2.5t15 8.5t10.5 20q5 18 5 131v215q0 41 -5 53t-30 12q-3 0 -18.5 -1
t-17.5 -1q-15 0 -15 13q0 10 7 13t32 6q36 4 83 15q26 6 31 6q16 0 16 -17q0 -2 -0.5 -11.5t-1.5 -26t-1 -33.5z" />
    <glyph glyph-name="one.fittedalt" unicode="&#xe047;" horiz-adv-x="345" 
d="M220 314v-180q0 -70 9.5 -88t47.5 -18q11 0 16 -0.5t10 -4.5t5 -12q0 -14 -18 -14q-9 0 -55.5 1.5t-54.5 1.5q-9 0 -55 -1.5t-54 -1.5q-21 0 -21 13q0 6 2 9.5t8.5 5.5t11.5 2.5t18 0.5q13 1 20.5 2.5t15 8.5t11.5 20q5 23 5 131v215q0 29 -1.5 40t-9 18t-25.5 7l-35 -2
q-9 0 -12 2.5t-3 10.5q0 7 7.5 11t30.5 8q49 7 84 15q26 6 31 6q15 0 15 -17l-2 -71z" />
    <glyph glyph-name="quotedblleft.alt" unicode="&#xe048;" horiz-adv-x="440" 
d="M285 571q-10 -20 -10 -46q0 -80 71 -134q14 -10 14 -20q0 -16 -20 -16q-23 0 -57.5 52t-34.5 119q0 49 24.5 87t68.5 38q27 0 44.5 -17.5t17.5 -43.5t-16 -43t-43 -17q-43 0 -59 41zM74 571q-10 -20 -10 -46q0 -80 71 -134q14 -10 14 -20q0 -16 -20 -16q-23 0 -57.5 52
t-34.5 119q0 49 24.5 87t68.5 38q28 0 45 -17.5t17 -43.5t-16 -43t-43 -17q-43 0 -59 41z" />
    <glyph glyph-name="quoteleft.alt" unicode="&#xe049;" horiz-adv-x="229" 
d="M74 571q-10 -20 -10 -46q0 -80 71 -134q14 -10 14 -20q0 -16 -20 -16q-23 0 -57.5 52t-34.5 119q0 49 24.5 87t68.5 38q28 0 45 -17.5t17 -43.5t-16 -43t-43 -17q-43 0 -59 41z" />
    <glyph glyph-name="seven.alt" unicode="&#xe04a;" 
d="M386 426h-199q-1 0 -17 0.5t-29.5 0.5t-16.5 -1q-9 -2 -13.5 -9.5t-6.5 -15.5t-4 -27q-2 -16 -4.5 -20t-10.5 -4q-15 0 -15 14l1 14q1 13 2 28t1 19q0 6 1 30.5t1.5 46.5t1.5 26q3 10 14 10q10 0 15 -15q5 -14 23.5 -20t77.5 -6h122q12 0 52 2.5t41 2.5q15 0 15 -11
q0 -5 -16 -41q-103 -231 -145 -371q-17 -55 -33.5 -74.5t-40.5 -19.5q-22 0 -33.5 11.5t-11.5 27.5t10 36.5t39 67.5q132 212 179 298z" />
    <glyph glyph-name="six.alt" unicode="&#xe04b;" 
d="M148 265q45 80 135 80q68 0 117 -46t49 -122q0 -75 -52.5 -133.5t-143.5 -58.5q-87 0 -145 63t-58 174q0 43 8.5 84.5t28 81t47.5 69t70.5 47t94.5 17.5q69 0 103.5 -24t34.5 -57q0 -17 -12.5 -30t-31.5 -13q-18 0 -30 10.5t-12 26.5q0 2 1.5 13.5t1.5 13.5q0 35 -57 35
q-136 0 -149 -231zM258 317q-11 0 -27 -5.5t-36.5 -20t-34.5 -48t-14 -80.5q0 -84 33.5 -118.5t71.5 -34.5q42 0 72 40t30 121q0 66 -25 106t-70 40z" />
    <glyph glyph-name="sterling.alt" unicode="&#xe04c;" horiz-adv-x="494" 
d="M252 291h105q14 0 19.5 -3t5.5 -12q0 -15 -22 -15h-99q15 -38 15 -76q0 -44 -24 -87q76 -19 101 -24q40 -7 64 -6q13 1 27 13.5t20 12.5q12 0 12 -15q0 -31 -25.5 -62.5t-73.5 -31.5q-31 0 -80 21q-30 19 -72 42q-53 -63 -134 -63q-32 0 -54.5 15.5t-22.5 45.5
q0 72 109 72q29 0 82 -10q1 38 -15.5 84.5t-29.5 68.5h-92q-10 0 -14.5 2.5t-4.5 12.5q0 11 3.5 13t22.5 2h77q-7 33 -7 50q0 77 52 128.5t130 51.5q66 0 101 -30.5t35 -60.5q0 -50 -42 -50q-41 0 -41 34q0 10 6 24q5 15 5 20q0 18 -19 28t-48 10q-55 0 -79 -29t-24 -65
q0 -24 7 -52q8 -28 24 -59zM193 66q-51 27 -92 27q-29 0 -43.5 -13.5t-14.5 -30.5t16.5 -28t39.5 -11q62 0 94 56z" />
    <glyph glyph-name="three.alt" unicode="&#xe04d;" 
d="M323 288q45 -5 74 -35t29 -75q0 -75 -72 -134t-187 -59q-70 0 -102 24t-32 55q0 22 13 36.5t30 14.5q14 0 25 -9t11 -26q0 -10 -4 -22q-5 -14 -5 -19q0 -14 17 -21.5t38 -7.5q71 0 121.5 51t50.5 127q0 52 -29 81q-61 -46 -89 -46q-26 0 -26 23q0 8 7 17.5t33.5 20
t66.5 10.5q28 35 28 89q0 44 -25.5 77t-69.5 33q-39 0 -72.5 -28.5t-33.5 -64.5q0 -20 10 -34.5t27 -14.5q12 0 22 9q11 8 16 8q12 0 12 -12q0 -15 -21 -31t-47 -16q-29 0 -49.5 20t-20.5 50q0 47 51.5 94.5t149.5 47.5q67 0 99 -30t32 -76q0 -66 -78 -127z" />
    <glyph glyph-name="two.alt" unicode="&#xe04e;" 
d="M181 74l167 4q7 0 38.5 2t33.5 2q10 0 10 -8q0 -13 -12 -75q-7 -35 -13 -39q-4 -2 -9 -2q-12 0 -12 12v22q0 5 -5.5 6.5t-30.5 1.5h-196q-1 0 -18 -0.5t-29 -0.5q-38 -2 -40 -2q-12 0 -12 10q0 9 5.5 14t23.5 15q17 10 39 24.5t62 49t71 70.5t55 86.5t24 100.5
q0 57 -29 85t-69 28q-56 0 -88.5 -39.5t-32.5 -82.5q0 -21 6.5 -35t17 -19.5t17.5 -7.5t13 -2q21 0 33 13q17 17 21 17q14 0 14 -13q0 -17 -25 -39.5t-66 -22.5q-36 0 -60 25.5t-24 58.5q0 66 62 127t156 61q68 0 109 -38.5t41 -102.5q0 -46 -25 -93t-70.5 -90t-77 -67.5
t-75.5 -55.5z" />
    <glyph glyph-name="zero.alt" unicode="&#xe050;" 
d="M246 521q86 0 145.5 -81t59.5 -187q0 -112 -62 -190t-144 -78t-144 76.5t-62 187.5q0 108 58.5 190t148.5 82zM246 496q-111 0 -111 -248q0 -238 109 -238q111 0 111 246q0 240 -109 240z" />
    <glyph glyph-name="zero.taboldstyle" unicode="&#xf643;" 
d="M253 448q91 0 143.5 -69t52.5 -164q0 -60 -21 -111t-68 -85t-114 -34q-89 0 -147 65t-58 166q0 98 56 165t156 67zM247 424q-57 0 -84 -50t-27 -158q0 -107 26.5 -157t81.5 -50q61 0 85.5 52t24.5 160q0 111 -27 157t-80 46z" />
    <glyph glyph-name="one.taboldstyle" unicode="&#xf644;" 
d="M292 240v-137q0 -52 5.5 -62t30.5 -10h14q20 0 27.5 -0.5t12.5 -4.5t5 -14q0 -15 -21 -15q-9 0 -54 1.5t-52 1.5q-9 0 -59 -1.5t-58 -1.5q-17 0 -17 14q0 9 3 13t7 5t13 1q46 0 52 2q7 2 8.5 7t1.5 27v290q0 24 -2 32t-12 8q-3 0 -29.5 -4t-31.5 -4q-14 0 -14 18
q0 9 7.5 12t39.5 7q46 5 104 17q18 6 21 6q7 0 7 -9q0 -1 -2.5 -27t-2.5 -31q-4 -64 -4 -141z" />
    <glyph glyph-name="two.taboldstyle" unicode="&#xf645;" 
d="M165 75l160 3q52 0 80 7q2 0 8.5 2.5t7.5 2.5q4 0 9.5 -6.5t5.5 -11.5q0 -3 -7.5 -18l-8.5 -17q-3 -7 -13.5 -45.5t-12.5 -41.5q-4 -7 -13 -7q-15 0 -15 15q0 3 2 16.5t2 15.5q0 7 -4 10t-20.5 4.5t-52.5 1.5q-78 0 -178 -8q-48 -6 -49 -6q-13 0 -13 13q0 17 54 56
q61 43 93 68.5t65 59t46.5 64.5t13.5 67q0 40 -22 69t-70 29q-56 0 -84.5 -35t-28.5 -63q0 -22 13 -36.5t36 -14.5q3 0 16 2.5t16 2.5q12 0 12 -11q0 -10 -21 -20.5t-45 -10.5q-36 0 -58 22.5t-22 50.5q0 54 56.5 98.5t143.5 44.5q82 0 116.5 -38.5t34.5 -85.5
q0 -65 -50.5 -112t-202.5 -137z" />
    <glyph glyph-name="three.taboldstyle" unicode="&#xf646;" 
d="M254 175q86 5 123.5 -36t37.5 -93q0 -89 -80 -164.5t-197 -75.5q-59 0 -91.5 22t-32.5 55q0 20 11.5 34t32.5 14t31 -12t10 -25q0 -4 -5 -20t-5 -18q0 -10 4 -15.5t13.5 -7.5t14 -2.5t15.5 -0.5q74 0 125 69t51 151q0 49 -18 76.5t-47 27.5q-21 0 -36 -13
q-15 -14 -19 -14q-5 0 -19 6.5t-14 14.5q0 6 18 16.5t21 10.5q118 36 118 136q0 58 -27 81.5t-59 23.5q-49 0 -79 -31.5t-30 -64.5q0 -8 2 -17.5t13.5 -21.5t32.5 -12q2 0 13 1l12 2q9 0 9 -9q0 -11 -17 -20.5t-42 -9.5q-35 0 -55.5 20t-20.5 48q0 53 58 100t145 47
q64 0 95 -31.5t31 -76.5q0 -31 -13 -57t-39.5 -47.5t-43 -32.5t-47.5 -28z" />
    <glyph glyph-name="four.taboldstyle" unicode="&#xf647;" 
d="M361 43h70q20 0 22 -2q4 -2 4 -14q0 -18 -4 -20q-2 -1 -19 -1h-73v-100l1 -17q0 -26 7.5 -30.5t44.5 -5.5q11 0 15 -3t4 -13q0 -12 -4 -14.5t-17 -2.5q-9 0 -55 1.5t-54 1.5q-7 0 -46 -1.5t-45 -1.5q-14 0 -14 17q0 12 5.5 14t30.5 2q32 0 39 5t7 28v120h-233
q-20 0 -20 11q0 6 15 26l288 396q13 18 17 21.5t10 3.5q13 0 13 -17q0 -112 -5 -187zM78 43h202q2 195 5 281z" />
    <glyph glyph-name="five.taboldstyle" unicode="&#xf648;" 
d="M102 414l-1 20q0 10 8.5 16.5t15.5 8t11 1.5q7 0 9.5 -4t4.5 -17q3 -18 86 -18q80 0 137 19q7 3 12 3q12 0 12 -17q0 -23 -8.5 -39.5t-19 -24.5t-29.5 -12t-30.5 -4.5t-32.5 -0.5q-9 0 -56 1t-55 1q-12 0 -15 -6t-3 -25l-2 -136q61 38 122 38q71 0 116 -45.5t45 -110.5
q0 -103 -81 -179.5t-184 -76.5q-55 0 -89 22t-34 58q0 22 12 35.5t32 13.5q16 0 27 -9.5t11 -24.5t-14 -32q-9 -10 -9 -13q0 -10 18.5 -18t42.5 -8t50.5 10.5t54.5 33.5t46 68.5t18 107.5q0 20 -3.5 39.5t-12 43.5t-28.5 38.5t-48 14.5q-31 0 -62 -16.5t-35 -49.5
q0 -25 -4 -33q-3 -7 -10 -7q-8 0 -22.5 8.5t-14.5 18.5q0 3 7 17.5t7 16.5q5 19 5 155q0 16 -3 57t-4 61z" />
    <glyph glyph-name="six.taboldstyle" unicode="&#xf649;" 
d="M150 352q47 61 123 61q28 0 56.5 -11t56.5 -33t45.5 -64.5t17.5 -97.5q0 -96 -54 -159t-138 -63q-63 0 -107.5 30t-65 79t-28.5 93t-8 91q0 92 25.5 162.5t66.5 109t85.5 57.5t89.5 19q61 0 99.5 -27t38.5 -61q0 -19 -10.5 -30t-28.5 -11q-45 0 -45 55l1 12q1 13 0 15
q-4 23 -48 23q-41 0 -72.5 -19t-49 -46.5t-29 -64.5t-16 -64.5t-5.5 -55.5zM253 383q-48 0 -79 -43t-31 -120q0 -209 110 -209q30 0 52.5 18t34 47t17 59t5.5 59q0 27 -3.5 53.5t-13.5 60.5t-33.5 54.5t-58.5 20.5z" />
    <glyph glyph-name="seven.taboldstyle" unicode="&#xf64a;" 
d="M208 428h121q51 0 89 8l13 3q5 0 14.5 -10t9.5 -15q0 -1 -25 -45q-72 -144 -151 -392q-34 -104 -54.5 -137.5t-46.5 -33.5q-16 0 -30 12t-14 33q0 11 2.5 20t16.5 38.5t45 86.5q131 237 188 356q-66 3 -134 3q-120 0 -137 -6q-7 -3 -10 -8.5t-12 -28.5q-7 -13 -14 -13
q-16 0 -16 12q0 6 12 60.5t17 74.5q5 19 7 23.5t8 4.5q20 0 20 -10q0 -16 3 -22t20.5 -10t57.5 -4z" />
    <glyph glyph-name="eight.taboldstyle" unicode="&#xf64b;" 
d="M300 346q144 -68 144 -175q0 -68 -57.5 -127t-156.5 -59q-88 0 -136 46.5t-48 108.5q0 32 12.5 58t36 45.5t43.5 31.5t49 26q-65 38 -93 76.5t-28 86.5q0 26 9.5 52.5t29.5 52t57 41.5t86 16q83 0 129.5 -43t46.5 -95q0 -82 -124 -142zM276 358q92 52 92 125
q0 48 -33 84.5t-89 36.5q-50 0 -79.5 -32.5t-29.5 -70.5q0 -45 33.5 -76t105.5 -67zM214 288q-16 -6 -32 -15.5t-36 -26t-32 -42.5t-12 -57q0 -62 39.5 -99t95.5 -37q54 0 95 31t41 83q0 45 -34 80.5t-125 82.5z" />
    </font>
</defs>
</svg>
