<?xml version="1.0" standalone="no"?>
<!DOCTYPE svg PUBLIC "-//W3C//DTD SVG 1.1//EN" "http://www.w3.org/Graphics/SVG/1.1/DTD/svg11.dtd" >
<svg xmlns="http://www.w3.org/2000/svg" xmlns:xlink="http://www.w3.org/1999/xlink" version="1.1">
<metadata>
Created by FontForge 20170731 at Thu Aug 16 18:01:32 2007
 By ,,,
(c) 1995, 1996, 2002 Adobe Systems Incorporated. All rights reserved. (c) 1994, 1996, 2002 The Monotype Corporation. All rights reserved.
</metadata>
<defs>
<font id="BulmerMTStd-Bold" horiz-adv-x="510" >
  <font-face 
    font-family="Bulmer MT Std Regular"
    font-weight="700"
    font-stretch="normal"
    units-per-em="1000"
    panose-1="2 3 8 3 6 4 5 3 3 3"
    ascent="676"
    descent="-324"
    x-height="398"
    cap-height="644"
    bbox="-220 -258 1064 846"
    underline-thickness="50"
    underline-position="-200"
    unicode-range="U+0020-FB04"
  />
<missing-glyph horiz-adv-x="500" 
d="M0 0v700h500v-700h-500zM250 395l170 255h-340zM280 350l170 -255v510zM80 50h340l-170 255zM50 605v-510l170 255z" />
    <glyph glyph-name="f_f" unicode="ff" horiz-adv-x="535" 
d="M457 504v-109h46q19 0 23 -3t4 -19q0 -15 -4 -17.5t-23 -2.5h-46v-268q0 -35 4 -42t25 -8q18 -1 24.5 -5t6.5 -16q0 -6 -0.5 -9t-5.5 -5.5t-14 -2.5q-8 0 -48 1.5t-47 1.5q-8 0 -51.5 -1.5t-50.5 -1.5q-19 0 -19 18q0 12 4.5 14.5t23.5 4.5q14 2 17 10t3 35v274h-128
v-255q0 -41 2.5 -50.5t11.5 -11.5q19 -3 24.5 -6.5t5.5 -15.5q0 -11 -5.5 -14t-17.5 -3q-7 0 -44 1.5t-43 1.5q-7 0 -45.5 -1.5t-44.5 -1.5q-25 0 -25 18q0 9 4 13t9 5t16 2q17 1 20.5 11t3.5 46v261h-26q-13 0 -16.5 2.5t-3.5 15.5q0 17 3 20.5t17 3.5h26v60q0 105 53 163
t143 58q31 0 52.5 -6.5t32.5 -18.5t14.5 -19.5t7.5 -18.5q61 63 147 63q46 0 78 -18t32 -56q0 -22 -12.5 -38t-40.5 -16t-41 14t-13 33q0 7 5 25q4 9 4 15q0 17 -21 17q-28 0 -42.5 -30.5t-14.5 -117.5zM201 503v-108h128v41q0 78 14 118q-9 -3 -18 -3q-21 0 -35.5 12.5
t-14.5 33.5q0 9 3 21l6 18q0 5 -5.5 10.5t-18.5 5.5q-20 0 -32.5 -12t-18 -36.5t-7 -46t-1.5 -54.5z" />
    <glyph glyph-name="f_f_i" unicode="ffi" horiz-adv-x="781" 
d="M457 482v-87h105q43 0 85 4q54 6 58 6q13 0 13 -17q0 -5 -1.5 -29t-1.5 -28q-2 -10 -2 -69v-188l1 -14q0 -9 1 -13.5t7 -8.5t19 -4q10 0 15 -0.5t9 -4t4 -10.5q0 -13 -4.5 -17.5t-17.5 -4.5q-8 0 -50.5 1.5t-49.5 1.5t-43 -1.5t-43 -1.5q-23 0 -23 17q0 13 4.5 16t22.5 5
q15 2 17.5 9.5t2.5 41.5v208l-1 20q-1 27 -12.5 33t-55.5 6h-59v-263q0 -34 2 -43.5t13 -11.5q21 -4 26 -6.5t5 -13.5q0 -18 -23 -18q-8 0 -47.5 1.5t-46.5 1.5t-44.5 -1.5t-43.5 -1.5q-17 0 -17 18q0 12 5 15t28 6q11 2 13 11.5t2 42.5v263h-128v-279q0 -24 2.5 -30.5
t16.5 -8.5q16 -3 21 -6.5t5 -14.5q0 -17 -28 -17q-1 0 -16.5 0.5t-37 1.5t-37.5 1q-14 0 -47.5 -1.5t-37.5 -1.5q-20 0 -20 19q0 12 5 15t23 4q17 1 20 11t3 56v251h-19q-19 0 -23 2.5t-4 15.5q0 18 3.5 21t23.5 3h19v66q0 102 51.5 158.5t144.5 56.5q75 0 98 -39
q11 -19 9 -43q65 82 175 82q60 0 95 -24.5t35 -66.5q0 -28 -16.5 -43t-40.5 -15q-23 0 -40 14t-17 39q0 11 5 24q0 1 4 7t7 12t3 8q0 19 -37 19q-92 0 -92 -168zM201 395h128q0 63 5 96t20 67q-14 -7 -30 -7q-18 0 -34 11t-16 35q0 10 5 23q0 2 1.5 5.5t2.5 6.5t1 4
q0 16 -26 16q-33 0 -45 -38.5t-12 -126.5v-92z" />
    <glyph glyph-name="f_f_l" unicode="ffl" horiz-adv-x="778" 
d="M624 642l46 25q18 9 27 9q10 0 14 -10q2 -10 2 -37v-567q0 -11 1.5 -16t8 -9.5t20.5 -4.5q15 0 20.5 -2.5t5.5 -14.5q0 -6 -1 -9.5t-5.5 -6t-13.5 -2.5q-8 0 -49.5 1.5t-48.5 1.5t-43.5 -1.5t-42.5 -1.5q-27 0 -27 20q0 7 3.5 10.5t8 4.5t14.5 2q15 1 18 9t3 43v471
q0 22 -1 33.5t-5.5 28t-16 24t-30.5 7.5q-43 0 -63 -47q-12 -29 -12 -145v-63h52q22 0 26.5 -3t4.5 -21q0 -13 -5.5 -15.5t-29.5 -2.5h-48v-267q0 -34 2 -41.5t13 -8.5q24 -4 26 -10q2 -4 2 -10q0 -10 -4.5 -14.5t-19.5 -4.5q-7 0 -43 1.5t-42 1.5q-7 0 -44 -1.5t-43 -1.5
q-22 0 -22 18q0 6 1 9.5t5 5.5t7.5 2.5t13.5 1.5q14 1 17 10.5t3 41.5v267h-128v-267v-24t1.5 -15t4.5 -11t9 -3q13 -1 17.5 -1.5t8 -4t3.5 -11.5q0 -19 -18 -19q-6 0 -48 1.5t-50 1.5t-46.5 -1.5t-44.5 -1.5q-18 0 -18 18q0 12 4.5 15t17.5 3q15 0 22 6.5t8 15.5t1 31v267
h-22q-17 0 -21.5 2.5t-4.5 14.5q0 17 4.5 21t21.5 4h22v59q0 108 51.5 165t145.5 57q103 0 108 -72q67 72 148 72q56 0 98 -34zM201 395h128q0 63 5 96t20 67q-14 -7 -30 -7q-18 0 -34 11t-16 35q0 10 5 23q0 2 1.5 5.5t2.5 6.5t1 4q0 16 -26 16q-33 0 -45 -38.5t-12 -126.5
v-92z" />
    <glyph glyph-name="f_i" unicode="fi" horiz-adv-x="524" 
d="M201 482v-87h106q49 0 103 6q5 0 19.5 2t17.5 2q14 0 14 -15q0 -10 -2 -64t-2 -64v-189q0 -25 3 -32t19 -7q22 0 27.5 -2.5t5.5 -16.5q0 -12 -4.5 -15t-14.5 -3q-23 0 -33 2q-35 1 -82 1q-2 0 -16 -0.5t-24 -0.5q-34 -2 -39 -2q-17 0 -17 18q0 12 5 15t23 5
q14 1 16.5 8.5t2.5 41.5v229q0 27 -11.5 33.5t-58.5 6.5h-58v-265q0 -38 4 -46.5t26 -10.5q16 0 16 -17q0 -18 -20 -18q-9 0 -52.5 1.5t-50.5 1.5t-41.5 -1.5t-40.5 -1.5q-12 0 -16 5t-4 16q0 17 20 17q22 0 26.5 9t4.5 45v265h-20q-18 0 -21.5 2.5t-3.5 17.5t4.5 18t20.5 3
h20q0 101 21 153q7 18 19.5 36t35.5 41t61.5 37t85.5 14q61 0 95.5 -24.5t34.5 -66.5q0 -28 -16.5 -43t-40.5 -15q-23 0 -40 14t-17 39q0 17 10 31q9 15 9 20q0 18 -37 18q-93 0 -93 -167z" />
    <glyph glyph-name="f_l" unicode="fl" horiz-adv-x="523" 
d="M366 641l47 26q18 9 27 9q6 0 9 -2t5 -8.5t2 -13.5v-23v-550q0 -30 4 -37.5t24 -7.5q11 0 15.5 -0.5t8 -5t3.5 -13.5q0 -18 -21 -18q-7 0 -43 1.5t-42 1.5q-8 0 -49.5 -1.5t-48.5 -1.5q-26 0 -26 20q0 10 5 13t18 4h3q15 1 18 10.5t3 40.5v472q0 23 -0.5 32.5t-5 27
t-16.5 25t-31 7.5q-20 0 -34.5 -10t-22 -25t-11.5 -42.5t-5 -51t-1 -62.5v-63h53q19 0 24 -2.5t5 -15.5q0 -17 -4.5 -20t-28.5 -3h-49v-292q0 -25 16 -27q18 -2 22.5 -5t4.5 -14t-3.5 -15t-16.5 -4q-8 0 -48.5 1.5t-47.5 1.5t-41.5 -1.5t-40.5 -1.5q-25 0 -25 19
q0 6 1.5 9.5t6.5 5.5t9 2.5t15 0.5q14 1 17 11t3 40v269h-23q-17 0 -20 2.5t-3 17.5t3.5 18t19.5 3h23q2 106 13 139q19 59 66.5 100.5t116.5 41.5q57 0 97 -35z" />
    <glyph glyph-name=".notdef" horiz-adv-x="500" 
d="M0 0v700h500v-700h-500zM250 395l170 255h-340zM280 350l170 -255v510zM80 50h340l-170 255zM50 605v-510l170 255z" />
    <glyph glyph-name=".null" horiz-adv-x="0" 
 />
    <glyph glyph-name="nonmarkingreturn" horiz-adv-x="333" 
 />
    <glyph glyph-name="space" unicode=" " horiz-adv-x="196" 
 />
    <glyph glyph-name="exclam" unicode="!" horiz-adv-x="267" 
d="M138 150q34 0 58.5 -24.5t24.5 -58.5t-24.5 -58t-58.5 -24t-58 24t-24 58t24 58.5t58 24.5zM142 659q11 0 22 -7t23.5 -24.5t20 -54.5t7.5 -89q0 -90 -22.5 -169t-52.5 -79t-51.5 78.5t-21.5 169.5q0 66 14.5 108t29.5 54.5t31 12.5z" />
    <glyph glyph-name="quotedbl" unicode="&#x22;" horiz-adv-x="484" 
d="M151 334h-23l-51 186q-10 30 -10 64q0 31 20.5 53t51.5 22q32 0 52 -22t20 -48q0 -25 -11 -69zM357 334h-23l-52 186q-9 36 -9 64q0 31 20.5 53t51.5 22q32 0 52 -22t20 -48q0 -21 -12 -69z" />
    <glyph glyph-name="numbersign" unicode="#" horiz-adv-x="548" 
d="M500 370h-98l-19 -135h93v-58h-101l-25 -177h-59l25 177h-120l-25 -177h-59l25 177h-89v58h97l19 135h-92v58h100l26 183h59l-26 -183h120l26 183h59l-26 -183h90v-58zM324 235l19 135h-120l-19 -135h120z" />
    <glyph glyph-name="dollar" unicode="$" horiz-adv-x="493" 
d="M264 602v-204q23 -15 79 -48q111 -66 111 -170q0 -73 -49.5 -130.5t-140.5 -64.5v-94q0 -18 -2.5 -21.5t-14.5 -3.5q-17 0 -18 5q-2 4 -2 30v84q-85 1 -137.5 41.5t-52.5 94.5q0 30 16 48t42 18q24 0 38 -17t14 -43q0 -5 -4.5 -32t-4.5 -31q0 -47 89 -52v237
q-86 53 -129.5 99.5t-43.5 110.5q0 13 2.5 28.5t13.5 39.5t28 43.5t51 35.5t78 20v35q0 17 2.5 20t16.5 3t16 -3t2 -20v-35q79 -1 123 -35t44 -77q0 -26 -15.5 -41.5t-38.5 -15.5q-28 0 -44 20t-16 46q0 3 3 22t3 23q0 32 -59 34zM227 422v175q-61 -18 -61 -80q0 -33 16 -54
t45 -41zM264 224v-208q78 20 78 93q0 35 -18 59.5t-60 55.5z" />
    <glyph glyph-name="percent" unicode="%" horiz-adv-x="764" 
d="M186 638q-16 0 -24 -18q-15 -33 -15 -138q0 -76 7.5 -115.5t30.5 -39.5q39 0 39 146q0 98 -9 131q-6 21 -12.5 27.5t-16.5 6.5zM184 659q21 0 42 -6.5t45.5 -23.5t40 -55t15.5 -92q0 -50 -13.5 -86.5t-36 -55t-45.5 -26.5t-48 -8q-22 0 -43.5 7.5t-44.5 25t-37.5 54.5
t-14.5 89q0 51 14.5 88t37.5 55t44.5 26t43.5 8zM143 12l440 632q10 13 13 14q4 1 25 1q14 0 14 -5q0 -4 -11 -21l-437 -628q-11 -15 -15.5 -18.5t-14.5 -3.5h-14q-14 0 -14 6q0 2 14 23zM578 343q21 0 41.5 -6.5t45 -23.5t40 -55t15.5 -92q0 -50 -13.5 -86.5t-36 -54.5
t-45 -26t-47.5 -8q-17 0 -34 4t-37 15.5t-35 30t-25 51.5t-10 75q0 51 14.5 88t37.5 54.5t45 25.5t44 8zM579 322q-15 0 -23 -18q-16 -38 -16 -138q0 -75 8 -114.5t31 -39.5q24 0 31 39t7 106q0 102 -9 131q-7 22 -13 28t-16 6z" />
    <glyph glyph-name="ampersand" unicode="&#x26;" horiz-adv-x="790" 
d="M469 204l86 170q38 74 98 74q27 0 48 -15t21 -48q0 -30 -16 -44.5t-38 -14.5q-16 0 -26.5 7.5t-13.5 14t-4 12.5q-1 9 -2 12.5t-2.5 5t-5.5 1.5q-17 0 -42 -53q-56 -112 -74 -145q66 -54 124 -78.5t90 -24.5q18 0 34 16q14 14 18 14q17 0 17 -18q0 -35 -38.5 -71
t-116.5 -36q-51 0 -98.5 20.5t-118.5 69.5q-26 -27 -46 -43t-60.5 -31.5t-89.5 -15.5q-51 0 -87.5 15.5t-53.5 40t-24 46.5t-7 44q0 114 135 182q-47 76 -47 150q0 93 62.5 145.5t141.5 52.5q54 0 98 -29t44 -93q0 -52 -36 -94.5t-124 -91.5q33 -40 63 -68.5t91 -78.5z
M297 374q75 48 75 132q0 43 -19.5 81.5t-59.5 38.5q-25 0 -43 -20t-18 -62q0 -90 65 -170zM193 286q-40 -27 -40 -83q0 -54 43 -102t98 -48q39 0 89 41q-54 41 -110 97t-80 95z" />
    <glyph glyph-name="quotesingle" unicode="'" horiz-adv-x="278" 
d="M151 334h-23l-52 186q-9 36 -9 64q0 31 20.5 53t51.5 22q32 0 52 -22t20 -48q0 -25 -11 -69z" />
    <glyph glyph-name="parenleft" unicode="(" horiz-adv-x="322" 
d="M291 673q0 -4 -7 -18t-16 -30.5t-10 -19.5q-87 -181 -87 -394q0 -204 82 -383q36 -72 36 -75q0 -11 -17 -11q-15 0 -32 17q-83 86 -140.5 202.5t-57.5 251.5q0 64 14.5 126t32.5 104.5t48 89t47.5 68t43.5 51.5t47 30q16 0 16 -9z" />
    <glyph glyph-name="parenright" unicode=")" horiz-adv-x="322" 
d="M31 -249q0 4 7 18t16 30.5t10 19.5q87 184 87 394q0 245 -110 438q-8 12 -8 21q0 10 18 10q15 0 31 -17q83 -87 140.5 -203.5t57.5 -250.5q0 -64 -14.5 -126t-32.5 -104.5t-48 -89t-47.5 -68t-43.5 -51.5t-47 -30q-16 0 -16 9z" />
    <glyph glyph-name="asterisk" unicode="*" horiz-adv-x="478" 
d="M228 470q0 21 -3.5 33.5t-18.5 52.5q-15 37 -15 67q0 23 10.5 36t19 15t17.5 2q22 0 35.5 -15.5t13.5 -34.5t-13 -62q-22 -63 -24 -94q19 13 30 24.5t46 52.5q37 42 70 42q19 0 32 -14t13 -34q0 -21 -14.5 -34.5t-27.5 -17.5t-35 -8q-79 -15 -105 -30q29 -14 94 -25
q87 -15 87 -63q0 -18 -12 -33.5t-32 -15.5q-36 0 -81 52q-41 50 -65 66q3 -30 24 -91q13 -36 13 -62q0 -8 -2.5 -18t-14.5 -22t-32 -12q-8 0 -16.5 1.5t-19.5 13.5t-11 33q0 30 25 103q9 24 12 54q-22 -15 -33.5 -27t-47.5 -55q-30 -35 -64 -35q-16 0 -31 12.5t-15 34.5
q0 47 73 61q86 17 106 28q-29 13 -98 25q-81 18 -81 65q0 22 15 34t35 12q19 0 36.5 -13.5t49.5 -52.5q24 -29 55 -51z" />
    <glyph glyph-name="plus" unicode="+" 
d="M462 262h-164v-164h-86v164h-164v86h164v164h86v-164h164v-86z" />
    <glyph glyph-name="comma" unicode="," horiz-adv-x="273" 
d="M197 31q-26 -46 -73 -46q-35 0 -59 24t-24 60q0 35 25.5 58t58.5 23q50 0 80 -43.5t30 -107.5q0 -46 -15.5 -85.5t-37 -61.5t-40.5 -34t-30 -12q-8 0 -15 6t-7 14t6.5 15t29.5 21q41 26 64.5 78.5t6.5 90.5z" />
    <glyph glyph-name="hyphen" unicode="-" horiz-adv-x="331" 
d="M76 258h164q42 0 48 -4q6 -5 6 -37v-33q0 -25 -5 -31q-5 -5 -45 -5h-160q-33 0 -40 4.5t-7 28.5v47q0 22 6 26t33 4z" />
    <glyph glyph-name="period" unicode="." horiz-adv-x="275" 
d="M137 150q35 0 59 -24t24 -59q0 -34 -24.5 -58t-58.5 -24t-58 24t-24 58t24 58.5t58 24.5z" />
    <glyph glyph-name="slash" unicode="/" horiz-adv-x="355" 
d="M14 -212l269 849q6 21 9.5 24.5t19.5 3.5h15q20 0 20 -8l-5 -19l-267 -842q-9 -26 -13 -31.5t-18 -5.5h-18q-18 0 -18 6q0 2 3 11.5t3 11.5z" />
    <glyph glyph-name="zero" unicode="0" 
d="M254 626q39 0 75 -16t69.5 -51t53.5 -100.5t20 -154.5q0 -163 -61.5 -241t-157.5 -78q-40 0 -76 17t-68 52t-51.5 100t-19.5 151q0 152 60.5 236.5t155.5 84.5zM256 599q-40 0 -57 -63.5t-17 -232.5v-19v-53.5t2 -57.5t6.5 -61t12 -49.5t20.5 -38t31 -12.5t31 10.5
t20.5 33t12.5 44t7 58.5t2.5 60.5t0.5 64.5q0 177 -13 246.5t-59 69.5z" />
    <glyph glyph-name="one" unicode="1" 
d="M324 419v-306q0 -57 3 -65q3 -7 13.5 -9.5t50.5 -2.5q21 0 21 -17q0 -22 -20 -22q-12 0 -73.5 1.5t-71.5 1.5t-62 -1.5t-61 -1.5q-19 0 -19 18q0 15 6.5 18t30.5 3q39 0 46.5 10.5t7.5 66.5v403q-1 32 -6.5 39t-33.5 4l-23 -3l-19 -1q-13 0 -13 20q0 13 7.5 16.5
t42.5 6.5q75 6 146 24q15 4 22 4q13 0 13 -15q0 -18 -5 -88q-3 -93 -3 -104z" />
    <glyph glyph-name="two" unicode="2" 
d="M120 -5l-81 -8q-18 0 -18 19q0 8 6.5 15.5t37.5 35.5q98 93 162 187q79 117 79 210q0 63 -25.5 95t-68.5 32q-29 0 -58 -23.5t-29 -71.5q0 -30 14 -54.5t46 -24.5q5 0 19 2q12 2 15 2q13 0 13 -12q0 -18 -26.5 -38.5t-62.5 -20.5q-44 0 -68.5 28t-24.5 67q0 19 7.5 42.5
t25 50t42.5 48t64 36t86 14.5q79 0 127 -45.5t48 -117.5q0 -91 -89 -175q-55 -51 -194 -168q56 0 140 3q19 1 39 2t34.5 2.5t26 2.5t18.5 2l7 1q7 0 13 -8t6 -13q0 -1 -4 -12.5t-8 -24t-5 -15.5q-2 -6 -8 -33.5t-11.5 -51t-8.5 -26.5q-6 -7 -17 -7q-17 0 -17 12q0 3 2 17
t2 16q0 5 -1.5 8t-10 6t-24.5 3q-127 0 -220 -9z" />
    <glyph glyph-name="three" unicode="3" 
d="M276 354q18 3 32 3q54 0 100.5 -33t46.5 -97q0 -38 -21 -79.5t-57.5 -78.5t-94.5 -60.5t-125 -23.5q-18 0 -35.5 2t-44 9t-43 26t-16.5 47t18 45t42 17q20 0 36 -12t16 -33q0 -11 -7 -33q-4 -14 -4 -19q0 -22 34 -22q49 0 98 61t49 162q0 37 -11 65t-33 28q-13 0 -27 -16
q-8 -8 -15 -8t-22 7t-15 16t6.5 13.5t29.5 14.5q94 40 94 137q0 44 -19 72.5t-53 28.5q-36 0 -58.5 -22t-22.5 -56q0 -21 10.5 -42.5t36.5 -22.5q12 0 16.5 -2t4.5 -10q0 -15 -20 -24t-44 -9q-42 0 -62 23t-20 51q0 59 63.5 103t153.5 44q72 0 108 -30.5t36 -76.5
q0 -32 -15 -58.5t-45.5 -48.5t-49 -32t-51.5 -26z" />
    <glyph glyph-name="four" unicode="4" 
d="M389 219h67q19 0 23 -2.5t4 -16.5q0 -20 -3.5 -23t-25.5 -3h-65v-90q0 -33 4 -40t24 -8q28 -1 34 -3.5t6 -15.5q0 -11 -3.5 -15.5t-16.5 -4.5q-10 0 -64.5 1.5t-63.5 1.5q-8 0 -51 -1.5t-50 -1.5q-21 0 -21 17q0 15 7 18t39 4q25 0 29.5 8t4.5 46v84h-214
q-13 0 -18.5 0.5t-10.5 3.5t-5 10q0 10 24 39l300 379q25 33 38 33q16 0 16 -20q0 -5 -1 -32t-1 -31q-6 -218 -6 -337zM79 219h188v94q0 95 5 151z" />
    <glyph glyph-name="five" unicode="5" 
d="M145 451v-90q62 42 140 42q82 0 124.5 -48.5t42.5 -113.5q0 -100 -84 -178t-207 -78q-16 0 -30.5 1.5t-41 8.5t-42.5 25.5t-16 47.5q0 25 18 43t44 18q24 0 37.5 -14.5t13.5 -33.5q0 -16 -10 -30q-12 -17 -12 -19q0 -9 11 -14.5t27 -5.5q64 0 106 65t42 148
q0 133 -89 133q-26 0 -50.5 -16t-28.5 -44q-6 -39 -10 -42q-3 -2 -9 -2q-13 0 -27 9.5t-14 19.5q0 3 3 10t7 15t4 9q5 19 5 138q0 95 -4 129q-2 19 -2 27q0 14 12.5 21t26.5 7q7 0 10 -4t5 -15q3 -11 22 -12q70 -5 92 -5q55 0 96 9q48 12 50 12q13 0 13 -21
q0 -109 -152 -109q-8 0 -51 1t-50 1q-16 0 -19 -7t-3 -38z" />
    <glyph glyph-name="six" unicode="6" 
d="M189 358q48 57 116 57q67 0 119.5 -52.5t52.5 -150.5q0 -92 -53 -159.5t-154 -67.5q-110 0 -168.5 83t-58.5 212q0 154 78.5 250t214.5 96q77 0 111 -29t34 -59q0 -21 -14.5 -35.5t-37.5 -14.5q-24 0 -41.5 15.5t-17.5 41.5v35q-5 22 -39 22q-128 0 -142 -244zM262 370
q-39 0 -58 -45.5t-19 -106.5q0 -119 19 -164t57 -45q42 0 60 48t18 143q0 170 -77 170z" />
    <glyph glyph-name="seven" unicode="7" 
d="M397 486h-203q-79 0 -91 -10q-6 -6 -12 -27q-7 -18 -19 -18q-21 0 -21 12q0 6 4 24l29 131q6 29 10 35.5t11 6.5q10 0 14.5 -2.5t6 -6t2.5 -11.5q3 -18 17.5 -22t60.5 -4h147q26 0 59 4q2 0 11.5 2t18 3.5t10.5 1.5q9 0 18 -9.5t9 -15.5q0 -1 -4.5 -10t-10.5 -19.5
t-6 -11.5q-38 -75 -97 -241q-2 -5 -37 -106t-52 -142q-27 -65 -75 -65q-29 0 -44 19t-15 41q0 25 36 84q8 14 106.5 170.5t116.5 186.5z" />
    <glyph glyph-name="eight" unicode="8" 
d="M336 358q30 -18 47 -30t40.5 -34.5t34.5 -52t11 -66.5q0 -81 -63 -135.5t-167 -54.5q-102 0 -149.5 47.5t-47.5 107.5q0 33 13 59.5t37 44.5t40 26.5t40 18.5q-47 28 -78 71.5t-31 99.5q0 76 54.5 121t147.5 45q87 0 135.5 -39.5t48.5 -96.5q0 -82 -113 -132zM308 373
q57 41 57 118q0 49 -31 80t-71 31q-41 0 -68 -25t-27 -66q0 -36 33 -69t107 -69zM196 273q-64 -41 -64 -133q0 -61 33.5 -94.5t84.5 -33.5q54 0 82 33.5t28 72.5q0 16 -4 28t-18.5 30.5t-49.5 42.5t-92 54z" />
    <glyph glyph-name="nine" unicode="9" 
d="M321 253q-48 -57 -116 -57q-67 0 -119.5 52.5t-52.5 150.5q0 92 53 159.5t154 67.5q110 0 168.5 -83t58.5 -212q0 -154 -78.5 -250t-214.5 -96q-77 0 -111 29t-34 59q0 21 14.5 35.5t37.5 14.5q24 0 41.5 -15.5t17.5 -41.5v-10v-16v-9q5 -22 39 -22q128 0 142 244z
M248 241q39 0 58 45.5t19 106.5q0 119 -19 164t-57 45q-42 0 -60 -48t-18 -143q0 -170 77 -170z" />
    <glyph glyph-name="colon" unicode=":" horiz-adv-x="275" 
d="M137 150q35 0 59 -24t24 -59q0 -34 -24.5 -58t-58.5 -24t-58 24t-24 58t24 58.5t58 24.5zM137 382q35 0 59 -24t24 -58t-24 -58.5t-59 -24.5q-34 0 -58 24.5t-24 58.5t24 58t58 24z" />
    <glyph glyph-name="semicolon" unicode=";" horiz-adv-x="273" 
d="M137 382q35 0 59 -24t24 -58t-24 -58.5t-59 -24.5q-34 0 -58 24.5t-24 58.5t24 58t58 24zM197 31q-26 -46 -73 -46q-35 0 -59 24t-24 60q0 35 25.5 58t58.5 23q50 0 80 -43.5t30 -107.5q0 -46 -15.5 -85.5t-37 -61.5t-40.5 -34t-30 -12q-8 0 -15 6t-7 14t6.5 15t29.5 21
q41 26 64.5 78.5t6.5 90.5z" />
    <glyph glyph-name="less" unicode="&#x3c;" 
d="M462 94l-414 170v83l414 169v-86l-329 -125l329 -124v-87z" />
    <glyph glyph-name="equal" unicode="=" 
d="M462 360h-414v86h414v-86zM462 164h-414v86h414v-86z" />
    <glyph glyph-name="greater" unicode="&#x3e;" 
d="M462 264l-414 -170v87l329 124l-329 125v86l414 -169v-83z" />
    <glyph glyph-name="question" unicode="?" horiz-adv-x="451" 
d="M163 303v-62q0 -30 -3 -40t-16 -10q-15 0 -18 12t-1 49l5 135q1 24 4 32.5t15 8.5q16 0 16 -18v-40q0 -21 6 -35t15.5 -19t15 -6.5t10.5 -1.5q63 0 63 140q0 184 -94 184q-22 0 -35.5 -9.5t-13.5 -24.5q0 -3 3.5 -20.5t3.5 -20.5q0 -18 -13.5 -31.5t-34.5 -13.5
q-23 0 -35.5 14.5t-12.5 34.5q0 36 34 67t107 31q100 0 168 -60t68 -157q0 -72 -45.5 -122t-112.5 -50q-48 0 -99 33zM147 150q34 0 58.5 -24.5t24.5 -58.5t-24.5 -58t-58.5 -24t-58 24t-24 58t24 58.5t58 24.5z" />
    <glyph glyph-name="at" unicode="@" horiz-adv-x="755" 
d="M480 431l11 26q8 18 12 20q1 0 21 3l42 2q25 1 25 -7q0 -4 -8 -28l-63 -182q-24 -72 -24 -95q0 -24 26 -24q41 0 96.5 70.5t55.5 162.5q0 96 -66 168.5t-181 72.5q-98 0 -174 -53t-113.5 -132t-37.5 -166q0 -132 81 -214t211 -82q62 0 121 21t111 69t77 116h37
q-43 -115 -136 -178.5t-212 -63.5q-149 0 -249 96.5t-100 250.5q0 160 109.5 267.5t265.5 107.5q70 0 127 -23.5t92 -62.5t53.5 -86t18.5 -98q0 -106 -71.5 -197t-166.5 -91q-44 0 -60 20.5t-12 65.5q-46 -86 -118 -86q-41 0 -64 26t-23 68q0 98 75 192.5t153 94.5
q51 0 58 -51zM439 446q-26 0 -54 -52q-78 -145 -78 -213q0 -29 19 -29q26 0 69 73q29 49 47 102.5t18 86.5q0 32 -21 32z" />
    <glyph glyph-name="A" unicode="A" horiz-adv-x="654" 
d="M374 214h-188l-21 -54q-27 -66 -27 -94q0 -17 10 -23t36 -9q19 -2 19 -18q0 -19 -22 -19q-7 0 -41.5 1.5t-40.5 1.5t-37.5 -1.5t-36.5 -1.5q-20 0 -20 17q0 11 4.5 14t19.5 6q17 2 29.5 9.5t22.5 22t14.5 24.5t13.5 31l206 507q13 30 17.5 36.5t14.5 6.5q11 0 17 -9
t16 -37l150 -432q47 -132 62 -147q9 -10 29 -10q28 -2 28 -20q0 -19 -20 -19q-11 0 -67 1.5t-65 1.5t-55.5 -1.5t-54.5 -1.5q-22 0 -22 19q0 7 1 10t5.5 5t11 2.5t21.5 1.5h1q8 1 11.5 1.5t6.5 3.5t3 9q0 11 -13 50zM199 250h162l-75 221z" />
    <glyph glyph-name="B" unicode="B" horiz-adv-x="620" 
d="M110 122v422q0 43 -5 51.5t-32 9.5q-15 0 -21.5 0.5t-11 5t-4.5 14.5q0 19 22 19q12 0 74 -1.5t72 -1.5q6 0 57 1.5t66 1.5q109 0 162 -42t53 -106q0 -65 -45.5 -104.5t-113.5 -49.5q45 -1 81 -12.5t58 -28.5t36 -39.5t19.5 -44t5.5 -43.5q0 -20 -4.5 -40.5t-19 -47
t-37.5 -46.5t-66 -34t-99 -14q-32 0 -90.5 4t-84.5 4q-39 0 -80 -4t-42 -4q-23 0 -23 20q0 13 10 17t35 6q17 1 22.5 19.5t5.5 67.5zM252 609v-253q84 1 113.5 26t29.5 105q0 70 -23 98.5t-80 28.5q-23 0 -40 -5zM252 326v-210q0 -23 0.5 -33t4 -24.5t11.5 -21t22 -11
t36 -4.5q43 0 67.5 32.5t24.5 119.5q0 96 -38 124t-128 28z" />
    <glyph glyph-name="C" unicode="C" horiz-adv-x="660" 
d="M379 659q36 0 68 -7t47.5 -14t43.5 -21q11 -6 17 -6q5 0 7 2.5t10 19.5q7 14 19 14q19 0 19 -19q0 -10 -1.5 -40t-1.5 -40q0 -16 1.5 -52t1.5 -41q0 -22 -20 -22q-13 0 -16.5 7t-7.5 34q-9 62 -50 105.5t-112 43.5q-53 0 -91.5 -29.5t-58.5 -79t-29 -101.5t-9 -108
q0 -50 8 -95t26.5 -90.5t57 -73t92.5 -27.5q20 0 40.5 4.5t47 17t49 40t34.5 67.5q1 3 4.5 18t7 28t5.5 17q3 8 15 8q20 0 20 -24q0 -5 -3.5 -59t-3.5 -63q0 -10 1 -31.5t1 -30.5q0 -19 -15 -19q-13 0 -23 20q-7 15 -9.5 18t-6.5 3q-7 0 -37 -15q-57 -35 -153 -35
q-153 0 -243 97.5t-90 229.5q0 140 96.5 244.5t241.5 104.5z" />
    <glyph glyph-name="D" unicode="D" horiz-adv-x="710" 
d="M109 170v283q0 122 -7 138q-3 8 -10.5 9.5t-33.5 4.5q-23 2 -23 20q0 19 24 19q13 0 79.5 -1.5t77.5 -1.5q9 0 57 1.5t56 1.5q87 0 154.5 -28.5t106.5 -76t59 -104.5t20 -120q0 -62 -19 -119t-55 -104t-96 -75t-136 -28q-15 0 -99 6q-68 5 -96 5q-9 0 -61 -2t-60 -2
q-22 0 -22 18q0 14 8 17t35 4q30 1 35 22q6 26 6 113zM256 472v-339q0 -35 1 -50.5t7.5 -32.5t21 -22.5t40.5 -5.5q95 0 136.5 79t41.5 231q0 141 -48.5 211.5t-152.5 70.5q-3 0 -44 -3q-3 -40 -3 -139z" />
    <glyph glyph-name="E" unicode="E" horiz-adv-x="600" 
d="M257 608v-252q58 0 83 13t32 58q5 30 8 37t14 7q19 0 19 -27q0 -7 -1.5 -46t-1.5 -45q0 -23 1.5 -68t1.5 -52q0 -19 -4 -26.5t-17 -7.5q-11 0 -14 6.5t-6 35.5q-5 46 -28 64t-87 18v-184q0 -83 5 -93q6 -13 40 -13q121 0 167.5 26t60.5 97q0 2 1 6l1.5 6t1.5 5.5t2 5.5
t2 5t3 4.5l4 3t4.5 2t5.5 0.5q15 0 17 -17l-1 -40l-5 -110q-1 -19 -4.5 -24.5t-15.5 -5.5q-19 0 -115 1.5t-129 1.5q-78 0 -160 -1.5t-91 -1.5q-21 0 -21 19q0 20 28 20q21 0 29 1t14.5 11t7.5 26.5t1 53.5v398q0 46 -6 61t-30 16h-4q-25 1 -28 11q-1 4 -1 8q0 22 32 22
q24 0 69.5 -1.5t69.5 -1.5q34 0 142 2t148 1q10 0 15 -4t6 -8.5t1 -14.5v-98q0 -27 -2.5 -34t-14.5 -7q-14 0 -19 22q-16 68 -60.5 86.5t-170.5 21.5z" />
    <glyph glyph-name="F" unicode="F" horiz-adv-x="549" 
d="M280 608h-23v-270q58 0 83.5 15.5t30.5 52.5q5 33 8 40t15 7q19 0 19 -22q0 -9 -1 -57.5t-1 -56.5q0 -9 1 -54.5t1 -52.5q0 -28 -21 -28q-11 0 -14.5 7t-5.5 34q-4 46 -26.5 64t-88.5 18v-179q0 -58 7.5 -72.5t38.5 -15.5q19 -1 27 -2t13 -5.5t5 -13.5q0 -14 -10 -17
t-39 -3q-11 0 -65.5 1.5t-64.5 1.5q-7 0 -54.5 -1.5t-63.5 -1.5q-21 0 -21 18q0 10 5.5 15t11.5 5.5t17 0.5q22 0 30 4t12 23t4 67v418q0 38 -6 47t-38 9q-16 0 -22.5 3t-6.5 14q0 14 7 18.5t23 4.5q15 0 89 -1.5t109 -1.5q66 0 151.5 1.5t89.5 1.5q11 0 14.5 -5.5
t3.5 -20.5v-66q0 -16 1.5 -46t1.5 -33q0 -23 -17 -23q-9 0 -13.5 8.5t-9.5 30.5q0 2 -0.5 3t-1 3t-0.5 3q-12 52 -56.5 81t-148.5 29z" />
    <glyph glyph-name="G" unicode="G" horiz-adv-x="725" 
d="M616 621q0 -5 -0.5 -42t-0.5 -53q0 -8 1.5 -37t1.5 -34q0 -24 -22 -24q-13 0 -17 8t-7 34q-8 61 -50 105.5t-112 44.5q-51 0 -88.5 -25.5t-57 -60.5t-31 -84t-14.5 -84t-3 -72q0 -39 4 -74.5t15.5 -74.5t29.5 -67t49 -46.5t72 -18.5q30 0 51 8.5t31.5 19.5t16 30.5t6 31
t0.5 31.5q0 33 -6.5 45.5t-30.5 14.5q-32 3 -38.5 5.5t-6.5 13.5q0 21 17 21q9 0 56 -1t55 -1q67 0 93 2q39 3 57 3q21 0 21 -19q0 -14 -7.5 -17t-31.5 -4q-11 0 -17.5 -5t-9.5 -18.5t-3.5 -26t-0.5 -40.5q0 -14 2.5 -49t2.5 -36q0 -10 -8 -10q-1 0 -18 6q-19 9 -43 9
q-21 0 -60 -15q-83 -32 -147 -32q-80 0 -144 28t-103 75t-59 104t-20 119q0 143 96.5 246.5t243.5 103.5q82 0 150 -36q24 -12 27 -12q9 0 17 14q11 19 23 19q18 0 18 -23z" />
    <glyph glyph-name="H" unicode="H" horiz-adv-x="761" 
d="M256 348h249v167q0 67 -6 78q-5 8 -35 11q-10 1 -14 2t-8.5 6t-4.5 13q0 19 22 19q10 0 60.5 -1.5t58.5 -1.5q10 0 61 1.5t59 1.5q22 0 22 -19q0 -13 -5.5 -16t-32.5 -5q-20 -1 -25 -13.5t-5 -56.5v-394q0 -51 2.5 -71.5t7.5 -25.5t20 -6q14 -1 21 -2t13 -6t6 -14
q0 -18 -23 -18q-10 0 -65 1.5t-64 1.5t-58 -1.5t-57 -1.5q-21 0 -21 18q0 14 6.5 17t29.5 5q25 1 30 16.5t5 86.5v172h-249v-213q0 -41 7 -51t36 -12q10 -1 13 -1.5t7.5 -2t5.5 -4.5t1 -9q0 -10 -4 -15.5t-8 -6t-11 -0.5q-11 0 -67.5 1.5t-65.5 1.5t-54.5 -1.5t-52.5 -1.5
q-24 0 -24 17q0 12 8 15t33 5q20 1 24.5 15t4.5 62v418q0 51 -4.5 62.5t-28.5 12.5q-14 1 -19.5 1.5t-10.5 5t-5 13.5q0 20 27 20q6 0 43 -1.5t43 -1.5q7 0 71 1.5t77 1.5q22 0 22 -20q0 -6 -1 -9.5t-6.5 -5.5t-9 -3t-16.5 -2q-25 -3 -30 -12.5t-5 -40.5v-203z" />
    <glyph glyph-name="I" unicode="I" horiz-adv-x="366" 
d="M257 495v-341q0 -39 1 -57t2.5 -33.5t7.5 -19.5t12.5 -6t21.5 -2q16 -1 22.5 -2t10 -5.5t3.5 -13.5q0 -12 -6 -15t-22 -3q-11 0 -65 1.5t-63 1.5q-10 0 -63.5 -1.5t-61.5 -1.5q-24 0 -24 20q0 13 7 16t30 3q31 0 35 21q5 24 5 125v352q0 46 -5.5 58t-29.5 12
q-12 0 -17 0.5t-10 5t-5 12.5q0 22 20 22q14 0 67 -1.5t61 -1.5q14 0 56 1.5t53 1.5q27 0 27 -19q0 -14 -6 -18t-18 -4q-29 0 -36.5 -8t-8.5 -39z" />
    <glyph glyph-name="J" unicode="J" horiz-adv-x="349" 
d="M248 522v-499q0 -246 -211 -246q-79 0 -111 28.5t-32 63.5q0 25 15.5 44t44.5 19q23 0 40 -13t17 -38q0 -4 -2.5 -24.5t-2.5 -23.5q0 -26 33 -26q39 0 50.5 39t11.5 124v562q0 51 -5.5 61t-36.5 11q-11 0 -16.5 1t-10 5.5t-4.5 13.5q0 20 24 20q9 0 57 -1.5t56 -1.5
q10 0 60 1.5t59 1.5q24 0 24 -19q0 -12 -5 -15.5t-28 -6.5q-19 -2 -23 -15t-4 -66z" />
    <glyph glyph-name="K" unicode="K" horiz-adv-x="666" 
d="M359 391l225 -293q24 -32 40.5 -44.5t36.5 -15.5q21 -3 26 -6t5 -16q0 -14 -4.5 -16.5t-31.5 -2.5q-8 0 -61.5 1.5t-83.5 1.5q-11 0 -61.5 -1.5t-54.5 -1.5q-17 0 -17 17q0 14 5 18t21 4q27 0 27 9q0 11 -31 53l-149 205v-185q0 -57 6 -68t35 -13q18 -2 23 -4.5t5 -13.5
q0 -22 -28 -22q-9 0 -63 1.5t-65 1.5q-8 0 -51 -1.5t-50 -1.5q-23 0 -23 19q0 9 3.5 13t10.5 5t27 2q20 0 24 13.5t4 59.5v431q0 38 -4.5 49.5t-22.5 12.5q-24 1 -32.5 4t-8.5 16q0 22 19 22q16 0 56 -1.5t54 -1.5q25 0 65.5 1.5t51.5 1.5q30 0 30 -17q0 -23 -27 -23
q-23 0 -31 -10.5t-8 -46.5v-218q122 131 191 214q27 32 27 42q0 17 -28 21q-23 1 -28.5 3.5t-5.5 14.5q0 20 21 20q7 0 48.5 -1.5t49.5 -1.5q7 0 42 1.5t41 1.5q21 0 21 -20q0 -12 -6 -15.5t-26 -5.5q-35 -4 -65.5 -28.5t-89.5 -89.5z" />
    <glyph glyph-name="L" unicode="L" horiz-adv-x="595" 
d="M256 542v-373q0 -45 1.5 -68.5t3.5 -40t11.5 -22t17.5 -7t28 -1.5q97 0 141 24t62 91q3 10 6 23.5t4.5 19.5t4 12.5t6 9t9.5 2.5q22 0 20 -26l-7 -173q0 -9 -5 -12.5t-25 -3.5q-11 0 -108 1.5t-139 1.5q-67 0 -151.5 -1.5t-97.5 -1.5q-6 0 -9 0.5t-6 5.5t-3 14
q0 12 7 15.5t36 5.5q33 3 39.5 19t6.5 83v335q0 62 -2.5 87.5t-7 31.5t-17.5 8q-2 0 -21 1t-22 2q-10 4 -10 17q0 22 30 22q9 0 64 -1.5t63 -1.5q14 0 64 1.5t66 1.5q14 0 20 -4t6 -17q0 -9 -5.5 -13.5t-14 -5.5t-28.5 -1q-23 0 -30.5 -13t-7.5 -48z" />
    <glyph glyph-name="M" unicode="M" horiz-adv-x="832" 
d="M414 206l135 363q20 55 28 66q7 9 24 9q9 0 41 -1.5t37 -1.5q7 0 44 1.5t43 1.5q10 0 14.5 -0.5t9 -6t4.5 -15.5q0 -19 -23 -19q-35 0 -42 -9.5t-7 -44.5v-459q0 -24 1 -33t7.5 -15t20.5 -6q18 -1 24 -2t10 -5t4 -14q0 -13 -2.5 -15.5t-17.5 -2.5q-16 0 -52.5 1.5
t-57.5 1.5q-7 0 -59 -1.5t-74 -1.5q-20 0 -20 19q0 14 6.5 17t28.5 3q29 -1 34 8.5t5 56.5v445l-186 -497q-20 -51 -21 -53q-6 -9 -15 -9q-10 0 -14.5 8.5t-17.5 45.5l-175 501v-393q0 -67 11.5 -87.5t47.5 -26.5q20 -5 20 -19q0 -19 -16 -19q-12 0 -41 1.5t-44 1.5
q-16 0 -45 -1.5t-32 -1.5q-21 0 -21 18q0 12 4.5 15t26.5 8q32 7 40 22t8 62v430q0 35 -6 43.5t-35 8.5q-35 0 -35 19q0 21 28 21q13 0 43.5 -1.5t43.5 -1.5q14 0 46.5 1.5t41.5 1.5q25 0 32 -20q2 -5 11 -31.5t10 -28.5z" />
    <glyph glyph-name="N" unicode="N" horiz-adv-x="676" 
d="M151 527v-379q0 -109 63 -109q29 0 29 -20q0 -22 -22 -22q-5 0 -44.5 1.5t-50.5 1.5q-10 0 -46 -1.5t-42 -1.5q-20 0 -20 19q0 14 5.5 18.5t24.5 4.5q62 0 62 109v430q-19 17 -29.5 21.5t-37.5 4.5q-12 0 -17 0.5t-9 5t-4 13.5q0 11 4 16t17 5q8 0 52.5 -1.5t51.5 -1.5
q6 0 43.5 1.5t51.5 1.5q11 0 16 -4t17 -21l269 -367v270q0 46 -14.5 64t-50.5 18q-24 0 -24 19q0 21 23 21q1 0 29.5 -1.5t52.5 -1.5q15 0 46.5 1.5t36.5 1.5q10 0 15.5 -1t9.5 -5.5t4 -13.5q0 -12 -5.5 -16t-19.5 -4q-32 0 -47 -20t-15 -66v-475q0 -42 -2 -51t-14 -9
q-8 0 -13 4.5t-21 27.5z" />
    <glyph glyph-name="O" unicode="O" horiz-adv-x="748" 
d="M378 659q102 0 178.5 -50t113.5 -125.5t37 -162.5q0 -41 -9.5 -84t-34 -89.5t-61 -82.5t-96.5 -59t-134 -23q-73 0 -131.5 23t-95 58.5t-61 81.5t-34 89.5t-9.5 85.5q0 61 21 119.5t61 108t106.5 80t148.5 30.5zM377 629q-89 0 -125 -71t-36 -239q0 -52 2.5 -89t11.5 -81
t25 -71.5t46 -46t72 -18.5q50 0 82.5 22.5t49 68t22 97t5.5 127.5q0 148 -33 224.5t-122 76.5z" />
    <glyph glyph-name="P" unicode="P" horiz-adv-x="584" 
d="M251 315v-205q0 -50 6.5 -61.5t36.5 -12.5q26 0 33.5 -3.5t7.5 -18.5q0 -17 -19 -17q-11 0 -68.5 1.5t-67.5 1.5q-9 0 -60 -1.5t-59 -1.5q-21 0 -21 19q0 20 24 20q33 0 39 10t6 54v454q0 33 -4 41t-25 8q-26 0 -33.5 3t-7.5 15q0 23 28 23q18 0 62.5 -1.5t50.5 -1.5
q10 0 76 1.5t75 1.5q109 0 168.5 -45.5t59.5 -120.5q0 -81 -57 -123.5t-153 -42.5q-51 0 -98 3zM286 611h-35v-263q148 -16 148 138q0 125 -113 125z" />
    <glyph glyph-name="Q" unicode="Q" horiz-adv-x="748" 
d="M402 -16q-43 -27 -83 -42q78 4 148 -9.5t105 -28t97 -45.5q46 -22 67 -22q28 0 54 26q6 6 11 6t9.5 -3.5t4.5 -10.5q0 -11 -10 -28.5t-29 -37t-55 -33.5t-81 -14q-49 0 -79.5 16t-112.5 82q-64 52 -118 68q-24 7 -41 7q-23 0 -29 -17q-4 -13 -7 -19.5t-10 -12.5t-17 -6
q-14 0 -21.5 9.5t-7.5 20.5q0 27 39 41q92 41 113 52q-72 5 -128 32t-89 63t-54.5 82t-29 85t-7.5 76q0 60 20 117.5t59 108t106 81.5t152 31q103 0 180 -50.5t113 -126t36 -161.5q0 -139 -85 -236.5t-220 -100.5zM377 629q-89 0 -125 -71t-36 -239q0 -52 2.5 -89t11.5 -81
t25 -71.5t46 -46t72 -18.5q50 0 82.5 22.5t49 68t22 97t5.5 127.5q0 148 -33 224.5t-122 76.5z" />
    <glyph glyph-name="R" unicode="R" horiz-adv-x="675" 
d="M252 312v-205q0 -48 4.5 -58t28.5 -13q28 -3 34 -5.5t6 -14.5q0 -10 -5 -14t-10.5 -4.5t-22.5 -0.5q-12 0 -59 1.5t-70 1.5q-10 0 -49.5 -1.5t-51.5 -1.5q-23 0 -23 20q0 9 4.5 13t11 5t25.5 2q24 2 29.5 11.5t5.5 54.5v441q0 41 -6 51t-31 10q-17 0 -23.5 0.5t-11 5
t-4.5 13.5q0 20 23 20q14 0 63.5 -1.5t50.5 -1.5q29 0 86 3q64 4 83 4q117 0 169 -45t52 -112q0 -56 -32 -94t-76 -53t-97 -16q74 -10 109 -44.5t69 -118.5q20 -49 34.5 -72.5t22 -27t20.5 -3.5q20 0 35 25q1 2 3 5q7 12 14 12q19 0 19 -21q0 -35 -34.5 -67.5t-101.5 -32.5
q-42 0 -72.5 13t-46.5 29t-27 45.5t-14 47t-7 48.5q-6 52 -11.5 77t-19.5 43.5t-35 23t-61 2.5zM252 612v-267q19 0 31.5 1t37 8t40 20.5t28 42.5t12.5 69q0 37 -9.5 62t-20.5 37.5t-33.5 19t-35.5 7t-39 0.5h-11z" />
    <glyph glyph-name="S" unicode="S" horiz-adv-x="528" 
d="M245 659q46 0 90 -17q32 -12 42 -12q15 0 39 18q8 7 17 7q14 0 14 -15q0 -6 -3 -44t-3 -53q0 -3 0.5 -31.5t0.5 -39.5q0 -16 -18 -16q-13 0 -16 6t-6.5 31.5t-11.5 50.5q-11 34 -46 57t-76 23q-49 0 -76.5 -25t-27.5 -68q0 -41 24.5 -64.5t83.5 -45.5q127 -47 172.5 -90
t45.5 -124q0 -93 -60 -158.5t-163 -65.5q-65 0 -103 21q-44 24 -52 24q-10 0 -19 -11q-25 -23 -30 -24q-6 0 -9 1t-4.5 5t-1.5 7v10v5q0 7 2 39.5t2 38.5q0 7 -2 50t-2 50q0 23 18 23q13 0 17 -10t12 -59q9 -57 46 -96t105 -39q56 0 85.5 32.5t29.5 87.5q0 80 -79 114
q-6 3 -38.5 16.5t-39.5 16.5t-33 15.5t-33.5 19t-26 20.5t-24.5 25.5t-15.5 28t-12.5 35.5t-3 41q0 75 47 132t142 57z" />
    <glyph glyph-name="T" unicode="T" horiz-adv-x="695" 
d="M421 608v-485q0 -61 4.5 -73.5t31.5 -13.5q36 -2 39 -7q3 -4 3 -11q0 -21 -25 -21q-18 0 -66 1.5t-66 1.5q-11 0 -67 -1.5t-65 -1.5q-24 0 -24 19q0 21 26 21q20 0 28.5 1t17.5 7t11 18q5 25 5 83v462q-102 0 -146 -24t-59 -86q-9 -35 -13 -43t-16 -8q-19 0 -19 23
q0 69 3 156q0 18 20 18q10 0 39.5 -1t97 -1.5t169.5 -0.5q106 0 175 0.5t96 1.5t31 1q19 0 19 -19q0 -9 1 -55.5t1 -54.5l1 -40q1 -28 -18 -28q-6 0 -9.5 1.5t-6.5 7t-4.5 10.5t-5.5 19q-10 36 -20.5 56t-32.5 37t-59.5 23.5t-96.5 6.5z" />
    <glyph glyph-name="U" unicode="U" horiz-adv-x="686" 
d="M588 501v-241q0 -48 -3 -81t-16 -73.5t-37 -64.5t-69 -41t-108 -17q-137 0 -196 60t-59 170v328q0 36 -5.5 47.5t-28.5 12.5q-18 1 -24 4t-6 16q0 11 5.5 16t11 6t16.5 1q8 0 50 -1.5t49 -1.5q9 0 58 1.5t58 1.5q29 0 29 -23q0 -13 -6 -15.5t-27 -3.5q-23 -1 -28 -18
t-5 -76v-301q0 -84 40.5 -128t107.5 -44q74 0 113 46t39 157v263q0 56 -10 75.5t-39 23.5q-22 3 -30 7t-8 16q0 21 26 21q5 0 40.5 -1.5t42.5 -1.5q6 0 34.5 1.5t33.5 1.5q30 0 30 -23q0 -9 -5 -12.5t-28 -9.5q-28 -8 -37 -27t-9 -71z" />
    <glyph glyph-name="V" unicode="V" horiz-adv-x="667" 
d="M379 163l124 313q30 76 30 95q0 12 -9 19.5t-17 9.5t-24 5q-18 2 -18 18q0 21 17 21q5 0 34.5 -1.5t44.5 -1.5t43 1.5t38 1.5q20 0 20 -18q0 -13 -5 -17t-17 -5q-29 -2 -46 -20.5t-37 -68.5l-199 -506q-11 -27 -17.5 -36t-16.5 -9q-9 0 -14 7.5t-17 37.5l-218 545
q-13 31 -18.5 38.5t-20.5 9.5q-19 2 -25 6t-6 15q0 21 23 21q111 -3 112 -3q14 0 58 1.5t55 1.5q22 0 22 -18q0 -14 -8 -17.5t-28 -4.5q-9 -1 -12 -1t-7.5 -1.5t-6 -4t-1.5 -7.5q0 -6 13 -38z" />
    <glyph glyph-name="W" unicode="W" horiz-adv-x="931" 
d="M690 198l82 261q24 75 24 99q0 37 -44 41q-11 1 -15 2t-8.5 6t-4.5 14q0 23 23 23q6 0 37 -1.5t36 -1.5q7 0 44.5 1.5t43.5 1.5q18 0 18 -17q0 -15 -4.5 -19t-24.5 -8q-14 -3 -22.5 -7.5t-21.5 -25t-25 -58.5l-161 -499q-9 -29 -14.5 -36.5t-15.5 -7.5q-8 0 -13.5 7
t-15.5 37l-156 462l-147 -457q-11 -33 -16 -41t-15 -8t-14.5 7t-12.5 31l-176 553q-9 27 -14.5 35t-20.5 10q-2 0 -5.5 0.5t-5 1t-4.5 1t-4 1t-3.5 1.5t-3 2t-2 2.5t-2 3t-1 4t-0.5 5.5q0 20 25 20q15 0 49.5 -1.5t39.5 -1.5q10 0 60 1.5t58 1.5q21 0 21 -18q0 -22 -28 -23
q-24 0 -24 -15q0 -7 6 -25l115 -358l104 325l-6 19q-10 32 -19.5 42.5t-27.5 12.5q-12 1 -16.5 2t-8.5 5.5t-4 12.5q0 20 22 20q10 0 60.5 -1.5t58.5 -1.5t50.5 1.5t49.5 1.5q24 0 24 -20q0 -9 -4 -13.5t-6.5 -5t-9.5 -1.5q-20 -1 -27 -3.5t-7 -12.5q0 -12 11 -39z" />
    <glyph glyph-name="X" unicode="X" horiz-adv-x="668" 
d="M360 404l63 84q57 75 57 94q0 22 -39 22q-21 0 -21 19q0 21 22 21q12 0 45 -1.5t39 -1.5q12 0 36 1.5t37 1.5q18 0 18 -21q0 -11 -5.5 -15t-20.5 -4q-33 0 -79 -61l-130 -172l179 -271q42 -62 69 -62q20 0 26 -4t6 -17q0 -20 -18 -20q-12 0 -66 1.5t-64 1.5
q-8 0 -55 -1.5t-54 -1.5q-16 0 -22.5 0.5t-11.5 5t-5 13.5q0 14 5 18t21 4q32 0 32 13q0 9 -25 46l-109 164l-89 -120q-44 -60 -44 -79q0 -24 35 -24q24 0 24 -20q0 -21 -26 -21q-1 0 -31.5 1.5t-44.5 1.5q-8 0 -40.5 -1.5t-48.5 -1.5q-17 0 -17 18q0 15 4.5 19t18.5 4
q43 0 99 73l139 183l-175 262q-19 29 -31 38.5t-32 9.5q-15 0 -20 3.5t-5 15.5q0 21 28 21q23 0 73 -1.5t54 -1.5q8 0 49 1.5t59 1.5q24 0 24 -20t-22 -20q-29 0 -29 -13q0 -10 20 -41z" />
    <glyph glyph-name="Y" unicode="Y" horiz-adv-x="654" 
d="M392 296l107 222q20 40 20 54q0 27 -33 32q-12 1 -17.5 2.5t-9 6t-3.5 12.5q0 19 22 19q15 0 44 -1.5t32 -1.5q12 0 43 1.5t36 1.5t7.5 -0.5t5.5 -5t3 -12.5q0 -10 -3.5 -15t-7 -5.5t-10.5 -0.5q-25 -1 -38.5 -14.5t-28.5 -43.5l-152 -297v-156q0 -38 4.5 -46t28.5 -9
q34 -1 41.5 -4t7.5 -17q0 -21 -22 -21q-10 0 -65 1.5t-64 1.5q-11 0 -72.5 -1.5t-71.5 -1.5q-16 0 -16 18q0 12 8 17t37 5q27 0 32 9.5t5 50.5v150l-174 309q-17 30 -26 38.5t-28 10.5q-20 2 -24.5 4.5t-4.5 13.5q0 21 18 21q16 0 59 -1.5t51 -1.5q14 0 66.5 1.5t64.5 1.5
q19 0 24.5 -3t5.5 -15q0 -10 -3 -15t-6 -5.5t-10 -0.5h-20t-13 -1.5t-9 -4.5t-2 -9t10 -25z" />
    <glyph glyph-name="Z" unicode="Z" horiz-adv-x="584" 
d="M40 56l333 552h-54q-90 0 -139 -14.5t-64.5 -37.5t-19.5 -64q-2 -23 -20 -23t-18 21v130q0 24 23 24q10 0 101 -1.5t126 -1.5q37 0 90 0.5t92 1.5t42 1q19 0 19 -14q0 -8 -20 -41l-333 -556h105q93 0 134.5 17.5t61.5 74.5q2 7 6.5 21.5t7.5 25t4 11.5q5 7 14 7
q19 0 19 -20q0 -74 -6 -152q-1 -15 -5 -19.5t-16 -4.5q-2 0 -92.5 3t-138.5 3q-44 0 -145 -3t-110 -3q-19 0 -19 15q0 10 22 47z" />
    <glyph glyph-name="bracketleft" unicode="[" horiz-adv-x="355" 
d="M198 627v-830h95l18 -1q11 0 14.5 -3t3.5 -15q0 -17 -6 -18q-2 -1 -34 -1h-160q-28 0 -33 5q-3 4 -3 32v824q0 38 7 42q6 3 43 3h167q10 0 13 -0.5t5 -4t2 -11.5q0 -19 -4 -21q-2 -1 -33 -1h-95z" />
    <glyph glyph-name="backslash" unicode="\" horiz-adv-x="355" 
d="M329 -241h-18q-14 0 -18 5.5t-13 31.5l-267 842q-5 19 -5 20q0 7 20 7h15q15 0 19 -3.5t10 -24.5l269 -849q0 -2 3 -11.5t3 -11.5q0 -6 -18 -6z" />
    <glyph glyph-name="bracketright" unicode="]" horiz-adv-x="355" 
d="M157 -203v830h-95l-18 1q-11 0 -14.5 3t-3.5 15q0 17 6 18q2 1 34 1h160q28 0 33 -5q3 -4 3 -32v-824q0 -38 -7 -42q-6 -3 -43 -3h-167q-10 0 -13 0.5t-5 4t-2 11.5q0 19 4 21q2 1 33 1h95z" />
    <glyph glyph-name="asciicircum" unicode="^" 
d="M440 299h-80l-105 234l-105 -234h-80l144 312h82z" />
    <glyph glyph-name="underscore" unicode="_" horiz-adv-x="500" 
d="M0 -125v50h500v-50h-500z" />
    <glyph glyph-name="grave" unicode="`" horiz-adv-x="333" 
d="M114 603l98 -107q24 -28 24 -35t-5.5 -10.5t-9.5 -3.5q-9 0 -88 49q-77 41 -93 53q-25 20 -25 45q0 19 13 31t32 12q25 0 54 -34z" />
    <glyph glyph-name="a" unicode="a" horiz-adv-x="439" 
d="M372 245l-4 -136q-1 -41 2 -54.5t16 -13.5q8 0 19 11q9 9 14 9q14 0 14 -16q0 -18 -25 -39t-69 -21q-82 0 -93 66q-66 -66 -126 -66q-41 0 -67.5 23.5t-26.5 68.5q0 67 66 112t155 56q1 91 -5 109q-10 32 -52 32t-44 -34q-1 -21 -2 -30t-6 -21.5t-15.5 -17.5t-28.5 -5
q-24 0 -38.5 13t-14.5 34q0 11 4.5 22.5t18 27t47.5 25.5t85 10t86 -9.5t53 -22t27 -37.5t10 -43.5t0 -52.5zM242 122l4 98q-102 -25 -102 -101q0 -27 14.5 -45.5t36.5 -18.5t48 21z" />
    <glyph glyph-name="b" unicode="b" horiz-adv-x="515" 
d="M67 158v358q0 76 -6 87q-4 10 -30 11q-17 1 -17 16q0 11 5.5 14t24.5 6q6 0 9 1q62 9 97 18q29 7 34 7q12 0 12 -13q0 -47 -1 -99l-3 -235q39 81 118 81q45 0 79.5 -20.5t54 -53t29.5 -67.5t10 -70q0 -85 -51.5 -147.5t-132.5 -62.5q-76 0 -107 67q0 -53 -5 -61
q-4 -6 -9 -6l-16 2q-15 2 -32 4t-22 2q-6 0 -39.5 1.5t-39.5 2.5q-20 2 -20 18q0 11 6 14t28 5q11 1 15 7.5t6.5 31.5t2.5 81zM270 365q-75 0 -75 -188q0 -33 2 -55.5t9 -44t21 -32.5t36 -11q76 0 76 170q0 70 -18.5 115.5t-50.5 45.5z" />
    <glyph glyph-name="c" unicode="c" horiz-adv-x="424" 
d="M263 410q68 0 105.5 -30t37.5 -69q0 -22 -15 -40t-41 -18q-25 0 -38 13t-13 28q0 8 4.5 28t4.5 27q0 37 -40 37q-47 0 -70.5 -53t-23.5 -121q0 -24 3 -46.5t12.5 -53t32 -49t56.5 -18.5q55 0 90 49q10 14 18 14q15 0 15 -14q0 -6 -4.5 -17t-17 -27.5t-30.5 -30.5
t-49.5 -24t-70.5 -10q-84 0 -140.5 55.5t-56.5 142.5q0 89 61.5 158t169.5 69z" />
    <glyph glyph-name="d" unicode="d" horiz-adv-x="516" 
d="M321 353l6 180q1 2 0.5 35t-2.5 41q-3 13 -30 13q-8 0 -12 0.5t-7.5 5t-3.5 13.5q0 7 1 10t6 5t9 2.5t17 1.5q71 5 103 10q5 1 14.5 2.5t15.5 2.5t7 1q15 0 15 -18q0 -7 -2 -40.5t-2 -39.5q0 -61 -3.5 -185t-3.5 -186q0 -129 3 -148q3 -22 31 -24q17 -1 17 -20
q0 -7 -2.5 -10.5t-5.5 -4t-11 -0.5q-37 0 -80 -3q-2 0 -30 -4t-33 -4q-8 0 -11.5 3.5t-4 8.5t-0.5 17l-1 42q-52 -71 -132 -71q-65 0 -111 51t-46 139q0 56 18 107t60.5 87.5t101.5 36.5q61 0 109 -57zM320 170l1 88q0 107 -67 107q-78 0 -78 -170q0 -154 73 -154
q70 0 71 129z" />
    <glyph glyph-name="e" unicode="e" horiz-adv-x="429" 
d="M358 239h-194q0 -83 30 -135t91 -52q57 0 86 51q2 3 4 7q4 7 5.5 9.5t3.5 3.5t5 1q15 0 15 -16q0 -9 -8 -26.5t-25.5 -40.5t-55.5 -39.5t-88 -16.5q-91 0 -143 54.5t-52 141.5q0 102 63 165.5t145 63.5q44 0 79 -18.5t52.5 -45t26 -49.5t8.5 -39q0 -13 -9 -16t-39 -3z
M165 272h74q28 0 37 1t14.5 7t5.5 22q0 34 -14 59t-43 25q-60 0 -73 -109q-1 -4 -1 -5z" />
    <glyph glyph-name="f" unicode="f" horiz-adv-x="280" 
d="M73 395v59q0 107 50.5 164.5t146.5 57.5q35 0 59 -8.5t33.5 -22t13 -23.5t3.5 -20q0 -25 -15 -39t-37 -14q-21 0 -37 11.5t-16 35.5q0 4 3.5 21.5t3.5 20.5q0 14 -22 14q-34 0 -44 -40t-10 -124v-93h50q14 0 17 -2.5t3 -17.5q0 -16 -4 -18.5t-24 -2.5h-42v-273
q0 -33 4 -40.5t21 -7.5q15 -1 20.5 -1.5t9.5 -4t4 -11.5q0 -19 -23 -19q-9 0 -55 1.5t-54 1.5t-45.5 -1.5t-43.5 -1.5q-22 0 -22 20q0 7 2.5 10.5t7 4.5t15.5 2q20 2 23.5 10t3.5 41v269h-35q-14 0 -17 2t-3 15q0 18 3.5 21t21.5 3h30z" />
    <glyph glyph-name="g" unicode="g" horiz-adv-x="466" 
d="M311 373q21 21 39.5 31t48.5 10q36 0 54.5 -15t18.5 -38q0 -17 -11.5 -27.5t-27.5 -10.5q-27 0 -38 28q-8 21 -12 26.5t-13 5.5q-19 0 -44 -25q42 -46 42 -106q0 -54 -32 -95.5t-107 -48.5q-69 -7 -80 -15q-9 -6 -9 -19q0 -8 3 -13.5t11 -9t15 -5.5t20.5 -2.5t22 -1
t25.5 0t25 0.5q196 0 196 -133q0 -16 -3.5 -33t-17 -42.5t-36 -45t-66.5 -33.5t-102 -14q-66 0 -112 12.5t-66.5 33t-28 38.5t-7.5 37q0 32 25 55.5t67 23.5q12 0 28 -2q-63 32 -63 86q0 21 7 37t22 27t20 14.5t19 9.5q-112 37 -112 144q0 56 40 104t126 48q17 0 32 -2
t25 -5t20.5 -8t15 -7.5t12 -8t8.5 -6.5zM204 386q-50 0 -50 -131q0 -69 11 -97.5t36 -28.5t36.5 30t11.5 103q0 68 -9.5 96t-35.5 28zM158 -67q11 -7 11 -13q0 -4 -2.5 -5.5t-16.5 -5.5q-24 -7 -34.5 -18t-10.5 -34q0 -38 33.5 -63t96.5 -25q60 0 96 24t36 66q0 30 -25 45.5
t-80 16.5q-68 2 -104 12z" />
    <glyph glyph-name="h" unicode="h" horiz-adv-x="519" 
d="M455 274v-219q0 -21 16 -22q19 0 25.5 -2.5t6.5 -15.5q0 -18 -17 -18q-8 0 -52.5 1.5t-51.5 1.5t-43 -1.5t-42 -1.5q-21 0 -21 19q0 8 3.5 12t7.5 4.5t15 1.5q15 0 18 6.5t3 29.5v209q0 17 -1 27t-5.5 22.5t-16 18.5t-30.5 6q-42 0 -63 -42q-11 -21 -11 -90v-149
q0 -16 0.5 -22.5t4 -11t11.5 -4.5q12 -1 16 -1.5t8 -4.5t4 -12q0 -19 -21 -19q-6 0 -43.5 1.5t-44.5 1.5t-45.5 -1.5t-45.5 -1.5q-21 0 -21 20q0 19 26 19q16 0 19.5 8t3.5 36v502q0 15 -1 20.5t-4.5 8.5t-13.5 3h-29q-8 3 -8 17q0 12 5.5 15.5t27.5 5.5q66 8 125 22
q6 2 15 2q14 0 14 -16q0 -10 -1.5 -62t-1.5 -60v-203q53 70 132 70q38 0 65 -12.5t39.5 -33.5t17.5 -41.5t5 -43.5z" />
    <glyph glyph-name="i" unicode="i" horiz-adv-x="268" 
d="M73 122v173q0 41 -5.5 50t-29.5 9q-22 0 -22 17q0 13 6.5 15.5t31.5 3.5q1 0 23.5 1.5t47.5 4t40 5.5q2 0 8.5 1t11 2t6.5 1q14 0 14 -17l-2 -42q-2 -6 -2 -78v-183q0 -33 3.5 -41.5t21.5 -8.5q19 0 26 -3.5t7 -15.5q0 -19 -16 -19q-9 0 -56.5 1.5t-55.5 1.5t-48 -1.5
t-47 -1.5q-21 0 -21 18q0 14 4.5 16.5t24.5 3.5q23 1 26 10q3 10 3 77zM132 676q25 0 48 -18t23 -57q0 -32 -18.5 -55t-53.5 -23q-23 0 -47 18t-24 57q0 40 21 59t51 19z" />
    <glyph glyph-name="j" unicode="j" horiz-adv-x="257" 
d="M200 272v-277q0 -70 -18.5 -119t-51 -73t-64.5 -33.5t-69 -9.5q-50 0 -83 18t-33 56q0 25 16 39.5t37 14.5q23 0 36 -14.5t13 -33.5q0 -3 -1 -15t-1 -14q0 -27 28 -27q37 0 48 49t11 134v333q0 24 -2 32t-12 8q-1 0 -13 -1.5t-14 -1.5q-13 0 -13 18q0 12 7 15.5t33 6.5
q54 6 122 25q10 3 16 3q13 0 13 -14q0 -8 -2.5 -58.5t-2.5 -60.5zM137 676q25 0 48 -18t23 -57q0 -32 -18.5 -55t-53.5 -23q-23 0 -47 18t-24 57q0 40 21 59t51 19z" />
    <glyph glyph-name="k" unicode="k" horiz-adv-x="483" 
d="M195 212l88 85q34 31 34 44t-29 19q-23 4 -23 20q0 18 27 18q6 0 38 -1.5t37 -1.5t35 1.5t36 1.5q21 0 21 -19q0 -12 -6.5 -15.5t-26.5 -3.5q-30 0 -71 -39l-55 -51l137 -195q16 -23 26.5 -31t25.5 -11q12 -3 12 -17q0 -19 -16 -19q-12 0 -51 1.5t-45 1.5t-43.5 -1.5
t-48.5 -1.5q-23 0 -23 18t18 18q13 0 13 7q0 5 -14 31l-67 126l-29 -27v-113q0 -9 1 -13.5t5.5 -7.5t13.5 -3q12 0 12 -15q0 -21 -24 -21q-10 0 -44 1.5t-39 1.5t-38.5 -1.5t-44.5 -1.5q-21 0 -21 18q0 12 5.5 15t23.5 3q14 0 18 9.5t4 45.5v509q0 14 -5.5 17.5t-30.5 3.5
q-20 0 -20 18q0 19 22 19q41 0 135 20q7 1 12 1q11 0 13 -7.5t2 -38.5v-418z" />
    <glyph glyph-name="l" unicode="l" horiz-adv-x="263" 
d="M196 567v-475q0 -38 7 -47t31 -11q20 -2 20 -17q0 -6 -0.5 -8t-2 -5.5t-6.5 -5t-13 -1.5q-9 0 -51.5 1.5t-50.5 1.5q-6 0 -47 -1.5t-56 -1.5q-17 0 -17 17q0 13 5.5 16.5t24.5 3.5q17 0 22.5 10t5.5 50v475q0 32 -4.5 42t-15.5 10q-24 0 -32 3.5t-8 14.5q0 8 3.5 12
t8 4.5t16.5 1.5q22 1 46 4t48.5 7.5t31.5 5.5q14 2 18 2q17 0 17 -25q0 -5 -0.5 -39t-0.5 -45z" />
    <glyph glyph-name="m" unicode="m" horiz-adv-x="773" 
d="M709 266v-181q0 -43 2 -46q3 -5 27 -6q9 -1 12.5 -1.5t6.5 -4.5t3 -12q0 -18 -17 -18q-7 0 -43.5 1.5t-42.5 1.5q-8 0 -50.5 -1.5t-49.5 -1.5q-14 0 -19 3.5t-5 14.5t4.5 14.5t18.5 3.5q15 0 18 6.5t3 35.5v179q0 24 -1 37t-5.5 29t-15.5 23t-29 7q-43 0 -60 -39
q-11 -24 -11 -70v-197q0 -3 0.5 -4.5t2 -3.5t5 -2.5t8.5 -0.5q13 0 18.5 -3.5t5.5 -15.5q0 -17 -19 -17q-7 0 -46 1.5t-45 1.5q-7 0 -42 -1.5t-40 -1.5q-24 0 -24 19q0 18 26 18q11 0 14 3q4 3 4 42v181q0 25 -1 37t-4.5 27.5t-13 22t-24.5 6.5q-7 0 -15 -2t-20 -10.5
t-21 -23.5t-16 -44.5t-7 -68.5v-119q0 -44 5 -48q1 -1 7 -2t12.5 -1.5t7.5 -0.5q11 -3 11 -17q0 -19 -21 -19q-8 0 -49 1.5t-48 1.5t-44 -1.5t-43 -1.5q-18 0 -18 15t7 18.5t27 4.5q13 1 15.5 6t2.5 30v215q0 24 -1 34t-6.5 17.5t-18.5 7.5q-8 0 -12 0.5t-8 5t-4 13.5
q0 12 6.5 15t42.5 7q20 2 93 16q14 3 20 3q12 0 14.5 -6.5t2.5 -23.5v-50q29 41 57.5 60.5t75.5 19.5q82 0 114 -73q45 73 128 73q132 0 132 -139z" />
    <glyph glyph-name="n" unicode="n" horiz-adv-x="524" 
d="M460 285v-210q0 -27 4 -33.5t18 -6.5q28 0 28 -17q0 -13 -4 -17t-13 -4q-8 0 -48.5 1.5t-46.5 1.5t-43.5 -1.5t-52.5 -1.5q-8 0 -11.5 0.5t-6 4.5t-2.5 13q0 13 6 16.5t26 3.5q8 0 11 8t3 37v209q0 19 -1 30.5t-9.5 24.5t-25.5 13q-28 0 -48.5 -23.5t-30.5 -47.5
q-12 -26 -12 -84v-142q0 -15 4 -20t15 -5q16 0 21 -3.5t5 -15.5t-4.5 -15.5t-17.5 -3.5q-12 0 -51 1.5t-46 1.5q-6 0 -39.5 -1.5t-46.5 -1.5q-18 0 -18 17q0 14 5.5 17t22.5 4q16 1 19 10t3 43v207q0 57 -26 57q-13 0 -18.5 3.5t-5.5 15.5q0 20 24 20q43 0 80 5q4 0 29 4.5
t30 4.5q4 0 7 -1.5t4.5 -4.5t2.5 -6t1 -8v-8.5v-10v-9.5v-42q47 90 139 90q38 0 64 -12.5t37 -34t15 -38.5t4 -35z" />
    <glyph glyph-name="o" unicode="o" horiz-adv-x="495" 
d="M245 410q101 0 159.5 -65t58.5 -147q0 -35 -14 -71.5t-40 -68.5t-69 -52.5t-94 -20.5q-96 0 -155 65.5t-59 145.5q0 83 61.5 148.5t151.5 65.5zM249 386q-39 0 -55.5 -47t-16.5 -141q0 -40 2 -67.5t8.5 -58.5t22 -47t38.5 -16q24 0 38.5 16t21 49.5t8.5 65t2 83.5
q0 80 -14.5 121.5t-54.5 41.5z" />
    <glyph glyph-name="p" unicode="p" horiz-adv-x="512" 
d="M195 37v-190q0 -34 3.5 -42t20.5 -9q22 -1 29 -2t10.5 -5t3.5 -13q0 -20 -23 -20q-6 0 -48 1.5t-50 1.5t-59 -1.5t-61 -1.5q-25 0 -25 19q0 20 27 20q32 0 38 7.5t6 44.5v436q0 53 -4.5 63.5t-22.5 10.5q-23 0 -27 2t-4 14q0 19 17 20q132 12 152 12q12 0 14.5 -6.5
t2.5 -28.5v-33q39 68 110 68q72 0 123.5 -59t51.5 -149q0 -25 -5.5 -52t-19 -56t-33 -52t-51.5 -37.5t-71 -14.5q-38 0 -60 12.5t-45 39.5zM195 253v-116q0 -111 69 -111q71 0 71 159q0 179 -71 179q-33 0 -51 -31.5t-18 -79.5z" />
    <glyph glyph-name="q" unicode="q" horiz-adv-x="505" 
d="M349 360l61 33q22 12 28 12q16 0 16 -19l-1 -29q0 -4 -2.5 -76t-2.5 -94v-337v-9v-9v-7.5t0.5 -7t1 -6t1 -5.5t2 -4.5t3.5 -4t4.5 -2.5t5.5 -1q21 -2 26.5 -4.5t5.5 -13.5q0 -20 -23 -20q-8 0 -51 1.5t-50 1.5q-8 0 -50 -1.5t-49 -1.5q-23 0 -23 20q0 13 7.5 16t32.5 3
q11 0 15.5 2t8 15t4 34t0.5 65v129q-17 -16 -28.5 -25.5t-37.5 -19.5t-56 -10q-73 0 -119.5 53.5t-46.5 143.5q0 103 58.5 163t141.5 60q66 0 117 -45zM320 157v83q0 74 -12 106t-52 32q-79 0 -79 -179q0 -95 19.5 -130t52.5 -35q40 0 55.5 30.5t15.5 92.5z" />
    <glyph glyph-name="r" unicode="r" horiz-adv-x="371" 
d="M201 144v-65q0 -32 6.5 -39t39.5 -7q9 0 12.5 -2.5t3.5 -10.5q0 -16 -4 -19.5t-18 -3.5q-8 0 -51 1.5t-49 1.5q-9 0 -49.5 -1.5t-47.5 -1.5q-17 0 -17 16q0 14 6 17t26 4q10 1 12 6.5t2 28.5v221q0 43 -4.5 54t-26.5 11q-20 0 -20 16q0 9 4 13.5t9 5.5t16 1q26 0 111 11
q2 0 14 2l12 1q11 0 11 -25v-70q37 100 112 100q31 0 48.5 -18t17.5 -42q0 -23 -15 -38.5t-36 -15.5q-35 0 -45 34q-1 4 -2.5 9t-2 7t-2 4.5t-4 3t-6.5 0.5q-16 0 -31 -27t-22 -58q-10 -46 -10 -125z" />
    <glyph glyph-name="s" unicode="s" horiz-adv-x="383" 
d="M180 410q22 0 44.5 -6t37 -11.5t15.5 -5.5q9 0 21 10q11 9 17 9q13 0 13 -18q0 -30 -2 -64q0 -6 -0.5 -21.5t-1.5 -18.5q-2 -11 -15 -11q-10 0 -14 6t-12 34q-9 29 -33 48t-54 19q-25 0 -42 -14.5t-17 -36.5t21 -39t88 -37q105 -30 105 -123q0 -65 -43.5 -105t-114.5 -40
q-44 0 -75 15q-29 14 -33 14q-6 0 -26 -14q-9 -7 -16 -7q-13 0 -13 14q0 7 1.5 28t4 43.5t2.5 26.5q1 21 2 27.5t5 10.5t13 4q13 0 16.5 -6t5.5 -27q11 -96 102 -96q34 0 51 19.5t17 44.5q0 31 -21.5 44t-100.5 39q-34 11 -59.5 39.5t-25.5 74.5q0 54 37 92.5t100 38.5z" />
    <glyph glyph-name="t" unicode="t" horiz-adv-x="305" 
d="M201 395h52h4q22 -1 25 -6q1 -4 1 -12q0 -20 -3.5 -23.5t-22.5 -3.5h-55l-5 -188q-1 -48 2 -72t11 -34.5t25 -10.5q22 0 34 26q8 18 18 18q16 0 16 -16q0 -31 -29 -59.5t-88 -28.5q-42 0 -69 11.5t-38.5 35t-14.5 48t-1 61.5l10 209h-14q-30 0 -30 16q0 5 4 10.5t9 9.5
t16 12t18 14q19 16 29 25.5t25.5 30t33.5 50.5q8 17 22 17q6 0 9 -2t4.5 -8.5t1.5 -12.5v-20v-97z" />
    <glyph glyph-name="u" unicode="u" horiz-adv-x="526" 
d="M329 233v89l-1 15q0 14 -4 18t-23 4q-12 0 -17 0.5t-8.5 4.5t-3.5 13q0 18 22 18q56 0 88 2t61 2q15 0 15 -14q0 -6 -0.5 -38.5t-0.5 -37.5v-186q0 -64 9 -76q6 -8 28 -10q14 -1 14 -16t-5 -18t-28 -4q-50 0 -103 -7q-12 -3 -27 -3q-11 0 -13 13q-3 26 -3 84
q-19 -30 -33 -47t-44.5 -33.5t-69.5 -16.5q-120 0 -120 130l2 45q2 46 3.5 96.5t1.5 65.5q0 22 -2 26.5t-13 5.5q-25 2 -31.5 5t-6.5 13q0 12 9 15t36 3q22 0 50 1q9 0 28 1t34 2t19 1q14 0 14 -11q0 -10 -3 -46.5t-3 -37.5q-3 -56 -3 -173q0 -39 9 -60.5t35 -21.5
q52 0 77 72q11 33 11 112z" />
    <glyph glyph-name="v" unicode="v" horiz-adv-x="461" 
d="M273 157l52 111q23 48 23 68q0 18 -28 26q-11 3 -14 6.5t-3 9.5q0 20 20 20q5 0 30 -1.5t32 -1.5q9 0 30.5 1.5t24.5 1.5q17 0 17 -19q0 -8 -3 -10.5t-16 -6.5q-21 -7 -30.5 -19t-27.5 -49l-132 -272q-14 -29 -18.5 -35.5t-12.5 -6.5t-12 6t-11 22l-127 302q-8 20 -12 27
t-11 14t-18 11q-14 5 -18 8t-4 10q0 18 19 18q6 0 46.5 -1.5t48.5 -1.5q7 0 45 1.5t44 1.5q25 0 25 -21q0 -7 -5.5 -11t-9.5 -4t-11.5 -5t-7.5 -12q0 -5 6 -21l5 -16z" />
    <glyph glyph-name="w" unicode="w" horiz-adv-x="702" 
d="M524 165l45 105q19 46 19 65q0 11 -9 18t-23 7t-14 18q0 20 20 20q6 0 28 -1.5t29 -1.5q10 0 34.5 1.5t27.5 1.5q16 0 16 -20q0 -11 -22 -18q-29 -8 -52 -59l-126 -283q-5 -12 -7.5 -17t-6 -11t-6.5 -8t-7 -2q-13 0 -30 43l-88 229l-105 -234q-16 -38 -27 -38q-8 0 -12 6
t-16 32l-128 288q-16 34 -24 44t-21 10q-14 0 -14 18q0 20 21 20q7 0 41 -1.5t42 -1.5q9 0 47.5 1.5t48.5 1.5q17 0 23.5 -4.5t6.5 -16.5q0 -17 -18 -17q-22 0 -22 -15q0 -12 18 -54l58 -134l64 141l-17 41q-8 21 -30 21q-14 0 -14 18q0 20 21 20q7 0 44 -1.5t43 -1.5
q7 0 44.5 1.5t43.5 1.5q22 0 22 -22q0 -16 -11 -16q-23 0 -23 -16q0 -8 8 -27z" />
    <glyph glyph-name="x" unicode="x" horiz-adv-x="498" 
d="M276 266l31 39q27 33 27 42q0 10 -17 13q-21 0 -21 18q0 20 22 20q4 0 27 -1.5t31 -1.5q10 0 36 1.5t30 1.5q23 0 23 -21q0 -6 -1 -9t-4 -5t-5.5 -2.5t-10.5 -0.5q-23 -2 -37 -8.5t-35 -27.5q-26 -25 -75 -84l111 -147q44 -58 67 -58q13 0 15.5 -2.5t2.5 -13.5
q0 -13 -4 -17.5t-15 -4.5q-6 0 -45.5 1.5t-47.5 1.5t-52.5 -1.5t-51.5 -1.5q-15 0 -19.5 5.5t-4.5 16.5q0 16 15 16q14 0 14 5q0 7 -16 27l-60 79l-46 -61q-22 -29 -22 -37q0 -13 21 -13q13 0 16.5 -3.5t3.5 -15.5q0 -19 -16 -19q-5 0 -32 1.5t-31 1.5q-6 0 -38.5 -1.5
t-37.5 -1.5q-19 0 -19 16q0 13 4.5 17.5t19.5 4.5q40 0 97 70l58 71l-111 145q-17 22 -24.5 28t-26.5 11q-16 4 -16 19q0 9 4 13t8.5 5t14.5 1q2 0 37.5 -1.5t59.5 -1.5q15 0 51 1.5t41 1.5q22 0 22 -19q0 -11 -1.5 -14.5t-9.5 -4.5q-16 -2 -16 -10q0 -4 3 -8.5t7.5 -10.5
t5.5 -7z" />
    <glyph glyph-name="y" unicode="y" horiz-adv-x="467" 
d="M281 152l50 116q23 53 23 68q0 19 -34 24q-12 2 -12 17q0 21 20 21q5 0 27.5 -1.5t26.5 -1.5q5 0 30.5 1.5t29.5 1.5q21 0 21 -20q0 -17 -15 -18q-23 -2 -34.5 -13t-23.5 -38l-194 -440q-4 -9 -12 -28.5t-12 -28t-11.5 -22.5t-13 -20.5t-13.5 -14t-17 -10.5t-20 -3
q-22 0 -35 14.5t-13 33.5q0 20 13.5 33t41.5 27q13 6 22.5 11.5t17 12t11.5 9.5t9 11t6 10.5t6 13t6 13.5l29 62l-151 326q-12 25 -18.5 32.5t-21.5 8.5q-16 1 -16 17q0 21 26 21q6 0 38.5 -1.5t37.5 -1.5q19 0 58 1.5t44 1.5q23 0 23 -19t-10 -19q-24 0 -24 -16q0 -7 8 -25
z" />
    <glyph glyph-name="z" unicode="z" horiz-adv-x="401" 
d="M359 357l-182 -327q63 0 91.5 8.5t39 25t24.5 61.5q7 22 21 22q18 0 18 -16q0 -8 -1.5 -21t-3 -28.5t-2.5 -23.5q-1 -7 -2 -20.5t-1.5 -22.5t-1.5 -11q-3 -7 -15 -7q-13 0 -83.5 1.5t-81.5 1.5t-68.5 -1.5t-66.5 -1.5q-18 0 -18 12q0 5 17 37l177 322q-65 1 -92 -12.5
t-46 -68.5q-7 -19 -11.5 -24t-14.5 -5q-15 0 -15 16q0 6 4 39.5t4 49.5q0 29 6 33q5 2 30 2q10 0 63 -1.5t62 -1.5q12 0 73 1.5t71 1.5q17 0 17 -13q0 -6 -12 -28z" />
    <glyph glyph-name="braceleft" unicode="{" horiz-adv-x="322" 
d="M203 132v-150q0 -55 13.5 -70.5t42.5 -15.5h27v-58h-61q-60 0 -84 26.5t-24 91.5v158q0 86 -70 97v57q70 11 70 97v158q0 65 24 91.5t84 26.5h61v-58h-27q-29 0 -42.5 -15.5t-13.5 -70.5v-149q0 -77 -66 -108q66 -31 66 -108z" />
    <glyph glyph-name="bar" unicode="|" horiz-adv-x="325" 
d="M206 -250h-86v1000h86v-1000z" />
    <glyph glyph-name="braceright" unicode="}" horiz-adv-x="322" 
d="M119 348v149q0 55 -13.5 70.5t-42.5 15.5h-27v58h61q61 0 84.5 -27t23.5 -91v-158q0 -86 70 -97v-57q-70 -11 -70 -97v-158q0 -65 -24 -91.5t-84 -26.5h-61v58h27q29 0 42.5 15.5t13.5 70.5v150q0 77 66 108q-66 31 -66 108z" />
    <glyph glyph-name="asciitilde" unicode="~" 
d="M460 384l21 -82q-23 -31 -35.5 -45.5t-36 -27.5t-52.5 -13q-25 0 -46 10.5t-83 50.5q-44 30 -74 30q-23 0 -43 -13t-30.5 -26.5t-32.5 -44.5l-19 82q24 32 37.5 47t38 29t54.5 14q25 0 43.5 -9t63.5 -39q64 -43 91 -43q24 0 46.5 15t32.5 28.5t24 36.5z" />
    <glyph glyph-name="uni00A0" unicode="&#xa0;" horiz-adv-x="196" 
 />
    <glyph glyph-name="exclamdown" unicode="&#xa1;" horiz-adv-x="267" 
d="M128 251q-34 0 -58.5 24.5t-24.5 58.5t24.5 58t58.5 24t58 -24t24 -58t-24 -58.5t-58 -24.5zM124 -258q-11 0 -22 7t-23.5 24.5t-20 54.5t-7.5 89q0 90 22.5 169t52.5 79t51.5 -78.5t21.5 -169.5q0 -66 -14.5 -108t-29.5 -54.5t-31 -12.5z" />
    <glyph glyph-name="cent" unicode="&#xa2;" horiz-adv-x="449" 
d="M236 408v159q0 19 2.5 23t15.5 4q12 0 14.5 -4t2.5 -23v-157q71 0 108 -30.5t37 -68.5q0 -24 -16 -41t-41 -17t-38 13.5t-13 33.5q0 4 5 25t5 24q0 40 -47 37v-340q67 -6 106 48q11 14 19 14q14 0 14 -14q0 -3 -2.5 -11.5t-12 -24t-23.5 -29.5t-40.5 -26t-60.5 -16v-121
q0 -21 -2.5 -25.5t-14.5 -4.5q-13 0 -17 4q-1 3 -1 26v119q-65 1 -111 33t-65 75t-19 90q0 86 55 151.5t140 73.5zM236 60v313q-23 -17 -38 -61.5t-15 -100.5q0 -116 53 -151z" />
    <glyph glyph-name="sterling" unicode="&#xa3;" horiz-adv-x="521" 
d="M293 330h102q20 0 24.5 -3.5t4.5 -22.5q0 -13 -6 -16t-32 -3h-79q13 -55 13 -86q0 -40 -14 -75q6 -1 23 -5.5t33.5 -7.5t32.5 -3q46 0 71 38q10 15 20 15q15 0 15 -19q0 -57 -42.5 -107t-106.5 -50q-51 0 -100 47q-19 -14 -30.5 -22t-38.5 -16.5t-57 -8.5q-49 0 -77.5 22
t-28.5 64q0 45 31 72.5t85 27.5q40 0 85 -15q-13 36 -38 83q-4 7 -10 18t-10 18.5t-5 9.5h-99q-12 0 -15 4.5t-3 23.5q0 12 4.5 14.5t27.5 2.5h67q-28 79 -28 118q0 69 49 123.5t143 54.5q76 0 113.5 -35t37.5 -77q0 -27 -14 -47.5t-43 -20.5q-25 0 -39.5 13t-17 24t-2.5 21
q0 8 7 35l7 28q0 13 -12 22.5t-38 9.5q-66 0 -66 -70q0 -21 10 -66q3 -12 23.5 -69t22.5 -64zM211 66q-65 42 -99 42q-28 0 -42 -14t-14 -31q0 -20 18.5 -34t46.5 -14q58 0 90 51z" />
    <glyph glyph-name="currency" unicode="&#xa4;" 
d="M345 436l53 53l41 -41l-53 -53q29 -44 29 -89q0 -46 -29 -90l53 -53l-41 -41l-53 53q-44 -30 -91 -30q-45 0 -89 30l-53 -53l-41 41l53 53q-29 44 -29 89q0 44 29 90l-53 53l41 41l53 -53q42 29 91 29q50 0 89 -29zM255 397q-38 0 -65 -26.5t-27 -65.5q0 -38 27 -65
t65 -27t65 27t27 65t-27 65t-65 27z" />
    <glyph glyph-name="yen" unicode="&#xa5;" horiz-adv-x="622" 
d="M175 366h-106q-12 0 -15 2.5t-3 13.5q0 13 3.5 15.5t15.5 2.5h86l-72 129q-16 28 -24.5 36t-27.5 10q-18 2 -22.5 4.5t-4.5 13.5q0 20 17 20q9 0 47 -1.5t62 -1.5q30 0 73 1.5t47 1.5q17 0 23 -3t6 -15q0 -9 -3 -13.5t-6.5 -5.5t-10.5 -1q-24 0 -32.5 -2t-8.5 -12
q0 -7 10 -24l77 -137h124l46 93q18 36 18 51q0 16 -10 22t-35 10q-15 4 -15 18q0 19 21 19q1 0 16.5 -0.5t33.5 -1.5t26 -1q11 0 40 1.5t32 1.5q16 0 16 -17q0 -7 -1.5 -11.5t-5 -6.5t-5.5 -2t-8 -1q-25 -2 -37.5 -13.5t-27.5 -41.5l-61 -120h88q7 0 8.5 -3t1.5 -15
q0 -11 -2 -13.5t-9 -2.5h-105l-52 -102h156q12 0 12 -18q0 -8 -1.5 -11.5t-4 -4t-7.5 -0.5h-169v-141q0 -36 4 -43.5t27 -8.5q33 -1 40 -4t7 -16q0 -20 -21 -20q-10 0 -62.5 1.5t-61.5 1.5q-11 0 -67.5 -1.5t-65.5 -1.5q-18 0 -18 16q0 14 7.5 18t35.5 4q25 0 30 9t5 48v138
h-184q-6 0 -8 0.5t-4 4.5t-2 14q0 11 3.5 13t19.5 2h159zM413 366h-88l47 -84z" />
    <glyph glyph-name="brokenbar" unicode="&#xa6;" horiz-adv-x="325" 
d="M206 325h-86v350h86v-350zM206 -175h-86v350h86v-350z" />
    <glyph glyph-name="section" unicode="&#xa7;" horiz-adv-x="453" 
d="M286 60q31 -35 44.5 -52.5t27 -48t13.5 -62.5q0 -26 -8.5 -51.5t-26 -49.5t-51 -39t-77.5 -15q-67 0 -100 32t-33 74q0 28 15.5 47.5t41.5 19.5q24 0 39 -14.5t15 -37.5q0 -22 -16 -38q-20 -20 -20 -27q0 -12 15.5 -22t41.5 -10q30 0 55 19t25 55q0 25 -13.5 47.5
t-61.5 65.5q-98 87 -133.5 145t-35.5 119q0 63 38.5 96t86.5 28q-84 74 -84 164q0 67 45.5 110.5t115.5 43.5q58 0 96.5 -29t38.5 -79q0 -12 -3 -24.5t-17 -27t-37 -14.5q-29 0 -41.5 18t-12.5 36q0 14 5.5 23.5t22.5 25.5q8 8 8 16q0 11 -13.5 21t-39.5 10q-39 0 -63 -21.5
t-24 -54.5q0 -28 21 -54t87 -86q139 -126 139 -235q0 -63 -34.5 -96t-91.5 -28zM158 317q-24 0 -35 -14.5t-11 -34.5q0 -22 30 -66t75 -81t79 -37q26 0 36.5 16t10.5 33q0 40 -69 112t-116 72z" />
    <glyph glyph-name="dieresis" unicode="&#xa8;" horiz-adv-x="333" 
d="M70 597q24 0 40 -16.5t16 -39.5t-16.5 -39.5t-39.5 -16.5t-39.5 16.5t-16.5 39.5t16.5 39.5t39.5 16.5zM263 597q23 0 39.5 -16.5t16.5 -39.5t-16.5 -39.5t-39.5 -16.5q-24 0 -40 16.5t-16 39.5t16 39.5t40 16.5z" />
    <glyph glyph-name="copyright" unicode="&#xa9;" horiz-adv-x="759" 
d="M528 496q0 -5 -0.5 -28t-0.5 -35q0 -9 0.5 -24t0.5 -19q0 -13 -14 -13q-9 0 -12 4.5t-5 22.5q-6 43 -32 65t-63 22q-34 0 -58 -20t-34 -52.5t-14 -59.5t-4 -56q0 -69 25 -119t83 -50q45 0 70.5 28.5t32.5 61.5q4 20 7.5 25t11.5 5q14 0 14 -15q0 -7 -1.5 -32t-1.5 -30
v-50q0 -14 -11 -14q-10 0 -19 17q-2 7 -5 7q-2 0 -9 -3t-15 -7l-10 -5q-37 -15 -80 -15q-96 0 -149 60t-53 139q0 82 57 147t148 65q44 0 76 -15q26 -13 29 -13q5 0 7 7q6 14 16 14q5 0 9 -4.5t4 -10.5zM380 659q144 0 246.5 -102t102.5 -247t-102.5 -247t-246.5 -102
q-145 0 -247 102t-102 247t102.5 247t246.5 102zM380 611q-124 0 -212.5 -88t-88.5 -213q0 -124 88.5 -212.5t212.5 -88.5t212.5 88.5t88.5 212.5q0 125 -88.5 213t-212.5 88z" />
    <glyph glyph-name="ordfeminine" unicode="&#xaa;" horiz-adv-x="322" 
d="M260 556l-1 -57q-1 -56 5 -60q2 -2 5 -2q6 0 13.5 5.5t9.5 5.5q8 0 8 -11q0 -16 -17 -27.5t-43 -11.5q-8 0 -15.5 1t-13 3t-9.5 4t-7.5 5.5t-5.5 6t-3.5 6.5t-2.5 5.5t-2 4.5l-1 4q-43 -40 -84 -40q-28 0 -44.5 17.5t-16.5 41.5q0 22 12.5 40t28.5 28t38.5 18t36 11
t27.5 5q2 22 2 43q0 35 -38 35q-10 0 -16 -1t-9 -5.5t-3.5 -8t-1.5 -12.5q0 -34 -33 -34q-12 0 -22.5 7.5t-10.5 22.5q0 21 23 37t77 16q73 0 94 -24t20 -79zM178 538q-65 -14 -65 -56q0 -18 10 -27.5t24 -9.5q12 0 30 12q-1 27 1 81z" />
    <glyph glyph-name="guillemotleft" unicode="&#xab;" horiz-adv-x="475" 
d="M123 197l126 -167q14 -18 14 -24q0 -4 -4 -5t-22 -1h-34q-19 0 -25.5 4t-20.5 22l-109 147q-16 21 -16 24q0 2 16 24l107 145q15 20 21 25q5 4 28 4h39q20 -1 20 -6q0 -2 -9 -14zM303 197l126 -167q14 -18 14 -24q0 -4 -4 -5t-22 -1h-34q-19 0 -25.5 4t-20.5 22l-109 147
q-16 21 -16 24q0 2 16 24l107 145q15 20 21 25q5 4 28 4h39q20 -1 20 -6q0 -2 -9 -14z" />
    <glyph glyph-name="logicalnot" unicode="&#xac;" 
d="M462 175h-86v164h-328v86h414v-250z" />
    <glyph glyph-name="uni00AD" unicode="&#xad;" horiz-adv-x="331" 
d="M76 258h164q42 0 48 -4q6 -5 6 -37v-33q0 -25 -5 -31q-5 -5 -45 -5h-160q-33 0 -40 4.5t-7 28.5v47q0 22 6 26t33 4z" />
    <glyph glyph-name="registered" unicode="&#xae;" horiz-adv-x="759" 
d="M336 304v-121q0 -27 2 -32.5t13 -6.5q20 -2 24.5 -4t4.5 -11q0 -7 -3 -10.5t-7 -4t-13 -0.5q-5 0 -30.5 1t-34.5 1q-14 0 -41.5 -1t-32.5 -1q-18 0 -18 15q0 7 4 10t8 3.5t15 1.5q13 0 16 5.5t3 31.5v264q0 25 -2.5 29.5t-16.5 4.5q-15 0 -21 2.5t-6 12.5q0 14 17 14
l68 -2q6 0 53 2t56 2q64 0 96 -29t32 -67q0 -86 -103 -100q34 -12 51 -29t36 -66q15 -39 23.5 -49.5t19.5 -10.5t21 18q5 7 11 7q14 0 14 -15q0 -19 -20.5 -41t-64.5 -22q-31 0 -52 10t-31 30t-13 34t-6 38q-6 57 -18 72t-54 14zM336 483v-155q85 0 85 83q0 26 -6 41.5
t-20 22t-26 7.5t-33 1zM380 659q144 0 246.5 -102t102.5 -247t-102.5 -247t-246.5 -102q-145 0 -247 102t-102 247t102.5 247t246.5 102zM380 611q-124 0 -212.5 -88t-88.5 -213q0 -124 88.5 -212.5t212.5 -88.5t212.5 88.5t88.5 212.5q0 125 -88.5 213t-212.5 88z" />
    <glyph glyph-name="macron" unicode="&#xaf;" horiz-adv-x="333" 
d="M49 580h249q15 0 19.5 -5.5t4.5 -26.5q0 -28 -1 -34.5t-6 -8.5q-6 -3 -42 -3h-228q-25 0 -29.5 4t-4.5 25q0 43 8 46q5 3 30 3z" />
    <glyph glyph-name="degree" unicode="&#xb0;" horiz-adv-x="366" 
d="M183 641q59 0 101 -41.5t42 -100.5t-42 -101.5t-101 -42.5t-101 42t-42 102t42 101t101 41zM183 587q-39 0 -64 -26t-25 -62q0 -37 26 -63.5t63 -26.5q36 0 62.5 26t26.5 64q0 35 -25.5 61.5t-63.5 26.5z" />
    <glyph glyph-name="plusminus" unicode="&#xb1;" 
d="M462 331h-164v-160h-86v160h-164v86h164v160h86v-160h164v-86zM462 46h-414v86h414v-86z" />
    <glyph glyph-name="twosuperior" unicode="&#xb2;" horiz-adv-x="349" 
d="M135 617l21 2q10 0 10 -9q0 -11 -18 -23t-43 -12q-33 0 -49 16t-16 37q0 39 42.5 73t103.5 34q55 0 85 -26.5t30 -63.5q0 -51 -58 -99q-21 -17 -111 -83q103 1 128 4q12 3 25 3q7 0 12 -5.5t5 -9.5q-12 -32 -13 -38q-1 -2 -6 -22t-6 -23q-4 -12 -19 -12q-17 0 -17 10
q0 2 1 9.5t1 8.5q0 4 -4 5q-5 1 -22 1q-110 0 -157 -7q-2 0 -12 -1t-11 -1q-14 0 -14 14q0 6 31 31q145 117 145 210q0 27 -13 45t-39 18q-23 0 -35.5 -14t-12.5 -33q0 -16 10 -27.5t26 -11.5z" />
    <glyph glyph-name="threesuperior" unicode="&#xb3;" horiz-adv-x="349" 
d="M208 588q42 -2 68.5 -21.5t26.5 -50.5q0 -49 -55 -91.5t-135 -42.5q-42 0 -67.5 12.5t-25.5 35.5q0 16 13.5 26.5t30.5 10.5q15 0 26.5 -7.5t11.5 -20.5q0 -2 -3.5 -14t-3.5 -14q0 -7 15 -7q32 0 59.5 33.5t27.5 82.5q0 46 -22 46q-5 0 -13 -8q-5 -5 -13 -5
q-7 0 -18.5 4.5t-11.5 11.5q0 6 5 9t23 9q55 20 55 71q0 20 -10 35.5t-30 15.5q-18 0 -31.5 -10t-13.5 -29q0 -13 6.5 -22t17.5 -9q8 -1 10.5 -1t5.5 -2.5t3 -6.5q0 -10 -15.5 -15.5t-30.5 -5.5q-26 0 -41.5 12.5t-15.5 30.5q0 34 42 59t99 25q43 0 68.5 -17t25.5 -45
q0 -48 -84 -85z" />
    <glyph glyph-name="acute" unicode="&#xb4;" horiz-adv-x="333" 
d="M121 496l98 107q29 34 54 34q20 0 32.5 -12t12.5 -31q0 -23 -16 -37t-59 -37q-7 -4 -51 -30.5t-52 -30.5q-22 -12 -28 -12q-4 0 -9.5 4t-5.5 10q0 8 24 35z" />
    <glyph glyph-name="mu" unicode="&#xb5;" horiz-adv-x="556" 
d="M64 395h128v-271q0 -71 49 -71q56 0 89 61v281h128v-262q0 -39 7 -56t26 -17q31 0 38 70h20q-1 -63 -34 -103.5t-92 -40.5q-37 0 -61.5 21t-28.5 62q-71 -83 -149 -83q-39 0 -74 32q0 -46 11 -86q18 -66 18 -83q0 -27 -15 -45.5t-43 -18.5q-25 0 -38.5 16.5t-13.5 40.5
q0 21 19 95q16 61 16 190v268z" />
    <glyph glyph-name="paragraph" unicode="&#xb6;" horiz-adv-x="604" 
d="M321 641h115q2 0 11 0.5t24.5 1t25.5 0.5q28 1 55 1q23 0 23 -19q0 -13 -6 -16t-32 -5q-20 -1 -25.5 -13t-5.5 -49v-800h-50v861h-92v-861h-50v430q-82 0 -141 23t-88 60.5t-42 75t-13 77.5q0 233 291 233z" />
    <glyph glyph-name="periodcentered" unicode="&#xb7;" horiz-adv-x="346" 
d="M173 396q38 0 64.5 -26.5t26.5 -64.5q0 -37 -26.5 -63.5t-64.5 -26.5t-64.5 26.5t-26.5 63.5q0 38 26.5 64.5t64.5 26.5z" />
    <glyph glyph-name="cedilla" unicode="&#xb8;" horiz-adv-x="333" 
d="M132 7h32l-9 -48q52 -5 72 -28.5t20 -54.5q0 -50 -44 -77.5t-107 -27.5q-51 0 -51 24q0 6 1.5 9.5t7.5 5.5t10.5 2.5t18.5 1.5q72 5 72 48q0 15 -9.5 24.5t-15 11t-17.5 3.5z" />
    <glyph glyph-name="onesuperior" unicode="&#xb9;" horiz-adv-x="349" 
d="M225 620v-164q0 -31 1 -34q0 -4 12 -4q28 0 34 -2t6 -12q0 -14 -18 -14q-7 0 -42 1t-41 1q-7 0 -44 -1t-43 -1q-16 0 -16 13q0 10 6.5 12t30.5 2q11 0 14 1t4 7q2 7 2 29v217q-1 11 -1.5 15t-3.5 5.5t-10 0.5l-21 -2q-23 -2 -23 12q0 10 5.5 12.5t28.5 4.5q68 7 81 10
q4 1 12 2.5t13.5 2.5t6.5 1q11 0 11 -10l-2 -20q-3 -36 -3 -85z" />
    <glyph glyph-name="ordmasculine" unicode="&#xba;" horiz-adv-x="360" 
d="M175 659q63 0 104 -36t41 -93q0 -54 -41.5 -93t-99.5 -39q-59 0 -99 38.5t-40 91.5q0 58 41 94.5t94 36.5zM180 637q-46 0 -46 -106q0 -64 11 -87.5t35 -23.5q27 0 36.5 25t9.5 99q0 53 -10 73t-36 20z" />
    <glyph glyph-name="guillemotright" unicode="&#xbb;" horiz-adv-x="475" 
d="M352 198l-126 167q-14 18 -14 24q0 4 4 5t22 1h34q20 0 26.5 -4t19.5 -22l109 -147q16 -21 16 -24t-16 -24l-107 -145q-16 -22 -21 -25q-5 -4 -28 -4h-39q-20 0 -20 5q0 3 9 15zM172 198l-126 167q-14 18 -14 24q0 4 4 5t22 1h34q19 0 25.5 -4t20.5 -22l109 -147
q16 -21 16 -24t-16 -24l-107 -145q-16 -22 -21 -25q-5 -4 -28 -4h-39q-20 0 -20 5q0 3 9 15z" />
    <glyph glyph-name="onequarter" unicode="&#xbc;" horiz-adv-x="764" 
d="M668 124h35q17 0 20.5 -2t3.5 -16q0 -9 -3.5 -10.5t-20.5 -1.5h-35v-46q0 -15 1 -18t8 -4h1q29 -1 31 -7q1 -2 1 -7q0 -14 -14 -14q-6 0 -39 1t-38 1q-6 0 -36.5 -1t-35.5 -1q-16 0 -16 14q0 9 6 11t36 4q5 0 6 3.5t1 21.5v42h-127q-27 0 -27 11q0 6 20 27l196 209
q9 11 17 11q15 0 15 -12q0 -32 -3 -59q-3 -99 -3 -157zM479 124h101v48l1 62zM225 544v-178q0 -16 2 -20q1 -5 11 -5q28 0 34 -2t6 -12q0 -14 -18 -14q-7 0 -42 1t-41 1q-7 0 -44 -1t-43 -1q-16 0 -16 13q0 10 6.5 12t30.5 2q17 0 18 8q2 4 2 45v202q0 15 -2.5 18.5
t-12.5 2.5l-21 -2q-23 -2 -23 12q0 9 7 12t32 5q38 4 73 10q33 6 35 6q11 0 11 -10l-2 -25q-3 -33 -3 -80zM143 12l440 632q10 13 13 14q4 1 25 1q14 0 14 -5q0 -4 -11 -21l-437 -628q-11 -15 -15.5 -18.5t-14.5 -3.5h-14q-14 0 -14 6q0 2 14 23z" />
    <glyph glyph-name="onehalf" unicode="&#xbd;" horiz-adv-x="764" 
d="M225 544v-178q0 -16 2 -20q1 -5 11 -5q28 0 34 -2t6 -12q0 -14 -18 -14q-7 0 -42 1t-41 1q-7 0 -44 -1t-43 -1q-16 0 -16 13q0 10 6.5 12t30.5 2q17 0 18 8q2 4 2 45v202q0 15 -2.5 18.5t-12.5 2.5l-21 -2q-23 -2 -23 12q0 9 7 12t32 5q38 4 73 10q33 6 35 6q11 0 11 -10
l-2 -25q-3 -33 -3 -80zM539 225l21 2q10 0 10 -9q0 -11 -18 -23t-43 -12q-33 0 -49 16t-16 37q0 39 42.5 73t103.5 34q52 0 84 -26.5t32 -62.5q0 -29 -20.5 -58t-42.5 -46.5t-58.5 -43t-48.5 -35.5q79 1 110 3q13 1 27 2.5t17 1.5q6 0 11 -5.5t5 -9.5q-12 -32 -13 -38
q-1 -2 -6 -22t-6 -23q-4 -12 -19 -12q-17 0 -17 10q0 2 1 9.5t1 8.5q0 4 -4 5q-5 1 -22 1q-110 0 -157 -7q-2 0 -12 -1t-11 -1q-14 0 -14 14q0 6 31 31q81 65 121 131q24 40 24 79q0 32 -15.5 47t-36.5 15q-19 0 -33.5 -12t-14.5 -34q0 -16 10 -27.5t26 -11.5zM143 12
l440 632q10 13 13 14q4 1 25 1q14 0 14 -5q0 -4 -11 -21l-437 -628q-11 -15 -15.5 -18.5t-14.5 -3.5h-14q-14 0 -14 6q0 2 14 23z" />
    <glyph glyph-name="threequarters" unicode="&#xbe;" horiz-adv-x="764" 
d="M208 512q48 -1 71.5 -22t23.5 -50q0 -47 -53 -90t-137 -43q-45 0 -69 13t-24 35q0 15 12 26t32 11q15 0 26.5 -7.5t11.5 -20.5q0 -2 -3.5 -14t-3.5 -14q0 -7 15 -7q35 0 61 33.5t26 81.5q0 46 -22 46q-5 0 -13 -8q-5 -5 -13 -5q-7 0 -18.5 4.5t-11.5 11.5q0 6 5 9t23 9
q54 20 54 71q0 21 -9.5 35.5t-28.5 14.5t-32.5 -9.5t-13.5 -28.5q0 -13 6.5 -22t17.5 -9q8 -1 10.5 -1t5.5 -2.5t3 -6.5q0 -10 -15.5 -15.5t-30.5 -5.5q-26 0 -41.5 12.5t-15.5 30.5q0 32 41 58t100 26q49 0 71.5 -19t22.5 -43q0 -47 -84 -85zM164 12l440 632q10 13 13 14
q4 1 25 1q14 0 14 -5q0 -4 -11 -21l-437 -628q-11 -15 -15.5 -18.5t-14.5 -3.5h-14q-14 0 -14 6q0 2 14 23zM668 124h35q17 0 20.5 -2t3.5 -16q0 -9 -3.5 -10.5t-20.5 -1.5h-35v-46q0 -15 1 -18t8 -4h1q29 -1 31 -7q1 -2 1 -7q0 -14 -14 -14q-6 0 -39 1t-38 1q-6 0 -36.5 -1
t-35.5 -1q-16 0 -16 14q0 9 6 11t36 4q5 0 6 3.5t1 21.5v42h-127q-27 0 -27 11q0 6 20 27l196 209q9 11 17 11q15 0 15 -12q0 -32 -3 -59q-3 -99 -3 -157zM479 124h101v48l1 62z" />
    <glyph glyph-name="questiondown" unicode="&#xbf;" horiz-adv-x="451" 
d="M288 98v62q0 30 3 40t16 10q15 0 18 -12t1 -49l-5 -135q-1 -24 -4 -32.5t-15 -8.5q-16 0 -16 18v40q0 21 -6 35t-15.5 19t-15 6.5t-10.5 1.5q-63 0 -63 -140q0 -184 94 -184q22 0 35.5 9.5t13.5 24.5q0 3 -3.5 20.5t-3.5 20.5q0 18 13.5 31.5t34.5 13.5q23 0 35.5 -14.5
t12.5 -34.5q0 -36 -34 -67t-107 -31q-100 0 -168 60t-68 157q0 72 45.5 122t112.5 50q48 0 99 -33zM304 251q-34 0 -58.5 24.5t-24.5 58.5t24.5 58t58.5 24t58 -24t24 -58t-24 -58.5t-58 -24.5z" />
    <glyph glyph-name="Agrave" unicode="&#xc0;" horiz-adv-x="654" 
d="M374 214h-188l-21 -54q-27 -66 -27 -94q0 -17 10 -23t36 -9q19 -2 19 -18q0 -19 -22 -19q-7 0 -41.5 1.5t-40.5 1.5t-37.5 -1.5t-36.5 -1.5q-20 0 -20 17q0 11 4.5 14t19.5 6q17 2 29.5 9.5t22.5 22t14.5 24.5t13.5 31l206 507q13 30 17.5 36.5t14.5 6.5q11 0 17 -9
t16 -37l150 -432q47 -132 62 -147q9 -10 29 -10q28 -2 28 -20q0 -19 -20 -19q-11 0 -67 1.5t-65 1.5t-55.5 -1.5t-54.5 -1.5q-22 0 -22 19q0 7 1 10t5.5 5t11 2.5t21.5 1.5h1q8 1 11.5 1.5t6.5 3.5t3 9q0 11 -13 50zM199 250h162l-75 221zM354 804l52 -64q19 -21 19 -31
q0 -13 -15 -13q-8 0 -34 11l-182 80q-33 14 -39.5 18.5t-6.5 13.5q0 11 7.5 13t38.5 2h100q26 0 34.5 -4.5t25.5 -25.5z" />
    <glyph glyph-name="Aacute" unicode="&#xc1;" horiz-adv-x="654" 
d="M374 214h-188l-21 -54q-27 -66 -27 -94q0 -17 10 -23t36 -9q19 -2 19 -18q0 -19 -22 -19q-7 0 -41.5 1.5t-40.5 1.5t-37.5 -1.5t-36.5 -1.5q-20 0 -20 17q0 11 4.5 14t19.5 6q17 2 29.5 9.5t22.5 22t14.5 24.5t13.5 31l206 507q13 30 17.5 36.5t14.5 6.5q11 0 17 -9
t16 -37l150 -432q47 -132 62 -147q9 -10 29 -10q28 -2 28 -20q0 -19 -20 -19q-11 0 -67 1.5t-65 1.5t-55.5 -1.5t-54.5 -1.5q-22 0 -22 19q0 7 1 10t5.5 5t11 2.5t21.5 1.5h1q8 1 11.5 1.5t6.5 3.5t3 9q0 11 -13 50zM199 250h162l-75 221zM397 834h100q31 0 38.5 -2t7.5 -13
q0 -9 -6.5 -13.5t-39.5 -18.5l-183 -80q-26 -11 -33 -11q-15 0 -15 13q0 10 18 31l52 64q17 19 21.5 23.5t11.5 5.5t28 1z" />
    <glyph glyph-name="Acircumflex" unicode="&#xc2;" horiz-adv-x="654" 
d="M374 214h-188l-21 -54q-27 -66 -27 -94q0 -17 10 -23t36 -9q19 -2 19 -18q0 -19 -22 -19q-7 0 -41.5 1.5t-40.5 1.5t-37.5 -1.5t-36.5 -1.5q-20 0 -20 17q0 11 4.5 14t19.5 6q17 2 29.5 9.5t22.5 22t14.5 24.5t13.5 31l206 507q13 30 17.5 36.5t14.5 6.5q11 0 17 -9
t16 -37l150 -432q47 -132 62 -147q9 -10 29 -10q28 -2 28 -20q0 -19 -20 -19q-11 0 -67 1.5t-65 1.5t-55.5 -1.5t-54.5 -1.5q-22 0 -22 19q0 7 1 10t5.5 5t11 2.5t21.5 1.5h1q8 1 11.5 1.5t6.5 3.5t3 9q0 11 -13 50zM199 250h162l-75 221zM324 772l-114 -62q-23 -14 -31 -14
q-14 0 -14 15q0 8 16 25l82 87q21 22 28 23h83q19 0 26 -3.5t23 -19.5l83 -84q19 -18 19 -28q0 -15 -13 -15q-5 0 -32 10z" />
    <glyph glyph-name="Atilde" unicode="&#xc3;" horiz-adv-x="654" 
d="M374 214h-188l-21 -54q-27 -66 -27 -94q0 -17 10 -23t36 -9q19 -2 19 -18q0 -19 -22 -19q-7 0 -41.5 1.5t-40.5 1.5t-37.5 -1.5t-36.5 -1.5q-20 0 -20 17q0 11 4.5 14t19.5 6q17 2 29.5 9.5t22.5 22t14.5 24.5t13.5 31l206 507q13 30 17.5 36.5t14.5 6.5q11 0 17 -9
t16 -37l150 -432q47 -132 62 -147q9 -10 29 -10q28 -2 28 -20q0 -19 -20 -19q-11 0 -67 1.5t-65 1.5t-55.5 -1.5t-54.5 -1.5q-22 0 -22 19q0 7 1 10t5.5 5t11 2.5t21.5 1.5h1q8 1 11.5 1.5t6.5 3.5t3 9q0 11 -13 50zM199 250h162l-75 221zM293 815q35 0 113 -28
q40 -12 50 -12q23 0 65 30q7 5 14 5t12 -5t5 -11q0 -22 -48.5 -60t-109.5 -38q-38 0 -78 14q-76 25 -87 25q-23 0 -57 -23q-10 -7 -16 -7q-8 0 -13 5.5t-5 9.5q0 21 52.5 58t102.5 37z" />
    <glyph glyph-name="Adieresis" unicode="&#xc4;" horiz-adv-x="654" 
d="M374 214h-188l-21 -54q-27 -66 -27 -94q0 -17 10 -23t36 -9q19 -2 19 -18q0 -19 -22 -19q-7 0 -41.5 1.5t-40.5 1.5t-37.5 -1.5t-36.5 -1.5q-20 0 -20 17q0 11 4.5 14t19.5 6q17 2 29.5 9.5t22.5 22t14.5 24.5t13.5 31l206 507q13 30 17.5 36.5t14.5 6.5q11 0 17 -9
t16 -37l150 -432q47 -132 62 -147q9 -10 29 -10q28 -2 28 -20q0 -19 -20 -19q-11 0 -67 1.5t-65 1.5t-55.5 -1.5t-54.5 -1.5q-22 0 -22 19q0 7 1 10t5.5 5t11 2.5t21.5 1.5h1q8 1 11.5 1.5t6.5 3.5t3 9q0 11 -13 50zM199 250h162l-75 221zM455 819q25 0 43.5 -18t18.5 -44
q0 -25 -18 -43t-44 -18q-25 0 -43 18t-18 43q0 26 18 44t43 18zM235 819q25 0 43.5 -18t18.5 -44q0 -25 -18 -43t-44 -18q-25 0 -43 18t-18 43q0 26 18 44t43 18z" />
    <glyph glyph-name="Aring" unicode="&#xc5;" horiz-adv-x="654" 
d="M378 629l2 -4l150 -432q47 -132 62 -147q9 -10 29 -10q28 -2 28 -20q0 -19 -20 -19q-11 0 -67 1.5t-65 1.5t-55.5 -1.5t-54.5 -1.5q-22 0 -22 19q0 7 1 10t5.5 5t11 2.5t21.5 1.5h1q8 1 11.5 1.5t6.5 3.5t3 9q0 11 -13 50l-39 115h-188l-21 -54q-27 -66 -27 -94
q0 -17 10 -23t36 -9q19 -2 19 -18q0 -19 -22 -19q-7 0 -41.5 1.5t-40.5 1.5t-37.5 -1.5t-36.5 -1.5q-20 0 -20 17q0 11 4.5 14t19.5 6q17 2 29.5 9.5t22.5 22t14.5 24.5t13.5 31l207 509q-36 12 -53.5 40t-17.5 57q0 43 30 73t73 30t73 -30t30 -73q0 -35 -21 -62t-52 -36z
M199 250h162l-75 221zM348 783q-23 0 -39.5 -16.5t-16.5 -39.5t16.5 -39.5t39.5 -16.5t39.5 16.5t16.5 39.5t-16.5 39.5t-39.5 16.5z" />
    <glyph glyph-name="AE" unicode="&#xc6;" horiz-adv-x="897" 
d="M553 609v-253q38 0 57 2.5t36.5 17.5t21.5 45q5 34 8 41.5t15 7.5q19 0 19 -31q0 -6 -2 -42.5t-2 -53.5t2 -61t2 -54q0 -16 -3.5 -22.5t-16.5 -6.5t-16.5 7t-5.5 30v4q-4 42 -26.5 63t-88.5 21v-214q0 -52 6 -65t32 -13q91 0 139.5 14t66.5 38t30 73q4 17 6 22.5t6.5 10
t11.5 4.5t11 -3t5 -9t1.5 -14.5t-0.5 -19.5l-5 -110q-3 -35 -4 -37q-3 -4 -19 -4q-14 0 -115 1.5t-143 1.5q-28 0 -117.5 -1.5t-115.5 -1.5q-19 0 -19 18q0 15 7 18t36 3q26 0 32 14t6 78v119h-214l-69 -114q-31 -50 -31 -69q0 -22 49 -28q18 -2 18 -18q0 -12 -3 -16.5
t-13 -4.5q-8 0 -39 1.5t-46 1.5t-34 -0.5t-33 -1.5t-16 -1q-20 0 -20 17q0 13 5.5 16.5t28.5 7.5q16 3 31.5 17.5t23.5 26t22 33.5l263 427q26 42 26 52q0 9 -27 9t-34.5 4t-7.5 17q0 10 4 15t7 5h12q10 0 95 -1.5t127 -1.5q63 0 162.5 1.5t107.5 1.5q11 0 13 -6.5t2 -37.5
v-93q0 -16 -2.5 -22.5t-14.5 -6.5q-15 0 -21 22q-6 30 -18.5 49t-26.5 30t-46.5 17t-57.5 8t-81 5zM219 283h192v319z" />
    <glyph glyph-name="Ccedilla" unicode="&#xc7;" horiz-adv-x="660" 
d="M355 -17l-3 -21q48 -6 70.5 -28.5t22.5 -54.5q0 -52 -43 -79t-102 -27q-69 0 -69 25q0 6 2.5 10t10 6t12.5 2.5t18 1.5q68 7 68 45q0 30 -40 37l18 86q-118 15 -198.5 105.5t-80.5 218.5q0 85 39 163.5t118.5 132t182.5 53.5q75 0 157 -42q11 -6 17 -6q5 0 7 2.5t10 19.5
q7 14 19 14q19 0 19 -22q0 -10 -1.5 -36t-1.5 -36q0 -8 1.5 -49.5t1.5 -48.5q0 -22 -20 -22q-13 0 -16.5 7t-7.5 34q-10 65 -52 107t-110 42q-59 0 -99.5 -34t-58 -89t-24 -101t-6.5 -94q0 -50 8 -95t26.5 -91t57 -73.5t92.5 -27.5q16 0 33.5 3.5t45.5 14.5t53 40t39 72
q4 11 6.5 23.5t4.5 20t4.5 14.5t6.5 10t10 3q20 0 20 -21q0 -7 -3.5 -57.5t-3.5 -73.5q0 -5 1 -28.5t1 -27.5q0 -19 -15 -19q-13 0 -23 20q-7 15 -9.5 18t-6.5 3q-7 0 -37 -15q-63 -40 -172 -35z" />
    <glyph glyph-name="Egrave" unicode="&#xc8;" horiz-adv-x="600" 
d="M257 608v-252q58 0 83 13t32 58q5 30 8 37t14 7q19 0 19 -27q0 -7 -1.5 -46t-1.5 -45q0 -23 1.5 -68t1.5 -52q0 -19 -4 -26.5t-17 -7.5q-11 0 -14 6.5t-6 35.5q-5 46 -28 64t-87 18v-184q0 -83 5 -93q6 -13 40 -13q121 0 167.5 26t60.5 97q0 2 1 6l1.5 6t1.5 5.5t2 5.5
t2 5t3 4.5l4 3t4.5 2t5.5 0.5q15 0 17 -17l-1 -40l-5 -110q-1 -19 -4.5 -24.5t-15.5 -5.5q-19 0 -115 1.5t-129 1.5q-78 0 -160 -1.5t-91 -1.5q-21 0 -21 19q0 20 28 20q21 0 29 1t14.5 11t7.5 26.5t1 53.5v398q0 46 -6 61t-30 16h-4q-25 1 -28 11q-1 4 -1 8q0 22 32 22
q24 0 69.5 -1.5t69.5 -1.5q34 0 142 2t148 1q10 0 15 -4t6 -8.5t1 -14.5v-98q0 -27 -2.5 -34t-14.5 -7q-14 0 -19 22q-16 68 -60.5 86.5t-170.5 21.5zM309 804l52 -64q19 -22 19 -31q0 -13 -15 -13q-8 0 -34 11l-183 80q-33 15 -39.5 19t-6.5 13q0 11 7.5 13t38.5 2h100
q27 0 35.5 -4.5t25.5 -25.5z" />
    <glyph glyph-name="Eacute" unicode="&#xc9;" horiz-adv-x="600" 
d="M257 608v-252q58 0 83 13t32 58q5 30 8 37t14 7q19 0 19 -27q0 -7 -1.5 -46t-1.5 -45q0 -23 1.5 -68t1.5 -52q0 -19 -4 -26.5t-17 -7.5q-11 0 -14 6.5t-6 35.5q-5 46 -28 64t-87 18v-184q0 -83 5 -93q6 -13 40 -13q121 0 167.5 26t60.5 97q0 2 1 6l1.5 6t1.5 5.5t2 5.5
t2 5t3 4.5l4 3t4.5 2t5.5 0.5q15 0 17 -17l-1 -40l-5 -110q-1 -19 -4.5 -24.5t-15.5 -5.5q-19 0 -115 1.5t-129 1.5q-78 0 -160 -1.5t-91 -1.5q-21 0 -21 19q0 20 28 20q21 0 29 1t14.5 11t7.5 26.5t1 53.5v398q0 46 -6 61t-30 16h-4q-25 1 -28 11q-1 4 -1 8q0 22 32 22
q24 0 69.5 -1.5t69.5 -1.5q34 0 142 2t148 1q10 0 15 -4t6 -8.5t1 -14.5v-98q0 -27 -2.5 -34t-14.5 -7q-14 0 -19 22q-16 68 -60.5 86.5t-170.5 21.5zM352 834h100q30 0 38 -2t8 -13q0 -9 -6.5 -13.5t-39.5 -18.5l-183 -80q-24 -11 -34 -11q-15 0 -15 13q0 9 19 31l52 64
q21 27 33 29q7 1 28 1z" />
    <glyph glyph-name="Ecircumflex" unicode="&#xca;" horiz-adv-x="600" 
d="M257 608v-252q58 0 83 13t32 58q5 30 8 37t14 7q19 0 19 -27q0 -7 -1.5 -46t-1.5 -45q0 -23 1.5 -68t1.5 -52q0 -19 -4 -26.5t-17 -7.5q-11 0 -14 6.5t-6 35.5q-5 46 -28 64t-87 18v-184q0 -83 5 -93q6 -13 40 -13q121 0 167.5 26t60.5 97q0 2 1 6l1.5 6t1.5 5.5t2 5.5
t2 5t3 4.5l4 3t4.5 2t5.5 0.5q15 0 17 -17l-1 -40l-5 -110q-1 -19 -4.5 -24.5t-15.5 -5.5q-19 0 -115 1.5t-129 1.5q-78 0 -160 -1.5t-91 -1.5q-21 0 -21 19q0 20 28 20q21 0 29 1t14.5 11t7.5 26.5t1 53.5v398q0 46 -6 61t-30 16h-4q-25 1 -28 11q-1 4 -1 8q0 22 32 22
q24 0 69.5 -1.5t69.5 -1.5q34 0 142 2t148 1q10 0 15 -4t6 -8.5t1 -14.5v-98q0 -27 -2.5 -34t-14.5 -7q-14 0 -19 22q-16 68 -60.5 86.5t-170.5 21.5zM279 772l-114 -62q-23 -14 -32 -14q-13 0 -13 15q0 8 16 25l82 87q21 22 28 23h83q19 0 26 -3.5t23 -19.5l83 -84
q19 -19 19 -28q0 -5 -3.5 -10t-9.5 -5q-5 0 -32 10z" />
    <glyph glyph-name="Edieresis" unicode="&#xcb;" horiz-adv-x="600" 
d="M257 608v-252q58 0 83 13t32 58q5 30 8 37t14 7q19 0 19 -27q0 -7 -1.5 -46t-1.5 -45q0 -23 1.5 -68t1.5 -52q0 -19 -4 -26.5t-17 -7.5q-11 0 -14 6.5t-6 35.5q-5 46 -28 64t-87 18v-184q0 -83 5 -93q6 -13 40 -13q121 0 167.5 26t60.5 97q0 2 1 6l1.5 6t1.5 5.5t2 5.5
t2 5t3 4.5l4 3t4.5 2t5.5 0.5q15 0 17 -17l-1 -40l-5 -110q-1 -19 -4.5 -24.5t-15.5 -5.5q-19 0 -115 1.5t-129 1.5q-78 0 -160 -1.5t-91 -1.5q-21 0 -21 19q0 20 28 20q21 0 29 1t14.5 11t7.5 26.5t1 53.5v398q0 46 -6 61t-30 16h-4q-25 1 -28 11q-1 4 -1 8q0 22 32 22
q24 0 69.5 -1.5t69.5 -1.5q34 0 142 2t148 1q10 0 15 -4t6 -8.5t1 -14.5v-98q0 -27 -2.5 -34t-14.5 -7q-14 0 -19 22q-16 68 -60.5 86.5t-170.5 21.5zM410 819q25 0 43.5 -18t18.5 -44q0 -25 -18 -43t-44 -18q-25 0 -43 18t-18 43q0 26 18 44t43 18zM190 819q25 0 43.5 -18
t18.5 -44q0 -25 -18 -43t-44 -18q-25 0 -43 18t-18 43q0 26 18 44t43 18z" />
    <glyph glyph-name="Igrave" unicode="&#xcc;" horiz-adv-x="366" 
d="M257 495v-341q0 -39 1 -57t2.5 -33.5t7.5 -19.5t12.5 -6t21.5 -2q16 -1 22.5 -2t10 -5.5t3.5 -13.5q0 -12 -6 -15t-22 -3q-11 0 -65 1.5t-63 1.5q-10 0 -63.5 -1.5t-61.5 -1.5q-24 0 -24 20q0 13 7 16t30 3q31 0 35 21q5 24 5 125v352q0 46 -5.5 58t-29.5 12
q-12 0 -17 0.5t-10 5t-5 12.5q0 22 20 22q14 0 67 -1.5t61 -1.5q14 0 56 1.5t53 1.5q27 0 27 -19q0 -14 -6 -18t-18 -4q-29 0 -36.5 -8t-8.5 -39zM192 804l52 -64q19 -22 19 -31q0 -13 -15 -13q-8 0 -34 11l-183 80q-33 15 -39.5 19t-6.5 13q0 11 7.5 13t38.5 2h100
q27 0 35.5 -4.5t25.5 -25.5z" />
    <glyph glyph-name="Iacute" unicode="&#xcd;" horiz-adv-x="366" 
d="M257 495v-341q0 -39 1 -57t2.5 -33.5t7.5 -19.5t12.5 -6t21.5 -2q16 -1 22.5 -2t10 -5.5t3.5 -13.5q0 -12 -6 -15t-22 -3q-11 0 -65 1.5t-63 1.5q-10 0 -63.5 -1.5t-61.5 -1.5q-24 0 -24 20q0 13 7 16t30 3q31 0 35 21q5 24 5 125v352q0 46 -5.5 58t-29.5 12
q-12 0 -17 0.5t-10 5t-5 12.5q0 22 20 22q14 0 67 -1.5t61 -1.5q14 0 56 1.5t53 1.5q27 0 27 -19q0 -14 -6 -18t-18 -4q-29 0 -36.5 -8t-8.5 -39zM235 834h100q31 0 38.5 -2t7.5 -13q0 -9 -6.5 -13.5t-39.5 -18.5l-183 -80q-24 -11 -34 -11q-15 0 -15 13q0 9 19 31l52 64
q21 27 33 29q7 1 28 1z" />
    <glyph glyph-name="Icircumflex" unicode="&#xce;" horiz-adv-x="366" 
d="M257 495v-341q0 -39 1 -57t2.5 -33.5t7.5 -19.5t12.5 -6t21.5 -2q16 -1 22.5 -2t10 -5.5t3.5 -13.5q0 -12 -6 -15t-22 -3q-11 0 -65 1.5t-63 1.5q-10 0 -63.5 -1.5t-61.5 -1.5q-24 0 -24 20q0 13 7 16t30 3q31 0 35 21q5 24 5 125v352q0 46 -5.5 58t-29.5 12
q-12 0 -17 0.5t-10 5t-5 12.5q0 22 20 22q14 0 67 -1.5t61 -1.5q14 0 56 1.5t53 1.5q27 0 27 -19q0 -14 -6 -18t-18 -4q-29 0 -36.5 -8t-8.5 -39zM162 772l-114 -62q-23 -14 -32 -14q-13 0 -13 15q0 8 16 25l82 87q21 22 28 23h83q19 0 26 -3.5t23 -19.5l83 -84
q19 -19 19 -28q0 -5 -3.5 -10t-9.5 -5q-5 0 -32 10z" />
    <glyph glyph-name="Idieresis" unicode="&#xcf;" horiz-adv-x="366" 
d="M257 495v-341q0 -39 1 -57t2.5 -33.5t7.5 -19.5t12.5 -6t21.5 -2q16 -1 22.5 -2t10 -5.5t3.5 -13.5q0 -12 -6 -15t-22 -3q-11 0 -65 1.5t-63 1.5q-10 0 -63.5 -1.5t-61.5 -1.5q-24 0 -24 20q0 13 7 16t30 3q31 0 35 21q5 24 5 125v352q0 46 -5.5 58t-29.5 12
q-12 0 -17 0.5t-10 5t-5 12.5q0 22 20 22q14 0 67 -1.5t61 -1.5q14 0 56 1.5t53 1.5q27 0 27 -19q0 -14 -6 -18t-18 -4q-29 0 -36.5 -8t-8.5 -39zM292 819q25 0 43.5 -18t18.5 -44q0 -25 -18 -43t-44 -18q-25 0 -43 18t-18 43q0 26 18 44t43 18zM73 819q25 0 43.5 -18
t18.5 -44q0 -25 -18 -43t-44 -18q-25 0 -43 18t-18 43q0 26 18 44t43 18z" />
    <glyph glyph-name="Eth" unicode="&#xd0;" horiz-adv-x="710" 
d="M109 302h-55q-20 0 -24.5 2.5t-4.5 15.5q0 14 3.5 16.5t22.5 2.5h58v114q0 122 -7 138q-3 8 -10.5 9.5t-33.5 4.5q-23 2 -23 20q0 19 24 19q13 0 79.5 -1.5t77.5 -1.5q9 0 57 1.5t56 1.5q87 0 154.5 -28.5t106.5 -76t59 -104.5t20 -120q0 -62 -19 -119t-55 -104t-96 -75
t-136 -28q-15 0 -99 6q-68 5 -96 5q-9 0 -61 -2t-60 -2q-22 0 -22 18q0 14 8 17t35 4q30 1 35 22q6 26 6 113v132zM256 302v-169q0 -35 1 -50.5t7.5 -32.5t21 -22.5t40.5 -5.5q95 0 136.5 79t41.5 231q0 141 -48.5 211.5t-152.5 70.5q-3 0 -44 -3q-3 -40 -3 -139v-133h84
q24 0 29 -2t5 -13q0 -15 -3 -18q-5 -4 -41 -4h-74z" />
    <glyph glyph-name="Ntilde" unicode="&#xd1;" horiz-adv-x="676" 
d="M151 527v-379q0 -109 63 -109q29 0 29 -20q0 -22 -22 -22q-5 0 -44.5 1.5t-50.5 1.5q-10 0 -46 -1.5t-42 -1.5q-20 0 -20 19q0 14 5.5 18.5t24.5 4.5q62 0 62 109v430q-19 17 -29.5 21.5t-37.5 4.5q-12 0 -17 0.5t-9 5t-4 13.5q0 11 4 16t17 5q8 0 52.5 -1.5t51.5 -1.5
q6 0 43.5 1.5t51.5 1.5q11 0 16 -4t17 -21l269 -367v270q0 46 -14.5 64t-50.5 18q-24 0 -24 19q0 21 23 21q1 0 29.5 -1.5t52.5 -1.5q15 0 46.5 1.5t36.5 1.5q10 0 15.5 -1t9.5 -5.5t4 -13.5q0 -12 -5.5 -16t-19.5 -4q-32 0 -47 -20t-15 -66v-475q0 -42 -2 -51t-14 -9
q-8 0 -13 4.5t-21 27.5zM292 815q34 0 112 -28q44 -12 50 -12q17 0 29.5 6.5t35.5 23.5q10 5 15 5q6 0 11.5 -5t5.5 -11q0 -22 -49 -60t-110 -38q-37 0 -77 14q-70 25 -88 25q-24 0 -56 -23q-10 -7 -17 -7t-12 5t-5 10q0 21 52 58t103 37z" />
    <glyph glyph-name="Ograve" unicode="&#xd2;" horiz-adv-x="748" 
d="M378 659q102 0 178.5 -50t113.5 -125.5t37 -162.5q0 -41 -9.5 -84t-34 -89.5t-61 -82.5t-96.5 -59t-134 -23q-73 0 -131.5 23t-95 58.5t-61 81.5t-34 89.5t-9.5 85.5q0 61 21 119.5t61 108t106.5 80t148.5 30.5zM377 629q-89 0 -125 -71t-36 -239q0 -52 2.5 -89t11.5 -81
t25 -71.5t46 -46t72 -18.5q50 0 82.5 22.5t49 68t22 97t5.5 127.5q0 148 -33 224.5t-122 76.5zM383 804l52 -64q19 -22 19 -31q0 -13 -15 -13q-8 0 -34 11l-183 80q-33 15 -39.5 19t-6.5 13q0 11 8 13t38 2h100q27 0 35.5 -4.5t25.5 -25.5z" />
    <glyph glyph-name="Oacute" unicode="&#xd3;" horiz-adv-x="748" 
d="M378 659q102 0 178.5 -50t113.5 -125.5t37 -162.5q0 -41 -9.5 -84t-34 -89.5t-61 -82.5t-96.5 -59t-134 -23q-73 0 -131.5 23t-95 58.5t-61 81.5t-34 89.5t-9.5 85.5q0 61 21 119.5t61 108t106.5 80t148.5 30.5zM377 629q-89 0 -125 -71t-36 -239q0 -52 2.5 -89t11.5 -81
t25 -71.5t46 -46t72 -18.5q50 0 82.5 22.5t49 68t22 97t5.5 127.5q0 148 -33 224.5t-122 76.5zM426 834h100q30 0 38 -2t8 -13q0 -9 -6.5 -13.5t-39.5 -18.5l-183 -80q-24 -11 -34 -11q-15 0 -15 13q0 9 19 31l52 64q21 27 33 29q7 1 28 1z" />
    <glyph glyph-name="Ocircumflex" unicode="&#xd4;" horiz-adv-x="748" 
d="M378 659q102 0 178.5 -50t113.5 -125.5t37 -162.5q0 -41 -9.5 -84t-34 -89.5t-61 -82.5t-96.5 -59t-134 -23q-73 0 -131.5 23t-95 58.5t-61 81.5t-34 89.5t-9.5 85.5q0 61 21 119.5t61 108t106.5 80t148.5 30.5zM377 629q-89 0 -125 -71t-36 -239q0 -52 2.5 -89t11.5 -81
t25 -71.5t46 -46t72 -18.5q50 0 82.5 22.5t49 68t22 97t5.5 127.5q0 148 -33 224.5t-122 76.5zM353 772l-114 -62q-23 -14 -32 -14q-13 0 -13 15q0 8 16 25l82 87q21 22 28 23h83q19 0 26 -3.5t23 -19.5l83 -84q19 -19 19 -28q0 -5 -3.5 -10t-9.5 -5q-5 0 -32 10z" />
    <glyph glyph-name="Otilde" unicode="&#xd5;" horiz-adv-x="748" 
d="M378 659q102 0 178.5 -50t113.5 -125.5t37 -162.5q0 -41 -9.5 -84t-34 -89.5t-61 -82.5t-96.5 -59t-134 -23q-73 0 -131.5 23t-95 58.5t-61 81.5t-34 89.5t-9.5 85.5q0 61 21 119.5t61 108t106.5 80t148.5 30.5zM377 629q-89 0 -125 -71t-36 -239q0 -52 2.5 -89t11.5 -81
t25 -71.5t46 -46t72 -18.5q50 0 82.5 22.5t49 68t22 97t5.5 127.5q0 148 -33 224.5t-122 76.5zM322 815q35 0 113 -28q40 -12 49 -12q17 0 29.5 6.5t35.5 23.5q10 5 15 5q6 0 11.5 -5t5.5 -11q0 -22 -49 -60t-110 -38q-37 0 -77 14q-70 25 -88 25q-24 0 -56 -23
q-10 -7 -17 -7t-12 5t-5 10q0 21 52.5 58t102.5 37z" />
    <glyph glyph-name="Odieresis" unicode="&#xd6;" horiz-adv-x="748" 
d="M378 659q102 0 178.5 -50t113.5 -125.5t37 -162.5q0 -41 -9.5 -84t-34 -89.5t-61 -82.5t-96.5 -59t-134 -23q-73 0 -131.5 23t-95 58.5t-61 81.5t-34 89.5t-9.5 85.5q0 61 21 119.5t61 108t106.5 80t148.5 30.5zM377 629q-89 0 -125 -71t-36 -239q0 -52 2.5 -89t11.5 -81
t25 -71.5t46 -46t72 -18.5q50 0 82.5 22.5t49 68t22 97t5.5 127.5q0 148 -33 224.5t-122 76.5zM484 819q25 0 43.5 -18t18.5 -44q0 -25 -18 -43t-44 -18q-25 0 -43 18t-18 43q0 26 18 44t43 18zM264 819q25 0 43.5 -18t18.5 -44q0 -25 -18 -43t-44 -18q-25 0 -43 18t-18 43
q0 26 18 44t43 18z" />
    <glyph glyph-name="multiply" unicode="&#xd7;" 
d="M444 434l-128 -129l128 -128l-60 -61l-129 129l-129 -129l-60 61l128 128l-128 129l60 60l129 -128l129 128z" />
    <glyph glyph-name="Oslash" unicode="&#xd8;" horiz-adv-x="748" 
d="M582 592l41 47q13 15 17 15q5 0 14 -7.5t9 -11.5q0 -6 -14 -23l-39 -46q97 -100 97 -245q0 -41 -9.5 -84t-34 -89.5t-61 -82t-96.5 -59t-135 -23.5q-120 0 -204 63l-31 -36q-18 -21 -23 -21t-14 7.5t-9 12.5t13 21l36 42q-98 101 -98 248q0 61 20 119t59 108t106 81
t152 31q120 0 204 -67zM225 173l289 339q-33 117 -138 117q-88 0 -124 -71t-36 -237q0 -94 9 -148zM523 465l-287 -338q6 -19 12 -33t21 -35.5t41.5 -33.5t62.5 -12q49 0 81 21.5t49 65.5t23 96.5t6 128.5q0 74 -9 140z" />
    <glyph glyph-name="Ugrave" unicode="&#xd9;" horiz-adv-x="686" 
d="M588 501v-241q0 -48 -3 -81t-16 -73.5t-37 -64.5t-69 -41t-108 -17q-137 0 -196 60t-59 170v328q0 36 -5.5 47.5t-28.5 12.5q-18 1 -24 4t-6 16q0 11 5.5 16t11 6t16.5 1q8 0 50 -1.5t49 -1.5q9 0 58 1.5t58 1.5q29 0 29 -23q0 -13 -6 -15.5t-27 -3.5q-23 -1 -28 -18
t-5 -76v-301q0 -84 40.5 -128t107.5 -44q74 0 113 46t39 157v263q0 56 -10 75.5t-39 23.5q-22 3 -30 7t-8 16q0 21 26 21q5 0 40.5 -1.5t42.5 -1.5q6 0 34.5 1.5t33.5 1.5q30 0 30 -23q0 -9 -5 -12.5t-28 -9.5q-28 -8 -37 -27t-9 -71zM373 804l52 -64q18 -21 18 -31
q0 -13 -15 -13q-7 0 -33 11l-183 80q-33 14 -39.5 18.5t-6.5 13.5q0 11 8 13t38 2h100q26 0 35 -4.5t26 -25.5z" />
    <glyph glyph-name="Uacute" unicode="&#xda;" horiz-adv-x="686" 
d="M588 501v-241q0 -48 -3 -81t-16 -73.5t-37 -64.5t-69 -41t-108 -17q-137 0 -196 60t-59 170v328q0 36 -5.5 47.5t-28.5 12.5q-18 1 -24 4t-6 16q0 11 5.5 16t11 6t16.5 1q8 0 50 -1.5t49 -1.5q9 0 58 1.5t58 1.5q29 0 29 -23q0 -13 -6 -15.5t-27 -3.5q-23 -1 -28 -18
t-5 -76v-301q0 -84 40.5 -128t107.5 -44q74 0 113 46t39 157v263q0 56 -10 75.5t-39 23.5q-22 3 -30 7t-8 16q0 21 26 21q5 0 40.5 -1.5t42.5 -1.5q6 0 34.5 1.5t33.5 1.5q30 0 30 -23q0 -9 -5 -12.5t-28 -9.5q-28 -8 -37 -27t-9 -71zM415 834h100q31 0 38.5 -2t7.5 -13
q0 -9 -6.5 -13.5t-39.5 -18.5l-183 -80q-26 -11 -33 -11q-15 0 -15 13q0 10 19 31l52 64q16 19 20.5 23.5t12.5 5.5q6 1 27 1z" />
    <glyph glyph-name="Ucircumflex" unicode="&#xdb;" horiz-adv-x="686" 
d="M588 501v-241q0 -48 -3 -81t-16 -73.5t-37 -64.5t-69 -41t-108 -17q-137 0 -196 60t-59 170v328q0 36 -5.5 47.5t-28.5 12.5q-18 1 -24 4t-6 16q0 11 5.5 16t11 6t16.5 1q8 0 50 -1.5t49 -1.5q9 0 58 1.5t58 1.5q29 0 29 -23q0 -13 -6 -15.5t-27 -3.5q-23 -1 -28 -18
t-5 -76v-301q0 -84 40.5 -128t107.5 -44q74 0 113 46t39 157v263q0 56 -10 75.5t-39 23.5q-22 3 -30 7t-8 16q0 21 26 21q5 0 40.5 -1.5t42.5 -1.5q6 0 34.5 1.5t33.5 1.5q30 0 30 -23q0 -9 -5 -12.5t-28 -9.5q-28 -8 -37 -27t-9 -71zM343 772l-115 -62q-23 -14 -31 -14
q-13 0 -13 15q0 8 16 25l81 87q20 22 29 23h82q19 0 26.5 -3.5t23.5 -19.5l82 -84q3 -3 7 -7.5t5.5 -6t4 -4.5t3 -5t0.5 -5q0 -5 -4 -10t-10 -5q-8 0 -31 10z" />
    <glyph glyph-name="Udieresis" unicode="&#xdc;" horiz-adv-x="686" 
d="M588 501v-241q0 -48 -3 -81t-16 -73.5t-37 -64.5t-69 -41t-108 -17q-137 0 -196 60t-59 170v328q0 36 -5.5 47.5t-28.5 12.5q-18 1 -24 4t-6 16q0 11 5.5 16t11 6t16.5 1q8 0 50 -1.5t49 -1.5q9 0 58 1.5t58 1.5q29 0 29 -23q0 -13 -6 -15.5t-27 -3.5q-23 -1 -28 -18
t-5 -76v-301q0 -84 40.5 -128t107.5 -44q74 0 113 46t39 157v263q0 56 -10 75.5t-39 23.5q-22 3 -30 7t-8 16q0 21 26 21q5 0 40.5 -1.5t42.5 -1.5q6 0 34.5 1.5t33.5 1.5q30 0 30 -23q0 -9 -5 -12.5t-28 -9.5q-28 -8 -37 -27t-9 -71zM473 819q25 0 43.5 -18t18.5 -44
q0 -25 -18 -43t-44 -18q-25 0 -43 18t-18 43q0 26 18 44t43 18zM253 819q25 0 43.5 -18t18.5 -44q0 -25 -18 -43t-44 -18q-25 0 -43 18t-18 43q0 26 18 44t43 18z" />
    <glyph glyph-name="Yacute" unicode="&#xdd;" horiz-adv-x="654" 
d="M392 296l107 222q20 40 20 54q0 27 -33 32q-12 1 -17.5 2.5t-9 6t-3.5 12.5q0 19 22 19q15 0 44 -1.5t32 -1.5q12 0 43 1.5t36 1.5t7.5 -0.5t5.5 -5t3 -12.5q0 -10 -3.5 -15t-7 -5.5t-10.5 -0.5q-25 -1 -38.5 -14.5t-28.5 -43.5l-152 -297v-156q0 -38 4.5 -46t28.5 -9
q34 -1 41.5 -4t7.5 -17q0 -21 -22 -21q-10 0 -65 1.5t-64 1.5q-11 0 -72.5 -1.5t-71.5 -1.5q-16 0 -16 18q0 12 8 17t37 5q27 0 32 9.5t5 50.5v150l-174 309q-17 30 -26 38.5t-28 10.5q-20 2 -24.5 4.5t-4.5 13.5q0 21 18 21q16 0 59 -1.5t51 -1.5q14 0 66.5 1.5t64.5 1.5
q19 0 24.5 -3t5.5 -15q0 -10 -3 -15t-6 -5.5t-10 -0.5h-20t-13 -1.5t-9 -4.5t-2 -9t10 -25zM396 834h101q30 0 37.5 -2t7.5 -13q0 -9 -6 -13.5t-39 -18.5l-183 -80q-24 -11 -34 -11q-15 0 -15 13q0 10 19 31l52 64q22 27 33 29q6 1 27 1z" />
    <glyph glyph-name="Thorn" unicode="&#xde;" horiz-adv-x="573" 
d="M252 160v-41q0 -60 6.5 -71t39.5 -12q23 0 30.5 -3t7.5 -18q0 -18 -27 -18q-10 0 -65 1.5t-64 1.5q-10 0 -60 -1.5t-58 -1.5q-22 0 -22 17q0 11 5 15.5t12.5 5.5t27.5 2q17 1 21 12.5t4 47.5v443q0 40 -5 51.5t-24 12.5q-26 1 -34 3.5t-8 15.5q0 21 25 21q10 0 60 -1.5
t58 -1.5q7 0 49 1.5t59 1.5q29 0 29 -20q0 -12 -6 -15t-34 -6q-19 -2 -23 -11.5t-4 -36.5v-65h59q94 0 158.5 -44.5t64.5 -122.5q0 -73 -52.5 -119t-171.5 -46q-28 0 -58 2zM252 458v-265q44 -10 83 26.5t39 111.5q0 73 -33.5 100t-88.5 27z" />
    <glyph glyph-name="germandbls" unicode="&#xdf;" horiz-adv-x="512" 
d="M190 473v-454q0 -13 -2.5 -17.5t-14.5 -4.5q-6 0 -38.5 1.5t-37.5 1.5t-31.5 -1.5t-30.5 -1.5q-23 0 -23 18q0 13 7 16t26 4q13 1 16 12q1 6 1 38v383q0 97 50 152.5t152 55.5q92 0 139.5 -46t47.5 -111q0 -68 -45.5 -103t-105.5 -38q52 -10 89.5 -33.5t56 -54t26.5 -58
t8 -54.5q0 -75 -46 -134t-128 -59q-25 0 -43 7t-26.5 16.5t-14 21t-6 17t-0.5 9.5q0 17 10 34t34 17q18 0 26.5 -10t8.5 -23q0 -15 -11 -29q-9 -12 -9 -18q0 -8 6.5 -13t13.5 -5q10 0 17.5 6.5t12 22t7 27.5t3.5 35.5t1 33.5v34q0 99 -18 141t-61 53q-16 4 -20.5 6.5
t-4.5 10.5q0 14 20 18q34 7 52.5 34.5t18.5 101.5q0 119 -64 119q-37 0 -53 -40t-16 -139z" />
    <glyph glyph-name="agrave" unicode="&#xe0;" horiz-adv-x="439" 
d="M372 245l-4 -136q-1 -41 2 -54.5t16 -13.5q8 0 19 11q9 9 14 9q14 0 14 -16q0 -18 -25 -39t-69 -21q-82 0 -93 66q-66 -66 -126 -66q-41 0 -67.5 23.5t-26.5 68.5q0 67 66 112t155 56q1 91 -5 109q-10 32 -52 32t-44 -34q-1 -21 -2 -30t-6 -21.5t-15.5 -17.5t-28.5 -5
q-24 0 -38.5 13t-14.5 34q0 11 4.5 22.5t18 27t47.5 25.5t85 10t86 -9.5t53 -22t27 -37.5t10 -43.5t0 -52.5zM242 122l4 98q-102 -25 -102 -101q0 -27 14.5 -45.5t36.5 -18.5t48 21zM167 603l98 -107q24 -28 24 -35t-5.5 -10.5t-9.5 -3.5q-9 0 -88 49q-77 41 -93 53
q-25 20 -25 45q0 19 13 31t32 12q25 0 54 -34z" />
    <glyph glyph-name="aacute" unicode="&#xe1;" horiz-adv-x="439" 
d="M372 245l-4 -136q-1 -41 2 -54.5t16 -13.5q8 0 19 11q9 9 14 9q14 0 14 -16q0 -18 -25 -39t-69 -21q-82 0 -93 66q-66 -66 -126 -66q-41 0 -67.5 23.5t-26.5 68.5q0 67 66 112t155 56q1 91 -5 109q-10 32 -52 32t-44 -34q-1 -21 -2 -30t-6 -21.5t-15.5 -17.5t-28.5 -5
q-24 0 -38.5 13t-14.5 34q0 11 4.5 22.5t18 27t47.5 25.5t85 10t86 -9.5t53 -22t27 -37.5t10 -43.5t0 -52.5zM242 122l4 98q-102 -25 -102 -101q0 -27 14.5 -45.5t36.5 -18.5t48 21zM174 496l98 107q29 34 54 34q20 0 32.5 -12t12.5 -31q0 -23 -16 -37t-59 -37
q-7 -4 -51 -30.5t-52 -30.5q-23 -12 -28 -12q-4 0 -9.5 4t-5.5 10q0 8 24 35z" />
    <glyph glyph-name="acircumflex" unicode="&#xe2;" horiz-adv-x="439" 
d="M372 245l-4 -136q-1 -41 2 -54.5t16 -13.5q8 0 19 11q9 9 14 9q14 0 14 -16q0 -18 -25 -39t-69 -21q-82 0 -93 66q-66 -66 -126 -66q-41 0 -67.5 23.5t-26.5 68.5q0 67 66 112t155 56q1 91 -5 109q-10 32 -52 32t-44 -34q-1 -21 -2 -30t-6 -21.5t-15.5 -17.5t-28.5 -5
q-24 0 -38.5 13t-14.5 34q0 11 4.5 22.5t18 27t47.5 25.5t85 10t86 -9.5t53 -22t27 -37.5t10 -43.5t0 -52.5zM242 122l4 98q-102 -25 -102 -101q0 -27 14.5 -45.5t36.5 -18.5t48 21zM210 550l-77 -74q-31 -30 -40 -30q-17 0 -17 13q0 8 15 31l74 122q13 20 16 23q5 4 40 4
q28 0 33 -4q2 -1 14 -20l77 -121q18 -29 18 -36q0 -6 -4.5 -10t-9.5 -4q-8 0 -14 4t-32 25z" />
    <glyph glyph-name="atilde" unicode="&#xe3;" horiz-adv-x="439" 
d="M372 245l-4 -136q-1 -41 2 -54.5t16 -13.5q8 0 19 11q9 9 14 9q14 0 14 -16q0 -18 -25 -39t-69 -21q-82 0 -93 66q-66 -66 -126 -66q-41 0 -67.5 23.5t-26.5 68.5q0 67 66 112t155 56q1 91 -5 109q-10 32 -52 32t-44 -34q-1 -21 -2 -30t-6 -21.5t-15.5 -17.5t-28.5 -5
q-24 0 -38.5 13t-14.5 34q0 11 4.5 22.5t18 27t47.5 25.5t85 10t86 -9.5t53 -22t27 -37.5t10 -43.5t0 -52.5zM242 122l4 98q-102 -25 -102 -101q0 -27 14.5 -45.5t36.5 -18.5t48 21zM178 596q30 0 63 -13q55 -22 76 -22q24 0 37 13q18 15 23 15q6 0 11 -4.5t5 -11.5
q0 -23 -41.5 -53.5t-90.5 -30.5q-28 0 -78 19q-40 16 -59 16t-35 -10q-20 -15 -26 -15t-11.5 5t-5.5 10q0 11 32 40q46 42 100 42z" />
    <glyph glyph-name="adieresis" unicode="&#xe4;" horiz-adv-x="439" 
d="M242 122l4 98q-102 -25 -102 -101q0 -27 14.5 -45.5t36.5 -18.5t48 21zM372 245l-4 -136q-1 -41 2 -54.5t16 -13.5q8 0 19 11q9 9 14 9q14 0 14 -16q0 -18 -25 -39t-69 -21q-82 0 -93 66q-66 -66 -126 -66q-41 0 -67.5 23.5t-26.5 68.5q0 67 66 112t155 56q1 91 -5 109
q-10 32 -52 32t-44 -34q-1 -21 -2 -30t-6 -21.5t-15.5 -17.5t-28.5 -5q-24 0 -38.5 13t-14.5 34q0 11 4.5 22.5t18 27t47.5 25.5t85 10t86 -9.5t53 -22t27 -37.5t10 -43.5t0 -52.5zM316 597q23 0 39.5 -16.5t16.5 -39.5t-16.5 -39.5t-39.5 -16.5q-24 0 -40 16.5t-16 39.5
t16 39.5t40 16.5zM123 597q24 0 40 -16.5t16 -39.5t-16.5 -39.5t-39.5 -16.5t-39.5 16.5t-16.5 39.5t16.5 39.5t39.5 16.5z" />
    <glyph glyph-name="aring" unicode="&#xe5;" horiz-adv-x="439" 
d="M372 245l-4 -136q-1 -41 2 -54.5t16 -13.5q8 0 19 11q9 9 14 9q14 0 14 -16q0 -18 -25 -39t-69 -21q-82 0 -93 66q-66 -66 -126 -66q-41 0 -67.5 23.5t-26.5 68.5q0 67 66 112t155 56q1 91 -5 109q-10 32 -52 32t-44 -34q-1 -21 -2 -30t-6 -21.5t-15.5 -17.5t-28.5 -5
q-24 0 -38.5 13t-14.5 34q0 11 4.5 22.5t18 27t47.5 25.5t85 10t86 -9.5t53 -22t27 -37.5t10 -43.5t0 -52.5zM242 122l4 98q-102 -25 -102 -101q0 -27 14.5 -45.5t36.5 -18.5t48 21zM220 642q39 0 67.5 -28t28.5 -68t-28 -68.5t-68 -28.5t-68.5 28.5t-28.5 68.5t28.5 68
t68.5 28zM219 596q-21 0 -35.5 -14.5t-14.5 -35.5t15 -36t35 -15q21 0 36 15t15 36t-15 35.5t-36 14.5z" />
    <glyph glyph-name="ae" unicode="&#xe6;" horiz-adv-x="637" 
d="M529 218h-155q9 -166 120 -166q57 0 85 52q11 20 17 20q16 0 16 -15q0 -12 -8 -30t-26 -40.5t-56.5 -38t-89.5 -15.5q-100 0 -153 73q-54 -39 -87.5 -56t-70.5 -17q-51 0 -73 30t-22 63q0 48 34.5 84.5t82 55.5t104.5 27q0 8 1 27.5t0.5 29t-1 25.5t-4.5 24t-10 17.5
t-16.5 13.5t-24.5 4q-26 0 -36.5 -10.5t-11.5 -36.5q-2 -56 -48 -56q-21 0 -37 11.5t-16 33.5q0 32 38 57t119 25q55 0 81.5 -10t52.5 -32q44 42 116 42q78 0 121 -55.5t43 -113.5q0 -7 -1.5 -11.5t-5.5 -7t-8.5 -4t-13 -1.5h-15t-19 0.5t-22.5 0.5zM374 251h67
q43 0 52.5 5.5t9.5 34.5q0 95 -57 95q-67 0 -72 -135zM263 80q-12 27 -15.5 52.5t-1.5 88.5q-102 -24 -102 -99q0 -18 5.5 -31.5t12.5 -19.5t16 -9.5t13 -4t7 -0.5q24 0 65 23z" />
    <glyph glyph-name="ccedilla" unicode="&#xe7;" horiz-adv-x="424" 
d="M220 -15l-4 -26q52 -5 72 -28.5t20 -54.5q0 -50 -44 -77.5t-107 -27.5q-52 0 -52 24q0 6 1.5 9.5t8 5.5t10.5 2.5t18 1.5q73 5 73 48q0 32 -43 39l16 87q-68 12 -112.5 65.5t-44.5 129.5q0 95 64.5 161t164.5 66q72 0 108.5 -31t36.5 -68q0 -24 -15.5 -41t-40.5 -17
q-24 0 -37.5 13.5t-13.5 33.5q0 4 4.5 25t4.5 24q0 37 -40 37q-33 0 -55 -29.5t-30.5 -66.5t-8.5 -78q0 -24 3 -46.5t12.5 -53t32 -49t56.5 -18.5q55 0 90 49q10 14 18 14q15 0 15 -14q0 -5 -4 -16t-16.5 -27.5t-31.5 -31t-53 -25t-76 -9.5z" />
    <glyph glyph-name="egrave" unicode="&#xe8;" horiz-adv-x="429" 
d="M358 239h-194q0 -83 30 -135t91 -52q57 0 86 51q2 3 4 7q4 7 5.5 9.5t3.5 3.5t5 1q15 0 15 -16q0 -9 -8 -26.5t-25.5 -40.5t-55.5 -39.5t-88 -16.5q-91 0 -143 54.5t-52 141.5q0 102 63 165.5t145 63.5q44 0 79 -18.5t52.5 -45t26 -49.5t8.5 -39q0 -13 -9 -16t-39 -3z
M165 272h74q28 0 37 1t14.5 7t5.5 22q0 34 -14 59t-43 25q-60 0 -73 -109q-1 -4 -1 -5zM162 603l98 -107q24 -28 24 -35t-5.5 -10.5t-9.5 -3.5q-9 0 -88 49q-77 41 -93 53q-25 20 -25 45q0 19 13 31t32 12q25 0 54 -34z" />
    <glyph glyph-name="eacute" unicode="&#xe9;" horiz-adv-x="429" 
d="M358 239h-194q0 -83 30 -135t91 -52q57 0 86 51q2 3 4 7q4 7 5.5 9.5t3.5 3.5t5 1q15 0 15 -16q0 -9 -8 -26.5t-25.5 -40.5t-55.5 -39.5t-88 -16.5q-91 0 -143 54.5t-52 141.5q0 102 63 165.5t145 63.5q44 0 79 -18.5t52.5 -45t26 -49.5t8.5 -39q0 -13 -9 -16t-39 -3z
M165 272h74q28 0 37 1t14.5 7t5.5 22q0 34 -14 59t-43 25q-60 0 -73 -109q-1 -4 -1 -5zM169 496l98 107q29 34 54 34q20 0 32.5 -12t12.5 -31q0 -23 -16 -37t-59 -37q-7 -4 -51 -30.5t-52 -30.5q-23 -12 -28 -12q-4 0 -9.5 4t-5.5 10q0 8 24 35z" />
    <glyph glyph-name="ecircumflex" unicode="&#xea;" horiz-adv-x="429" 
d="M358 239h-194q0 -83 30 -135t91 -52q57 0 86 51q2 3 4 7q4 7 5.5 9.5t3.5 3.5t5 1q15 0 15 -16q0 -9 -8 -26.5t-25.5 -40.5t-55.5 -39.5t-88 -16.5q-91 0 -143 54.5t-52 141.5q0 102 63 165.5t145 63.5q44 0 79 -18.5t52.5 -45t26 -49.5t8.5 -39q0 -13 -9 -16t-39 -3z
M165 272h74q28 0 37 1t14.5 7t5.5 22q0 34 -14 59t-43 25q-60 0 -73 -109q-1 -4 -1 -5zM205 550l-77 -74q-31 -30 -40 -30q-17 0 -17 13q0 8 15 31l74 122q13 20 16 23q5 4 40 4q28 0 33 -4q3 -1 14 -20l77 -121q18 -29 18 -36q0 -6 -4.5 -10t-9.5 -4q-8 0 -14 4t-32 25z
" />
    <glyph glyph-name="edieresis" unicode="&#xeb;" horiz-adv-x="429" 
d="M358 239h-194q0 -83 30 -135t91 -52q57 0 86 51q2 3 4 7q4 7 5.5 9.5t3.5 3.5t5 1q15 0 15 -16q0 -9 -8 -26.5t-25.5 -40.5t-55.5 -39.5t-88 -16.5q-91 0 -143 54.5t-52 141.5q0 102 63 165.5t145 63.5q44 0 79 -18.5t52.5 -45t26 -49.5t8.5 -39q0 -13 -9 -16t-39 -3z
M165 272h74q28 0 37 1t14.5 7t5.5 22q0 34 -14 59t-43 25q-60 0 -73 -109q-1 -4 -1 -5zM118 597q24 0 40 -16.5t16 -39.5t-16.5 -39.5t-39.5 -16.5t-39.5 16.5t-16.5 39.5t16.5 39.5t39.5 16.5zM311 597q23 0 39.5 -16.5t16.5 -39.5t-16.5 -39.5t-39.5 -16.5q-24 0 -40 16.5
t-16 39.5t16 39.5t40 16.5z" />
    <glyph glyph-name="igrave" unicode="&#xec;" horiz-adv-x="268" 
d="M73 122v173q0 41 -5.5 50t-29.5 9q-22 0 -22 17q0 13 6.5 15.5t31.5 3.5q1 0 23.5 1.5t47.5 4t40 5.5q2 0 8.5 1t11 2t6.5 1q14 0 14 -17l-2 -42q-2 -6 -2 -78v-183q0 -33 3.5 -41.5t21.5 -8.5q19 0 26 -3.5t7 -15.5q0 -19 -16 -19q-9 0 -56.5 1.5t-55.5 1.5t-48 -1.5
t-47 -1.5q-21 0 -21 18q0 14 4.5 16.5t24.5 3.5q23 1 26 10q3 10 3 77zM82 603l98 -107q24 -28 24 -35t-5.5 -10.5t-9.5 -3.5q-9 0 -88 49q-77 41 -93 53q-25 20 -25 45q0 19 13 31t32 12q25 0 54 -34z" />
    <glyph glyph-name="iacute" unicode="&#xed;" horiz-adv-x="268" 
d="M73 122v173q0 41 -5.5 50t-29.5 9q-22 0 -22 17q0 13 6.5 15.5t31.5 3.5q1 0 23.5 1.5t47.5 4t40 5.5q2 0 8.5 1t11 2t6.5 1q14 0 14 -17l-2 -42q-2 -6 -2 -78v-183q0 -33 3.5 -41.5t21.5 -8.5q19 0 26 -3.5t7 -15.5q0 -19 -16 -19q-9 0 -56.5 1.5t-55.5 1.5t-48 -1.5
t-47 -1.5q-21 0 -21 18q0 14 4.5 16.5t24.5 3.5q23 1 26 10q3 10 3 77zM89 496l98 107q29 34 54 34q20 0 32.5 -12t12.5 -31q0 -23 -16 -37t-59 -37q-7 -4 -51 -30.5t-52 -30.5q-22 -12 -28 -12q-4 0 -9.5 4t-5.5 10q0 8 24 35z" />
    <glyph glyph-name="icircumflex" unicode="&#xee;" horiz-adv-x="268" 
d="M73 122v173q0 41 -5.5 50t-29.5 9q-22 0 -22 17q0 13 6.5 15.5t31.5 3.5q1 0 23.5 1.5t47.5 4t40 5.5q2 0 8.5 1t11 2t6.5 1q14 0 14 -17l-2 -42q-2 -6 -2 -78v-183q0 -33 3.5 -41.5t21.5 -8.5q19 0 26 -3.5t7 -15.5q0 -19 -16 -19q-9 0 -56.5 1.5t-55.5 1.5t-48 -1.5
t-47 -1.5q-21 0 -21 18q0 14 4.5 16.5t24.5 3.5q23 1 26 10q3 10 3 77zM125 550l-77 -74q-31 -30 -40 -30q-17 0 -17 13q0 8 15 31l74 122q13 20 16 23q5 4 40 4q28 0 33 -4q2 -1 14 -20l77 -121q18 -29 18 -36q0 -6 -4.5 -10t-9.5 -4q-8 0 -14 4t-32 25z" />
    <glyph glyph-name="idieresis" unicode="&#xef;" horiz-adv-x="268" 
d="M73 122v173q0 41 -5.5 50t-29.5 9q-22 0 -22 17q0 13 6.5 15.5t31.5 3.5q1 0 23.5 1.5t47.5 4t40 5.5q2 0 8.5 1t11 2t6.5 1q14 0 14 -17l-2 -42q-2 -6 -2 -78v-183q0 -33 3.5 -41.5t21.5 -8.5q19 0 26 -3.5t7 -15.5q0 -19 -16 -19q-9 0 -56.5 1.5t-55.5 1.5t-48 -1.5
t-47 -1.5q-21 0 -21 18q0 14 4.5 16.5t24.5 3.5q23 1 26 10q3 10 3 77zM47 597q24 0 40 -16.5t16 -39.5t-17 -39.5t-39 -16.5q-23 0 -39.5 16.5t-16.5 39.5q0 20 15 38t41 18zM221 597q23 0 39.5 -16.5t16.5 -39.5q0 -22 -15.5 -39t-40.5 -17q-23 0 -39.5 16.5t-16.5 39.5
t16 39.5t40 16.5z" />
    <glyph glyph-name="eth" unicode="&#xf0;" horiz-adv-x="495" 
d="M223 551l-82 -60q-13 -10 -16 -10q-4 0 -11.5 8.5t-7.5 11.5q0 5 16 17l79 59q-25 29 -62 59q-3 2 -6 5t-5 4.5l-4 3t-3 2.5l-2 2t-1.5 2l-1 2t-0.5 2v2q0 15 15 15q24 0 112 -68l74 55q17 13 21 13q6 0 12 -9.5t6 -13.5q0 -5 -16 -16l-70 -51q112 -95 152.5 -180.5
t40.5 -174.5q0 -108 -58.5 -177t-156.5 -69q-99 0 -157.5 65.5t-58.5 146.5q0 91 67 152t146 61q23 0 51 -10q-31 96 -73 151zM249 386q-39 0 -55.5 -47t-16.5 -141q0 -40 2 -67.5t8.5 -58.5t22 -47t38.5 -16q24 0 38.5 16t21 49.5t8.5 65t2 83.5q0 80 -14.5 121.5
t-54.5 41.5z" />
    <glyph glyph-name="ntilde" unicode="&#xf1;" horiz-adv-x="524" 
d="M460 285v-210q0 -27 4 -33.5t18 -6.5q28 0 28 -17q0 -13 -4 -17t-13 -4q-8 0 -48.5 1.5t-46.5 1.5t-43.5 -1.5t-52.5 -1.5q-8 0 -11.5 0.5t-6 4.5t-2.5 13q0 13 6 16.5t26 3.5q8 0 11 8t3 37v209q0 19 -1 30.5t-9.5 24.5t-25.5 13q-28 0 -48.5 -23.5t-30.5 -47.5
q-12 -26 -12 -84v-142q0 -15 4 -20t15 -5q16 0 21 -3.5t5 -15.5t-4.5 -15.5t-17.5 -3.5q-12 0 -51 1.5t-46 1.5q-6 0 -39.5 -1.5t-46.5 -1.5q-18 0 -18 17q0 14 5.5 17t22.5 4q16 1 19 10t3 43v207q0 57 -26 57q-13 0 -18.5 3.5t-5.5 15.5q0 20 24 20q43 0 80 5q4 0 29 4.5
t30 4.5q4 0 7 -1.5t4.5 -4.5t2.5 -6t1 -8v-8.5v-10v-9.5v-42q47 90 139 90q38 0 64 -12.5t37 -34t15 -38.5t4 -35zM221 596q30 0 63 -13q55 -22 76 -22q24 0 37 13q18 15 23 15q6 0 11 -4.5t5 -11.5q0 -23 -41.5 -53.5t-90.5 -30.5q-28 0 -78 19q-40 16 -59 16t-35 -10
q-20 -15 -26 -15t-11.5 5t-5.5 10q0 11 32 40q46 42 100 42z" />
    <glyph glyph-name="ograve" unicode="&#xf2;" horiz-adv-x="495" 
d="M245 410q101 0 159.5 -65t58.5 -147q0 -35 -14 -71.5t-40 -68.5t-69 -52.5t-94 -20.5q-96 0 -155 65.5t-59 145.5q0 83 61.5 148.5t151.5 65.5zM249 386q-39 0 -55.5 -47t-16.5 -141q0 -40 2 -67.5t8.5 -58.5t22 -47t38.5 -16q24 0 38.5 16t21 49.5t8.5 65t2 83.5
q0 80 -14.5 121.5t-54.5 41.5zM195 603l98 -107q24 -28 24 -35t-5.5 -10.5t-9.5 -3.5q-9 0 -88 49q-77 41 -93 53q-25 20 -25 45q0 19 13 31t32 12q25 0 54 -34z" />
    <glyph glyph-name="oacute" unicode="&#xf3;" horiz-adv-x="495" 
d="M245 410q101 0 159.5 -65t58.5 -147q0 -35 -14 -71.5t-40 -68.5t-69 -52.5t-94 -20.5q-96 0 -155 65.5t-59 145.5q0 83 61.5 148.5t151.5 65.5zM249 386q-39 0 -55.5 -47t-16.5 -141q0 -40 2 -67.5t8.5 -58.5t22 -47t38.5 -16q24 0 38.5 16t21 49.5t8.5 65t2 83.5
q0 80 -14.5 121.5t-54.5 41.5zM202 496l98 107q29 34 54 34q20 0 32.5 -12t12.5 -31q0 -23 -16 -37t-59 -37q-7 -4 -51 -30.5t-52 -30.5q-22 -12 -28 -12q-4 0 -9.5 4t-5.5 10q0 8 24 35z" />
    <glyph glyph-name="ocircumflex" unicode="&#xf4;" horiz-adv-x="495" 
d="M245 410q101 0 159.5 -65t58.5 -147q0 -35 -14 -71.5t-40 -68.5t-69 -52.5t-94 -20.5q-96 0 -155 65.5t-59 145.5q0 83 61.5 148.5t151.5 65.5zM249 386q-39 0 -55.5 -47t-16.5 -141q0 -40 2 -67.5t8.5 -58.5t22 -47t38.5 -16q24 0 38.5 16t21 49.5t8.5 65t2 83.5
q0 80 -14.5 121.5t-54.5 41.5zM238 550l-77 -74q-31 -30 -40 -30q-17 0 -17 13q0 8 15 31l74 122q13 20 16 23q5 4 40 4q28 0 33 -4q2 -1 14 -20l77 -121q18 -29 18 -36q0 -6 -4.5 -10t-9.5 -4q-8 0 -14 4t-32 25z" />
    <glyph glyph-name="otilde" unicode="&#xf5;" horiz-adv-x="495" 
d="M245 410q101 0 159.5 -65t58.5 -147q0 -35 -14 -71.5t-40 -68.5t-69 -52.5t-94 -20.5q-96 0 -155 65.5t-59 145.5q0 83 61.5 148.5t151.5 65.5zM249 386q-39 0 -55.5 -47t-16.5 -141q0 -40 2 -67.5t8.5 -58.5t22 -47t38.5 -16q24 0 38.5 16t21 49.5t8.5 65t2 83.5
q0 80 -14.5 121.5t-54.5 41.5zM206 596q30 0 63 -13q55 -22 76 -22q24 0 37 13q18 15 23 15q6 0 11 -4.5t5 -11.5q0 -23 -41.5 -53.5t-90.5 -30.5q-28 0 -78 19q-40 16 -59 16t-35 -10q-20 -15 -26 -15t-11.5 5t-5.5 10q0 11 32 40q46 42 100 42z" />
    <glyph glyph-name="odieresis" unicode="&#xf6;" horiz-adv-x="495" 
d="M245 410q101 0 159.5 -65t58.5 -147q0 -35 -14 -71.5t-40 -68.5t-69 -52.5t-94 -20.5q-96 0 -155 65.5t-59 145.5q0 83 61.5 148.5t151.5 65.5zM249 386q-39 0 -55.5 -47t-16.5 -141q0 -40 2 -67.5t8.5 -58.5t22 -47t38.5 -16q24 0 38.5 16t21 49.5t8.5 65t2 83.5
q0 80 -14.5 121.5t-54.5 41.5zM151 597q24 0 40 -16.5t16 -39.5t-16.5 -39.5t-39.5 -16.5t-39.5 16.5t-16.5 39.5t16.5 39.5t39.5 16.5zM344 597q23 0 39.5 -16.5t16.5 -39.5t-16.5 -39.5t-39.5 -16.5q-24 0 -40 16.5t-16 39.5t16 39.5t40 16.5z" />
    <glyph glyph-name="divide" unicode="&#xf7;" 
d="M255 526q24 0 41 -17t17 -41t-17 -41t-41 -17t-41 17t-17 41t16.5 41t41.5 17zM255 201q24 0 41 -17t17 -41t-17 -41t-41 -17t-41 17t-17 41t17 41t41 17zM462 262h-414v86h414v-86z" />
    <glyph glyph-name="oslash" unicode="&#xf8;" horiz-adv-x="495" 
d="M374 371l32 38q12 14 15 14q4 0 13 -8t9 -12q0 -5 -14 -19l-29 -34q28 -27 45.5 -68.5t17.5 -83.5q0 -35 -14 -71.5t-40 -68.5t-69 -52.5t-94 -20.5q-74 0 -123 38l-36 -42q-10 -10 -14 -10q-5 0 -13 7.5t-8 10.5q0 4 12 19l32 38q-64 64 -64 150q0 81 59.5 147.5
t153.5 66.5q72 0 129 -39zM179 142l135 159q-12 85 -65 85q-39 0 -55.5 -47t-16.5 -141q0 -18 2 -56zM318 252l-134 -157q6 -41 20 -63.5t44 -22.5q15 0 27 6.5t19 22t11.5 28.5t7 38t3.5 39t2 42v67z" />
    <glyph glyph-name="ugrave" unicode="&#xf9;" horiz-adv-x="526" 
d="M329 233v89l-1 15q0 14 -4 18t-23 4q-12 0 -17 0.5t-8.5 4.5t-3.5 13q0 18 22 18q56 0 88 2t61 2q15 0 15 -14q0 -6 -0.5 -38.5t-0.5 -37.5v-186q0 -64 9 -76q6 -8 28 -10q14 -1 14 -16t-5 -18t-28 -4q-50 0 -103 -7q-12 -3 -27 -3q-11 0 -13 13q-3 26 -3 84
q-19 -30 -33 -47t-44.5 -33.5t-69.5 -16.5q-120 0 -120 130l2 45q2 46 3.5 96.5t1.5 65.5q0 22 -2 26.5t-13 5.5q-25 2 -31.5 5t-6.5 13q0 12 9 15t36 3q22 0 50 1q9 0 28 1t34 2t19 1q14 0 14 -11q0 -10 -3 -46.5t-3 -37.5q-3 -56 -3 -173q0 -39 9 -60.5t35 -21.5
q52 0 77 72q11 33 11 112zM211 603l98 -107q24 -28 24 -35t-5.5 -10.5t-9.5 -3.5q-9 0 -88 49q-77 41 -93 53q-25 20 -25 45q0 19 13 31t32 12q25 0 54 -34z" />
    <glyph glyph-name="uacute" unicode="&#xfa;" horiz-adv-x="526" 
d="M329 233v89l-1 15q0 14 -4 18t-23 4q-12 0 -17 0.5t-8.5 4.5t-3.5 13q0 18 22 18q56 0 88 2t61 2q15 0 15 -14q0 -6 -0.5 -38.5t-0.5 -37.5v-186q0 -64 9 -76q6 -8 28 -10q14 -1 14 -16t-5 -18t-28 -4q-50 0 -103 -7q-12 -3 -27 -3q-11 0 -13 13q-3 26 -3 84
q-19 -30 -33 -47t-44.5 -33.5t-69.5 -16.5q-120 0 -120 130l2 45q2 46 3.5 96.5t1.5 65.5q0 22 -2 26.5t-13 5.5q-25 2 -31.5 5t-6.5 13q0 12 9 15t36 3q22 0 50 1q9 0 28 1t34 2t19 1q14 0 14 -11q0 -10 -3 -46.5t-3 -37.5q-3 -56 -3 -173q0 -39 9 -60.5t35 -21.5
q52 0 77 72q11 33 11 112zM218 496l98 107q29 34 54 34q20 0 32.5 -12t12.5 -31q0 -23 -16 -37t-59 -37q-7 -4 -51 -30.5t-52 -30.5q-23 -12 -28 -12q-4 0 -9.5 4t-5.5 10q0 8 24 35z" />
    <glyph glyph-name="ucircumflex" unicode="&#xfb;" horiz-adv-x="526" 
d="M329 233v89l-1 15q0 14 -4 18t-23 4q-12 0 -17 0.5t-8.5 4.5t-3.5 13q0 18 22 18q56 0 88 2t61 2q15 0 15 -14q0 -6 -0.5 -38.5t-0.5 -37.5v-186q0 -64 9 -76q6 -8 28 -10q14 -1 14 -16t-5 -18t-28 -4q-50 0 -103 -7q-12 -3 -27 -3q-11 0 -13 13q-3 26 -3 84
q-19 -30 -33 -47t-44.5 -33.5t-69.5 -16.5q-120 0 -120 130l2 45q2 46 3.5 96.5t1.5 65.5q0 22 -2 26.5t-13 5.5q-25 2 -31.5 5t-6.5 13q0 12 9 15t36 3q22 0 50 1q9 0 28 1t34 2t19 1q14 0 14 -11q0 -10 -3 -46.5t-3 -37.5q-3 -56 -3 -173q0 -39 9 -60.5t35 -21.5
q52 0 77 72q11 33 11 112zM254 550l-77 -74q-31 -30 -40 -30q-17 0 -17 13q0 8 15 31l74 122q13 20 16 23q5 4 40 4q28 0 33 -4q2 -1 14 -20l77 -121q18 -29 18 -36q0 -6 -4.5 -10t-9.5 -4q-8 0 -14 4t-32 25z" />
    <glyph glyph-name="udieresis" unicode="&#xfc;" horiz-adv-x="526" 
d="M329 233v89l-1 15q0 14 -4 18t-23 4q-12 0 -17 0.5t-8.5 4.5t-3.5 13q0 18 22 18q56 0 88 2t61 2q15 0 15 -14q0 -6 -0.5 -38.5t-0.5 -37.5v-186q0 -64 9 -76q6 -8 28 -10q14 -1 14 -16t-5 -18t-28 -4q-50 0 -103 -7q-12 -3 -27 -3q-11 0 -13 13q-3 26 -3 84
q-19 -30 -33 -47t-44.5 -33.5t-69.5 -16.5q-120 0 -120 130l2 45q2 46 3.5 96.5t1.5 65.5q0 22 -2 26.5t-13 5.5q-25 2 -31.5 5t-6.5 13q0 12 9 15t36 3q22 0 50 1q9 0 28 1t34 2t19 1q14 0 14 -11q0 -10 -3 -46.5t-3 -37.5q-3 -56 -3 -173q0 -39 9 -60.5t35 -21.5
q52 0 77 72q11 33 11 112zM167 597q24 0 40 -16.5t16 -39.5t-16.5 -39.5t-39.5 -16.5t-39.5 16.5t-16.5 39.5t16.5 39.5t39.5 16.5zM360 597q23 0 39.5 -16.5t16.5 -39.5t-16.5 -39.5t-39.5 -16.5q-24 0 -40 16.5t-16 39.5t16 39.5t40 16.5z" />
    <glyph glyph-name="yacute" unicode="&#xfd;" horiz-adv-x="467" 
d="M281 152l50 116q23 53 23 68q0 19 -34 24q-12 2 -12 17q0 21 20 21q5 0 27.5 -1.5t26.5 -1.5q5 0 30.5 1.5t29.5 1.5q21 0 21 -20q0 -17 -15 -18q-23 -2 -34.5 -13t-23.5 -38l-194 -440q-4 -9 -12 -28.5t-12 -28t-11.5 -22.5t-13 -20.5t-13.5 -14t-17 -10.5t-20 -3
q-22 0 -35 14.5t-13 33.5q0 20 13.5 33t41.5 27q13 6 22.5 11.5t17 12t11.5 9.5t9 11t6 10.5t6 13t6 13.5l29 62l-151 326q-12 25 -18.5 32.5t-21.5 8.5q-16 1 -16 17q0 21 26 21q6 0 38.5 -1.5t37.5 -1.5q19 0 58 1.5t44 1.5q23 0 23 -19t-10 -19q-24 0 -24 -16q0 -7 8 -25
zM188 496l98 107q29 34 54 34q20 0 32.5 -12t12.5 -31q0 -23 -16 -37t-59 -37q-7 -4 -51 -30.5t-52 -30.5q-23 -12 -28 -12q-4 0 -9.5 4t-5.5 10q0 8 24 35z" />
    <glyph glyph-name="thorn" unicode="&#xfe;" horiz-adv-x="512" 
d="M195 37v-190q0 -34 3.5 -42t20.5 -9q22 -1 29 -2t10.5 -5t3.5 -13q0 -20 -23 -20q-6 0 -48 1.5t-50 1.5t-59 -1.5t-61 -1.5q-25 0 -25 19q0 20 27 20q32 0 38 7.5t6 44.5v707q0 53 -4.5 64t-22.5 11q-23 0 -27 2t-4 13q0 19 17 20q3 0 16 1t27.5 2.5t28.5 2.5q62 6 80 6
q12 0 14.5 -6.5t2.5 -28.5v-304q39 68 110 68q72 0 123.5 -59t51.5 -149q0 -25 -5.5 -52t-19 -56t-33 -52t-51.5 -37.5t-71 -14.5q-28 0 -50 9t-31.5 18t-23.5 25zM195 253v-116q0 -111 69 -111q71 0 71 159q0 179 -71 179q-33 0 -51 -31.5t-18 -79.5z" />
    <glyph glyph-name="ydieresis" unicode="&#xff;" horiz-adv-x="467" 
d="M281 152l50 116q23 53 23 68q0 19 -34 24q-12 2 -12 17q0 21 20 21q5 0 27.5 -1.5t26.5 -1.5q5 0 30.5 1.5t29.5 1.5q21 0 21 -20q0 -17 -15 -18q-23 -2 -34.5 -13t-23.5 -38l-194 -440q-4 -9 -12 -28.5t-12 -28t-11.5 -22.5t-13 -20.5t-13.5 -14t-17 -10.5t-20 -3
q-22 0 -35 14.5t-13 33.5q0 20 13.5 33t41.5 27q13 6 22.5 11.5t17 12t11.5 9.5t9 11t6 10.5t6 13t6 13.5l29 62l-151 326q-12 25 -18.5 32.5t-21.5 8.5q-16 1 -16 17q0 21 26 21q6 0 38.5 -1.5t37.5 -1.5q19 0 58 1.5t44 1.5q23 0 23 -19t-10 -19q-24 0 -24 -16q0 -7 8 -25
zM137 597q24 0 40 -16.5t16 -39.5t-16.5 -39.5t-39.5 -16.5t-39.5 16.5t-16.5 39.5t16.5 39.5t39.5 16.5zM330 597q23 0 39.5 -16.5t16.5 -39.5t-16.5 -39.5t-39.5 -16.5q-24 0 -40 16.5t-16 39.5t16 39.5t40 16.5z" />
    <glyph glyph-name="dotlessi" unicode="&#x131;" horiz-adv-x="268" 
d="M73 122v173q0 41 -5.5 50t-29.5 9q-22 0 -22 17q0 13 6.5 15.5t31.5 3.5q1 0 23.5 1.5t47.5 4t40 5.5q2 0 8.5 1t11 2t6.5 1q14 0 14 -17l-2 -42q-2 -6 -2 -78v-183q0 -33 3.5 -41.5t21.5 -8.5q19 0 26 -3.5t7 -15.5q0 -19 -16 -19q-9 0 -56.5 1.5t-55.5 1.5t-48 -1.5
t-47 -1.5q-21 0 -21 18q0 14 4.5 16.5t24.5 3.5q23 1 26 10q3 10 3 77z" />
    <glyph glyph-name="Lslash" unicode="&#x141;" horiz-adv-x="595" 
d="M256 410l96 84q12 11 16 11q6 0 6 -14q0 -20 -3 -26t-19 -21l-96 -85v-190q0 -32 1 -52t1.5 -36.5t4.5 -25t6.5 -14.5t12 -8t15.5 -2.5t21 -0.5q97 0 141 24t62 91q3 10 6 23.5t4.5 19.5t4 12.5t6 9t9.5 2.5q22 0 20 -26l-7 -173q0 -9 -5.5 -12.5t-24.5 -3.5
q-11 0 -108 1.5t-139 1.5q-67 0 -151.5 -1.5t-97.5 -1.5q-6 0 -9 0.5t-6 5.5t-3 14q0 12 7 15.5t36 5.5q33 3 39.5 19t6.5 83v90l-60 -53q-20 -17 -22 -17q-6 0 -6 10q0 21 3 28.5t18 20.5l67 60v196q0 62 -2.5 87.5t-7 31.5t-17.5 8q-2 0 -21 1t-22 2q-10 4 -10 17
q0 22 30 22q9 0 64 -1.5t63 -1.5q14 0 64 1.5t66 1.5q14 0 20 -4t6 -17q0 -9 -5.5 -13.5t-14 -5.5t-28.5 -1q-23 0 -30.5 -13t-7.5 -48v-132z" />
    <glyph glyph-name="lslash" unicode="&#x142;" horiz-adv-x="263" 
d="M196 413l57 50q11 10 13 10q5 0 5 -25q0 -11 -3.5 -16t-20.5 -20l-51 -45v-275q0 -38 7 -47t31 -11q20 -2 20 -17q0 -6 -0.5 -8t-2 -5.5t-6.5 -5t-13 -1.5q-9 0 -51.5 1.5t-50.5 1.5q-6 0 -47 -1.5t-56 -1.5q-17 0 -17 17q0 13 5.5 16.5t24.5 3.5q17 0 22.5 10t5.5 50
v160l-55 -49q-12 -10 -13 -10q-6 0 -6 15q0 17 3 23t16 17l55 50v269q0 32 -4.5 42t-15.5 10q-24 0 -32 3.5t-8 14.5q0 8 3.5 12t8 4.5t16.5 1.5q22 1 46 4t48.5 7.5t31.5 5.5q14 2 18 2q17 0 17 -25q0 -5 -0.5 -39t-0.5 -45v-154z" />
    <glyph glyph-name="OE" unicode="&#x152;" horiz-adv-x="998" 
d="M653 608v-252q59 -1 84 13.5t33 66.5q5 34 22 34q18 0 18 -25q0 -13 -1.5 -55t-1.5 -59q0 -19 1.5 -53t1.5 -50q0 -9 -5 -19t-16 -10t-14.5 8t-6.5 36q-2 19 -6 30t-15 24t-34.5 19.5t-59.5 6.5v-216q0 -49 6.5 -61.5t36.5 -12.5q89 0 136 13t67 39.5t31 79.5q5 28 22 28
q9 0 13 -4.5t4 -12.5v-19l-5 -127q-1 -21 -5 -27t-17 -6q-2 0 -32 0.5t-74.5 1.5t-83.5 1q-201 0 -230 -3q-121 -14 -153 -14q-103 0 -180 49t-112.5 121t-35.5 153q0 137 100.5 239.5t240.5 102.5q36 0 88 -4q36 -3 184 -3q35 0 94.5 0.5t106 1.5t49.5 1q8 0 12.5 -3
t4.5 -14q0 -14 1 -64.5t1 -65.5q0 -19 -20 -19q-7 0 -10.5 5.5t-12.5 33.5q-11 33 -29 50.5t-65.5 29t-132.5 11.5zM511 190v273q0 25 -1.5 43t-8.5 40t-19 36t-34.5 23.5t-53.5 9.5q-178 0 -178 -302q0 -297 169 -297q39 0 65.5 13.5t39 39.5t17 54t4.5 67z" />
    <glyph glyph-name="oe" unicode="&#x153;" horiz-adv-x="711" 
d="M643 238h-196q3 -186 121 -186q59 0 84 50q9 16 11.5 19.5t8.5 3.5q14 0 14 -17q0 -42 -48.5 -82.5t-121.5 -40.5q-94 0 -136 59q-44 -59 -153 -59q-89 0 -142 59t-53 149q0 97 64 157t154 60q84 0 136 -59q59 59 135 59q43 0 77 -17t52.5 -42t28 -49.5t9.5 -44.5
q0 -13 -8.5 -16t-36.5 -3zM250 387q-73 0 -73 -191q0 -97 16.5 -142t52.5 -45q24 0 38 11t24.5 54.5t10.5 123.5q0 109 -15.5 149t-53.5 40zM450 271h69q37 0 49 5.5t12 25.5q0 30 -13.5 57t-42.5 27q-33 0 -52.5 -30.5t-21.5 -84.5z" />
    <glyph glyph-name="Scaron" unicode="&#x160;" horiz-adv-x="528" 
d="M245 659q46 0 90 -17q32 -12 42 -12q15 0 39 18q8 7 17 7q14 0 14 -15q0 -6 -3 -44t-3 -53q0 -3 0.5 -31.5t0.5 -39.5q0 -16 -18 -16q-13 0 -16 6t-6.5 31.5t-11.5 50.5q-11 34 -46 57t-76 23q-49 0 -76.5 -25t-27.5 -68q0 -41 24.5 -64.5t83.5 -45.5q127 -47 172.5 -90
t45.5 -124q0 -93 -60 -158.5t-163 -65.5q-65 0 -103 21q-44 24 -52 24q-10 0 -19 -11q-25 -23 -30 -24q-6 0 -9 1t-4.5 5t-1.5 7v10v5q0 7 2 39.5t2 38.5q0 7 -2 50t-2 50q0 23 18 23q13 0 17 -10t12 -59q9 -57 46 -96t105 -39q56 0 85.5 32.5t29.5 87.5q0 80 -79 114
q-6 3 -38.5 16.5t-39.5 16.5t-33 15.5t-33.5 19t-26 20.5t-24.5 25.5t-15.5 28t-12.5 35.5t-3 41q0 75 47 132t142 57zM285 771l114 61q23 14 32 14q13 0 13 -15q0 -8 -16 -25l-82 -87q-21 -22 -28 -23h-83q-19 0 -26 3.5t-23 19.5l-83 84q-19 19 -19 28q0 5 3.5 10t9.5 5
q5 0 32 -10z" />
    <glyph glyph-name="scaron" unicode="&#x161;" horiz-adv-x="383" 
d="M180 410q22 0 44.5 -6t37 -11.5t15.5 -5.5q9 0 21 10q11 9 17 9q13 0 13 -18q0 -30 -2 -64q0 -6 -0.5 -21.5t-1.5 -18.5q-2 -11 -15 -11q-10 0 -14 6t-12 34q-9 29 -33 48t-54 19q-25 0 -42 -14.5t-17 -36.5t21 -39t88 -37q105 -30 105 -123q0 -65 -43.5 -105t-114.5 -40
q-44 0 -75 15q-29 14 -33 14q-6 0 -26 -14q-9 -7 -16 -7q-13 0 -13 14q0 7 1.5 28t4 43.5t2.5 26.5q1 21 2 27.5t5 10.5t13 4q13 0 16.5 -6t5.5 -27q11 -96 102 -96q34 0 51 19.5t17 44.5q0 31 -21.5 44t-100.5 39q-34 11 -59.5 39.5t-25.5 74.5q0 54 37 92.5t100 38.5z
M201 533l77 73q31 31 40 31q17 0 17 -14q0 -6 -15 -31l-74 -122q-11 -18 -16 -22t-40 -4q-28 0 -33 3q-1 1 -4 5t-6 9t-4 6l-77 122q-18 29 -18 35t4.5 10.5t9.5 4.5q8 0 14.5 -4.5t31.5 -25.5z" />
    <glyph glyph-name="Ydieresis" unicode="&#x178;" horiz-adv-x="654" 
d="M392 296l107 222q20 40 20 54q0 27 -33 32q-12 1 -17.5 2.5t-9 6t-3.5 12.5q0 19 22 19q15 0 44 -1.5t32 -1.5q12 0 43 1.5t36 1.5t7.5 -0.5t5.5 -5t3 -12.5q0 -10 -3.5 -15t-7 -5.5t-10.5 -0.5q-25 -1 -38.5 -14.5t-28.5 -43.5l-152 -297v-156q0 -38 4.5 -46t28.5 -9
q34 -1 41.5 -4t7.5 -17q0 -21 -22 -21q-10 0 -65 1.5t-64 1.5q-11 0 -72.5 -1.5t-71.5 -1.5q-16 0 -16 18q0 12 8 17t37 5q27 0 32 9.5t5 50.5v150l-174 309q-17 30 -26 38.5t-28 10.5q-20 2 -24.5 4.5t-4.5 13.5q0 21 18 21q16 0 59 -1.5t51 -1.5q14 0 66.5 1.5t64.5 1.5
q19 0 24.5 -3t5.5 -15q0 -10 -3 -15t-6 -5.5t-10 -0.5h-20t-13 -1.5t-9 -4.5t-2 -9t10 -25zM455 819q25 0 43 -18t18 -44q0 -25 -18 -43t-43 -18t-43.5 18t-18.5 43q0 26 18.5 44t43.5 18zM235 819q25 0 43 -18t18 -44q0 -25 -18 -43t-43 -18t-43.5 18t-18.5 43
q0 26 18.5 44t43.5 18z" />
    <glyph glyph-name="Zcaron" unicode="&#x17d;" horiz-adv-x="584" 
d="M40 56l333 552q-55 0 -82 -0.5t-65 -4t-55.5 -10.5t-37 -19.5t-27.5 -33t-10 -48.5q-2 -23 -20 -23t-18 21v130q0 13 6.5 18.5t27.5 5.5q8 0 35.5 -0.5t43.5 -0.5q58 -2 66 -2h163q19 0 67 2q13 0 34 0.5t26 0.5q24 0 24 -14q0 -9 -20 -41l-333 -556h95t72 3t53 8.5
t38 17.5t26.5 29t19.5 43q2 7 5.5 19t6 20.5t3.5 9.5q5 7 14 7q19 0 19 -20q0 -74 -6 -152q-1 -15 -5 -19.5t-16 -4.5q-5 0 -27 1t-37 2q-45 3 -92 3h-155q-44 0 -96 -3q-19 -1 -46.5 -2t-32.5 -1q-19 0 -19 15q0 11 22 47zM313 771l114 61q26 14 32 14q13 0 13 -15
q0 -8 -16 -25l-82 -87q-21 -22 -28 -23h-83q-18 0 -25.5 3.5t-23.5 19.5l-83 84q-19 19 -19 28q0 5 3.5 10t9.5 5q5 0 32 -10z" />
    <glyph glyph-name="zcaron" unicode="&#x17e;" horiz-adv-x="401" 
d="M359 357l-182 -327q63 0 91.5 8.5t39 25t24.5 61.5q7 22 21 22q18 0 18 -16q0 -8 -1.5 -21t-3 -28.5t-2.5 -23.5q-1 -7 -2 -20.5t-1.5 -22.5t-1.5 -11q-3 -7 -15 -7q-13 0 -83.5 1.5t-81.5 1.5t-68.5 -1.5t-66.5 -1.5q-18 0 -18 12q0 5 17 37l177 322q-65 1 -92 -12.5
t-46 -68.5q-7 -19 -11.5 -24t-14.5 -5q-15 0 -15 16q0 6 4 39.5t4 49.5q0 29 6 33q5 2 30 2q10 0 63 -1.5t62 -1.5q12 0 73 1.5t71 1.5q17 0 17 -13q0 -6 -12 -28zM210 533l77 73q31 31 40 31q17 0 17 -14q0 -6 -15 -31l-74 -122q-12 -18 -16 -22q-5 -4 -40 -4q-28 0 -33 3
q-1 1 -4 5t-6 9t-4 6l-77 122q-18 29 -18 35t4.5 10.5t9.5 4.5q8 0 14.5 -4.5t31.5 -25.5z" />
    <glyph glyph-name="florin" unicode="&#x192;" horiz-adv-x="453" 
d="M256 395h73q27 0 27 -9q0 -16 -5 -24q-3 -3 -26 -3h-73l-16 -93q-37 -215 -58 -286q-28 -92 -66 -139q-66 -81 -158 -81q-32 0 -56.5 13.5t-24.5 46.5q0 21 12.5 34.5t33.5 13.5q42 0 42 -45q0 -2 -1 -11.5t-1 -11.5q0 -13 15 -13q20 0 31 21.5t24 68.5q54 189 96 482
h-51q-23 0 -23 6q0 4 3.5 15t8.5 13q4 2 19 2h49q42 281 231 281q91 0 91 -63q0 -20 -13 -34t-33 -14q-16 0 -30 9.5t-14 29.5q0 2 4 17t4 17q0 11 -17 11q-24 0 -38 -24q-33 -58 -60 -230z" />
    <glyph glyph-name="circumflex" unicode="&#x2c6;" horiz-adv-x="333" 
d="M157 550l-77 -74q-31 -30 -40 -30q-17 0 -17 13q0 8 15 31l74 122q13 20 16 23q5 4 40 4q28 0 33 -4q3 -1 14 -20l77 -121q18 -29 18 -36q0 -6 -4.5 -10t-9.5 -4q-8 0 -14 4t-32 25z" />
    <glyph glyph-name="caron" unicode="&#x2c7;" horiz-adv-x="333" 
d="M176 533l77 73q31 31 40 31q17 0 17 -14q0 -6 -15 -31l-74 -122q-11 -18 -16 -22t-40 -4q-28 0 -33 3q-1 1 -4 5t-6 9t-4 6l-77 122q-18 29 -18 35t4.5 10.5t9.5 4.5q8 0 14.5 -4.5t31.5 -25.5z" />
    <glyph glyph-name="uni02C9" unicode="&#x2c9;" horiz-adv-x="333" 
d="M49 580h249q15 0 19.5 -5.5t4.5 -26.5q0 -28 -1 -34.5t-6 -8.5q-6 -3 -42 -3h-228q-25 0 -29.5 4t-4.5 25q0 43 8 46q5 3 30 3z" />
    <glyph glyph-name="breve" unicode="&#x2d8;" horiz-adv-x="333" 
d="M166 556q80 0 109 51q12 19 16 23.5t11 4.5q16 0 16 -20q0 -14 -6 -35t-20 -49.5t-46 -47.5t-76 -19q-40 0 -70.5 15t-46 34.5t-25 43t-11.5 37t-2 20.5q0 21 20 21q6 0 9.5 -3.5t9.5 -15.5q32 -60 112 -60z" />
    <glyph glyph-name="dotaccent" unicode="&#x2d9;" horiz-adv-x="333" 
d="M166 604q26 0 44 -18t18 -44q0 -25 -18.5 -43t-43.5 -18t-43 18t-18 43q0 26 18 44t43 18z" />
    <glyph glyph-name="ring" unicode="&#x2da;" horiz-adv-x="333" 
d="M167 642q39 0 67.5 -28t28.5 -68t-28 -68.5t-68 -28.5t-68.5 28.5t-28.5 68.5t28.5 68t68.5 28zM166 596q-21 0 -35.5 -14.5t-14.5 -35.5t15 -36t35 -15q21 0 36 15t15 36t-15 35.5t-36 14.5z" />
    <glyph glyph-name="ogonek" unicode="&#x2db;" horiz-adv-x="333" 
d="M115 8h30q-18 -33 -18 -53q0 -35 23.5 -63t64.5 -28q16 0 40 11l24 11q6 0 11 -5t5 -11q0 -24 -38.5 -49t-76.5 -25q-39 0 -78.5 28.5t-39.5 80.5q0 54 53 103z" />
    <glyph glyph-name="tilde" unicode="&#x2dc;" horiz-adv-x="333" 
d="M125 596q30 0 63 -13q55 -22 76 -22q24 0 37 13q18 15 23 15q6 0 11 -4.5t5 -11.5q0 -23 -41.5 -53.5t-90.5 -30.5q-28 0 -78 19q-40 16 -59 16t-35 -10q-20 -15 -26 -15t-11.5 5t-5.5 10q0 11 32 40q47 42 100 42z" />
    <glyph glyph-name="hungarumlaut" unicode="&#x2dd;" horiz-adv-x="333" 
d="M64 487l66 88q26 36 40.5 49t34.5 13q19 0 28.5 -12.5t9.5 -26.5q0 -17 -12.5 -29t-76.5 -62q-4 -3 -22.5 -17t-35 -26.5t-18.5 -13.5q-7 -4 -14 -4q-16 0 -16 13q0 9 16 28zM224 487l66 88q19 26 28 36.5t21 18t26 7.5q20 0 29 -12.5t9 -26.5q0 -17 -12.5 -29.5
t-76.5 -61.5q-60 -48 -75 -57q-8 -4 -15 -4q-16 0 -16 13q0 7 16 28z" />
    <glyph glyph-name="uni03A9" unicode="&#x3a9;" horiz-adv-x="668" 
d="M637 157l-25 -157h-234l-9 21q3 6 22.5 53t27.5 68.5t21.5 62t18.5 74.5t5 66q0 245 -133 245q-63 0 -96 -55.5t-33 -192.5q0 -51 16.5 -114t32.5 -103.5t44 -103.5l-8 -21h-235l-22 157h31q15 -39 29 -50.5t44 -11.5h83q-26 19 -42.5 32.5t-41 39t-39 49.5t-25.5 59.5
t-11 74.5q0 125 78.5 201t198.5 76q121 0 196.5 -74t75.5 -198q0 -43 -13.5 -81t-42 -72.5t-49.5 -54.5t-59 -52h94q27 0 40 11.5t27 50.5h33z" />
    <glyph glyph-name="uni03BC" unicode="&#x3bc;" horiz-adv-x="556" 
d="M64 395h128v-271q0 -71 49 -71q56 0 89 61v281h128v-262q0 -39 7 -56t26 -17q31 0 38 70h20q-1 -63 -34 -103.5t-92 -40.5q-37 0 -61.5 21t-28.5 62q-71 -83 -149 -83q-39 0 -74 32q0 -46 11 -86q18 -66 18 -83q0 -27 -15 -45.5t-43 -18.5q-25 0 -38.5 16.5t-13.5 40.5
q0 21 19 95q16 61 16 190v268z" />
    <glyph glyph-name="pi" unicode="&#x3c0;" horiz-adv-x="537" 
d="M487 432l28 -7q-3 -28 -14.5 -63.5t-20.5 -48.5q-18 -6 -57 -6q-6 -66 -4 -167q0 -77 35 -77q15 0 39 17l11 -26q-17 -28 -48.5 -47t-62.5 -19q-97 0 -97 124q0 68 8 198q-26 -1 -62.5 0t-45.5 1v-8q0 -218 -60 -298q-30 -13 -66 -17l-8 21q45 63 65.5 146t20.5 158
q-38 1 -60.5 -6t-54.5 -27l-15 29q1 2 8.5 12t10 13t10.5 13t12.5 13.5t13.5 11.5t16.5 11t19 8.5t22.5 8t25 4t29 1.5q34 0 120 -2q21 0 64 -0.5t64 -0.5q22 0 33 6.5t21 23.5z" />
    <glyph glyph-name="uni2010" unicode="&#x2010;" horiz-adv-x="331" 
d="M76 258h164q42 0 48 -4q6 -5 6 -37v-33q0 -25 -5 -31q-5 -5 -45 -5h-160q-33 0 -40 4.5t-7 28.5v47q0 22 6 26t33 4z" />
    <glyph glyph-name="figuredash" unicode="&#x2012;" 
d="M490 183h-470v40h470v-40z" />
    <glyph glyph-name="endash" unicode="&#x2013;" horiz-adv-x="383" 
d="M363 183h-343v40h343v-40z" />
    <glyph glyph-name="emdash" unicode="&#x2014;" horiz-adv-x="758" 
d="M738 183h-718v40h718v-40z" />
    <glyph glyph-name="quoteleft" unicode="&#x2018;" horiz-adv-x="273" 
d="M77 434q26 46 73 46q35 0 59 -24t24 -60q0 -35 -25.5 -58t-58.5 -23q-50 0 -80 43.5t-30 107.5q0 48 16 88t38 61.5t41 32.5t28 11q7 0 14.5 -6t7.5 -14t-7 -15t-29 -21q-39 -25 -58 -63.5t-19 -71.5q0 -21 6 -34z" />
    <glyph glyph-name="quoteright" unicode="&#x2019;" horiz-adv-x="273" 
d="M195 540q-26 -46 -73 -46q-35 0 -59 24t-24 60q0 35 25.5 58t58.5 23q50 0 80 -43.5t30 -107.5q0 -46 -15.5 -85.5t-37 -61.5t-40.5 -34t-30 -12q-8 0 -15 6t-7 14t7 15t29 21q38 25 57.5 63.5t19.5 71.5q0 10 -6 34z" />
    <glyph glyph-name="quotesinglbase" unicode="&#x201a;" horiz-adv-x="273" 
d="M197 31q-26 -46 -73 -46q-35 0 -59 24t-24 60q0 35 25.5 58t58.5 23q50 0 80 -43.5t30 -107.5q0 -46 -15.5 -85.5t-37 -61.5t-40.5 -34t-30 -12q-8 0 -15 6t-7 14t6.5 15t29.5 21q38 25 57.5 63.5t19.5 71.5q0 10 -6 34z" />
    <glyph glyph-name="quotedblleft" unicode="&#x201c;" horiz-adv-x="514" 
d="M319 434q26 46 73 46q35 0 59 -24t24 -60q0 -35 -25.5 -58t-58.5 -23q-50 0 -80 43.5t-30 107.5q0 46 15.5 85.5t37 61.5t40.5 34t30 12q8 0 15 -6t7 -14t-7 -15t-29 -21q-38 -25 -57.5 -63.5t-19.5 -71.5q0 -16 6 -34zM77 434q26 46 73 46q35 0 59 -24t24 -60
q0 -35 -25.5 -58t-58.5 -23q-50 0 -80 43.5t-30 107.5q0 48 16 88t38 61.5t41 32.5t28 11q7 0 14.5 -6t7.5 -14t-7 -15t-29 -21q-39 -25 -58 -63.5t-19 -71.5q0 -21 6 -34z" />
    <glyph glyph-name="quotedblright" unicode="&#x201d;" horiz-adv-x="514" 
d="M195 540q-26 -46 -73 -46q-35 0 -59 24t-24 60q0 35 25.5 58t58.5 23q50 0 80 -43.5t30 -107.5q0 -46 -15.5 -85.5t-37 -61.5t-40.5 -34t-30 -12q-8 0 -15 6t-7 14t7 15t29 21q38 25 57.5 63.5t19.5 71.5q0 10 -6 34zM437 540q-26 -46 -73 -46q-35 0 -59 24t-24 60
q0 35 25.5 58t58.5 23q50 0 80 -43.5t30 -107.5q0 -46 -15.5 -85.5t-37 -61.5t-40.5 -34t-30 -12q-8 0 -15 6t-7 14t7 15t29 21q38 25 57.5 63.5t19.5 71.5q0 10 -6 34z" />
    <glyph glyph-name="quotedblbase" unicode="&#x201e;" horiz-adv-x="514" 
d="M197 31q-26 -46 -73 -46q-35 0 -59 24t-24 60q0 35 25.5 58t58.5 23q50 0 80 -43.5t30 -107.5q0 -46 -15.5 -85.5t-37 -61.5t-40.5 -34t-30 -12q-8 0 -15 6t-7 14t6.5 15t29.5 21q38 25 57.5 63.5t19.5 71.5q0 10 -6 34zM438 31q-26 -46 -73 -46q-35 0 -59 24t-24 60
q0 35 25.5 58t58.5 23q50 0 80 -43.5t30 -107.5q0 -46 -15.5 -85.5t-37 -61.5t-40.5 -34t-30 -12q-7 0 -14.5 6t-7.5 14t7 15t29 21q38 25 57.5 63.5t19.5 71.5q0 10 -6 34z" />
    <glyph glyph-name="dagger" unicode="&#x2020;" horiz-adv-x="506" 
d="M266 387q5 -52 46 -93q18 -18 18 -26q0 -6 -10 -31q-40 -129 -48 -371q-3 -79 -4 -91q-2 -18 -16 -18q-10 0 -13.5 9t-3.5 39q0 175 -28 334q-13 81 -30 122l-1 3q-1 3 -1 4q0 7 18 25q45 45 47 94q-22 -1 -36 -6t-71 -32q-18 -8 -37 -8q-31 0 -46 17t-15 41
q0 25 14.5 42.5t42.5 17.5q31 0 57 -14q40 -19 54 -24t37 -7q-1 26 -8 44.5t-38 88.5q-10 22 -10 43q0 34 18.5 51.5t49.5 17.5q38 0 54.5 -22.5t16.5 -44.5q0 -16 -5 -29.5t-28 -68.5q-19 -45 -24 -80q21 0 35 5.5t67 30.5q22 9 43 9q28 0 44 -15.5t16 -41.5t-16 -43.5
t-43 -17.5q-17 0 -29.5 4.5t-56.5 26.5q-27 13 -60 15z" />
    <glyph glyph-name="daggerdbl" unicode="&#x2021;" horiz-adv-x="457" 
d="M243 444q21 3 45 16q37 20 49.5 24.5t28.5 4.5q22 0 39 -13t17 -41q0 -27 -14.5 -43.5t-37.5 -16.5q-33 0 -61 17q-29 17 -39.5 21t-26.5 4q5 -42 46 -78q12 -8 12 -15q0 -9 -15 -24q-43 -43 -43 -90q0 -35 41 -92q17 -24 17 -28q0 -1 -27 -28q-24 -24 -31 -64
q21 3 77 28q30 13 49 13q21 0 36.5 -15.5t15.5 -41.5q0 -22 -13.5 -39.5t-42.5 -17.5q-17 0 -30 5.5t-55 27.5q-22 11 -37 13q2 -29 18 -61q24 -49 28.5 -61.5t4.5 -30.5q0 -32 -20.5 -46.5t-45.5 -14.5q-14 0 -27 3.5t-26.5 18.5t-13.5 40q0 29 21 67t26 50t7 35
q-21 -4 -55 -23q-41 -23 -66 -23q-27 0 -43 16t-16 41q0 6 1.5 12.5t6 18t17.5 19t32 7.5q18 0 31.5 -5t48.5 -24q27 -13 43 -12q-9 39 -26 58l-9 8q-10 9 -16.5 16t-6.5 10q0 8 17 27l4 3l6 8t7.5 10.5t8 13.5t7 16t5.5 19t2 21q0 42 -39 88q-19 22 -19 27q0 7 10 15
q44 34 49 79q-15 -1 -24.5 -5t-52.5 -26q-24 -11 -47 -11q-11 0 -21.5 3.5t-21.5 17t-11 35.5q0 29 15.5 43.5t36.5 14.5q26 0 66 -20q37 -19 60 -25q-2 29 -16 57q-27 54 -32 67t-5 30q0 24 16.5 42.5t49.5 18.5q32 0 50 -16t18 -45q0 -21 -7.5 -39.5t-30.5 -62.5
q-11 -20 -15 -52z" />
    <glyph glyph-name="bullet" unicode="&#x2022;" 
d="M255 465q66 0 113 -46.5t47 -113.5q0 -66 -46.5 -113t-113.5 -47q-66 0 -113 47t-47 113q0 67 47 113.5t113 46.5z" />
    <glyph glyph-name="onedotenleader" unicode="&#x2024;" horiz-adv-x="500" 
d="M251 150q34 0 58 -24.5t24 -58.5t-24 -58t-58 -24t-58.5 24t-24.5 58t24.5 58.5t58.5 24.5z" />
    <glyph glyph-name="twodotenleader" unicode="&#x2025;" horiz-adv-x="500" 
d="M375 150q34 0 58 -24.5t24 -58.5t-24 -58t-58 -24t-58.5 24t-24.5 58t24.5 58.5t58.5 24.5zM125 150q34 0 58 -24.5t24 -58.5t-24 -58t-58 -24t-58.5 24t-24.5 58t24.5 58.5t58.5 24.5z" />
    <glyph glyph-name="ellipsis" unicode="&#x2026;" horiz-adv-x="1000" 
d="M501 150q34 0 58.5 -24.5t24.5 -58.5t-24.5 -58t-58.5 -24t-58 24t-24 58t24 58.5t58 24.5zM835 150q34 0 58.5 -24.5t24.5 -58.5t-24.5 -58t-58.5 -24t-58 24t-24 58t24 58.5t58 24.5zM168 150q34 0 58 -24.5t24 -58.5t-24 -58t-58 -24t-58.5 24t-24.5 58t24.5 58.5
t58.5 24.5z" />
    <glyph glyph-name="perthousand" unicode="&#x2030;" horiz-adv-x="1107" 
d="M185 638q-15 0 -23 -18q-16 -35 -16 -138q0 -75 8 -115t31 -40q24 0 31 39.5t7 106.5q0 102 -9 131q-7 22 -13 28t-16 6zM184 659q21 0 41.5 -6.5t45 -23.5t40 -55t15.5 -92q0 -50 -13.5 -86.5t-36 -55t-45 -26.5t-47.5 -8q-22 0 -43.5 7.5t-45 25t-38 54.5t-14.5 89
q0 51 14.5 88t37.5 55t45 26t44 8zM143 12l440 632q9 13 13 14t25 1q14 0 14 -5q0 -6 -12 -21l-437 -628q-11 -16 -15 -19t-14 -3h-14q-14 0 -14 6q0 4 14 23zM578 343q21 0 41.5 -6.5t45 -23.5t40 -55t15.5 -92q0 -50 -13.5 -86.5t-36 -54.5t-45 -26t-47.5 -8
q-22 0 -43.5 7t-45 24.5t-38 55t-14.5 89.5q0 51 14.5 88t37.5 54.5t45 25.5t44 8zM579 322q-15 0 -23 -18q-16 -38 -16 -138q0 -76 8 -115t31 -39q24 0 31 39t7 106q0 102 -9 131q-7 22 -13 28t-16 6zM921 343q21 0 42 -6.5t45.5 -23.5t40 -55t15.5 -92q0 -50 -13.5 -86.5
t-36 -54.5t-45.5 -26t-48 -8q-22 0 -43.5 7t-44.5 24.5t-37.5 55t-14.5 89.5q0 51 14.5 88t37.5 54.5t44.5 25.5t43.5 8zM923 322q-17 0 -24 -18q-15 -35 -15 -138q0 -76 7.5 -115t30.5 -39q39 0 39 145q0 99 -10 131q-6 21 -12 27.5t-16 6.5z" />
    <glyph glyph-name="guilsinglleft" unicode="&#x2039;" horiz-adv-x="295" 
d="M123 197l126 -167q14 -18 14 -24q0 -4 -4 -5t-22 -1h-34q-19 0 -25.5 4t-20.5 22l-109 147q-16 21 -16 24q0 2 16 24l107 145q15 20 21 25q5 4 28 4h39q20 -1 20 -6q0 -2 -9 -14z" />
    <glyph glyph-name="guilsinglright" unicode="&#x203a;" horiz-adv-x="295" 
d="M172 198l-126 167q-14 18 -14 24q0 4 4 5t22 1h34q19 0 25.5 -4t20.5 -22l109 -147q16 -21 16 -24t-16 -24l-107 -145q-16 -22 -21 -25q-5 -4 -28 -4h-39q-20 0 -20 5q0 3 9 15z" />
    <glyph glyph-name="fraction" unicode="&#x2044;" horiz-adv-x="66" 
d="M-206 12l440 632q10 13 13 14q4 1 25 1q14 0 14 -5q0 -4 -11 -21l-437 -628q-11 -15 -15.5 -18.5t-14.5 -3.5h-14q-14 0 -14 6q0 2 14 23z" />
    <glyph glyph-name="zero.superior" unicode="&#x2070;" horiz-adv-x="349" 
d="M174 735q21 0 41.5 -6.5t45 -23.5t40 -55t15.5 -92q0 -50 -13.5 -86.5t-36 -55t-45 -26.5t-47.5 -8q-22 0 -43.5 7.5t-45 25t-38 54.5t-14.5 89q0 51 14.5 88t37.5 55t45 26t44 8zM175 713q-39 0 -39 -155t39 -155q22 0 30 36t8 110v8q0 33 -0.5 52t-4 47.5t-12 42.5
t-21.5 14z" />
    <glyph glyph-name="four.superior" unicode="&#x2074;" horiz-adv-x="349" 
d="M265 517h34q17 -1 20.5 -3.5t3.5 -16.5q0 -9 -3.5 -10.5t-20.5 -1.5h-34v-45q0 -16 0.5 -19t6.5 -3h1q30 -1 32 -7l1 -7q0 -14 -14 -14q-6 0 -39 1t-38 1q-6 0 -36.5 -1t-35.5 -1q-16 0 -16 13q0 9 6 11t36 4q4 0 5 4t1 22v41h-127q-26 0 -26 11q0 7 20 28l195 209
q11 11 18 11q15 0 15 -12q0 -5 -1.5 -30t-1.5 -29q0 -58 -1 -104t-1 -52zM75 517h100v47q0 4 1 30.5t1 31.5z" />
    <glyph glyph-name="five.superior" unicode="&#x2075;" horiz-adv-x="349" 
d="M119 727l60 -2q38 0 72 8q16 3 18 3q14 0 14 -15q0 -62 -104 -62h-65q-2 -1 -2 -20v-42q38 19 81 19q50 0 80 -26t30 -65q0 -57 -55 -100t-132 -43q-87 0 -87 49q0 14 12.5 25t31.5 11q17 0 27.5 -8.5t10.5 -20.5q0 -8 -8 -20q-6 -5 -6 -7q0 -7 19 -7q34 0 59.5 33.5
t25.5 78.5q0 69 -49 69q-16 0 -29 -8.5t-14 -19.5q-2 -18 -5 -23t-13 -5q-11 0 -21.5 6t-10.5 13q0 2 5 11l4 9q3 10 3 61q0 65 -2 81q-2 12 -2 16q0 18 31 18q6 0 9 -1.5t3.5 -3.5l1.5 -6q2 -4 7 -6z" />
    <glyph glyph-name="six.superior" unicode="&#x2076;" horiz-adv-x="349" 
d="M239 687l1 20q-3 8 -19 8q-71 0 -81 -116q28 22 65 22q46 0 79.5 -30t33.5 -83q0 -50 -34 -88t-101 -38q-68 0 -107.5 44t-39.5 119q0 84 50.5 137t138.5 53q47 0 71.5 -16.5t24.5 -34.5q0 -13 -10.5 -22t-28.5 -9t-31 9.5t-12 24.5zM179 591q-41 0 -41 -87
q0 -102 43 -102q39 0 39 98q0 91 -41 91z" />
    <glyph glyph-name="seven.superior" unicode="&#x2077;" horiz-adv-x="349" 
d="M255 658h-134q-27 0 -33 -1.5t-9 -8.5q-6 -14 -8.5 -17t-11.5 -3q-20 0 -20 11q0 3 3 13l20 79q4 14 7 17.5t12 3.5q21 0 21 -15q0 -7 6 -8t36 -1h89q34 0 48 1q12 4 20 4q7 0 14 -7.5t7 -9.5t-5.5 -11.5t-11.5 -20t-7 -13.5q-18 -35 -52.5 -123t-46.5 -114
q-14 -30 -26.5 -41t-34.5 -11q-24 0 -35 11.5t-11 23.5q0 21 36 68q102 138 127 173z" />
    <glyph glyph-name="eight.superior" unicode="&#x2078;" horiz-adv-x="349" 
d="M234 585q79 -39 79 -98q0 -45 -41.5 -75t-107.5 -30q-63 0 -96 25.5t-33 60.5q0 22 14.5 39.5t28 25t35.5 16.5q-65 35 -65 92q0 43 37 68.5t95 25.5q57 0 89 -23t32 -55q0 -45 -67 -72zM207 598q15 10 22.5 28.5t7.5 31.5q0 22 -16 39.5t-42 17.5q-27 0 -40 -14.5
t-13 -32.5q0 -35 81 -70zM138 536q-34 -23 -34 -68q0 -30 19 -47t48 -17q32 0 47 16.5t15 36.5q0 18 -17 33.5t-78 45.5z" />
    <glyph glyph-name="nine.superior" unicode="&#x2079;" horiz-adv-x="349" 
d="M109 430l-1 -20q3 -8 19 -8q71 0 81 116q-17 -13 -40 -19q-11 -3 -25 -3q-46 0 -79.5 30t-33.5 83q0 50 34 88t101 38q68 0 107.5 -44t39.5 -119q0 -84 -50.5 -137t-138.5 -53q-47 0 -71.5 16.5t-24.5 34.5q0 13 10.5 22t28.5 9t31 -9.5t12 -24.5zM169 526q41 0 41 87
q0 102 -43 102q-39 0 -39 -98q0 -91 41 -91z" />
    <glyph glyph-name="parenleft.superior" unicode="&#x207d;" horiz-adv-x="232" 
d="M215 726q0 -3 -4.5 -10t-10 -15t-6.5 -9q-57 -99 -57 -210q0 -107 52 -200q1 -2 8 -12t12 -18.5t5 -10.5q0 -9 -17 -9q-18 0 -54 36q-60 60 -89 136q-13 38 -13 80q0 77 41 138.5t89 100.5q15 11 29 11q15 0 15 -8z" />
    <glyph glyph-name="parenright.superior" unicode="&#x207e;" horiz-adv-x="232" 
d="M17 726q0 8 16 8t34 -16q124 -108 124 -234q0 -54 -27 -109t-53 -84.5t-52 -49.5q-11 -9 -25 -9q-16 0 -16 8q0 3 11.5 21.5t12.5 20.5q53 92 53 200q0 111 -57 210q-1 1 -6.5 9t-10 15t-4.5 10z" />
    <glyph glyph-name="n.superior" unicode="&#x207f;" horiz-adv-x="371" 
d="M314 431v-118q0 -15 2 -18t14 -4q17 0 17 -13q0 -15 -12 -15q-8 0 -28.5 0.5t-30.5 0.5q-11 0 -33 -0.5t-32 -0.5q-9 0 -11 2t-2 11q0 10 4 12.5t15 2.5q8 1 9.5 4.5t1.5 20.5v124q0 13 -1 19t-6.5 12.5t-16.5 6.5q-22 0 -40 -23t-18 -67v-75q0 -15 1.5 -18.5t10.5 -3.5
q8 -1 10.5 -1.5t4.5 -3t2 -8.5q0 -9 -3 -12t-10 -3q-10 0 -32 0.5t-29 0.5q-8 0 -28.5 -0.5t-30.5 -0.5q-12 0 -12 14q0 10 4 12t16 2q10 1 11.5 5t1.5 24v124q0 20 -2.5 25t-13.5 6q-16 7 -17 12q0 12 4 14t22 2q31 0 62 7q10 2 18 2q7 0 8.5 -4.5t1.5 -25.5v-22
q16 25 37 38q21 14 53 14q78 0 78 -81z" />
    <glyph glyph-name="zero.inferior" unicode="&#x2080;" horiz-adv-x="349" 
d="M174 229q21 0 41.5 -6.5t45 -23.5t40 -55t15.5 -92q0 -50 -13.5 -86.5t-36 -55t-45 -26.5t-47.5 -8q-22 0 -43.5 7.5t-45 25t-38 54.5t-14.5 89q0 51 14.5 88t37.5 55t45 26t44 8zM175 207q-39 0 -39 -155t39 -155q22 0 30 36t8 110v8q0 33 -0.5 52t-4 47.5t-12 42.5
t-21.5 14z" />
    <glyph glyph-name="one.inferior" unicode="&#x2081;" horiz-adv-x="349" 
d="M225 113v-164q0 -31 1 -34q0 -4 12 -4q28 0 34 -2t6 -12q0 -14 -18 -14q-7 0 -42 1t-41 1q-7 0 -44 -1t-43 -1q-16 0 -16 13q0 10 6.5 12t30.5 2q11 0 14 1t4 7q2 7 2 29v217q0 15 -2.5 18.5t-12.5 2.5l-21 -2q-23 -2 -23 12q0 10 5.5 12.5t28.5 4.5q68 7 81 10
q4 1 12 2.5t13.5 2.5t6.5 1q11 0 11 -10l-2 -20q-3 -36 -3 -85z" />
    <glyph glyph-name="two.inferior" unicode="&#x2082;" horiz-adv-x="349" 
d="M135 111l21 2q10 0 10 -9q0 -11 -18 -23t-43 -12q-33 0 -49 16t-16 37q0 39 42.5 73t103.5 34q55 0 85 -26.5t30 -63.5q0 -51 -58 -99q-21 -17 -111 -83q103 1 128 4q12 3 25 3q7 0 12 -5.5t5 -9.5q-12 -32 -13 -38q-1 -2 -6 -22t-6 -23q-4 -12 -19 -12q-17 0 -17 10
q0 2 1 9.5t1 8.5q0 4 -4 5q-5 1 -22 1q-110 0 -157 -7q-2 0 -12 -1t-11 -1q-14 0 -14 14q0 6 31 31q145 117 145 210q0 27 -13 45t-39 18q-23 0 -35.5 -14t-12.5 -33q0 -16 10 -27.5t26 -11.5z" />
    <glyph glyph-name="three.inferior" unicode="&#x2083;" horiz-adv-x="349" 
d="M208 82q42 -2 68.5 -21.5t26.5 -50.5q0 -49 -55 -91.5t-135 -42.5q-42 0 -67.5 12.5t-25.5 35.5q0 16 13.5 26.5t30.5 10.5q15 0 26.5 -7.5t11.5 -20.5q0 -2 -3.5 -14t-3.5 -14q0 -7 15 -7q32 0 59.5 33.5t27.5 82.5q0 46 -22 46q-5 0 -13 -8q-5 -5 -13 -5
q-7 0 -18.5 4.5t-11.5 11.5q0 6 5 9t23 9q55 20 55 71q0 20 -10 35.5t-30 15.5q-18 0 -31.5 -10t-13.5 -29q0 -13 6.5 -22t17.5 -9q8 -1 10.5 -1t5.5 -2.5t3 -6.5q0 -10 -15.5 -15.5t-30.5 -5.5q-26 0 -41.5 12.5t-15.5 30.5q0 34 42 59t99 25q43 0 68.5 -17t25.5 -45
q0 -48 -84 -85z" />
    <glyph glyph-name="four.inferior" unicode="&#x2084;" horiz-adv-x="349" 
d="M265 10h34q17 -1 20.5 -3.5t3.5 -16.5q0 -9 -3.5 -10.5t-20.5 -1.5h-34v-45q0 -17 0.5 -19.5t6.5 -2.5h1q30 -1 32 -7q1 -2 1 -7q0 -14 -14 -14q-6 0 -39 1t-38 1q-6 0 -36.5 -1t-35.5 -1q-16 0 -16 13q0 9 6 11t36 4q4 0 5 4t1 22v41h-127q-26 0 -26 11q0 7 20 28
l195 209q11 11 18 11q15 0 15 -12q0 -5 -1.5 -30t-1.5 -29q0 -58 -1 -104t-1 -52zM75 10h100v47q0 4 1 30.5t1 31.5z" />
    <glyph glyph-name="five.inferior" unicode="&#x2085;" horiz-adv-x="349" 
d="M119 221l60 -2q38 0 72 8q16 3 18 3q14 0 14 -15q0 -62 -104 -62h-65q-2 -1 -2 -20v-42q38 19 81 19q50 0 80 -26t30 -65q0 -57 -55 -100t-132 -43q-87 0 -87 49q0 14 12.5 25t31.5 11q17 0 27.5 -8.5t10.5 -20.5q0 -8 -8 -20q-6 -5 -6 -7q0 -7 19 -7q34 0 59.5 33.5
t25.5 78.5q0 69 -49 69q-16 0 -29 -8.5t-14 -19.5q-2 -18 -5 -23t-13 -5q-11 0 -21.5 6t-10.5 13q0 2 5 11l4 9q3 10 3 61q0 65 -2 81q-2 12 -2 16q0 18 31 18q6 0 9 -1.5t3.5 -3.5l1.5 -6q2 -4 7 -6z" />
    <glyph glyph-name="six.inferior" unicode="&#x2086;" horiz-adv-x="349" 
d="M239 181l1 20q-3 8 -19 8q-71 0 -81 -116q28 22 65 22q46 0 79.5 -30t33.5 -83q0 -50 -34 -88t-101 -38q-68 0 -107.5 44t-39.5 119q0 84 50.5 137t138.5 53q47 0 71.5 -16.5t24.5 -34.5q0 -13 -10.5 -22t-28.5 -9t-31 9.5t-12 24.5zM179 85q-41 0 -41 -87
q0 -102 43 -102q39 0 39 98q0 91 -41 91z" />
    <glyph glyph-name="seven.inferior" unicode="&#x2087;" horiz-adv-x="349" 
d="M255 152h-134q-27 0 -33 -1.5t-9 -8.5q-6 -14 -8.5 -17t-11.5 -3q-20 0 -20 11q0 3 3 13l20 79q3 13 6.5 17t12.5 4q21 0 21 -15q0 -7 6 -8t36 -1h89q34 0 48 1q12 4 20 4q7 0 14 -7.5t7 -9.5t-5.5 -11.5t-11.5 -20t-7 -13.5q-18 -35 -52.5 -123t-46.5 -114
q-13 -29 -26 -40.5t-35 -11.5q-24 0 -35 11.5t-11 23.5q0 21 36 68q57 75 127 173z" />
    <glyph glyph-name="eight.inferior" unicode="&#x2088;" horiz-adv-x="349" 
d="M234 79q79 -39 79 -98q0 -45 -41.5 -75t-107.5 -30q-63 0 -96 25.5t-33 60.5q0 22 14.5 39.5t28 25t35.5 16.5q-65 35 -65 92q0 43 37 68.5t95 25.5q57 0 89 -23t32 -55q0 -45 -67 -72zM207 92q15 10 22.5 28.5t7.5 31.5q0 22 -16 39.5t-42 17.5q-27 0 -40 -14.5
t-13 -32.5q0 -35 81 -70zM138 30q-34 -23 -34 -68q0 -30 19 -47t48 -17q32 0 47 16.5t15 36.5q0 18 -17 33.5t-78 45.5z" />
    <glyph glyph-name="nine.inferior" unicode="&#x2089;" horiz-adv-x="349" 
d="M109 -76l-1 -20q3 -8 19 -8q71 0 81 116q-28 -22 -65 -22q-46 0 -79.5 30t-33.5 83q0 50 34 88t101 38q68 0 107.5 -44t39.5 -119q0 -84 -50.5 -137t-138.5 -53q-47 0 -71.5 16.5t-24.5 34.5q0 13 10.5 22t28.5 9t31 -9.5t12 -24.5zM169 20q41 0 41 87q0 102 -43 102
q-39 0 -39 -98q0 -91 41 -91z" />
    <glyph glyph-name="parenleft.inferior" unicode="&#x208d;" horiz-adv-x="232" 
d="M215 411q0 -3 -4.5 -10.5t-10 -15.5t-6.5 -9q-57 -96 -57 -209q0 -108 52 -201q25 -37 25 -41q0 -8 -17 -8t-54 35q-59 59 -89 136q-13 38 -13 80q0 54 25.5 107t50.5 81t54 52q13 10 29 10q15 0 15 -7z" />
    <glyph glyph-name="parenright.inferior" unicode="&#x208e;" horiz-adv-x="232" 
d="M17 411q0 7 16 7t34 -16q124 -108 124 -234q0 -77 -43.5 -142t-88.5 -100q-11 -9 -25 -9q-16 0 -16 8q0 2 5.5 11t11.5 18.5t7 11.5q53 92 53 201q0 113 -57 209q-1 2 -6.5 10t-10 15t-4.5 10z" />
    <glyph glyph-name="colonmonetary" unicode="&#x20a1;" horiz-adv-x="660" 
d="M434 654l27 70q9 24 15 24q27 -5 27 -14l-7 -23l-25 -65q42 -13 98 -43l47 121q6 17 8.5 20.5t6.5 3.5q26 -5 26 -14q0 -3 -3 -13t-4 -10l-42 -110q-1 -16 -1 -78q0 -6 1.5 -34.5t1.5 -33.5q0 -22 -20 -22q-17 0 -20 17l-6 39l-182 -470q19 -3 43 0.5t53 15t54.5 41
t38.5 72.5q1 3 4.5 18t7 28t5.5 17q3 8 15 8q20 0 20 -21q0 -11 -3.5 -66t-3.5 -64q0 -5 1 -29t1 -28q0 -19 -15 -19q-13 0 -23 20q-7 15 -9.5 18t-6.5 3q-7 0 -37 -15q-43 -21 -89.5 -29.5t-69.5 -5.5l-24 -61q-9 -23 -15 -23q-5 0 -14.5 5.5t-9.5 10.5q0 9 8 25l17 45
q-54 6 -105 28l-35 -91q-9 -23 -15 -23q-5 0 -14.5 5.5t-9.5 10.5q0 9 8 25l35 91q-77 49 -115 122.5t-38 156.5q0 89 41 168t120.5 130t178.5 51q25 0 53 -5zM239 148l182 473q-39 4 -71.5 -8t-53.5 -33.5t-36.5 -53.5t-23.5 -62t-13 -64t-6 -54.5t-1 -39.5q0 -96 23 -158z
M346 26l199 515q-32 56 -87 73l-199 -512q39 -61 87 -76z" />
    <glyph glyph-name="Euro" unicode="&#x20ac;" horiz-adv-x="520" 
d="M410 282q0 -16 -5 -24t-11 -9.5t-17 -1.5h-163q11 -85 43.5 -144t91.5 -59q37 0 67 23t46 51q12 21 21 21q17 0 17 -21q0 -10 -11 -30t-33 -44t-65.5 -41.5t-98.5 -17.5q-84 0 -148.5 71t-73.5 191h-42q-15 0 -15 9q0 25 6 30.5t28 5.5h22q0 28 6 60h-47q-15 0 -15 9
q0 25 6 30.5t28 5.5h38q27 97 92.5 163t163.5 66q74 0 106 -27.5t32 -56.5q0 -58 -52 -58q-27 0 -42 18t-15 34v40q0 22 -35 22q-45 0 -77 -58.5t-43 -142.5h199q20 0 20 -10q0 -16 -5 -24t-11 -9.5t-17 -1.5h-191q-1 -11 -1 -33q0 -5 0.5 -14t0.5 -13h180q20 0 20 -10z" />
    <glyph glyph-name="afii61289" unicode="&#x2113;" horiz-adv-x="413" 
d="M375 129l23 -21q-64 -122 -175 -122q-71 0 -107 36q-19 24 -27 51t-8 85v55l-51 -32l-13 31l64 44v125q0 92 10.5 138t38.5 82q46 61 109 61q48 0 74 -36t26 -92q0 -72 -32.5 -128.5t-103.5 -123.5v-68q0 -85 16 -119.5t57 -34.5q50 0 99 69zM203 429v-92q67 76 67 195
q0 95 -34 95q-21 0 -27 -37.5t-6 -160.5z" />
    <glyph glyph-name="trademark" unicode="&#x2122;" horiz-adv-x="784" 
d="M228 614v-212q0 -29 3 -31q2 -1 12 -2t11 -1q11 0 11 -13q0 -15 -16 -15q-42 0 -67 1q-24 -1 -61 -1q-12 0 -15 2.5t-3 11.5q0 7 4 10.5t8.5 4t16.5 1.5q6 0 8.5 2.5t4 15t1.5 42.5v184q-48 0 -64.5 -10t-23.5 -34q0 -1 -1 -3q-6 -22 -12 -24q-3 -1 -6 -1q-15 0 -15 18
q0 73 4 78q2 5 12 5q5 0 35 -1t31 -1h172q7 0 28 1t27 1q14 0 14 -15q2 -20 2 -68q0 -18 -14 -18q-8 0 -11 4.5t-10 26.5q-6 21 -23 31t-63 10zM563 456l59 149q10 24 16 31t14 7q4 0 18.5 -1t22.5 -1t21 0.5t15 0.5h4h8.5t5 -1.5t3.5 -4.5t1 -9q0 -15 -14 -15t-17 -2.5
t-3 -15.5v-206q0 -10 0.5 -13t2.5 -4.5t7 -1.5q22 0 22 -15q0 -9 -3 -11.5t-13 -2.5q-1 0 -21.5 0.5t-34.5 0.5q-10 0 -20.5 -0.5t-17.5 -0.5h-8h-4q-17 0 -21.5 2t-4.5 12q0 6 2.5 9.5t7.5 4t16 1.5q7 0 8.5 3.5t1.5 19.5v170l-78 -195q-9 -23 -12.5 -27.5t-10.5 -4.5
q-8 0 -11 5t-10 23l-72 195v-144q0 -16 0.5 -23t4 -13.5t10.5 -7.5q14 -2 18.5 -5t4.5 -11q0 -6 -0.5 -8.5t-4 -4t-5 -1.5h-8.5q-1 0 -15 0.5t-23 0.5t-21 -0.5t-15 -0.5q-16 0 -16 14q0 6 2.5 9t6 4t12.5 3q12 2 14.5 7t2.5 25v193q0 13 -2 15.5t-12 2.5q-22 0 -22 15
t17 15q10 0 27.5 -1t20.5 -1q5 0 18.5 1t18.5 1q11 0 16 -5t16 -35z" />
    <glyph glyph-name="Omega" unicode="&#x2126;" horiz-adv-x="668" 
d="M637 157l-25 -157h-234l-9 21q3 6 22.5 53t27.5 68.5t21.5 62t18.5 74.5t5 66q0 245 -133 245q-63 0 -96 -55.5t-33 -192.5q0 -51 16.5 -114t32.5 -103.5t44 -103.5l-8 -21h-235l-22 157h31q15 -39 29 -50.5t44 -11.5h83q-26 19 -42.5 32.5t-41 39t-39 49.5t-25.5 59.5
t-11 74.5q0 125 78.5 201t198.5 76q121 0 196.5 -74t75.5 -198q0 -43 -13.5 -81t-42 -72.5t-49.5 -54.5t-59 -52h94q27 0 40 11.5t27 50.5h33z" />
    <glyph glyph-name="estimated" unicode="&#x212e;" horiz-adv-x="772" 
d="M741 296h-576q-5 0 -5 -4v-174q0 -10 8 -20q92 -95 218 -95q136 0 229 106h51q-48 -57 -122.5 -90t-158.5 -33q-147 0 -251 93t-104 226t104 226.5t251 93.5q148 0 252 -93.5t104 -226.5v-9zM610 319v175q0 11 -8 21q-93 91 -216 91q-125 0 -217 -94q-9 -9 -9 -22v-171
q0 -6 5 -6h441q4 0 4 6z" />
    <glyph glyph-name="onethird" unicode="&#x2153;" horiz-adv-x="764" 
d="M225 544v-164q0 -31 1 -34q0 -4 12 -4q28 0 34 -2t6 -12q0 -14 -18 -14q-7 0 -42 1t-41 1q-7 0 -44 -1t-43 -1q-16 0 -16 13q0 10 6.5 12t30.5 2q11 0 14 1t4 7q2 7 2 29v217q0 15 -2.5 18.5t-12.5 2.5l-21 -2q-23 -2 -23 12q0 10 5.5 12.5t28.5 4.5q68 7 81 10
q4 1 12 2.5t13.5 2.5t6.5 1q11 0 11 -10l-2 -20q-3 -36 -3 -85zM143 12l440 632q10 13 13 14q4 1 25 1q14 0 14 -5q0 -4 -11 -21l-437 -628q-11 -15 -15.5 -18.5t-14.5 -3.5h-14q-14 0 -14 6q0 2 14 23zM613 197q42 -2 68.5 -21.5t26.5 -50.5q0 -49 -55 -91.5t-135 -42.5
q-42 0 -67.5 12.5t-25.5 35.5q0 17 13.5 27t30.5 10q15 0 26.5 -7.5t11.5 -20.5q0 -2 -3.5 -14t-3.5 -14q0 -7 15 -7q32 0 59.5 33.5t27.5 82.5q0 46 -22 46q-5 0 -13 -8q-5 -5 -13 -5q-7 0 -18.5 4.5t-11.5 11.5q0 6 5 9t23 9q55 20 55 71q0 20 -10.5 35.5t-29.5 15.5
q-18 0 -31.5 -10t-13.5 -29q0 -13 6.5 -22t17.5 -9q8 -1 10.5 -1t5.5 -2.5t3 -6.5q0 -10 -15.5 -15.5t-30.5 -5.5q-26 0 -41.5 12.5t-15.5 30.5q0 34 42 59t99 25q43 0 68.5 -17t25.5 -45q0 -48 -84 -85z" />
    <glyph glyph-name="twothirds" unicode="&#x2154;" horiz-adv-x="764" 
d="M135 541l21 2q10 0 10 -9q0 -11 -18 -23t-43 -12q-33 0 -49 16t-16 37q0 39 42.5 73t103.5 34q55 0 85 -26.5t30 -63.5q0 -51 -58 -99q-21 -17 -111 -83q103 1 128 4q12 3 25 3q7 0 12 -5.5t5 -9.5q-12 -32 -13 -38q-1 -2 -6 -22t-6 -23q-4 -12 -19 -12q-17 0 -17 10
q0 2 1 9.5t1 8.5q0 4 -4 5q-5 1 -22 1q-110 0 -157 -7q-2 0 -12 -1t-11 -1q-14 0 -14 14q0 6 31 31q145 117 145 210q0 27 -13 45t-39 18q-23 0 -35.5 -14t-12.5 -33q0 -16 10 -27.5t26 -11.5zM143 12l440 632q10 13 13 14q4 1 25 1q14 0 14 -5q0 -4 -11 -21l-437 -628
q-11 -15 -15.5 -18.5t-14.5 -3.5h-14q-14 0 -14 6q0 2 14 23zM613 197q42 -2 68.5 -21.5t26.5 -50.5q0 -49 -55 -91.5t-135 -42.5q-42 0 -67.5 12.5t-25.5 35.5q0 17 13.5 27t30.5 10q15 0 26.5 -7.5t11.5 -20.5q0 -2 -3.5 -14t-3.5 -14q0 -7 15 -7q32 0 59.5 33.5
t27.5 82.5q0 46 -22 46q-5 0 -13 -8q-5 -5 -13 -5q-7 0 -18.5 4.5t-11.5 11.5q0 6 5 9t23 9q55 20 55 71q0 20 -10.5 35.5t-29.5 15.5q-18 0 -31.5 -10t-13.5 -29q0 -13 6.5 -22t17.5 -9q8 -1 10.5 -1t5.5 -2.5t3 -6.5q0 -10 -15.5 -15.5t-30.5 -5.5q-26 0 -41.5 12.5
t-15.5 30.5q0 34 42 59t99 25q43 0 68.5 -17t25.5 -45q0 -48 -84 -85z" />
    <glyph glyph-name="oneeighth" unicode="&#x215b;" horiz-adv-x="764" 
d="M639 194q20 -10 33 -18t29.5 -30.5t16.5 -49.5q0 -45 -41.5 -75t-107.5 -30q-63 0 -96 25.5t-33 60.5q0 22 14.5 39.5t28 25t35.5 16.5q-65 35 -65 92q0 43 37 68.5t95 25.5q57 0 89 -23t32 -55q0 -45 -67 -72zM612 207q15 10 22.5 28.5t7.5 31.5q0 22 -16 39.5t-42 17.5
q-27 0 -40 -14.5t-13 -32.5q0 -35 81 -70zM543 145q-34 -23 -34 -68q0 -30 19 -47t48 -17q32 0 47 16.5t15 36.5q0 18 -17 33.5t-78 45.5zM225 544v-164q0 -31 1 -34q0 -4 12 -4q28 0 34 -2t6 -12q0 -14 -18 -14q-7 0 -42 1t-41 1q-7 0 -44 -1t-43 -1q-16 0 -16 13
q0 10 6.5 12t30.5 2q11 0 14 1t4 7q2 7 2 29v217q0 15 -2.5 18.5t-12.5 2.5l-21 -2q-23 -2 -23 12q0 10 5.5 12.5t28.5 4.5q68 7 81 10q4 1 12 2.5t13.5 2.5t6.5 1q11 0 11 -10l-2 -20q-3 -36 -3 -85zM143 12l440 632q10 13 13 14q4 1 25 1q14 0 14 -5q0 -4 -11 -21
l-437 -628q-11 -15 -15.5 -18.5t-14.5 -3.5h-14q-14 0 -14 6q0 2 14 23z" />
    <glyph glyph-name="threeeighths" unicode="&#x215c;" horiz-adv-x="764" 
d="M639 194q20 -10 33 -18t29.5 -30.5t16.5 -49.5q0 -45 -41.5 -75t-107.5 -30q-63 0 -96 25.5t-33 60.5q0 22 14.5 39.5t28 25t35.5 16.5q-65 35 -65 92q0 43 37 68.5t95 25.5q57 0 89 -23t32 -55q0 -45 -67 -72zM612 207q15 10 22.5 28.5t7.5 31.5q0 22 -16 39.5t-42 17.5
q-27 0 -40 -14.5t-13 -32.5q0 -35 81 -70zM543 145q-34 -23 -34 -68q0 -30 19 -47t48 -17q32 0 47 16.5t15 36.5q0 18 -17 33.5t-78 45.5zM208 512q42 -2 68.5 -21.5t26.5 -50.5q0 -49 -55 -91.5t-135 -42.5q-42 0 -67.5 12.5t-25.5 35.5q0 16 13.5 26.5t30.5 10.5
q15 0 26.5 -7.5t11.5 -20.5q0 -2 -3.5 -14t-3.5 -14q0 -7 15 -7q32 0 59.5 33.5t27.5 82.5q0 46 -22 46q-5 0 -13 -8q-5 -5 -13 -5q-7 0 -18.5 4.5t-11.5 11.5q0 6 5 9t23 9q55 20 55 71q0 20 -10 35.5t-30 15.5q-18 0 -31.5 -10t-13.5 -29q0 -13 6.5 -22t17.5 -9
q8 -1 10.5 -1t5.5 -2.5t3 -6.5q0 -10 -15.5 -15.5t-30.5 -5.5q-26 0 -41.5 12.5t-15.5 30.5q0 34 42 59t99 25q43 0 68.5 -17t25.5 -45q0 -48 -84 -85zM143 12l440 632q10 13 13 14q4 1 25 1q14 0 14 -5q0 -4 -11 -21l-437 -628q-11 -15 -15.5 -18.5t-14.5 -3.5h-14
q-14 0 -14 6q0 2 14 23z" />
    <glyph glyph-name="fiveeighths" unicode="&#x215d;" horiz-adv-x="764" 
d="M639 194q20 -10 33 -18t29.5 -30.5t16.5 -49.5q0 -45 -41.5 -75t-107.5 -30q-63 0 -96 25.5t-33 60.5q0 22 14.5 39.5t28 25t35.5 16.5q-65 35 -65 92q0 43 37 68.5t95 25.5q57 0 89 -23t32 -55q0 -45 -67 -72zM612 207q15 10 22.5 28.5t7.5 31.5q0 22 -16 39.5t-42 17.5
q-27 0 -40 -14.5t-13 -32.5q0 -35 81 -70zM543 145q-34 -23 -34 -68q0 -30 19 -47t48 -17q32 0 47 16.5t15 36.5q0 18 -17 33.5t-78 45.5zM119 651l60 -2q38 0 72 8q16 3 18 3q14 0 14 -15q0 -62 -104 -62h-65q-2 -1 -2 -20v-42q38 19 81 19q50 0 80 -26t30 -65
q0 -57 -55 -100t-132 -43q-87 0 -87 49q0 14 12.5 25t31.5 11q17 0 27.5 -8.5t10.5 -20.5q0 -8 -8 -20q-6 -5 -6 -7q0 -7 19 -7q34 0 59.5 33.5t25.5 78.5q0 69 -49 69q-16 0 -29 -8.5t-14 -19.5q-2 -18 -5 -23t-13 -5q-11 0 -21.5 6t-10.5 13q0 2 5 11l4 9q3 10 3 61
q0 65 -2 81q-2 12 -2 16q0 18 31 18q6 0 9 -1.5t3.5 -3.5l1.5 -6q2 -4 7 -6zM143 12l440 632q10 13 13 14q4 1 25 1q14 0 14 -5q0 -4 -11 -21l-437 -628q-11 -15 -15.5 -18.5t-14.5 -3.5h-14q-14 0 -14 6q0 2 14 23z" />
    <glyph glyph-name="seveneighths" unicode="&#x215e;" horiz-adv-x="764" 
d="M639 194q20 -10 33 -18t29.5 -30.5t16.5 -49.5q0 -45 -41.5 -75t-107.5 -30q-63 0 -96 25.5t-33 60.5q0 22 14.5 39.5t28 25t35.5 16.5q-65 35 -65 92q0 43 37 68.5t95 25.5q57 0 89 -23t32 -55q0 -45 -67 -72zM612 207q15 10 22.5 28.5t7.5 31.5q0 22 -16 39.5t-42 17.5
q-27 0 -40 -14.5t-13 -32.5q0 -35 81 -70zM543 145q-34 -23 -34 -68q0 -30 19 -47t48 -17q32 0 47 16.5t15 36.5q0 18 -17 33.5t-78 45.5zM266 582h-134q-27 0 -33 -1.5t-9 -8.5q-6 -14 -8.5 -17t-11.5 -3q-20 0 -20 11q0 3 3 13l20 79q3 13 6.5 17t12.5 4q21 0 21 -15
q0 -7 6.5 -8t35.5 -1h89q34 0 48 1q12 4 20 4q6 0 13.5 -7.5t7.5 -9.5t-5.5 -11.5t-11.5 -20t-7 -13.5q-18 -35 -52.5 -123t-46.5 -114q-13 -29 -26 -40.5t-35 -11.5q-24 0 -35 11.5t-11 23.5q0 21 36 68q57 75 127 173zM113 12l440 632q10 13 13 14q4 1 25 1q14 0 14 -5
q0 -4 -11 -21l-437 -628q-11 -15 -15.5 -18.5t-14.5 -3.5h-14q-14 0 -14 6q0 2 14 23z" />
    <glyph glyph-name="partialdiff" unicode="&#x2202;" horiz-adv-x="508" 
d="M247 385q69 0 106 -50q9 53 12 101q4 83 -21 133q-28 55 -97 55q-62 0 -135 -62q-14 0 -30 33t-8 52q64 36 135 36q134 0 206 -131q50 -90 50 -213q0 -128 -46 -217q-68 -136 -207 -136q-79 0 -127 48t-48 131q0 91 57 154q59 66 153 66zM276 339h-1q-48 0 -77 -49
q-40 -74 -40 -189q0 -80 58 -80q44 0 84 94q30 71 44 175q-8 18 -26.5 33.5t-41.5 15.5z" />
    <glyph glyph-name="Delta" unicode="&#x2206;" horiz-adv-x="600" 
d="M569 0h-538v35l236 578l56 13l246 -591v-35zM414 59l-161 397l-156 -397h317z" />
    <glyph glyph-name="product" unicode="&#x220f;" horiz-adv-x="663" 
d="M638 625v-32q-58 -4 -71.5 -19t-13.5 -71v-451q0 -60 13 -75t71 -20v-32h-279v32q48 4 57.5 18t9.5 76v500q0 22 -6 28t-29 6h-122q-21 0 -26 -5.5t-5 -25.5v-503q0 -61 8.5 -75.5t52.5 -18.5v-32h-274v32q57 5 70.5 20.5t13.5 73.5v452q0 57 -13.5 71.5t-73.5 18.5v32
h617z" />
    <glyph glyph-name="summation" unicode="&#x2211;" horiz-adv-x="521" 
d="M501 120l-45 -203h-432v32l196 277l-193 366v33h429q0 -5 4.5 -65t6.5 -98l-33 -8q-13 58 -34 96q-12 22 -30.5 29t-66.5 7h-124l147 -272l-201 -291h208q63 0 84 16t50 90z" />
    <glyph glyph-name="minus" unicode="&#x2212;" 
d="M462 262h-414v86h414v-86z" />
    <glyph glyph-name="uni2215" unicode="&#x2215;" horiz-adv-x="66" 
d="M-206 12l440 632q10 13 13 14q4 1 25 1q14 0 14 -5q0 -4 -11 -21l-437 -628q-11 -15 -15.5 -18.5t-14.5 -3.5h-14q-14 0 -14 6q0 2 14 23z" />
    <glyph glyph-name="uni2219" unicode="&#x2219;" horiz-adv-x="346" 
d="M173 396q38 0 64.5 -26.5t26.5 -64.5q0 -37 -26.5 -63.5t-64.5 -26.5t-64.5 26.5t-26.5 63.5q0 38 26.5 64.5t64.5 26.5z" />
    <glyph glyph-name="radical" unicode="&#x221a;" horiz-adv-x="516" 
d="M508 776l-163 -927l-28 -12l-192 483l-80 -35l-13 38l176 77l126 -340h2l124 725z" />
    <glyph glyph-name="infinity" unicode="&#x221e;" horiz-adv-x="686" 
d="M645 255v-1q0 -72 -43.5 -115.5t-101.5 -43.5q-87 0 -156 98q-38 -48 -75 -73t-86 -25q-58 0 -100.5 43t-42.5 111q0 70 43 113.5t108 43.5q84 0 156 -94q44 50 67 65q42 29 90 29q60 -1 100.5 -42.5t40.5 -108.5zM191 166h2q22 0 43.5 13t35 27.5t33.5 39.5
q-22 32 -34 47t-34.5 29t-47.5 14q-35 0 -56 -24t-21 -64q0 -33 23 -57.5t56 -24.5zM497 336h-1q-9 0 -18.5 -2.5t-16.5 -5.5t-16 -10t-14 -11t-14 -14t-12 -13.5t-12 -14.5t-10 -13q38 -50 62.5 -68t55.5 -18q32 0 52 26.5t20 56.5q0 37 -21 62t-55 25z" />
    <glyph glyph-name="integral" unicode="&#x222b;" horiz-adv-x="376" 
d="M147 -15l-19 352q-5 97 3.5 172t25.5 118t42 70.5t48 36.5t48 9q27 0 49.5 -14.5t22.5 -40.5q0 -28 -17 -43t-40 -15q-16 0 -25.5 15.5t-15 31t-12.5 15.5q-27 0 -21 -131l18 -324q6 -111 -6 -195.5t-37.5 -134.5t-58.5 -74.5t-72 -24.5q-29 0 -50 16.5t-21 39.5
q-1 26 20.5 44t45.5 18q18 0 30 -34t20 -34q30 0 22 127z" />
    <glyph glyph-name="approxequal" unicode="&#x2248;" horiz-adv-x="483" 
d="M403 409l48 -45q-23 -43 -56 -68.5t-68 -25.5q-42 0 -97 34q-44 29 -72 29q-18 0 -34.5 -10.5t-24.5 -20.5t-23 -31l-48 44q20 40 56.5 66.5t77.5 26.5q40 0 91 -30q20 -13 28.5 -18t20 -9.5t23.5 -4.5q22 0 40 15.5t38 47.5zM403 238l48 -45q-51 -93 -125 -93
q-44 0 -96 33q-46 30 -72 30q-18 0 -34.5 -11t-24 -20.5t-23.5 -31.5l-48 44q20 40 56.5 66.5t77.5 26.5q42 0 90 -30q5 -3 18 -11t19 -11t16 -6.5t20 -3.5q23 0 39.5 15t38.5 48z" />
    <glyph glyph-name="notequal" unicode="&#x2260;" horiz-adv-x="483" 
d="M361 456l-31 -73h111v-76h-140l-49 -114h189v-75h-218l-42 -99l-60 24l33 75h-113v75h142l48 114h-190v76h218l42 97z" />
    <glyph glyph-name="lessequal" unicode="&#x2264;" horiz-adv-x="483" 
d="M439 93l-394 195v82l394 195v-87l-319 -148v-2l319 -148v-87zM442 -15h-400v77h400v-77z" />
    <glyph glyph-name="greaterequal" unicode="&#x2265;" horiz-adv-x="483" 
d="M47 565l394 -195v-82l-394 -195v87l319 149v1l-319 148v87zM440 -15h-397v77h397v-77z" />
    <glyph glyph-name="lozenge" unicode="&#x25ca;" horiz-adv-x="524" 
d="M482 298l-174 -362h-93l-174 362l176 365h92zM397 298l-133 287h-3l-134 -286l134 -290h3z" />
    <glyph glyph-name="J.alt" unicode="&#xe000;" horiz-adv-x="461" 
d="M216 219v297q0 61 -4.5 74t-27.5 13t-32.5 4.5t-9.5 18.5q0 18 24 18q11 0 66 -1.5t64 -1.5q15 0 54 1.5t54 1.5q20 0 20 -19q0 -13 -6 -17.5t-25 -4.5q-17 0 -23.5 -15t-6.5 -58v-254q0 -152 -45 -222.5t-166 -70.5q-74 0 -108.5 26.5t-34.5 65.5q0 28 17.5 46t46.5 18
q22 0 39.5 -14t17.5 -40q0 -15 -5 -27t-5 -20q0 -25 34 -25q23 0 34.5 10t19.5 56.5t8 139.5z" />
    <glyph glyph-name="dollar.alt" unicode="&#xe001;" 
d="M197 523v73q0 22 1 27t8 5q12 0 14 -3t2 -14v-84q21 2 56 2v90q0 6 2 7.5t12 1.5q9 0 10.5 -4t1.5 -22v-73q64 -4 99 -31t35 -63q0 -21 -13 -37t-35 -16q-19 0 -33 12.5t-14 38.5q0 3 1 16.5t1 15.5q0 25 -41 38v-187q90 -37 121 -66.5t31 -87.5q0 -57 -36 -103.5
t-116 -66.5v-106q0 -13 -0.5 -17t-3 -6t-9.5 -2q-8 0 -10.5 3.5t-2.5 12.5v111q-21 -2 -56 -2v-112q0 -5 -0.5 -7.5t-4 -4t-10.5 -1.5q-8 0 -9 4.5t-1 21.5v100q-80 4 -117 36.5t-37 71.5q0 23 14 42.5t44 19.5q25 0 38 -14.5t13 -34.5q0 -4 -2.5 -23t-2.5 -22
q0 -17 9.5 -28t17.5 -14t23 -8v194q-27 12 -43.5 22t-40 29t-35 47.5t-11.5 65.5q0 117 130 152zM197 360v127q-37 -28 -37 -70q0 -39 37 -57zM222 499v-154l56 -20v182q-30 1 -56 -8zM222 197v-187q31 -3 56 8v160zM304 168v-140q43 33 43 74q0 44 -43 66z" />
    <glyph glyph-name="eight.alt" unicode="&#xe002;" 
d="M344 299q20 -7 34 -14t36.5 -23.5t35 -44.5t12.5 -64q0 -25 -8.5 -50t-30 -53.5t-69.5 -46.5t-116 -18q-52 0 -90 11.5t-57 26.5t-30 35t-13 31.5t-2 21.5q0 27 10 47.5t29.5 34t33 20.5t33.5 14q-18 13 -26.5 19.5t-26.5 24.5t-26.5 41t-8.5 51q0 65 55.5 115.5
t153.5 50.5q92 0 132.5 -35.5t40.5 -83.5q0 -27 -10.5 -47.5t-31 -34t-31 -18t-29.5 -11.5zM318 308q16 18 24 28.5t15.5 30.5t7.5 42q0 43 -27.5 69t-72.5 26q-43 0 -68 -26t-25 -62t25.5 -53.5t120.5 -54.5zM176 217q-40 -36 -40 -94q0 -56 34 -83t76 -27q44 0 75.5 24
t31.5 62q0 15 -5.5 27.5t-16.5 21t-16 12t-16 8.5q-8 4 -60.5 24t-62.5 25z" />
    <glyph glyph-name="five.alt" unicode="&#xe003;" 
d="M217 507h42q73 0 117 10q2 1 11.5 4t17.5 5.5t11 2.5q16 0 16 -22q0 -36 -19 -62.5t-53 -34.5q-20 -5 -58.5 -5.5t-157.5 0.5q2 -33 -3 -118q70 54 150 54t121.5 -43.5t41.5 -100.5q0 -29 -12.5 -61.5t-40 -68t-83.5 -59t-132 -23.5q-81 0 -112 26t-31 60q0 25 15.5 41.5
t40.5 16.5q19 0 33.5 -11.5t14.5 -33.5q0 -16 -6 -31.5t-6 -20.5q0 -10 14 -16t31 -6q63 0 95 50t32 118q0 59 -24.5 86t-59.5 27q-36 0 -55 -18.5t-23 -39.5q-7 -35 -18 -35q-14 0 -25 12t-11 18q0 3 1.5 10t3.5 15t2 9q9 43 9 143q0 37 -3 75q0 1 -1.5 19.5t-1.5 21.5
q0 27 26 27q15 0 21 -18q3 -9 5.5 -12.5t18 -7t45.5 -3.5z" />
    <glyph glyph-name="four.alt" unicode="&#xe004;" 
d="M382 170h54q17 0 23 -0.5t10 -4t4 -11.5q0 -17 -6 -20.5t-31 -3.5h-54q2 -67 9 -81t41 -16q13 0 18.5 -3.5t5.5 -13.5q0 -9 -2 -13t-5 -5t-9 -1q-10 0 -61 1.5t-60 1.5q-11 0 -66 -2l-55 -1q-20 0 -20 17q0 20 27 20q40 0 48.5 15t8.5 81h-200q-24 0 -31.5 2.5t-7.5 14.5
q0 13 19 33l291 325q18 21 23 25t14 4q7 0 10 -3t3.5 -6.5t0.5 -14.5q0 -1 -0.5 -21.5t-1 -45t-0.5 -35.5v-238zM69 170h193v216z" />
    <glyph glyph-name="nine.alt" unicode="&#xe005;" 
d="M324 233q-43 -65 -123 -65q-75 0 -117 49.5t-42 116.5q0 81 58.5 138t153.5 57q104 0 156 -69.5t52 -174.5q0 -125 -70 -212.5t-197 -87.5q-63 0 -102 24.5t-39 63.5q0 24 16 40t38 16q19 0 35 -13t16 -34q0 -3 -2.5 -19.5t-2.5 -19.5q0 -13 12.5 -23t38.5 -10
q54 0 83 51t36 172zM246 209q24 0 41.5 17.5t25.5 44t11 49t3 41.5q0 59 -17 101t-58 42q-72 0 -72 -160q0 -71 16 -103t50 -32z" />
    <glyph glyph-name="one.alt" unicode="&#xe006;" 
d="M199 169v220q0 55 -5 66.5t-29 11.5h-35q-13 1 -13 17q0 20 27 20q34 0 82 8q4 1 40 9.5t43 8.5q17 0 17 -20q0 -11 -1.5 -72t-1.5 -71v-201q0 -37 0.5 -55t3.5 -36t5 -23.5t11.5 -11t17 -5.5t25.5 -1q21 -2 21 -16q0 -21 -21 -21q-9 0 -54 1.5t-53 1.5q-12 0 -74.5 -1.5
t-72.5 -1.5q-20 0 -20 18q0 19 23 19q20 0 27.5 1.5t17 7t12.5 21t5 39.5t2 66z" />
    <glyph glyph-name="one.fittedalt" unicode="&#xe007;" horiz-adv-x="369" 
d="M129 169v220q0 55 -4.5 66.5t-28.5 11.5h-10h-16h-9q-13 1 -13 17q0 20 27 20q31 0 82 8q4 1 39.5 9.5t42.5 8.5q18 0 18 -20q0 -11 -2 -72t-2 -71v-201q1 -45 2.5 -64.5t3.5 -37t11 -21.5t17 -6t30 -3q20 -2 20 -16q0 -21 -20 -21q-9 0 -54.5 1.5t-52.5 1.5
q-12 0 -74.5 -1.5t-72.5 -1.5q-21 0 -21 18q0 19 23 19q24 0 33.5 2t18.5 15.5t10.5 39.5t1.5 78z" />
    <glyph glyph-name="quotedblleft.alt" unicode="&#xe008;" horiz-adv-x="514" 
d="M319 540q-6 -18 -6 -34q0 -34 19 -72t58 -63q22 -14 28.5 -21t6.5 -15t-7 -14t-14 -6q-11 0 -30 12t-41 34t-37.5 61.5t-15.5 85.5q0 64 30.5 107.5t80.5 43.5q33 0 58.5 -23t25.5 -59q0 -35 -24.5 -59t-58.5 -24q-47 0 -73 46zM78 540q-6 -18 -6 -34q0 -34 19 -72
t58 -63q22 -14 28.5 -21t6.5 -15t-7 -14t-14 -6q-11 0 -30 12t-41 34t-37.5 61.5t-15.5 85.5q0 64 30.5 107.5t80.5 43.5q33 0 58.5 -23t25.5 -59q0 -35 -24.5 -59t-58.5 -24q-47 0 -73 46z" />
    <glyph glyph-name="quoteleft.alt" unicode="&#xe009;" horiz-adv-x="273" 
d="M78 540q-6 -18 -6 -34q0 -34 19 -72t58 -63q22 -14 28.5 -21t6.5 -15t-7 -14t-14 -6q-11 0 -30 12t-41 34t-37.5 61.5t-15.5 85.5q0 64 30.5 107.5t80.5 43.5q33 0 58.5 -23t25.5 -59q0 -35 -24.5 -59t-58.5 -24q-47 0 -73 46z" />
    <glyph glyph-name="seven.alt" unicode="&#xe00a;" 
d="M394 413h-195q-56 0 -68.5 -1.5t-18.5 -10.5q-5 -8 -8 -36q-3 -31 -19 -31q-20 0 -20 23l1 13q1 14 2 33.5t2 40t2 38t1 24.5q0 20 0.5 28t5 13.5t13.5 5.5q6 0 9 -3t10 -17q4 -9 9.5 -12.5t28.5 -6t70 -2.5h97q25 0 79 2q21 3 44 3q18 0 18 -13q0 -2 -29 -75
q-58 -145 -128 -360q-17 -52 -36 -68t-44 -16q-28 0 -44.5 15.5t-16.5 40.5q0 13 3 25t13 28.5t17 27t26 37t29 40.5q98 138 147 214z" />
    <glyph glyph-name="six.alt" unicode="&#xe00b;" 
d="M186 281q43 65 123 65q75 0 117 -49.5t42 -116.5q0 -81 -58.5 -138t-153.5 -57q-104 0 -156 69.5t-52 174.5q0 125 70 212.5t197 87.5q63 0 102 -24.5t39 -63.5q0 -24 -16 -40t-38 -16q-19 0 -35 13t-16 34q0 3 2.5 19.5t2.5 19.5q0 13 -12.5 23t-38.5 10q-54 0 -83 -51
t-36 -172zM264 305q-24 0 -41.5 -17.5t-25.5 -44t-11 -49t-3 -41.5q0 -59 17 -101t58 -42q72 0 72 160q0 71 -16 103t-50 32z" />
    <glyph glyph-name="sterling.alt" unicode="&#xe00c;" horiz-adv-x="521" 
d="M295 294h106q13 0 17 -0.5t5.5 -2.5t1.5 -7q0 -14 -2 -17t-15 -3h-103q8 -43 8 -65q0 -41 -17 -80q95 -23 125 -23q34 0 51 21q11 13 19 13q16 0 16 -22q0 -45 -33.5 -84t-87.5 -39q-53 0 -144 52q-55 -52 -131 -52q-21 0 -40 4.5t-37.5 21t-18.5 44.5q0 40 33 66.5
t87 26.5q25 0 63 -6q-7 23 -45 122h-89q-15 0 -18.5 3t-3.5 16q0 8 3.5 9.5t17.5 1.5h81q-6 22 -6 42q0 85 54 139t140 54q78 0 117 -32t39 -70q0 -22 -13.5 -38.5t-41.5 -16.5q-24 0 -35 12.5t-11 30.5q0 13 6 27q8 19 8 27q0 15 -17 25t-43 10q-35 0 -56 -16.5t-25.5 -31
t-4.5 -27.5q0 -20 18.5 -72t21.5 -63zM193 66q-54 27 -89 27q-31 0 -44 -13t-13 -29t12.5 -25t23 -11t19.5 -2q58 0 91 53z" />
    <glyph glyph-name="three.alt" unicode="&#xe00d;" 
d="M342 295q53 -12 80.5 -38t27.5 -76q0 -73 -70.5 -134.5t-198.5 -61.5q-20 0 -39 2t-46 9t-44 25.5t-17 45.5q0 26 15 44t42 18q20 0 33.5 -13t13.5 -35q0 -15 -6 -28t-6 -21q0 -22 51 -22q53 0 93.5 55.5t40.5 125.5q0 38 -13 66q-45 -35 -74 -35q-16 0 -23.5 8.5
t-7.5 17.5q0 8 4.5 15.5t15 16.5t32.5 15t53 6q11 40 11 82q0 15 -3 31t-11.5 35.5t-26.5 32t-44 12.5q-38 0 -63 -24.5t-25 -56.5q0 -13 3.5 -22t8 -13.5t10.5 -6.5t9 -2.5t5 -0.5q10 0 20 6q11 6 16 6q14 0 14 -14q0 -17 -24.5 -36.5t-54.5 -19.5q-32 0 -53 20.5t-21 48.5
q0 19 12.5 43.5t36 49t66.5 41t96 16.5q76 0 109.5 -34.5t33.5 -73.5q0 -77 -82 -126z" />
    <glyph glyph-name="two.alt" unicode="&#xe00e;" 
d="M452 82l-13 -71q-5 -26 -9.5 -38t-7.5 -14t-10 -2q-17 0 -17 16l1 17q-1 7 -7 8.5t-32 1.5h-201q-2 0 -19 -0.5t-29 -0.5t-28.5 -1t-17.5 -1q-17 0 -17 14q0 3 1 6t3.5 5.5l4 4t6 4.5t5.5 4q96 70 153 136q47 55 68 109t21 93q0 46 -23.5 78t-66.5 32q-36 0 -64 -29
t-28 -74q0 -38 18 -54.5t38 -16.5q13 0 34 18q9 7 13 7q15 0 15 -17q0 -23 -28.5 -45.5t-65.5 -22.5q-41 0 -67 26.5t-26 66.5q0 72 70.5 129.5t162.5 57.5q69 0 112.5 -38.5t43.5 -101.5q0 -107 -169 -224q-43 -30 -77 -54q40 -1 192 6q4 0 24.5 1.5t23.5 1.5q17 0 17 -14
q0 -1 -2 -11.5t-2 -12.5z" />
    <glyph glyph-name="zero.alt" unicode="&#xe010;" 
d="M253 529q70 0 121.5 -42t74 -102.5t22.5 -127.5q0 -115 -62.5 -193.5t-155.5 -78.5q-96 0 -155 79.5t-59 192.5q0 112 57.5 192t156.5 80zM257 504q-39 0 -55 -58t-16 -210q0 -110 14 -168t54 -58t55 58t15 198q0 118 -13 178t-54 60z" />
    <glyph glyph-name="zero.taboldstyle" unicode="&#xf643;" 
d="M254 457q54 0 95 -18.5t63.5 -45t37 -61t18.5 -61t4 -51.5q0 -27 -5 -55.5t-19.5 -62t-37.5 -58.5t-62.5 -42t-90.5 -17q-63 0 -108.5 24t-68 62t-32.5 75t-10 73q0 99 58.5 168.5t157.5 69.5zM256 433q-23 0 -38.5 -16t-26.5 -67t-11 -139q0 -202 73 -202q25 0 41 15.5
t23.5 47t10 65.5t2.5 85q0 27 -0.5 43t-2 45t-6.5 47t-13 37.5t-21 29t-31 9.5z" />
    <glyph glyph-name="one.taboldstyle" unicode="&#xf644;" 
d="M326 285v-176q0 -56 4 -65.5t27 -9.5q43 0 51 -2t8 -14q0 -13 -4.5 -17t-18.5 -4q-11 0 -66 1.5t-64 1.5q-10 0 -61.5 -1.5t-60.5 -1.5q-14 0 -19 3.5t-5 13.5q0 15 7.5 18t34.5 3q31 0 36 7q3 4 3 40v290q0 21 -14 21q-5 0 -28 -2.5t-27 -2.5q-17 0 -17 21q0 12 9 15
t60 9q82 9 121 20q16 4 19 4q5 0 9 -4.5t4 -11.5q0 -3 -2.5 -31t-2.5 -34q-3 -48 -3 -91z" />
    <glyph glyph-name="two.taboldstyle" unicode="&#xf645;" 
d="M215 115h71q99 0 138 9q15 5 19 5q5 0 11 -9t6 -12q0 -1 -5.5 -15t-12 -31t-7.5 -21q-2 -5 -7.5 -27t-10.5 -41.5t-6 -21.5q-4 -7 -15 -7q-20 0 -20 15q0 3 2 16.5t2 15.5q0 6 -3 8.5t-20.5 4.5t-55.5 2q-105 0 -191 -8q-42 -6 -44 -6q-18 0 -18 15t37 45q9 8 35.5 29
t35 28t30 25.5t29 26.5t24 25t22.5 27.5t16 26.5t14 30t7 30.5t3 34.5q0 40 -19 65t-56 25q-39 0 -62 -26t-23 -55q0 -26 13 -41t32 -15q3 0 14.5 1.5t12.5 1.5q13 0 13 -14q0 -15 -26.5 -29t-52.5 -14q-33 0 -57.5 22t-24.5 57q0 53 56 98.5t161 45.5q48 0 82.5 -13
t50 -34.5t22 -40t6.5 -36.5q0 -35 -16.5 -65t-52.5 -57.5t-69.5 -47t-89.5 -48.5z" />
    <glyph glyph-name="three.taboldstyle" unicode="&#xf646;" 
d="M267 185q2 0 14 1t18 1q66 0 106 -36.5t40 -93.5q0 -36 -19.5 -77t-55 -78.5t-94.5 -62t-129 -24.5q-18 0 -35 2t-44 9t-43.5 26t-16.5 47q0 29 18 46t42 17q20 0 36 -12t16 -34q0 -11 -7 -33q-4 -14 -4 -19q0 -10 10.5 -15.5t23.5 -5.5q57 0 102 65.5t45 156.5
q0 93 -44 93q-12 0 -26 -16q-8 -8 -15 -8q-8 0 -23 7t-15 17q0 8 6.5 12.5t30.5 14.5q93 39 93 137q0 48 -21 75.5t-51 27.5q-35 0 -58 -22.5t-23 -57.5q0 -9 2.5 -21t14 -28t31.5 -16q13 0 17 -1.5t4 -9.5q0 -16 -21 -24.5t-44 -8.5q-39 0 -60 22t-21 52q0 58 62.5 102.5
t154.5 44.5q70 0 106.5 -30.5t36.5 -76.5q0 -26 -12 -50t-26.5 -39.5t-40.5 -32t-41 -24.5t-40 -19z" />
    <glyph glyph-name="four.taboldstyle" unicode="&#xf647;" 
d="M391 43h66q20 -1 24 -3.5t4 -15.5q0 -20 -4 -23.5t-26 -3.5h-64v-90q0 -33 4 -40t24 -8q27 -1 33 -3.5t6 -15.5q0 -8 -1 -11.5t-5.5 -6t-13.5 -2.5q-10 0 -64.5 1.5t-63.5 1.5q-8 0 -51 -1.5t-50 -1.5q-21 0 -21 17q0 15 7.5 18t39.5 4q24 0 28.5 8t4.5 47v83h-214
q-13 0 -18.5 0.5t-10.5 4t-5 10.5q0 8 24 38l300 380q26 32 38 32q16 0 16 -20q0 -45 -2 -63q-5 -182 -5 -336zM80 43h188v93q0 94 5 152z" />
    <glyph glyph-name="five.taboldstyle" unicode="&#xf648;" 
d="M144 281v-90q66 42 140 42q81 0 123.5 -47t42.5 -116q0 -100 -84 -177.5t-206 -77.5q-16 0 -30.5 1.5t-41 8.5t-42.5 25.5t-16 47.5q0 26 18 44t44 18q24 0 37.5 -15t13.5 -33q0 -17 -10 -31q-12 -15 -12 -19q0 -8 11 -13.5t27 -5.5q60 0 104.5 63t44.5 150q0 59 -22 96
t-68 37q-28 0 -47 -13.5t-24.5 -25.5t-7.5 -22q-4 -30 -7 -37t-12 -7q-13 0 -27 10t-14 19q0 3 6.5 17.5t6.5 16.5q6 19 6 138q0 95 -4 130q-1 7 -1.5 13t-1 8.5t-0.5 5.5q0 14 13 21t27 7q7 0 9.5 -3.5t5.5 -15.5t22 -13q54 -4 92 -4q53 0 96 8q42 12 49 12q13 0 13 -20
q0 -110 -148 -110q-8 0 -52.5 1t-51.5 1q-16 0 -19 -6.5t-3 -38.5z" />
    <glyph glyph-name="six.taboldstyle" unicode="&#xf649;" 
d="M189 358q48 57 116 57q71 0 121.5 -54.5t50.5 -148.5q0 -92 -53 -159.5t-154 -67.5q-110 0 -168.5 83t-58.5 212q0 154 78.5 250t214.5 96q72 0 108.5 -28t36.5 -60q0 -21 -14.5 -35.5t-37.5 -14.5q-24 0 -41.5 15.5t-17.5 41.5v35q-5 22 -39 22q-26 0 -47.5 -10.5
t-35 -25t-24.5 -38.5t-16.5 -43t-10 -48t-5.5 -42.5t-3 -36.5zM262 371q-25 0 -42 -17.5t-23.5 -45.5t-9 -48.5t-2.5 -41.5q0 -119 19 -164t57 -45q42 0 60 48t18 143q0 36 -3 63t-10.5 53.5t-23.5 40.5t-40 14z" />
    <glyph glyph-name="seven.taboldstyle" unicode="&#xf64a;" 
d="M388 316h-202q-80 0 -91 -10q-5 -4 -13 -27q-4 -18 -18 -18q-22 0 -22 12q0 3 5 24l28 132q7 30 10.5 36t11.5 6q9 0 14 -2.5t6 -6t3 -11.5q3 -18 17.5 -22t59.5 -4h147q34 0 59 4q3 0 20.5 3t20.5 3q9 0 17.5 -9.5t8.5 -15.5l-20 -40q-36 -70 -97 -242q-8 -21 -26.5 -75
t-35 -98.5t-28.5 -74.5q-26 -65 -75 -65q-29 0 -44 19t-15 41q0 26 36 84q8 14 106.5 170.5t116.5 186.5z" />
    <glyph glyph-name="eight.taboldstyle" unicode="&#xf64b;" 
d="M336 358q69 -42 101 -82t32 -101q0 -81 -63 -135.5t-167 -54.5q-102 0 -149.5 47.5t-47.5 107.5q0 31 12 56.5t34.5 43.5t40 28t43.5 21q-47 28 -78 71.5t-31 99.5q0 71 50 118.5t152 47.5q90 0 137 -41.5t47 -94.5q0 -82 -113 -132zM308 373q57 40 57 118q0 51 -31 81
t-71 30q-45 0 -70 -27t-25 -64q0 -36 33 -69t107 -69zM196 273q-64 -41 -64 -133q0 -60 33 -93.5t85 -33.5q46 0 78 30.5t32 74.5q0 16 -3.5 27t-17.5 30t-49.5 43t-93.5 55z" />
    <glyph glyph-name="nine.taboldstyle" unicode="&#xf64c;" 
d="M321 84q-48 -57 -116 -57q-71 0 -121.5 54.5t-50.5 148.5q0 92 53 159.5t154 67.5q110 0 168.5 -83t58.5 -212q0 -154 -78.5 -250t-214.5 -96q-72 0 -108.5 28t-36.5 60q0 21 14.5 35.5t37.5 14.5q24 0 41.5 -15.5t17.5 -41.5v-35q5 -22 39 -22q26 0 47.5 10.5t35 25
t24.5 38.5t16.5 43t10 48t5.5 42.5t3 36.5zM248 71q25 0 42 17.5t23.5 45.5t9 48.5t2.5 41.5q0 119 -19 164t-57 45q-42 0 -60 -48t-18 -143q0 -36 3 -63t10.5 -53.5t23.5 -40.5t40 -14z" />
    <glyph glyph-name="dollar.taboldstyle" unicode="&#xf653;" 
d="M237 17l2 165q-75 39 -112.5 74t-37.5 84q0 52 40.5 89.5t112.5 42.5v16q0 17 2.5 21.5t14.5 4.5t14.5 -5t2.5 -21l-1 -15q60 -2 100.5 -27.5t40.5 -62.5q0 -20 -12 -34t-30 -14t-36 11.5t-18 39.5q0 2 2.5 16t2.5 17q0 9 -11.5 14t-21.5 6.5t-17 1.5l-2 -143
q93 -48 125.5 -81t32.5 -85q0 -18 -6.5 -38t-22 -44.5t-50.5 -42t-84 -21.5v-63q-1 -10 -1.5 -14t-4 -8t-11.5 -4q-7 0 -10.5 3.5t-4 9t-0.5 18.5l1 57q-68 2 -115 32t-47 75q0 30 14.5 42t32.5 12q16 0 31.5 -11t15.5 -38q0 -4 -4 -23.5t-4 -22.5q0 -19 26 -26.5t50 -7.5z
M271 164l-2 -144q35 7 51.5 24t16.5 37q0 44 -66 83zM241 316l1 123q-20 -4 -38.5 -18.5t-18.5 -37.5q0 -34 56 -67z" />
    <glyph glyph-name="cent.taboldstyle" unicode="&#xf654;" 
d="M300 -13v-83q0 -14 -1 -19t-5 -7.5t-14 -2.5t-12 5t-2 34v72q-85 0 -127.5 46.5t-42.5 106.5q0 65 47.5 114t122.5 57v102q0 15 0.5 21t4 10t11.5 4q13 0 15.5 -5.5t2.5 -29.5v-101q62 -2 93 -27t31 -52q0 -19 -11 -32t-32 -13q-18 0 -32 9t-14 27q0 3 2.5 18t2.5 17
q0 24 -40 24v-242q50 -4 82 34q11 14 19 14q7 0 12.5 -5t5.5 -11q0 -2 -2 -9t-10 -19.5t-19.5 -23.5t-35 -20.5t-52.5 -12.5zM266 49v226q-59 -25 -59 -119q0 -37 12 -62t22 -32t25 -13z" />
    <glyph glyph-name="zero.denominator" unicode="&#xf655;" horiz-adv-x="349" 
d="M174 344q21 0 41.5 -6.5t45 -23.5t40 -55t15.5 -92q0 -50 -13.5 -86.5t-36 -55t-45 -26.5t-47.5 -8q-22 0 -43.5 7.5t-45 25t-38 54.5t-14.5 89q0 51 14.5 88t37.5 55t45 26t44 8zM175 322q-39 0 -39 -155t39 -155q22 0 30 36t8 110v8q0 33 -0.5 52t-4 47.5t-12 42.5
t-21.5 14z" />
    <glyph glyph-name="one.denominator" unicode="&#xf656;" horiz-adv-x="349" 
d="M225 228v-164q0 -31 1 -34q0 -4 12 -4q28 0 34 -2t6 -12q0 -14 -18 -14q-7 0 -42 1t-41 1q-7 0 -44 -1t-43 -1q-16 0 -16 13q0 10 6.5 12t30.5 2q11 0 14 1t4 7q2 7 2 29v217q0 15 -2.5 18.5t-12.5 2.5l-21 -2q-23 -2 -23 12q0 10 5.5 12.5t28.5 4.5q68 7 81 10
q4 1 12 2.5t13.5 2.5t6.5 1q11 0 11 -10l-2 -20q-3 -36 -3 -85z" />
    <glyph glyph-name="two.denominator" unicode="&#xf657;" horiz-adv-x="349" 
d="M135 226l21 2q10 0 10 -9q0 -11 -18 -23t-43 -12q-33 0 -49 16t-16 37q0 39 42.5 73t103.5 34q55 0 85 -26.5t30 -63.5q0 -51 -58 -99q-21 -17 -111 -83q103 1 128 4q12 3 25 3q7 0 12 -5.5t5 -9.5q-12 -32 -13 -38q-1 -2 -6 -22t-6 -23q-4 -12 -19 -12q-17 0 -17 10
q0 2 1 9.5t1 8.5q0 4 -4 5q-5 1 -22 1q-110 0 -157 -7q-2 0 -12 -1t-11 -1q-14 0 -14 14q0 6 31 31q145 117 145 210q0 27 -13 45t-39 18q-23 0 -35.5 -14t-12.5 -33q0 -16 10 -27.5t26 -11.5z" />
    <glyph glyph-name="three.denominator" unicode="&#xf658;" horiz-adv-x="349" 
d="M208 197q42 -2 68.5 -21.5t26.5 -50.5q0 -49 -55 -91.5t-135 -42.5q-42 0 -67.5 12.5t-25.5 35.5q0 17 13.5 27t30.5 10q15 0 26.5 -7.5t11.5 -20.5q0 -2 -3.5 -14t-3.5 -14q0 -7 15 -7q32 0 59.5 33.5t27.5 82.5q0 46 -22 46q-5 0 -13 -8q-5 -5 -13 -5q-7 0 -18.5 4.5
t-11.5 11.5q0 6 5 9t23 9q55 20 55 71q0 20 -10 35.5t-30 15.5q-18 0 -31.5 -10t-13.5 -29q0 -13 6.5 -22t17.5 -9q8 -1 10.5 -1t5.5 -2.5t3 -6.5q0 -10 -15.5 -15.5t-30.5 -5.5q-26 0 -41.5 12.5t-15.5 30.5q0 34 42 59t99 25q43 0 68.5 -17t25.5 -45q0 -48 -84 -85z" />
    <glyph glyph-name="four.denominator" unicode="&#xf659;" horiz-adv-x="349" 
d="M265 125h34q17 -1 20.5 -3.5t3.5 -16.5q0 -9 -3.5 -10.5t-20.5 -1.5h-34v-45q0 -16 0.5 -19t6.5 -3h1q30 -1 32 -7q1 -2 1 -7q0 -14 -14 -14q-6 0 -39 1t-38 1q-6 0 -36.5 -1t-35.5 -1q-16 0 -16 13q0 9 6 11t36 4q4 0 5 4t1 22v41h-127q-26 0 -26 11q0 7 20 28l195 209
q11 11 18 11q15 0 15 -12q0 -5 -1.5 -30t-1.5 -29q0 -58 -1 -104t-1 -52zM75 125h100v47q0 4 1 30.5t1 31.5z" />
    <glyph glyph-name="five.denominator" unicode="&#xf65a;" horiz-adv-x="349" 
d="M119 336l60 -2q38 0 72 8q16 3 18 3q14 0 14 -15q0 -62 -104 -62h-65q-2 -1 -2 -20v-42q38 19 81 19q50 0 80 -26t30 -65q0 -57 -55 -100t-132 -43q-87 0 -87 49q0 14 12.5 25t31.5 11q17 0 27.5 -8.5t10.5 -20.5q0 -8 -8 -20q-6 -5 -6 -7q0 -7 19 -7q34 0 59.5 33.5
t25.5 78.5q0 69 -49 69q-16 0 -29 -8.5t-14 -19.5q-2 -18 -5 -23t-13 -5q-11 0 -21.5 6t-10.5 13q0 2 5 11l4 9q3 10 3 61q0 65 -2 81q-2 12 -2 16q0 18 31 18q6 0 9 -1.5t3.5 -3.5l1.5 -6q2 -4 7 -6z" />
    <glyph glyph-name="six.denominator" unicode="&#xf65b;" horiz-adv-x="349" 
d="M239 296l1 20q-3 8 -19 8q-71 0 -81 -116q28 22 65 22q46 0 79.5 -30t33.5 -83q0 -50 -34 -88t-101 -38q-68 0 -107.5 44t-39.5 119q0 84 50.5 137t138.5 53q47 0 71.5 -16.5t24.5 -34.5q0 -13 -10.5 -22t-28.5 -9t-31 9.5t-12 24.5zM179 200q-41 0 -41 -87
q0 -102 43 -102q39 0 39 98q0 91 -41 91z" />
    <glyph glyph-name="seven.denominator" unicode="&#xf65c;" horiz-adv-x="349" 
d="M255 267h-134q-27 0 -33 -1.5t-9 -8.5q-6 -14 -8.5 -17t-11.5 -3q-20 0 -20 11q0 2 3 13l20 79q3 13 6.5 17t12.5 4q21 0 21 -15q0 -7 6 -8t36 -1h89q34 0 48 1q12 4 20 4q7 0 14 -7t7 -10q0 -2 -5.5 -11.5t-11.5 -20t-7 -13.5q-18 -35 -52.5 -123t-46.5 -114
q-13 -29 -26 -40.5t-35 -11.5q-24 0 -35 11.5t-11 23.5q0 21 36 68q57 75 127 173z" />
    <glyph glyph-name="eight.denominator" unicode="&#xf65d;" horiz-adv-x="349" 
d="M234 194q20 -10 33 -18t29.5 -30.5t16.5 -49.5q0 -45 -41.5 -75t-107.5 -30q-63 0 -96 25.5t-33 60.5q0 22 14.5 39.5t28 25t35.5 16.5q-65 35 -65 92q0 43 37 68.5t95 25.5q57 0 89 -23t32 -55q0 -45 -67 -72zM207 207q15 10 22.5 28.5t7.5 31.5q0 22 -16 39.5t-42 17.5
q-27 0 -40 -14.5t-13 -32.5q0 -35 81 -70zM138 145q-34 -23 -34 -68q0 -30 19 -47t48 -17q32 0 47 16.5t15 36.5q0 18 -17 33.5t-78 45.5z" />
    <glyph glyph-name="nine.denominator" unicode="&#xf65e;" horiz-adv-x="349" 
d="M109 39l-1 -20q3 -8 19 -8q71 0 81 116q-28 -22 -65 -22q-46 0 -79.5 30t-33.5 83q0 50 34 88t101 38q68 0 107.5 -44t39.5 -119q0 -84 -50.5 -137t-138.5 -53q-47 0 -71.5 16.5t-24.5 34.5q0 13 10.5 22t28.5 9t31 -9.5t12 -24.5zM169 135q41 0 41 87q0 102 -43 102
q-39 0 -39 -98q0 -91 41 -91z" />
    <glyph glyph-name="zero.numerator" unicode="&#xf661;" horiz-adv-x="349" 
d="M174 659q21 0 41.5 -6.5t45 -23.5t40 -55t15.5 -92q0 -50 -13.5 -86.5t-36 -55t-45 -26.5t-47.5 -8q-22 0 -43.5 7.5t-45 25t-38 54.5t-14.5 89q0 51 14.5 88t37.5 55t45 26t44 8zM175 637q-39 0 -39 -155t39 -155q22 0 30 36t8 110v8q0 33 -0.5 52t-4 47.5t-12 42.5
t-21.5 14z" />
    <glyph glyph-name="one.numerator" unicode="&#xf662;" horiz-adv-x="349" 
d="M225 544v-164q0 -31 1 -34q0 -4 12 -4q28 0 34 -2t6 -12q0 -14 -18 -14q-7 0 -42 1t-41 1q-7 0 -44 -1t-43 -1q-16 0 -16 13q0 10 6.5 12t30.5 2q11 0 14 1t4 7q2 7 2 29v217q-1 11 -1.5 15t-3.5 5.5t-10 0.5l-21 -2q-23 -2 -23 12q0 10 5.5 12.5t28.5 4.5q68 7 81 10
q4 1 12 2.5t13.5 2.5t6.5 1q11 0 11 -10l-2 -20q-3 -36 -3 -85z" />
    <glyph glyph-name="two.numerator" unicode="&#xf663;" horiz-adv-x="349" 
d="M135 541l21 2q10 0 10 -9q0 -11 -18 -23t-43 -12q-33 0 -49 16t-16 37q0 39 42.5 73t103.5 34q55 0 85 -26.5t30 -63.5q0 -51 -58 -99q-21 -17 -111 -83q103 1 128 4q12 3 25 3q7 0 12 -5.5t5 -9.5q-12 -32 -13 -38q-1 -2 -6 -22t-6 -23q-4 -12 -19 -12q-17 0 -17 10
q0 2 1 9.5t1 8.5q0 4 -4 5q-5 1 -22 1q-110 0 -157 -7q-2 0 -12 -1t-11 -1q-14 0 -14 14q0 6 31 31q145 117 145 210q0 27 -13 45t-39 18q-23 0 -35.5 -14t-12.5 -33q0 -16 10 -27.5t26 -11.5z" />
    <glyph glyph-name="three.numerator" unicode="&#xf664;" horiz-adv-x="349" 
d="M208 512q42 -2 68.5 -21.5t26.5 -50.5q0 -49 -55 -91.5t-135 -42.5q-42 0 -67.5 12.5t-25.5 35.5q0 16 13.5 26.5t30.5 10.5q15 0 26.5 -7.5t11.5 -20.5q0 -2 -3.5 -14t-3.5 -14q0 -7 15 -7q32 0 59.5 33.5t27.5 82.5q0 46 -22 46q-5 0 -13 -8q-5 -5 -13 -5
q-7 0 -18.5 4.5t-11.5 11.5q0 6 5 9t23 9q55 20 55 71q0 20 -10 35.5t-30 15.5q-18 0 -31.5 -10t-13.5 -29q0 -13 6.5 -22t17.5 -9q8 -1 10.5 -1t5.5 -2.5t3 -6.5q0 -10 -15.5 -15.5t-30.5 -5.5q-26 0 -41.5 12.5t-15.5 30.5q0 34 42 59t99 25q43 0 68.5 -17t25.5 -45
q0 -48 -84 -85z" />
    <glyph glyph-name="four.numerator" unicode="&#xf665;" horiz-adv-x="349" 
d="M265 441h34q17 -1 20.5 -3.5t3.5 -16.5q0 -9 -3.5 -10.5t-20.5 -1.5h-34v-45q0 -16 0.5 -19t6.5 -3h1q30 -1 32 -7l1 -7q0 -14 -14 -14q-6 0 -39 1t-38 1q-6 0 -36.5 -1t-35.5 -1q-16 0 -16 13q0 9 6 11t36 4q4 0 5 4t1 22v41h-127q-26 0 -26 11q0 7 20 28l195 209
q11 11 18 11q15 0 15 -12q0 -5 -1.5 -30t-1.5 -29q0 -58 -1 -104t-1 -52zM75 441h100v47q0 4 1 30.5t1 31.5z" />
    <glyph glyph-name="five.numerator" unicode="&#xf666;" horiz-adv-x="349" 
d="M119 651l60 -2q38 0 72 8q16 3 18 3q14 0 14 -15q0 -62 -104 -62h-65q-2 -1 -2 -20v-42q38 19 81 19q50 0 80 -26t30 -65q0 -57 -55 -100t-132 -43q-87 0 -87 49q0 14 12.5 25t31.5 11q17 0 27.5 -8.5t10.5 -20.5q0 -8 -8 -20q-6 -5 -6 -7q0 -7 19 -7q34 0 59.5 33.5
t25.5 78.5q0 69 -49 69q-16 0 -29 -8.5t-14 -19.5q-2 -18 -5 -23t-13 -5q-11 0 -21.5 6t-10.5 13q0 2 5 11l4 9q3 10 3 61q0 65 -2 81q-2 12 -2 16q0 18 31 18q6 0 9 -1.5t3.5 -3.5l1.5 -6q2 -4 7 -6z" />
    <glyph glyph-name="six.numerator" unicode="&#xf667;" horiz-adv-x="349" 
d="M239 611l1 20q-3 8 -19 8q-71 0 -81 -116q28 22 65 22q46 0 79.5 -30t33.5 -83q0 -50 -34 -88t-101 -38q-68 0 -107.5 44t-39.5 119q0 84 50.5 137t138.5 53q47 0 71.5 -16.5t24.5 -34.5q0 -13 -10.5 -22t-28.5 -9t-31 9.5t-12 24.5zM179 515q-41 0 -41 -87
q0 -102 43 -102q39 0 39 98q0 91 -41 91z" />
    <glyph glyph-name="seven.numerator" unicode="&#xf668;" horiz-adv-x="349" 
d="M255 582h-134q-27 0 -33 -1.5t-9 -8.5q-6 -14 -8.5 -17t-11.5 -3q-20 0 -20 11q0 3 3 13l20 79q4 14 7 17.5t12 3.5q21 0 21 -15q0 -7 6 -8t36 -1h89q34 0 48 1q12 4 20 4q7 0 14 -7.5t7 -9.5t-5.5 -11.5t-11.5 -20t-7 -13.5q-18 -35 -52.5 -123t-46.5 -114
q-14 -30 -26.5 -41t-34.5 -11q-24 0 -35 11.5t-11 23.5q0 21 36 68q102 138 127 173z" />
    <glyph glyph-name="eight.numerator" unicode="&#xf669;" horiz-adv-x="349" 
d="M234 509q79 -39 79 -98q0 -45 -41.5 -75t-107.5 -30q-63 0 -96 25.5t-33 60.5q0 22 14.5 39.5t28 25t35.5 16.5q-65 35 -65 92q0 43 37 68.5t95 25.5q57 0 89 -23t32 -55q0 -45 -67 -72zM207 522q15 10 22.5 28.5t7.5 31.5q0 22 -16 39.5t-42 17.5q-27 0 -40 -14.5
t-13 -32.5q0 -35 81 -70zM138 460q-34 -23 -34 -68q0 -30 19 -47t48 -17q32 0 47 16.5t15 36.5q0 18 -17 33.5t-78 45.5z" />
    <glyph glyph-name="nine.numerator" unicode="&#xf66a;" horiz-adv-x="349" 
d="M109 354l-1 -20q3 -8 19 -8q71 0 81 116q-17 -13 -40 -19q-11 -3 -25 -3q-46 0 -79.5 30t-33.5 83q0 50 34 88t101 38q68 0 107.5 -44t39.5 -119q0 -84 -50.5 -137t-138.5 -53q-47 0 -71.5 16.5t-24.5 34.5q0 13 10.5 22t28.5 9t31 -9.5t12 -24.5zM169 450q41 0 41 87
q0 102 -43 102q-39 0 -39 -98q0 -91 41 -91z" />
    <glyph glyph-name="one.fitted" unicode="&#xf6dc;" horiz-adv-x="373" 
d="M257 419v-306q0 -57 3 -65q3 -7 14 -9.5t51 -2.5q20 0 20 -17q0 -22 -20 -22q-12 0 -73.5 1.5t-71.5 1.5t-62 -1.5t-61 -1.5q-19 0 -19 18q0 15 6.5 18t30.5 3q39 0 46.5 10.5t7.5 66.5v403q0 32 -6 39.5t-34 3.5l-23 -3l-19 -1q-13 0 -13 20q0 13 7.5 16.5t42.5 6.5
q75 6 146 24q15 4 22 4q13 0 13 -15q0 -18 -5 -88q-3 -46 -3 -104z" />
    <glyph glyph-name="R_p" unicode="&#xf6dd;" horiz-adv-x="1094" 
d="M646 110v172q0 53 -5 63.5t-26 10.5q-17 0 -20.5 2t-3.5 14q0 14 6.5 17t32.5 5q8 1 55 5t56 5q1 0 8.5 0.5t10.5 0.5q10 0 12 -6.5t2 -29.5v-32q20 31 34 42q29 26 78 26q77 0 125 -60.5t48 -146.5q0 -89 -48.5 -151t-128.5 -62q-29 0 -52 9t-32 17.5t-24 25.5v-190
q0 -36 4 -44.5t22 -9.5q28 -1 34 -3.5t6 -15.5q0 -18 -21 -18q-8 0 -48.5 1.5t-47.5 1.5q-10 0 -60.5 -1.5t-59.5 -1.5q-25 0 -25 19q0 13 5.5 16.5t18.5 3.5q32 0 38 7.5t6 44.5v183q-38 -47 -114 -47q-41 0 -71.5 13t-46.5 29t-27 45.5t-14 47t-7 48.5q-11 91 -30 120
t-84 26v-205q0 -48 4.5 -58t28.5 -13q28 -3 34 -5.5t6 -14.5q0 -19 -23 -19q-11 0 -66 1.5t-64 1.5q-10 0 -59 -1.5t-57 -1.5q-22 0 -22 20q0 9 4.5 13t10.5 5t25 2q25 2 30.5 11.5t5.5 54.5v441q0 43 -5 51.5t-25 8.5q-29 0 -37.5 3t-8.5 17q0 20 21 20q3 0 24.5 -0.5
t35.5 -0.5q52 -2 59 -2q14 0 82 4q52 3 80 3q61 0 105 -15t66 -40t31.5 -50t9.5 -52q0 -70 -53.5 -116t-152.5 -47q35 -4 61.5 -15.5t43 -24.5t32 -38t22.5 -41t20 -50q24 -63 39 -84.5t34 -21.5q35 0 52 57zM252 611v-266q64 0 99.5 38t35.5 103q0 77 -31.5 101t-103.5 24z
M774 253v-116q0 -111 69 -111q71 0 71 159q0 179 -71 179q-33 0 -51 -31.5t-18 -79.5z" />
    <glyph glyph-name="cent.inferior" unicode="&#xf6df;" horiz-adv-x="311" 
d="M155 227v74q0 17 2 20.5t11 3.5t10.5 -4t1.5 -21v-72q44 -3 70.5 -19t26.5 -37q0 -16 -11.5 -25.5t-27.5 -9.5q-30 0 -30 25q0 2 1.5 11t1.5 10q0 26 -31 23v-175q29 -10 66 27q7 7 13 7q14 0 14 -11q0 -16 -25.5 -38.5t-67.5 -24.5v-51q0 -19 -2.5 -24.5t-8.5 -5.5
q-13 0 -14 9v21v50q-56 4 -91.5 34.5t-35.5 72.5q0 44 33.5 83t93.5 47zM155 38v161q-37 -23 -37 -85q0 -53 37 -76z" />
    <glyph glyph-name="cent.superior" unicode="&#xf6e0;" horiz-adv-x="299" 
d="M155 543v74q0 17 2 20.5t11 3.5t10.5 -4t1.5 -21v-72q44 -3 70.5 -19t26.5 -37q0 -16 -11.5 -25.5t-27.5 -9.5q-30 0 -30 25q0 1 1.5 10t1.5 11q0 26 -31 23v-175q29 -10 66 27q7 7 13 7q14 0 14 -11q0 -16 -25.5 -38.5t-67.5 -24.5v-51q0 -19 -2.5 -24.5t-8.5 -5.5
q-13 0 -14 9v21v50q-56 4 -91.5 34.5t-35.5 72.5q0 44 33.5 83t93.5 47zM155 354v161q-37 -23 -37 -85q0 -53 37 -76z" />
    <glyph glyph-name="comma.inferior" unicode="&#xf6e1;" horiz-adv-x="200" 
d="M135 9q-18 -18 -44 -18q-22 0 -37.5 15t-15.5 39q0 25 17 41.5t38 16.5q32 0 54 -28.5t22 -70.5q0 -51 -30.5 -86t-56.5 -35q-8 0 -13.5 5t-5.5 11q0 5 4 9t23 16q51 35 45 85z" />
    <glyph glyph-name="comma.superior" unicode="&#xf6e2;" horiz-adv-x="200" 
d="M135 325q-18 -18 -44 -18q-22 0 -37.5 15t-15.5 39q0 25 17 41.5t38 16.5q32 0 54 -28.5t22 -70.5q0 -51 -30.5 -86t-56.5 -35q-8 0 -13.5 5t-5.5 11q0 5 4 8.5t23 16.5q51 35 45 85z" />
    <glyph glyph-name="dollar.inferior" unicode="&#xf6e3;" horiz-adv-x="299" 
d="M169 322v-102q72 -38 97.5 -61t25.5 -62q0 -35 -27 -65.5t-96 -39.5v-48v-6t-0.5 -4.5t-2 -3.5t-4 -1.5t-6.5 -0.5q-8 0 -9.5 4.5t-1.5 25.5v33q-53 1 -88.5 21t-35.5 59q0 14 10 25.5t27 11.5t27.5 -10t10.5 -25q0 -3 -3 -15t-3 -14q0 -5 2 -9t4.5 -7t7 -5.5t8 -3.5
t9.5 -2.5t9 -2t8.5 -1t6.5 -0.5v120q-58 30 -85 55t-27 62q0 39 31 65t81 29q0 26 1 29q3 3 12 3q8 0 9.5 -5t1.5 -27q52 -1 81 -21t29 -43q0 -6 -2 -13t-12 -14.5t-26 -7.5q-19 0 -27.5 10.5t-8.5 22.5q0 2 2 13t2 13q0 17 -38 18zM145 235v87q-14 -1 -25.5 -10t-11.5 -30
q0 -24 37 -47zM169 117v-102q48 9 48 45q0 16 -11 28.5t-37 28.5z" />
    <glyph glyph-name="dollar.superior" unicode="&#xf6e4;" horiz-adv-x="311" 
d="M169 638v-102q72 -38 97.5 -61t25.5 -62q0 -35 -27 -65.5t-96 -39.5v-48v-6t-0.5 -4.5t-2 -3.5t-4 -1.5t-6.5 -0.5q-8 0 -9.5 4.5t-1.5 25.5v33q-53 1 -88.5 21t-35.5 59q0 14 10 25.5t27 11.5t27.5 -10t10.5 -25q0 -3 -3 -15t-3 -14q0 -5 2 -9t4.5 -7t7 -5.5t8 -3.5
t9.5 -2.5t9 -2t8.5 -1t6.5 -0.5v120q-58 30 -85 55t-27 62q0 39 31 65t81 29q0 26 1 29q3 3 12 3q8 0 9.5 -5t1.5 -27q52 -1 81 -21t29 -43q0 -6 -2 -13t-12 -14.5t-26 -7.5q-19 0 -27.5 10.5t-8.5 22.5q0 2 2 13t2 13q0 17 -38 18zM145 551v87q-14 -1 -25.5 -10t-11.5 -30
q0 -24 37 -47zM169 433v-102q48 9 48 45q0 16 -11 28.5t-37 28.5z" />
    <glyph glyph-name="hyphen.inferior" unicode="&#xf6e5;" horiz-adv-x="215" 
d="M49 203h107q38 0 40 -10q1 -4 1 -32q0 -22 -5 -26t-33 -4h-105q-24 0 -30 3.5t-6 22.5v21q0 17 5 21t26 4z" />
    <glyph glyph-name="hyphen.superior" unicode="&#xf6e6;" horiz-adv-x="215" 
d="M49 518h107q38 0 40 -10q1 -4 1 -32q0 -22 -5 -26t-33 -4h-105q-24 0 -30 3.5t-6 22.5v21q0 17 5 21t26 4z" />
    <glyph glyph-name="period.inferior" unicode="&#xf6e7;" horiz-adv-x="205" 
d="M102 103q23 0 39.5 -16.5t16.5 -39.5t-16 -39.5t-40 -16.5q-23 0 -39.5 16t-16.5 40q0 23 16.5 39.5t39.5 16.5z" />
    <glyph glyph-name="period.superior" unicode="&#xf6e8;" horiz-adv-x="205" 
d="M102 418q23 0 39.5 -16.5t16.5 -39.5t-16 -39.5t-40 -16.5q-23 0 -39.5 16t-16.5 40q0 23 16.5 39.5t39.5 16.5z" />
    <glyph glyph-name="b.superior" unicode="&#xf6ea;" horiz-adv-x="358" 
d="M57 362v215q0 49 -5 52q-2 4 -20 4q-9 2 -9 12t4 12t22 4l84 15q8 0 8 -10q0 -5 -0.5 -32.5t-0.5 -31.5v-134q27 49 75 49q53 0 83 -39t30 -90q0 -54 -34 -92t-87 -38q-48 0 -69 42q0 -25 -2 -35q-1 -7 -9 -7q-4 0 -25.5 2.5t-24.5 2.5q-15 3 -50 3q-8 1 -8 13q0 9 4 11
t17 3q12 1 14.5 11t2.5 58zM189 483q-49 0 -49 -108q0 -46 9 -64.5t35 -18.5q50 0 50 98q0 93 -45 93z" />
    <glyph glyph-name="d.superior" unicode="&#xf6eb;" horiz-adv-x="359" 
d="M219 483l5 105q0 42 -3 46t-25 4q-9 2 -9 13t4.5 13t24.5 3q50 4 65 6q9 3 19 3t10 -13q0 -7 -2 -44t-2 -43q0 -49 -2 -114.5t-2 -69.5q0 -80 2 -89q3 -9 21 -12q11 0 11 -14q0 -13 -11 -13q-32 0 -51 -1q-4 0 -22.5 -2.5t-21.5 -2.5q-9 0 -10 16v5l-1 23
q-32 -44 -85 -44q-42 0 -72 31.5t-30 86.5q0 58 32 99.5t83 41.5q19 0 32 -5t19.5 -10t20.5 -19zM219 386v38q0 61 -43 61q-27 0 -38.5 -24.5t-11.5 -76.5q0 -89 45 -89q17 0 27.5 8t14.5 24.5t5 27.5t1 31z" />
    <glyph glyph-name="e.superior" unicode="&#xf6ec;" horiz-adv-x="301" 
d="M249 408h-131q-3 -51 22.5 -79t56.5 -28q39 0 54 27q9 16 14 16q9 0 9 -10q0 -24 -28 -51t-85 -27q-39 0 -66.5 13.5t-40 34.5t-17.5 39.5t-5 35.5q0 59 41 98.5t95 39.5q47 0 77 -30.5t30 -63.5q0 -7 -3 -10.5t-7.5 -4t-15.5 -0.5zM119 433h51q25 0 31.5 3t6.5 16
q0 16 -10 29.5t-28 13.5q-45 0 -51 -62z" />
    <glyph glyph-name="i.superior" unicode="&#xf6ed;" horiz-adv-x="205" 
d="M63 331v112q0 25 -1.5 29.5t-9.5 4.5q-18 0 -21.5 1.5t-3.5 10.5q0 10 3.5 12t20.5 3q27 2 48 3q35 5 41 5q9 0 9 -11q0 -3 -1.5 -30.5t-1.5 -43.5v-109q0 -19 1.5 -23t10.5 -4q12 0 16 -0.5t6.5 -3.5t2.5 -9q0 -15 -11 -15q-3 0 -24.5 0.5t-31.5 0.5q-7 0 -40 -0.5
t-36 -0.5q-15 0 -15 14q0 9 5 12t21 3q5 0 6.5 0.5t3 3t1.5 8.5zM102 676q21 0 34 -14t13 -33q0 -20 -12.5 -34t-35.5 -14q-17 0 -31.5 10.5t-14.5 36.5q0 25 15.5 36.5t31.5 11.5z" />
    <glyph glyph-name="l.superior" unicode="&#xf6ee;" horiz-adv-x="213" 
d="M148 609v-251q0 -62 6 -64q2 -1 8.5 -2t14 -1.5t9.5 -0.5q7 -3 7 -13q0 -14 -16 -14q-7 0 -33.5 0.5t-37.5 0.5q-12 0 -37 -0.5t-36 -0.5q-12 0 -12 12q0 11 5 13t26 3q10 0 11.5 7t1.5 48v263q0 19 -1.5 23t-11.5 5q-12 1 -16 2t-6.5 3.5t-2.5 7.5q0 9 4 11t18 4
q4 1 7 1q74 10 82 10q12 0 12 -17q-2 -16 -2 -50z" />
    <glyph glyph-name="m.superior" unicode="&#xf6ef;" horiz-adv-x="531" 
d="M475 422v-104q0 -25 3 -26q2 -1 13.5 -2t12.5 -1q5 -2 5 -13q0 -13 -12 -13q-6 0 -27.5 0.5t-31.5 0.5t-31 -0.5t-32 -0.5q-15 0 -15 13q0 10 3 12t13 2q9 0 11 3.5t2 19.5v106q0 14 -0.5 20.5t-3 17t-10.5 15t-20 4.5q-45 0 -45 -64v-97q0 -17 1 -20.5t6 -4.5
q10 -1 13.5 -1.5t5 -2.5t1.5 -8q0 -15 -13 -15q-8 0 -28 0.5t-30 0.5q-4 0 -24.5 -0.5t-30.5 -0.5q-15 0 -15 14q0 9 3.5 11t15.5 3q7 0 8 3.5t1 20.5v108q0 21 -0.5 29.5t-7 17t-19.5 8.5q-26 0 -39 -25t-13 -64v-71v-14.5t1 -7t3 -4.5t6 -1q7 -1 10 -1.5t5 -3.5t2 -9
q0 -14 -13 -14q-4 0 -26 0.5t-36 0.5q-9 0 -28.5 -0.5t-29.5 -0.5q-11 0 -11 12q0 8 3 11.5t6.5 4t13.5 0.5q8 1 9.5 3.5t1.5 14.5v129q0 21 -2.5 27t-14.5 6q-16 0 -16 13q0 10 3.5 12t18.5 4q25 3 70 11q10 2 14 2q11 0 11 -21v-29q31 49 87 49q55 0 74 -44q29 44 83 44
q85 0 85 -90z" />
    <glyph glyph-name="r.superior" unicode="&#xf6f1;" horiz-adv-x="265" 
d="M147 347v-29q0 -13 1 -17.5t5.5 -7t16.5 -2.5q14 -1 16.5 -2.5t2.5 -11.5q0 -14 -11 -14q-12 0 -35.5 0.5t-33.5 0.5t-34 -0.5t-30 -0.5q-12 0 -12 13q0 10 4 12t17 3q7 1 8.5 3.5t1.5 15.5v131q0 23 -2 28.5t-12 6.5q-15 2 -17.5 3.5t-2.5 8.5q0 11 4.5 13t25.5 3l57 5
q12 3 23 3q6 0 7 -3.5t1 -15.5v-40q23 64 72 64q20 0 32 -11t12 -27q0 -15 -9 -25.5t-23 -10.5q-25 0 -29 22q-3 12 -12 12q-22 0 -33 -36t-11 -94z" />
    <glyph glyph-name="s.superior" unicode="&#xf6f2;" horiz-adv-x="274" 
d="M128 517q23 0 43 -7q18 -8 23 -8q6 0 12 4q8 7 11 7q9 0 9 -12q0 -3 -1 -17t-1 -16q0 -24 -1.5 -29t-9.5 -5q-6 0 -8 2.5t-4 12.5q-9 44 -60 44q-16 0 -27.5 -8t-11.5 -22q0 -25 50 -37q21 -5 32 -9t26.5 -13t23 -24.5t7.5 -37.5q0 -31 -23 -58.5t-78 -27.5q-31 0 -63 14
q-6 3 -10 3q-5 0 -10 -5q-10 -8 -16 -8q-8 0 -8 11q0 8 2 28.5t2 22.5q1 18 2 25t3.5 9.5t8.5 2.5q7 0 9 -4t3 -19q6 -56 66 -56q21 0 33 10.5t12 25.5q0 16 -12 25.5t-41 17.5q-21 6 -31 10t-23.5 12.5t-19.5 22t-6 32.5q0 32 22.5 56.5t64.5 24.5z" />
    <glyph glyph-name="t.superior" unicode="&#xf6f3;" horiz-adv-x="225" 
d="M145 507h33q13 0 16 -2.5t3 -13.5q0 -13 -2.5 -15.5t-13.5 -2.5h-37l-1 -114q0 -40 5 -51.5t18 -11.5q17 0 23 17q5 11 11 11q10 0 10 -13q0 -8 -4.5 -19t-23 -23.5t-46.5 -12.5q-30 0 -49 9t-24.5 22.5t-8 29.5t0.5 30l6 126q-19 0 -23.5 1.5t-4.5 10.5t16 21
q43 29 70 74q8 12 14 12q12 0 12 -29v-56z" />
    <glyph glyph-name="dollar.oldstyle" unicode="&#xf724;" horiz-adv-x="417" 
d="M191 17l2 165q-75 39 -112.5 74t-37.5 84q0 52 40.5 89.5t112.5 42.5v16q0 17 2.5 21.5t14.5 4.5t14.5 -5t2.5 -21l-1 -15q60 -2 100.5 -27.5t40.5 -62.5q0 -20 -12 -34t-30 -14t-36 11.5t-18 39.5q0 2 2.5 16t2.5 17q0 9 -11.5 14t-21.5 6.5t-17 1.5l-2 -143
q93 -48 125.5 -81t32.5 -85q0 -18 -6.5 -38t-22 -44.5t-50.5 -42t-84 -21.5v-63q-1 -10 -1.5 -14t-4 -8t-11.5 -4q-7 0 -10.5 3.5t-4 9t-0.5 18.5l1 57q-68 2 -115 32t-47 75q0 30 14.5 42t32.5 12q16 0 31.5 -11t15.5 -38q0 -4 -4 -23.5t-4 -22.5q0 -19 26 -26.5t50 -7.5z
M225 164l-2 -144q35 7 51.5 24t16.5 37q0 44 -66 83zM195 316l1 123q-20 -4 -38.5 -18.5t-18.5 -37.5q0 -34 56 -67z" />
    <glyph glyph-name="zero.oldstyle" unicode="&#xf730;" horiz-adv-x="508" 
d="M253 457q54 0 95 -18.5t63.5 -45t37 -61t18.5 -61t4 -51.5q0 -27 -5 -55.5t-19.5 -62t-37.5 -58.5t-62.5 -42t-90.5 -17q-63 0 -108.5 24t-68 62t-32.5 75t-10 73q0 99 58.5 168.5t157.5 69.5zM255 433q-23 0 -38.5 -16t-26.5 -67t-11 -139q0 -202 73 -202q25 0 41 15.5
t23.5 47t10 65.5t2.5 85q0 27 -0.5 43t-2 45t-6.5 47t-13 37.5t-21 29t-31 9.5z" />
    <glyph glyph-name="one.oldstyle" unicode="&#xf731;" horiz-adv-x="368" 
d="M255 285v-176q0 -56 4 -65.5t27 -9.5q43 0 51 -2t8 -14q0 -13 -4.5 -17t-18.5 -4q-11 0 -66 1.5t-64 1.5q-10 0 -61.5 -1.5t-60.5 -1.5q-14 0 -19 3.5t-5 13.5q0 15 7 18t35 3q31 0 36 7q3 4 3 40v290q0 21 -14 21q-5 0 -28 -2.5t-27 -2.5q-17 0 -17 21q0 12 9 15t60 9
q82 9 121 20q16 4 19 4q4 0 8.5 -4.5t4.5 -11.5q0 -3 -2.5 -31t-2.5 -34q-3 -48 -3 -91z" />
    <glyph glyph-name="two.oldstyle" unicode="&#xf732;" horiz-adv-x="451" 
d="M186 115h71q99 0 138 9q15 5 19 5q5 0 11 -9t6 -12q0 -1 -5.5 -15t-12 -31t-7.5 -21q-2 -5 -7.5 -27t-10.5 -41.5t-6 -21.5q-4 -7 -15 -7q-20 0 -20 15q0 3 2 16.5t2 15.5q0 6 -3 8.5t-20.5 4.5t-55.5 2q-105 0 -191 -8q-42 -6 -44 -6q-18 0 -18 15t37 45q9 8 35.5 29
t35 28t30 25.5t29 26.5t24 25t22.5 27.5t16 26.5t14 30t7 30.5t3 34.5q0 40 -19 65t-56 25q-39 0 -62 -26t-23 -55q0 -26 13 -41t32 -15q3 0 14.5 1.5t12.5 1.5q13 0 13 -14q0 -15 -26.5 -29t-52.5 -14q-33 0 -57.5 22t-24.5 57q0 53 56 98.5t161 45.5q48 0 82.5 -13
t50 -34.5t22 -40t6.5 -36.5q0 -35 -16.5 -65t-52.5 -57.5t-69.5 -47t-89.5 -48.5z" />
    <glyph glyph-name="three.oldstyle" unicode="&#xf733;" horiz-adv-x="458" 
d="M241 185q2 0 14 1t18 1q66 0 106 -36.5t40 -93.5q0 -36 -19.5 -77t-55 -78.5t-94.5 -62t-129 -24.5q-18 0 -35 2t-44 9t-43.5 26t-16.5 47q0 29 18 46t42 17q20 0 36 -12t16 -34q0 -11 -7 -33q-4 -14 -4 -19q0 -10 10.5 -15.5t23.5 -5.5q57 0 102 65.5t45 156.5
q0 93 -44 93q-12 0 -26 -16q-8 -8 -15 -8q-8 0 -23 7t-15 17q0 8 6.5 12.5t30.5 14.5q93 39 93 137q0 48 -21 75.5t-51 27.5q-35 0 -58 -22.5t-23 -57.5q0 -9 2.5 -21t14 -28t31.5 -16q13 0 17 -1.5t4 -9.5q0 -16 -21 -24.5t-44 -8.5q-39 0 -60 22t-21 52q0 58 62.5 102.5
t154.5 44.5q70 0 106.5 -30.5t36.5 -76.5q0 -26 -12 -50t-26.5 -39.5t-40.5 -32t-41 -24.5t-40 -19z" />
    <glyph glyph-name="four.oldstyle" unicode="&#xf734;" horiz-adv-x="481" 
d="M377 43h66q20 -1 24 -3.5t4 -15.5q0 -20 -4 -23.5t-26 -3.5h-64v-90q0 -33 4 -40t24 -8q27 -1 33 -3.5t6 -15.5q0 -8 -1 -11.5t-5.5 -6t-13.5 -2.5q-10 0 -64.5 1.5t-63.5 1.5q-8 0 -51 -1.5t-50 -1.5q-21 0 -21 17q0 15 7.5 18t39.5 4q24 0 28.5 8t4.5 47v83h-214
q-13 0 -18.5 0.5t-10.5 4t-5 10.5q0 8 24 38l300 380q26 32 38 32q16 0 16 -20q0 -45 -2 -63q-5 -182 -5 -336zM66 43h188v93q0 94 5 152z" />
    <glyph glyph-name="five.oldstyle" unicode="&#xf735;" horiz-adv-x="476" 
d="M127 281v-90q66 42 140 42q81 0 123.5 -47t42.5 -116q0 -100 -84 -177.5t-206 -77.5q-16 0 -30.5 1.5t-41 8.5t-42.5 25.5t-16 47.5q0 26 18 44t44 18q24 0 37.5 -15t13.5 -33q0 -17 -10 -31q-12 -15 -12 -19q0 -8 11 -13.5t27 -5.5q60 0 104.5 63t44.5 150q0 59 -22 96
t-68 37q-28 0 -47 -13.5t-24.5 -25.5t-7.5 -22q-4 -30 -7 -37t-12 -7q-13 0 -27 10t-14 19q0 3 6.5 17.5t6.5 16.5q6 19 6 138q0 95 -4 130q-1 7 -1.5 13t-1 8.5t-0.5 5.5q0 14 13 21t27 7q7 0 9.5 -3.5t5.5 -15.5t22 -13q54 -4 92 -4q53 0 96 8q42 12 49 12q13 0 13 -20
q0 -110 -148 -110q-8 0 -52.5 1t-51.5 1q-16 0 -19 -6.5t-3 -38.5z" />
    <glyph glyph-name="six.oldstyle" unicode="&#xf736;" 
d="M189 358q48 57 116 57q71 0 121.5 -54.5t50.5 -148.5q0 -92 -53 -159.5t-154 -67.5q-110 0 -168.5 83t-58.5 212q0 154 78.5 250t214.5 96q72 0 108.5 -28t36.5 -60q0 -21 -14.5 -35.5t-37.5 -14.5q-24 0 -41.5 15.5t-17.5 41.5v35q-5 22 -39 22q-26 0 -47.5 -10.5
t-35 -25t-24.5 -38.5t-16.5 -43t-10 -48t-5.5 -42.5t-3 -36.5zM262 371q-25 0 -42 -17.5t-23.5 -45.5t-9 -48.5t-2.5 -41.5q0 -119 19 -164t57 -45q42 0 60 48t18 143q0 36 -3 63t-10.5 53.5t-23.5 40.5t-40 14z" />
    <glyph glyph-name="seven.oldstyle" unicode="&#xf737;" horiz-adv-x="459" 
d="M363 316h-202q-80 0 -91 -10q-5 -4 -13 -27q-5 -18 -18 -18q-22 0 -22 12q0 3 5 24l28 132q7 30 10.5 36t11.5 6q9 0 14 -2.5t6 -6t3 -11.5q3 -18 17.5 -22t59.5 -4h147q34 0 59 4q3 0 20.5 3t20.5 3q9 0 17.5 -9.5t8.5 -15.5l-20 -40q-36 -70 -97 -242q-8 -21 -26.5 -75
t-35 -98.5t-28.5 -74.5q-26 -65 -75 -65q-29 0 -44 19t-15 41q0 26 36 84q8 14 106.5 170.5t116.5 186.5z" />
    <glyph glyph-name="eight.oldstyle" unicode="&#xf738;" 
d="M336 358q69 -42 101 -82t32 -101q0 -81 -63 -135.5t-167 -54.5q-102 0 -149.5 47.5t-47.5 107.5q0 31 12 56.5t34.5 43.5t40 28t43.5 21q-47 28 -78 71.5t-31 99.5q0 71 50 118.5t152 47.5q90 0 137 -41.5t47 -94.5q0 -82 -113 -132zM308 373q57 40 57 118q0 51 -31 81
t-71 30q-45 0 -70 -27t-25 -64q0 -36 33 -69t107 -69zM196 273q-64 -41 -64 -133q0 -60 33 -93.5t85 -33.5q46 0 78 30.5t32 74.5q0 16 -3.5 27t-17.5 30t-49.5 43t-93.5 55z" />
    <glyph glyph-name="nine.oldstyle" unicode="&#xf739;" 
d="M321 84q-48 -57 -116 -57q-71 0 -121.5 54.5t-50.5 148.5q0 92 53 159.5t154 67.5q110 0 168.5 -83t58.5 -212q0 -154 -78.5 -250t-214.5 -96q-72 0 -108.5 28t-36.5 60q0 21 14.5 35.5t37.5 14.5q24 0 41.5 -15.5t17.5 -41.5v-35q5 -22 39 -22q26 0 47.5 10.5t35 25
t24.5 38.5t16.5 43t10 48t5.5 42.5t3 36.5zM248 71q25 0 42 17.5t23.5 45.5t9 48.5t2.5 41.5q0 119 -19 164t-57 45q-42 0 -60 -48t-18 -143q0 -36 3 -63t10.5 -53.5t23.5 -40.5t40 -14z" />
    <glyph glyph-name="cent.oldstyle" unicode="&#xf7a2;" horiz-adv-x="391" 
d="M241 -13v-83q0 -14 -1 -19t-5 -7.5t-14 -2.5t-12 5t-2 34v72q-85 0 -127.5 46.5t-42.5 106.5q0 65 47.5 114t122.5 57v102q0 15 0.5 21t4 10t11.5 4q13 0 15.5 -5.5t2.5 -29.5v-101q62 -2 93 -27t31 -52q0 -19 -11 -32t-32 -13q-18 0 -32 9t-14 27q0 3 2.5 18t2.5 17
q0 24 -40 24v-242q50 -4 82 34q11 14 19 14q7 0 12.5 -5t5.5 -11q0 -2 -2 -9t-10 -19.5t-19.5 -23.5t-35 -20.5t-52.5 -12.5zM207 49v226q-59 -25 -59 -119q0 -37 12 -62t22 -32t25 -13z" />
    <glyph glyph-name="fi" unicode="&#xfb01;" horiz-adv-x="524" 
d="M201 482v-87h106q49 0 103 6q5 0 19.5 2t17.5 2q14 0 14 -15q0 -10 -2 -64t-2 -64v-189q0 -25 3 -32t19 -7q22 0 27.5 -2.5t5.5 -16.5q0 -12 -4.5 -15t-14.5 -3q-23 0 -33 2q-35 1 -82 1q-2 0 -16 -0.5t-24 -0.5q-34 -2 -39 -2q-17 0 -17 18q0 12 5 15t23 5
q14 1 16.5 8.5t2.5 41.5v229q0 27 -11.5 33.5t-58.5 6.5h-58v-265q0 -38 4 -46.5t26 -10.5q16 0 16 -17q0 -18 -20 -18q-9 0 -52.5 1.5t-50.5 1.5t-41.5 -1.5t-40.5 -1.5q-12 0 -16 5t-4 16q0 17 20 17q22 0 26.5 9t4.5 45v265h-20q-18 0 -21.5 2.5t-3.5 17.5t4.5 18t20.5 3
h20q0 101 21 153q7 18 19.5 36t35.5 41t61.5 37t85.5 14q61 0 95.5 -24.5t34.5 -66.5q0 -28 -16.5 -43t-40.5 -15q-23 0 -40 14t-17 39q0 17 10 31q9 15 9 20q0 18 -37 18q-93 0 -93 -167z" />
    <glyph glyph-name="fl" unicode="&#xfb02;" horiz-adv-x="523" 
d="M366 641l47 26q18 9 27 9q6 0 9 -2t5 -8.5t2 -13.5v-23v-550q0 -30 4 -37.5t24 -7.5q11 0 15.5 -0.5t8 -5t3.5 -13.5q0 -18 -21 -18q-7 0 -43 1.5t-42 1.5q-8 0 -49.5 -1.5t-48.5 -1.5q-26 0 -26 20q0 10 5 13t18 4h3q15 1 18 10.5t3 40.5v472q0 23 -0.5 32.5t-5 27
t-16.5 25t-31 7.5q-20 0 -34.5 -10t-22 -25t-11.5 -42.5t-5 -51t-1 -62.5v-63h53q19 0 24 -2.5t5 -15.5q0 -17 -4.5 -20t-28.5 -3h-49v-292q0 -25 16 -27q18 -2 22.5 -5t4.5 -14t-3.5 -15t-16.5 -4q-8 0 -48.5 1.5t-47.5 1.5t-41.5 -1.5t-40.5 -1.5q-25 0 -25 19
q0 6 1.5 9.5t6.5 5.5t9 2.5t15 0.5q14 1 17 11t3 40v269h-23q-17 0 -20 2.5t-3 17.5t3.5 18t19.5 3h23q2 106 13 139q19 59 66.5 100.5t116.5 41.5q57 0 97 -35z" />
    <glyph glyph-name="a.superior" horiz-adv-x="314" 
d="M255 413l-3 -81q-1 -25 1 -31t11 -6q7 0 12 5q6 6 9 6q9 0 9 -12q0 -16 -17 -27.5t-43 -11.5q-50 0 -60 40q-45 -40 -84 -40q-28 0 -44 17.5t-16 41.5q0 26 16 46t41.5 31t46 17t39.5 8q2 22 2 35q0 22 -7.5 32.5t-31.5 10.5q-19 0 -23.5 -5.5t-5.5 -21.5q-2 -34 -33 -34
q-12 0 -22.5 7t-10.5 23q0 22 24.5 37.5t74.5 15.5q42 0 67.5 -8.5t35 -26.5t11.5 -31t1 -37zM173 396q-23 -4 -44 -18t-21 -39q0 -18 10 -27.5t24 -9.5q11 0 29 12q-1 36 2 82z" />
    <glyph glyph-name="o.superior" horiz-adv-x="342" 
d="M166 517q68 0 106.5 -40t38.5 -89q0 -52 -39 -92t-102 -40q-61 0 -100 39t-39 91q0 49 37.5 90t97.5 41zM171 497q-27 0 -36.5 -26t-9.5 -82q0 -59 9.5 -86t36.5 -27t36.5 25.5t9.5 100.5q0 53 -10 74t-36 21z" />
    <glyph glyph-name="one.superior" horiz-adv-x="349" 
d="M225 620v-164q0 -31 1 -34q0 -4 12 -4q28 0 34 -2t6 -12q0 -14 -18 -14q-7 0 -42 1t-41 1q-7 0 -44 -1t-43 -1q-16 0 -16 13q0 10 6.5 12t30.5 2q11 0 14 1t4 7q2 7 2 29v217q-1 11 -1.5 15t-3.5 5.5t-10 0.5l-21 -2q-23 -2 -23 12q0 10 5.5 12.5t28.5 4.5q68 7 81 10
q4 1 12 2.5t13.5 2.5t6.5 1q11 0 11 -10l-2 -20q-3 -36 -3 -85z" />
    <glyph glyph-name="two.superior" horiz-adv-x="349" 
d="M135 617l21 2q10 0 10 -9q0 -11 -18 -23t-43 -12q-33 0 -49 16t-16 37q0 39 42.5 73t103.5 34q55 0 85 -26.5t30 -63.5q0 -51 -58 -99q-21 -17 -111 -83q103 1 128 4q12 3 25 3q7 0 12 -5.5t5 -9.5q-12 -32 -13 -38q-1 -2 -6 -22t-6 -23q-4 -12 -19 -12q-17 0 -17 10
q0 2 1 9.5t1 8.5q0 4 -4 5q-5 1 -22 1q-110 0 -157 -7q-2 0 -12 -1t-11 -1q-14 0 -14 14q0 6 31 31q145 117 145 210q0 27 -13 45t-39 18q-23 0 -35.5 -14t-12.5 -33q0 -16 10 -27.5t26 -11.5z" />
    <glyph glyph-name="three.superior" horiz-adv-x="349" 
d="M208 588q42 -2 68.5 -21.5t26.5 -50.5q0 -49 -55 -91.5t-135 -42.5q-42 0 -67.5 12.5t-25.5 35.5q0 16 13.5 26.5t30.5 10.5q15 0 26.5 -7.5t11.5 -20.5q0 -2 -3.5 -14t-3.5 -14q0 -7 15 -7q32 0 59.5 33.5t27.5 82.5q0 46 -22 46q-5 0 -13 -8q-5 -5 -13 -5
q-7 0 -18.5 4.5t-11.5 11.5q0 6 5 9t23 9q55 20 55 71q0 20 -10 35.5t-30 15.5q-18 0 -31.5 -10t-13.5 -29q0 -13 6.5 -22t17.5 -9q8 -1 10.5 -1t5.5 -2.5t3 -6.5q0 -10 -15.5 -15.5t-30.5 -5.5q-26 0 -41.5 12.5t-15.5 30.5q0 34 42 59t99 25q43 0 68.5 -17t25.5 -45
q0 -48 -84 -85z" />
    <glyph glyph-name="emdash.alt" horiz-adv-x="570" 
d="M550 183h-530v40h530v-40z" />
    <glyph glyph-name="slash.frac" horiz-adv-x="66" 
d="M-206 12l440 632q10 13 13 14q4 1 25 1q14 0 14 -5q0 -4 -11 -21l-437 -628q-11 -15 -15.5 -18.5t-14.5 -3.5h-14q-14 0 -14 6q0 2 14 23z" />
    <glyph glyph-name="space.frac" horiz-adv-x="120" 
 />
    <glyph glyph-name="uni00A0.frac" horiz-adv-x="120" 
 />
    </font>
</defs>
</svg>
